<?xml version="1.0" standalone="no"?>
<!DOCTYPE svg PUBLIC "-//W3C//DTD SVG 1.1//EN" "http://www.w3.org/Graphics/SVG/1.1/DTD/svg11.dtd" >
<svg xmlns="http://www.w3.org/2000/svg">
<metadata></metadata>
<defs>
<font id="stalemateregular" horiz-adv-x="860" >
<font-face units-per-em="2048" ascent="1638" descent="-410" />
<missing-glyph horiz-adv-x="348" />
<glyph unicode="ff" horiz-adv-x="676" d="M539 63q40 0 70.5 16.5t54.5 42t42 57t33 61.5l6 -4q-8 -23 -24.5 -60t-42.5 -72t-62 -60.5t-84 -25.5q-14 0 -30 2.5t-33 12.5q25 -63 46 -123.5t36.5 -124.5t24 -134.5t8.5 -154.5q0 -53 -8.5 -96.5t-22.5 -75t-34 -48.5t-42 -17q-28 0 -49.5 12.5t-36 44.5t-22 86 t-7.5 137v606q-14 -24 -31.5 -46.5t-38.5 -40.5t-45.5 -29t-51.5 -11q-14 0 -30.5 2.5t-33.5 12.5q25 -63 46 -123.5t36.5 -124.5t24 -134.5t8.5 -154.5q0 -53 -8.5 -96.5t-22.5 -75t-34 -48.5t-42 -17q-27 0 -48.5 12.5t-36 44.5t-22 86t-7.5 137v668q0 39 0.5 73.5t0.5 68 t0.5 68.5t0.5 75q0 76 4.5 158t14.5 161t26.5 150t41.5 124.5t58.5 85t77.5 31.5q40 0 65 -46t25 -140q0 -68 -12.5 -139t-33 -140t-47 -135t-54.5 -124.5t-54.5 -108t-48.5 -86.5v-101q8 -57 41 -88t70 -31q31 0 55 10.5t43.5 27.5t34.5 39t28 46q0 28 0.5 62t1 78.5t1 100 t0.5 126.5q0 76 6 158t18.5 161t32.5 150t48 125t64.5 85.5t83.5 31.5q19 0 37 -11.5t32 -35t23 -58.5t9 -82q0 -82 -17.5 -167t-45.5 -167t-62 -157t-66 -137t-59 -107t-41 -66v-94q8 -57 40.5 -88t70.5 -31zM432 559q0 -29 -0.5 -62t-1.5 -64.5t-1.5 -60.5t-0.5 -50 q17 32 41.5 79t51 103.5t52 121.5t46 133t33 138t12.5 137q0 36 -3.5 68.5t-13 56.5t-26 38.5t-43.5 14.5q-28 0 -50 -25.5t-38 -71t-27 -107.5t-18 -134.5t-10 -153t-3 -161.5zM219 1155q-35 0 -58 -40.5t-36.5 -107.5t-20 -153t-9 -176.5t-3 -178.5t-2.5 -159 q30 58 64 132.5t63.5 158t48.5 171t19 171.5q0 36 -3.5 69t-11.5 58t-20.5 40t-30.5 15zM543 -469q0 79 -10 151t-26 138.5t-37 129t-42 122.5v-170q0 -72 -0.5 -144.5t0.5 -139.5t3.5 -125t7.5 -101t14.5 -67.5t23.5 -24.5q15 0 27.5 11.5t21 38t13 71t4.5 110.5zM205 -469 q0 79 -10 151t-26 138.5t-37 129t-42 122.5v-170q0 -72 -0.5 -144.5t0.5 -139.5t3.5 -125t7.5 -101t14.5 -67.5t23.5 -24.5q15 0 27.5 11.5t21 38t13 71t4.5 110.5z" />
<glyph unicode="fi" horiz-adv-x="598" d="M489 70q25 0 49.5 15t47 39t42 54.5t34.5 61.5l6 -4q-4 -10 -12 -30.5t-20 -44.5t-28.5 -49.5t-38 -46t-47 -34t-55.5 -13.5q-18 0 -34.5 6t-29 22t-21 43.5t-11.5 70.5q-14 -26 -32 -51t-40 -45.5t-48 -33t-56 -12.5q-14 0 -30.5 2.5t-33.5 12.5q25 -63 46 -123.5 t36.5 -124.5t24 -134.5t8.5 -154.5q0 -53 -8.5 -96.5t-22.5 -75t-34 -48.5t-42 -17q-27 0 -48.5 12.5t-36 44.5t-22 86t-7.5 137v684q0 28 1 108t1 222q0 76 6 158t18.5 161t32.5 150t48 125t65 85.5t84 31.5q18 0 36 -11.5t32.5 -35t23 -58.5t8.5 -82q0 -82 -17.5 -167 t-45.5 -167t-62 -157t-66 -137t-59 -107t-41 -66v-77q1 -32 11 -57.5t25.5 -43t35 -26.5t39.5 -9q33 0 58.5 11.5t45.5 30.5t35.5 43.5t28.5 50.5q0 36 2.5 74.5t7 70t11.5 52t16 20.5q8 0 15.5 -4.5t13 -9.5t8.5 -10.5t3 -6.5t-2.5 -10.5t-5.5 -31.5t-5.5 -57.5t-2.5 -88.5 q0 -71 18 -99t41 -28zM94 559q0 -29 -0.5 -62t-1.5 -64.5t-1.5 -60.5t-0.5 -50q17 32 41.5 79t51 103.5t52 121.5t46 133t33 138t12.5 137q0 36 -3.5 68.5t-13 56.5t-26 38.5t-43.5 14.5q-28 0 -50 -25.5t-38 -71t-27 -107.5t-18 -134.5t-10 -153t-3 -161.5zM205 -469 q0 79 -10 151t-26 138.5t-37 129t-42 122.5v-170q0 -72 -0.5 -144.5t0.5 -139.5t3.5 -125t7.5 -101t14.5 -67.5t23.5 -24.5q15 0 27.5 11.5t21 38t13 71t4.5 110.5zM430 664q25 0 36 -17.5t11 -42.5q0 -29 -16 -45t-39 -16q-17 0 -33 13t-16 42q0 32 16 49t41 17z" />
<glyph unicode="fl" horiz-adv-x="723" d="M614 72q31 0 57 18t46.5 42t35.5 49t23 40l6 -4q-2 -7 -15.5 -37.5t-37 -65t-56 -62t-73.5 -27.5q-56 0 -102 42.5t-72 116.5q-16 -26 -41 -55t-55.5 -54t-65 -41t-69.5 -16q-14 0 -30.5 2.5t-33.5 12.5q25 -63 46 -123.5t36.5 -124.5t24 -134.5t8.5 -154.5 q0 -53 -8.5 -96.5t-22.5 -75t-34 -48.5t-42 -17q-27 0 -48.5 12.5t-36 44.5t-22 86t-7.5 137v684q0 28 1 108t1 222q0 76 4.5 158t14.5 161t26.5 150t41.5 125t58.5 85.5t77.5 31.5q40 0 65 -46.5t25 -140.5q0 -68 -12.5 -138.5t-33 -139.5t-47 -135t-54.5 -124.5 t-54.5 -108.5t-48.5 -87v-160q3 -29 13.5 -51.5t26 -38t34 -23.5t37.5 -8q36 0 68.5 13.5t60 35t50 48.5t38.5 55q-25 72 -38 168.5t-13 214.5q0 72 5 151.5t16 156.5t27.5 147t39.5 123t53 84.5t67 31.5q56 0 81.5 -67t25.5 -207q0 -82 -12 -183.5t-41 -207.5 q-37 -133 -79 -227t-71 -150q23 -79 57 -128.5t78 -49.5zM428 668q0 -42 2.5 -89.5t7.5 -97t13 -99.5t20 -95q21 45 49.5 113.5t54.5 154.5t44 186t18 207q0 68 -5.5 124.5t-16.5 97t-27.5 63t-38.5 22.5q-21 0 -38 -29.5t-30.5 -77.5t-23.5 -110t-16.5 -127t-9.5 -128.5 t-3 -114.5zM94 559q0 -37 -1 -78t-3 -80q30 58 64 132.5t63.5 158t48.5 171t19 171.5q0 36 -3.5 69t-11.5 58.5t-20.5 40.5t-30.5 15q-28 0 -48.5 -26t-34.5 -72t-22 -108.5t-12.5 -136t-6 -154t-1.5 -161.5zM205 -469q0 79 -10 151t-26 138.5t-37 129t-42 122.5v-170 q0 -72 -0.5 -144.5t0.5 -139.5t3.5 -125t7.5 -101t14.5 -67.5t23.5 -24.5q15 0 27.5 11.5t21 38t13 71t4.5 110.5z" />
<glyph unicode="ffi" horiz-adv-x="936" d="M827 70q25 0 49.5 15t46.5 39t41.5 54.5t34.5 61.5l7 -4q-4 -10 -12 -30.5t-20 -44.5t-28.5 -49.5t-38 -46t-47 -34t-55.5 -13.5q-18 0 -34.5 6t-29 22t-21 43.5t-11.5 70.5q-14 -26 -32 -51t-40.5 -45.5t-48.5 -33t-56 -12.5q-14 0 -30 2.5t-33 12.5q25 -63 46 -123.5 t36.5 -124.5t24 -134.5t8.5 -154.5q0 -53 -8.5 -96.5t-22.5 -75t-34 -48.5t-42 -17q-28 0 -49.5 12.5t-36 44.5t-22 86t-7.5 137v606q-14 -24 -31.5 -46.5t-38.5 -40.5t-45.5 -29t-51.5 -11q-14 0 -30.5 2.5t-33.5 12.5q25 -63 46 -123.5t36.5 -124.5t24 -134.5t8.5 -154.5 q0 -53 -8.5 -96.5t-22.5 -75t-34 -48.5t-42 -17q-27 0 -48.5 12.5t-36 44.5t-22 86t-7.5 137v668q0 39 0.5 73.5t0.5 68t0.5 68.5t0.5 75q0 76 4.5 158t14.5 161t26.5 150t41.5 124.5t58.5 85t77.5 31.5q40 0 65 -46t25 -140q0 -68 -12.5 -139t-33 -140t-47 -135 t-54.5 -124.5t-54.5 -108t-48.5 -86.5v-101q8 -57 41 -88t70 -31q31 0 55 10.5t43.5 27.5t34.5 39t28 46q0 45 0.5 87t1 85t1 90.5t0.5 104.5q0 76 6 158t18.5 161t32.5 150t48 125t64.5 85.5t83.5 31.5q19 0 37 -11.5t32 -35t23 -58.5t9 -82q0 -82 -17.5 -167t-45.5 -167 t-62 -157t-66 -137t-59 -107t-41 -66v-94q8 -57 40.5 -88t70.5 -31q33 0 58.5 11.5t45.5 30.5t35.5 43.5t28.5 50.5q0 36 2 74.5t6.5 70t11.5 52t16 20.5t16.5 -4.5t13 -9.5t8.5 -10.5t3 -6.5t-2.5 -10.5t-5.5 -31.5t-5.5 -57.5t-2.5 -88.5q0 -71 17.5 -99t41.5 -28z M432 559q0 -29 -0.5 -62t-1.5 -64.5t-1.5 -60.5t-0.5 -50q17 32 41.5 79t51 103.5t52 121.5t46 133t33 138t12.5 137q0 36 -3.5 68.5t-13 56.5t-26 38.5t-43.5 14.5q-28 0 -50 -25.5t-38 -71t-27 -107.5t-18 -134.5t-10 -153t-3 -161.5zM94 498q0 -37 -1 -78.5t-3 -79.5 q30 58 64 132.5t63.5 158t48.5 171t19 171.5q0 36 -3.5 69t-11.5 58t-20.5 40t-30.5 15q-28 0 -48.5 -26t-34.5 -72t-22 -108.5t-12.5 -135.5t-6 -153.5t-1.5 -161.5zM543 -469q0 79 -10 151t-26 138.5t-37 129t-42 122.5v-170q0 -72 -0.5 -144.5t0.5 -139.5t3.5 -125 t7.5 -101t14.5 -67.5t23.5 -24.5q15 0 27.5 11.5t21 38t13 71t4.5 110.5zM205 -469q0 79 -10 151t-26 138.5t-37 129t-42 122.5v-170q0 -72 -0.5 -144.5t0.5 -139.5t3.5 -125t7.5 -101t14.5 -67.5t23.5 -24.5q15 0 27.5 11.5t21 38t13 71t4.5 110.5zM768 664q25 0 36 -17.5 t11 -42.5q0 -29 -16 -45t-39 -16q-17 0 -33 13t-16 42q0 32 16 49t41 17z" />
<glyph unicode="ffl" horiz-adv-x="1071" d="M963 72q30 0 56 18t46.5 42t35.5 49t23 40l6 -4q-2 -7 -15.5 -37.5t-37 -65t-56 -62t-73.5 -27.5q-28 0 -54 12t-49 34t-41 51t-30 64q-16 -26 -41 -55.5t-55.5 -54.5t-65 -41.5t-69.5 -16.5q-14 0 -30.5 2.5t-33.5 12.5q25 -63 46 -123.5t36.5 -124.5t24 -134.5 t8.5 -154.5q0 -53 -8.5 -96.5t-22.5 -75t-34 -48.5t-42 -17q-27 0 -48.5 12.5t-36 44.5t-22 86t-7.5 137v625q-14 -26 -32 -52t-40.5 -47t-49 -34t-56.5 -13q-14 0 -30.5 2.5t-33.5 12.5q25 -63 46 -123.5t36.5 -124.5t24 -134.5t8.5 -154.5q0 -53 -8.5 -96.5t-22.5 -75 t-34 -48.5t-42 -17q-27 0 -48.5 12.5t-36 44.5t-22 86t-7.5 137v668q0 39 0.5 73.5t0.5 68t0.5 68.5t0.5 75q0 76 4.5 158t14.5 161t26.5 150t41.5 124.5t58.5 85t77.5 31.5q40 0 65 -46t25 -140q0 -68 -12.5 -139t-33 -140t-47 -135t-54.5 -124.5t-54.5 -108t-48.5 -86.5 v-101q8 -57 41 -88t70 -31q34 0 60 12.5t46.5 32.5t36 46t29.5 53q0 40 1 122.5t1 223.5q0 76 4.5 158t14.5 161t26.5 150t41.5 125t58.5 85.5t77.5 31.5q40 0 65 -46.5t25 -140.5q0 -68 -12.5 -138.5t-33 -139.5t-47 -135t-54.5 -124.5t-54.5 -108.5t-48.5 -87v-162 q4 -29 15 -51t26 -37t33.5 -23t36.5 -8q36 0 68.5 13.5t60 35t50 48.5t38.5 55q-25 72 -38 168.5t-13 214.5q0 72 5 151.5t16 156.5t27.5 147t39.5 123t53 84.5t68 31.5q55 0 80.5 -67t25.5 -207q0 -82 -12 -183.5t-41 -207.5q-37 -133 -79 -227t-71 -150q12 -39 26 -72 t30.5 -56.5t36.5 -36.5t43 -13zM776 668q0 -42 2.5 -89.5t7.5 -97t13 -99.5t20 -95q21 45 49.5 113.5t54.5 154.5t44 186t18 207q0 68 -5.5 124.5t-16.5 97t-27.5 63t-38.5 22.5q-21 0 -38 -29.5t-30.5 -77.5t-23.5 -110t-16.5 -127t-9.5 -128.5t-3 -114.5zM94 498 q0 -37 -1 -78.5t-3 -79.5q30 58 64 132.5t63.5 158t48.5 171t19 171.5q0 36 -3.5 69t-11.5 58t-20.5 40t-30.5 15q-28 0 -48.5 -26t-34.5 -72t-22 -108.5t-12.5 -135.5t-6 -153.5t-1.5 -161.5zM442 559q0 -37 -1 -78t-3 -80q30 58 64 132.5t63.5 158t48.5 171t19 171.5 q0 36 -3.5 69t-11.5 58.5t-20.5 40.5t-30.5 15q-28 0 -48 -26t-34 -72t-22.5 -108.5t-13 -136t-6 -154t-1.5 -161.5zM205 -469q0 79 -10 151t-26 138.5t-37 129t-42 122.5v-170q0 -72 -0.5 -144.5t0.5 -139.5t3.5 -125t7.5 -101t14.5 -67.5t23.5 -24.5q15 0 27.5 11.5t21 38 t13 71t4.5 110.5zM553 -469q0 79 -10 151t-26 138.5t-36.5 129t-42.5 122.5v-170q0 -72 -0.5 -144.5t0.5 -139.5t3.5 -125t7.5 -101t14.5 -67.5t23.5 -24.5q15 0 27.5 11.5t21 38t13 71t4.5 110.5z" />
<glyph unicode="or" horiz-adv-x="928" d="M170 12q-66 0 -108 43.5t-42 126.5q0 56 21 103.5t54.5 82t74.5 53.5t80 19q63 0 101 -43t38 -127q0 -8 -1 -15t-1 -15h12q18 0 39.5 7t41 22.5t33.5 41t17 62.5q-21 14 -33 38t-12 58q0 19 8 32t23 13q22 0 31.5 -25.5t11.5 -68.5q6 -3 12.5 -3.5t16.5 -0.5q26 0 48 3 t44 3q25 0 40 -10.5t22.5 -25t9.5 -29.5t2 -25q0 -12 -3 -38t-6.5 -54l-6.5 -52t-3 -32q0 -20 3 -36.5t11 -29.5t22.5 -20t37.5 -7q42 0 88 42t86 116l6 -4q-11 -37 -34 -75.5t-53 -70.5t-64 -52.5t-66 -20.5q-27 0 -43.5 11.5t-25.5 29t-12 38t-3 38.5q0 22 4 51.5t8.5 59 t8.5 55.5t4 41q0 13 -4.5 21t-11.5 12.5t-14 5.5t-11 1q-11 0 -28.5 -3t-49.5 -3q-11 0 -20 1t-17 3q-5 -36 -19.5 -63t-36 -45.5t-47.5 -27.5t-53 -9h-18q-9 -45 -30.5 -82.5t-51 -64.5t-63.5 -41.5t-68 -14.5zM205 63q24 0 47 10.5t41 31t28.5 50.5t10.5 70q0 33 -8 62.5 t-23.5 51.5t-40 35t-57.5 13q-23 0 -46 -8.5t-41 -27t-29 -47t-11 -68.5q0 -32 8 -62.5t23.5 -55.5t40 -40t57.5 -15zM522 459q0 -5 1.5 -10.5t6.5 -10.5q-1 5 -1.5 10t-1.5 8q-1 4 -1 7q-4 0 -4 -4z" />
<glyph unicode="wr" horiz-adv-x="1147" d="M610 238q28 0 52.5 11t42.5 30t30 43.5t15 50.5q-45 28 -45 96q0 19 7.5 32t22.5 13q22 0 31.5 -25.5t11.5 -68.5q6 -2 13 -3t16 -1q26 0 48 3t44 3q25 0 40 -10.5t22.5 -25t9.5 -29.5t2 -25q0 -12 -3 -38t-6.5 -54l-6.5 -52t-3 -32q0 -20 3 -36.5t11 -29.5t22.5 -20 t37.5 -7q42 0 88 42t86 116l6 -4q-11 -37 -34 -75.5t-53 -70.5t-64 -52.5t-66 -20.5q-27 0 -43.5 11.5t-25.5 29t-12 38t-3 38.5q0 22 4 51.5t8.5 59t8.5 55.5t4 41q0 13 -4.5 21t-11.5 12.5t-14 5.5t-11 1q-11 0 -28.5 -3t-49.5 -3q-11 0 -20.5 1t-18.5 3q-6 -29 -23 -57.5 t-42 -51.5t-56.5 -37.5t-66.5 -14.5q-23 0 -41 6q-17 -39 -38 -76t-46 -65.5t-52.5 -46t-56.5 -17.5q-23 0 -35.5 24t-19.5 60t-10.5 78t-7.5 78t-10 60t-19 24q-9 0 -21.5 -17.5t-24.5 -41t-22.5 -48t-17.5 -39.5q-11 -23 -19.5 -41t-16.5 -33t-15.5 -28.5t-16.5 -26.5 q-5 -8 -12.5 -13t-15.5 -5q-12 0 -19 20t-10.5 46t-4.5 52.5t-1 40.5q0 16 0.5 39t1.5 45t1.5 40t0.5 24q0 18 -1.5 30t-3.5 19t-3.5 10.5t-1.5 5.5q0 8 8.5 15t13.5 10t16 10.5t17 7.5q5 0 8 -8t4.5 -19t1.5 -23.5v-22.5q0 -26 -1.5 -53.5t-3 -53t-2.5 -47t-1 -35.5 q0 -26 2 -44.5t10 -18.5q5 0 13.5 13t18.5 32t20 40t18 36q10 20 21.5 44.5t24.5 46t28 36t32 14.5q23 0 33 -16t15 -43q1 -10 3 -35t5.5 -56t7.5 -64.5t10.5 -61.5t15 -46t19.5 -18q14 0 32 14t37 38t37 55.5t33 66.5q-24 19 -34.5 50.5t-10.5 66.5q0 31 7 56t17.5 43 t24 28t25.5 10q23 0 33 -23.5t10 -52.5q0 -26 -9 -65t-26 -84q11 -5 23 -6.5t26 -1.5zM500 360q0 -34 9.5 -59.5t31.5 -42.5q8 26 13 53t5 51q0 60 -27 60q-11 0 -21.5 -16.5t-10.5 -45.5zM745 446q0 -3 1.5 -4.5l3.5 -3.5q-1 5 -1.5 10t-1.5 8q-1 4 -2 7q-3 0 -4.5 -3 t4.5 -14z" />
<glyph unicode="ss" horiz-adv-x="635" d="M-4 121q34 54 61 110.5t45 110.5q-24 34 -40.5 69.5t-16.5 73.5q0 37 7 67t19 51t27 32.5t31 11.5q22 0 35.5 -22t11.5 -56q-2 -40 -10.5 -86t-24.5 -94q20 -23 41.5 -45.5t39 -46.5t29 -51.5t11.5 -59.5q0 -27 -8 -58t-21 -52q59 62 102 128.5t64 125.5q-24 32 -40.5 67 t-16.5 72q0 34 7 62.5t19 49t27 31.5t31 11q22 0 35.5 -21t11.5 -55t-10 -77.5t-25 -92.5q21 -22 42.5 -43t39 -44t28.5 -48.5t11 -55.5q0 -42 -16 -77.5t-38.5 -61.5t-47 -40.5t-41.5 -14.5q-31 0 -47.5 14t-16.5 31q0 14 5 29t11.5 27t13 20t9.5 8q5 0 6.5 -3.5t1.5 -6.5 q0 -5 -1 -14t-1 -15q0 -17 11 -28t34 -11q11 0 25 5t27 16t21.5 27.5t8.5 39.5q0 21 -10 42.5t-26 44t-35.5 46t-38.5 47.5q-9 -21 -27 -53t-41.5 -68.5t-52 -73t-58.5 -66t-61 -48t-59 -18.5q-31 0 -47.5 16t-16.5 35q0 15 5 30t11.5 27.5t13 20.5t9.5 8q5 0 6.5 -3.5 t1.5 -6.5q0 -5 -1 -14t-1 -15q0 -17 11.5 -28t37.5 -11q11 0 25 5t27 16t21.5 27.5t8.5 39.5q0 21 -10 44t-26 47t-35.5 49t-38.5 51q-23 -57 -50.5 -110.5t-58.5 -98.5zM72 537q0 -38 14 -67.5t37 -57.5q8 31 11 59.5t3 54.5q0 70 -31 70q-9 0 -21.5 -13.5t-12.5 -45.5z M369 516q0 -35 14.5 -64t36.5 -55q8 31 11 58t3 49q0 67 -31 67q-9 0 -21.5 -13t-12.5 -42z" />
<glyph unicode="cr" horiz-adv-x="887" d="M639 422q25 0 40 -10.5t22.5 -25t9.5 -29.5t2 -25q0 -12 -3 -38t-6.5 -54l-6.5 -52t-3 -32q0 -20 3 -36.5t11 -29.5t22.5 -20t37.5 -7q42 0 88 42t86 116l6 -4q-11 -37 -34 -75.5t-53 -70.5t-64 -52.5t-66 -20.5q-27 0 -43.5 11.5t-25.5 29t-12 38t-3 38.5q0 22 4 51.5 t8.5 59t8.5 55.5t4 41q0 13 -4.5 21t-11.5 12.5t-14 5.5t-11 1q-11 0 -28.5 -3t-49.5 -3q-9 0 -18.5 1t-18.5 3q-17 -90 -47 -156.5t-70 -110.5t-89 -65.5t-103 -21.5q-40 0 -74.5 13t-59.5 36t-39 55.5t-14 71.5q0 53 18.5 101.5t51.5 85t78 58.5t98 22q15 0 31 -4 t29 -11.5t21.5 -18.5t8.5 -26q0 -32 -19 -55.5t-42 -40.5l-10 10q8 9 13 24t5 29q0 20 -13.5 37t-53.5 17q-38 0 -66.5 -16.5t-47.5 -43t-28.5 -60t-9.5 -67.5q0 -29 8 -58.5t25 -53t44.5 -38t65.5 -14.5q58 0 100 20t73 60t52.5 98.5t39.5 135.5q-48 28 -48 96q0 19 8 32 t23 13q22 0 31.5 -25.5t11.5 -68.5q6 -2 13 -3t16 -1q26 0 48 3t44 3zM485 463q-4 0 -4.5 -3t1 -7t3.5 -8.5t4 -6.5q-1 5 -1.5 10t-1.5 8q-1 4 -1 7z" />
<glyph unicode="ur" horiz-adv-x="965" d="M717 422q25 0 40 -10.5t22.5 -25t9.5 -29.5t2 -25q0 -12 -3 -38t-6.5 -54l-6.5 -52t-3 -32q0 -20 3 -36.5t11 -29.5t22.5 -20t37.5 -7q42 0 88 42t86 116l6 -4q-11 -37 -34 -75.5t-53 -70.5t-64 -52.5t-66 -20.5q-27 0 -43.5 11.5t-25.5 29t-12 38t-3 38.5q0 22 4 51.5 t8.5 59t8.5 55.5t4 41q0 13 -4.5 21t-11.5 12.5t-14 5.5t-11 1q-11 0 -28.5 -3t-49.5 -3q-10 0 -19 1t-18 3q-15 -77 -31.5 -139.5t-38 -107t-50.5 -69t-68 -24.5q-26 0 -43.5 9.5t-28.5 31.5t-17 57.5t-8 86.5q0 7 0.5 17t0.5 20t0.5 17.5t0.5 10.5q0 7 -2.5 9t-5.5 -11 q-2 -4 -8 -23t-17 -45.5t-26.5 -57t-36.5 -56t-47 -42.5t-57 -17q-47 0 -66.5 25.5t-19.5 76.5q0 15 3 43.5t7 59t7 58t3 42.5q0 43 -22 43q-5 0 -9 -1t-6 -1q-8 0 -8 8q0 3 8.5 10.5t36.5 7.5q32 0 44.5 -24t12.5 -56q0 -14 -2.5 -39.5t-5.5 -53.5t-5.5 -53.5t-2.5 -37.5 q0 -38 12.5 -53.5t34.5 -15.5q21 0 41.5 16.5t38 40t30.5 48.5t21 42q8 22 14 48t11.5 52.5t9.5 50.5t8 42q2 9 19 12.5t34 3.5q9 0 9 -6q0 -25 -1 -68t-1 -88q0 -56 2 -94.5t8.5 -62t18.5 -34t32 -10.5q19 0 36.5 16.5t32 44t26 61.5t21 69t15.5 67t10 56q-47 28 -47 96 q0 19 7.5 32t23.5 13q22 0 31.5 -25.5t11.5 -68.5q6 -2 12.5 -3t16.5 -1q26 0 48 3t44 3zM563 463q-4 0 -4.5 -3t0.5 -7t3.5 -8.5t4.5 -6.5q-1 5 -1.5 10t-1.5 8q-1 4 -1 7z" />
<glyph unicode="ws" horiz-adv-x="1006" d="M352 0q-23 0 -35.5 24t-19.5 60t-10.5 78t-7.5 78t-10 60t-19 24q-9 0 -21.5 -17.5t-24.5 -41t-22.5 -48t-17.5 -39.5q-11 -23 -19.5 -41t-16.5 -33t-15.5 -28.5t-16.5 -26.5q-5 -8 -12.5 -13t-15.5 -5q-12 0 -19 20t-10.5 46t-4.5 52.5t-1 40.5q0 16 0.5 39t1.5 45 t1.5 40t0.5 24q0 18 -1.5 30t-3.5 19t-3.5 10.5t-1.5 5.5q0 8 8.5 15t13.5 10t16 10.5t17 7.5q5 0 8 -8t4.5 -19t1.5 -23.5v-22.5q0 -26 -1.5 -53.5t-3 -53t-2.5 -47t-1 -35.5q0 -26 2 -44.5t10 -18.5q5 0 13.5 13t18.5 32t20 40t18 36q10 20 21.5 44.5t24.5 46t28 36 t32 14.5q23 0 33 -16t15 -43q1 -10 3 -35t5.5 -56t7.5 -64.5t10.5 -61.5t15 -46t19.5 -18q14 0 32 14t37 38t37 55.5t33 66.5q-24 19 -34.5 50.5t-10.5 66.5q0 31 7 56t17.5 43t24 28t25.5 10q23 0 33 -23.5t10 -52.5q0 -26 -9 -65t-26 -84q11 -5 23 -6.5t26 -1.5 q28 0 51.5 12.5t44 33t39.5 47t37 54.5l15 -10q-13 -19 -32 -49t-44.5 -58t-59 -48.5t-75.5 -20.5q-23 0 -41 6q-17 -39 -38 -76t-46 -65.5t-52.5 -46t-56.5 -17.5zM500 360q0 -34 9.5 -59.5t31.5 -42.5q8 26 13 53t5 51q0 60 -27 60q-11 0 -21.5 -16.5t-10.5 -45.5z M770 342q-25 34 -41 69.5t-16 73.5q0 37 7 67t19 51t27 32.5t31 11.5q21 0 35 -22t12 -56q-2 -40 -13 -81.5t-28 -88.5q20 -23 42.5 -47t41 -50t31 -55t12.5 -61q0 -44 -16.5 -81t-40 -64t-48.5 -42t-43 -15q-31 0 -47 16t-16 35q0 15 5 30t11.5 27.5t13 20.5t9.5 8 q5 0 6.5 -3.5t1.5 -6.5q0 -5 -1 -14t-1 -15q0 -17 11.5 -28t37.5 -11q11 0 25 5t27 16t21.5 27.5t8.5 39.5q0 21 -12.5 47t-31 53.5t-40.5 56t-41 54.5zM739 537q0 -38 12 -64.5t35 -54.5q10 26 16.5 54t6.5 54q0 35 -9.5 52.5t-25.5 17.5q-9 0 -22 -13.5t-13 -45.5z" />
<glyph unicode=" "  horiz-adv-x="348" />
<glyph unicode="&#x09;" horiz-adv-x="348" />
<glyph unicode="&#xa0;" horiz-adv-x="348" />
<glyph unicode="!" horiz-adv-x="348" d="M139 1184q-2 3 -2 7v7q0 22 11.5 34.5t31.5 12.5q13 0 23 -6t10 -25q0 -56 -2 -126.5t-5.5 -150.5t-8 -165.5t-9 -172t-8.5 -169.5t-6 -158q2 -3 2 -5.5v-4.5q0 -12 -10 -20.5t-21 -8.5q-5 0 -8.5 3.5t-3.5 9.5q-2 164 -2 336.5v349.5q0 63 1.5 126t6.5 126zM160 154 q25 0 36 -17.5t11 -42.5q0 -29 -16 -45t-39 -16q-17 0 -33.5 13t-16.5 42q0 32 16.5 49t41.5 17z" />
<glyph unicode="&#x22;" horiz-adv-x="414" d="M166 979q0 -8 -14.5 -13t-26.5 -5q-16 0 -16 8q0 59 -3.5 110.5t-3.5 110.5q0 29 1.5 60.5t5.5 60.5q0 4 6 9t14 9.5t17.5 7t15.5 2.5t6 -4q-6 -68 -6 -139q0 -60 2 -112t2 -105zM309 979q0 -8 -14 -13t-27 -5q-16 0 -16 8q0 59 -3 110.5t-3 110.5q0 29 1.5 60.5 t4.5 60.5q0 4 6 9t14.5 9.5t17.5 7t15 2.5t6 -4q-6 -68 -6 -139q0 -60 2 -112t2 -105z" />
<glyph unicode="#" d="M158 805q-6 0 -4.5 8.5t7.5 18t14 18t15 8.5h160q23 74 48 148t53 149q-2 11 10 16t25.5 6t23.5 -2.5t4 -9.5q-67 -154 -119 -305h203q20 79 43 153t49 142q6 10 17.5 15.5t23 6.5t19 -2t4.5 -10q-32 -77 -59 -153t-50 -152q85 -3 174 -6q6 0 3.5 -8.5t-8.5 -18t-14 -18 t-14 -8.5q-40 2 -79.5 4t-77.5 2q-23 -75 -42.5 -151t-37.5 -150l178 -6q5 0 3 -8.5t-8 -18.5t-14 -18.5t-14 -8.5q-38 2 -77.5 4.5t-79.5 2.5q-20 -81 -40.5 -160t-41.5 -158q-4 -12 -16 -23t-23 -16t-18 -1t-1 22q26 75 51 161t48 177q-117 3 -228 0q-21 -78 -42.5 -156.5 t-43.5 -163.5q1 -8 -9 -16t-21.5 -12t-20.5 -2.5t-6 12.5q26 86 52 170t50 168q-42 -2 -81.5 -2t-77.5 -2q-12 -1 -10 7t9.5 17.5t17.5 18t15 8.5h142q21 77 44 152.5t48 150.5h-176zM377 807q-26 -75 -49.5 -150.5t-46.5 -152.5q57 0 113.5 1t113.5 1q18 74 37 150t39 151 q-53 2 -104.5 1t-102.5 -1z" />
<glyph unicode="$" horiz-adv-x="741" d="M596 905q4 6 9.5 13t10.5 17.5t8 25.5t3 36q0 50 -37 67t-103 17q-26 0 -52 -5.5t-54 -14.5q-2 -60 -2 -116.5v-115.5v-141t2 -160q28 -10 52 -22t42 -28.5t28.5 -38.5t10.5 -50q0 -39 -10 -70t-27 -55t-40 -40.5t-48 -26.5q2 -47 3.5 -90.5t4.5 -83.5q0 -17 -9.5 -32.5 t-31.5 -15.5q-5 0 -8.5 1.5t-3.5 3.5t4 6q0 46 -1 95.5t-1 100.5q-38 -6 -74.5 -1.5t-64.5 20.5q-13 9 -10.5 24.5t12.5 27t22.5 14.5t18.5 -13q18 -11 43 -15.5t51 -0.5q-2 58 -3 117.5t-3 119.5q-46 12 -95 27t-89.5 39t-66.5 61.5t-26 95.5q0 52 22 106.5t60 106.5 t87.5 97t105.5 77q2 41 3.5 80t6.5 74q-2 0 -3 1q-3 1 -3 3q0 5 5 13.5t11.5 16.5t14.5 13.5t14 5.5q3 0 6.5 -3.5t3.5 -12.5q-5 -47 -7.5 -87.5t-4.5 -78.5q72 35 141 35q33 0 61.5 -7.5t49.5 -22.5t33 -37.5t12 -53.5q0 -25 -7.5 -44t-19 -34t-24.5 -26.5t-25 -20.5z M332 825v105t2 108q-48 -24 -91.5 -60.5t-76.5 -78.5t-53 -87.5t-21 -88.5q-2 -44 19.5 -72.5t57 -47.5t79.5 -32.5t88 -27.5q-2 74 -3 145t-1 137zM383 461q0 -54 1 -107.5t3 -107.5q42 14 71 44.5t29 80.5q0 35 -29.5 55.5t-74.5 34.5z" />
<glyph unicode="%" horiz-adv-x="946" d="M289 778q72 0 108.5 52t36.5 145q0 38 -9 73.5t-27 62.5t-46 43.5t-65 16.5q-27 0 -53.5 -8.5t-47.5 -29.5t-34 -56.5t-13 -89.5q0 -37 9 -74t27.5 -67t46.5 -49t67 -19zM268 729q-38 0 -71.5 16t-59 44.5t-40.5 68.5t-15 88q0 64 20 115.5t53.5 87.5t76 55t87.5 19 q36 0 68.5 -16t56.5 -44.5t38 -68.5t14 -88q0 -65 -18.5 -116t-50 -87t-73 -55t-86.5 -19zM811 1272q0 3 15 4t24 -2q8 2 12.5 -2t1.5 -12q1 -2 1 -5q0 -1 -1 -2q-101 -188 -188.5 -353t-168.5 -320t-161 -306.5t-166 -312.5q-6 -20 -20 -16q-14 0 -25.5 8t-3.5 22 q90 162 171 318t161.5 313.5t165 321.5t182.5 344zM698 43q73 0 109.5 52t36.5 145q0 38 -9 73.5t-27 62.5t-46 43.5t-66 16.5q-27 0 -53 -8.5t-47 -29.5t-34 -56.5t-13 -89.5q0 -37 9 -74t27.5 -67t46.5 -49t66 -19zM678 -6q-38 0 -71.5 16t-59 44.5t-40.5 68.5t-15 88 q0 64 20 115.5t53 87t76 54.5t88 19q36 0 68 -16t56 -44.5t38 -68.5t14 -88q0 -65 -18.5 -116t-49.5 -86.5t-72.5 -54.5t-86.5 -19z" />
<glyph unicode="&#x26;" horiz-adv-x="1233" d="M1274 -16q-26 -22 -54.5 -43t-60 -38t-64.5 -27.5t-67 -10.5q-48 0 -88.5 21t-75.5 58.5t-64.5 88t-54.5 110.5q-103 -68 -209 -108.5t-200 -40.5q-77 0 -132.5 17.5t-91.5 50t-53.5 77.5t-17.5 101q0 70 26.5 127t71 105t102.5 88.5t121.5 78.5t127.5 74.5t120 77.5 q-5 51 -6.5 92.5t-1.5 72.5q0 36 8 83t27 89t51.5 71.5t81.5 29.5q22 0 38.5 -9.5t27 -24.5t15.5 -34.5t5 -38.5q0 -51 -14 -95.5t-38 -83.5t-57 -72.5t-71 -63.5q6 -65 16 -139.5t25 -151t35.5 -152.5t46.5 -143q70 50 130.5 111t104.5 127.5t69 135.5t25 136 q0 53 -11.5 85t-37.5 52l6 11q56 -19 79.5 -60.5t23.5 -97.5q0 -60 -30 -129t-81.5 -139t-120.5 -138.5t-147 -126.5q24 -57 52 -104.5t61.5 -82t72.5 -54t84 -19.5q25 0 46 2.5t42.5 10t44 21.5t50.5 38zM338 59q100 -2 200.5 30.5t194.5 88.5q-25 69 -44.5 144.5 t-34.5 151.5t-25.5 149.5t-16.5 138.5q-55 -37 -114 -71.5t-115 -69.5t-107 -72.5t-89 -80.5t-60.5 -94t-22.5 -112t21.5 -100t55.5 -62t75.5 -32t81.5 -9zM664 1020q0 -29 1.5 -75t6.5 -103q59 52 94 113.5t35 142.5q0 10 -2 23t-8 24t-16.5 18.5t-26.5 7.5 q-27 0 -43.5 -13.5t-25.5 -35t-12 -48.5t-3 -54z" />
<glyph unicode="'" horiz-adv-x="270" d="M166 979q0 -8 -14.5 -13t-26.5 -5q-16 0 -16 8q0 59 -3.5 110.5t-3.5 110.5q0 29 1.5 60.5t5.5 60.5q0 4 6 9t14 9.5t17.5 7t15.5 2.5t6 -4q-6 -68 -6 -139q0 -60 2 -112t2 -105z" />
<glyph unicode="(" horiz-adv-x="717" d="M502 1421q-75 -86 -134 -182t-100.5 -199.5t-63.5 -213.5t-22 -224q0 -217 85 -411t243 -355q3 -2 7.5 -2.5t4.5 -5.5q0 -6 -5.5 -15.5t-14 -18t-18 -15t-17.5 -6.5q-9 0 -21 10q-77 80 -138.5 169.5t-104.5 188t-65.5 204t-22.5 216.5t30 230.5t81 235t118 221 t141 188.5z" />
<glyph unicode=")" horiz-adv-x="717" d="M176 -201q72 89 132 188.5t102.5 205.5t66 218t23.5 226q0 96 -21 195.5t-62.5 197t-103.5 189t-143 172.5q-6 3 -6 8q0 7 6.5 16.5t15.5 18.5t18.5 15.5t16.5 6.5t10 -12q78 -81 139.5 -171.5t105 -189t66.5 -203.5t23 -214q0 -117 -30 -237t-81 -234.5t-119 -219 t-145 -190.5z" />
<glyph unicode="*" horiz-adv-x="692" d="M156 1229q-11 4 -11 15t6 20.5t16 12.5t21 -7q42 -25 78.5 -48.5t79.5 -47.5q0 42 -1 82.5t-1 82.5q-7 9 1 19t20.5 15.5t24 5t11.5 -12.5q-6 -37 -8 -86t-2 -104q40 26 83.5 52t98.5 58q-1 5 10 2t19 -11t6.5 -19t-26.5 -23q-56 -26 -98.5 -49.5t-80.5 -46.5 q35 -19 76.5 -40t93.5 -44q19 -6 21.5 -16t-4.5 -18.5t-20.5 -11t-26.5 6.5q-45 21 -81.5 42.5t-70.5 43.5q0 -47 1 -90.5t3 -83.5q0 -15 -9 -21t-19 -6.5t-17 3.5t-2 9q-2 48 -2 94.5v94.5q-38 -25 -77 -51t-89 -54q-2 -5 -11.5 -0.5t-16 13.5t-5.5 19.5t21 17.5 q48 24 86.5 47t75.5 45q-38 21 -80 44t-94 46z" />
<glyph unicode="+" d="M475 244q0 -14 -14 -23.5t-27 -9.5q-16 0 -16 14q0 78 -2 148.5t-4 142.5q-75 -2 -146.5 -3t-146.5 -1q-4 0 -4 8q0 6 2.5 15t6 17t8 13.5t9.5 5.5q72 0 138.5 1t132.5 3v62q0 108 6 219q0 4 6 10t14.5 11t17.5 8.5t15 3.5t6 -4q-6 -123 -6 -252v-55h94h27.5t44 -0.5 t51 -1t48.5 -1.5t36 -3t14 -5q0 -5 -4 -14t-10 -18t-12.5 -16t-11.5 -7q-111 6 -222 6h-55q0 -72 2 -139t2 -135z" />
<glyph unicode="," horiz-adv-x="268" d="M137 154q26 0 38.5 -21.5t12.5 -50.5q0 -15 -2.5 -37t-12.5 -46.5t-30 -51.5t-55 -53q-6 -5 -9.5 -4.5t-4.5 3.5t0 7t4 6q15 9 28 29t21.5 40.5t9.5 37t-8 18.5q-22 5 -34.5 19.5t-12.5 37.5q0 32 16 49t39 17z" />
<glyph unicode="-" horiz-adv-x="471" d="M264 248q-57 0 -107 -1t-104 -1q-2 1 -3 2q-3 1 -3 6q0 6 2 16.5t5 20t6 17t6 7.5q57 0 108.5 2t108.5 2q6 0 24.5 0.5t38.5 0t35.5 -2.5t15.5 -6q0 -5 -2 -15.5t-5 -21.5t-6.5 -19.5t-6.5 -8.5q-28 3 -56.5 2.5t-56.5 -0.5z" />
<glyph unicode="." horiz-adv-x="268" d="M139 154q25 0 36 -17.5t11 -42.5q0 -29 -16 -45t-39 -16q-17 0 -33 13t-16 42q0 32 16 49t41 17z" />
<glyph unicode="/" horiz-adv-x="623" d="M627 1356q1 2 5 4t10 3.5t12 2t10 0.5q8 0 14 -3t6 -9q0 -1 -0.5 -2t-0.5 -2q-1 -1 -1 -2q-79 -199 -147.5 -373t-132.5 -337.5t-126.5 -323t-130.5 -328.5q-3 -21 -20 -21q-12 0 -23.5 7.5t-5.5 23.5q71 171 133.5 334t125 328.5t128.5 337.5t144 360z" />
<glyph unicode="0" horiz-adv-x="956" d="M512 1264q112 0 189 -53t124.5 -140.5t68.5 -199.5t21 -230q0 -67 -9 -146t-29 -158t-53 -153t-81 -131t-113 -91t-149 -34q-78 0 -138 27t-104.5 73.5t-74.5 109t-48 134t-26 147.5t-8 150q0 78 9.5 160t31 159t55 145.5t81.5 119.5t110.5 81t142.5 30zM485 1198 q-67 0 -118 -24.5t-89.5 -67t-64.5 -99.5t-42 -122t-23 -134.5t-7 -136.5q0 -53 6.5 -119.5t22 -135.5t42 -134t67.5 -116t97.5 -82t131.5 -31q68 0 120.5 26.5t90.5 71.5t63.5 105t41 127t22 137.5t6.5 136.5q0 53 -7 117.5t-24 131t-44.5 129.5t-68 112t-96 78.5 t-127.5 29.5z" />
<glyph unicode="1" horiz-adv-x="489" d="M276 -41q-3 23 -4.5 59.5t-2.5 79t-1.5 89t-1 90.5t-0.5 83.5v67.5q0 155 4 271.5t9.5 201.5t9.5 141t4 91q0 9 -2 16.5t-10 7.5q-15 0 -43 -21.5t-62 -54t-70.5 -72t-68.5 -75.5l-17 18q42 50 89 105t90.5 101.5t79 77t55.5 30.5q12 0 22.5 -4.5t10.5 -12.5v-17t-2 -28 q-5 -68 -9.5 -121.5t-8.5 -104.5t-6.5 -104.5t-4.5 -120.5t-3 -154.5t-1 -205.5q0 -29 1.5 -68.5t4 -83.5t5.5 -89t5.5 -83t4 -66.5t1.5 -39.5q0 -5 -6 -10.5t-14.5 -10t-19 -7.5t-19.5 -3t-13 6.5t-6 20.5z" />
<glyph unicode="2" horiz-adv-x="1004" d="M788 57q-10 -18 -20 -40.5t-24 -42t-35.5 -33t-53.5 -13.5q-34 0 -63 10.5t-56 25.5t-53 32.5t-53 32.5q-38 -28 -72.5 -41t-56.5 -13q-38 0 -61 14.5t-23 39.5q0 15 10 26t25.5 18.5t34.5 11t37 3.5q26 0 53.5 -6.5t56.5 -15.5q46 34 97 86t100.5 117.5t94 142t79 160 t54.5 171t20 175.5q0 66 -19.5 118t-54.5 88t-83 55t-104 19q-92 0 -183 -28t-164.5 -80.5t-120.5 -126.5t-50 -166q0 -42 22.5 -64t59.5 -22q28 0 43.5 8.5t24.5 13.5l6 -2q-3 -8 -9 -22t-16.5 -28.5t-26 -25t-36.5 -10.5q-29 0 -48.5 13.5t-31 35t-16 48.5t-4.5 53 q0 67 25.5 128t68.5 113t99 94t118 72t125.5 46t120.5 16q76 0 137 -21t104 -62t65.5 -102t22.5 -141q0 -88 -22 -176t-59.5 -172.5t-87 -163t-103.5 -147t-110 -126t-107 -98.5q51 -18 102 -36.5t101 -18.5q29 0 47 5.5t30 14t19.5 19.5t15.5 22zM303 18q17 0 43.5 5.5 t52.5 19.5q-36 18 -82 18q-45 -3 -45 -22q0 -11 8.5 -16t22.5 -5z" />
<glyph unicode="3" horiz-adv-x="954" d="M168 100q12 -16 31 -36.5t48.5 -38.5t70 -30.5t94.5 -12.5q36 0 66.5 10.5t52.5 29t34.5 44t12.5 55.5q0 46 -21 85.5t-55 65.5q-37 -20 -75 -30.5t-75 -10.5q-18 0 -35 3.5t-30.5 10.5t-22 18t-8.5 26q0 16 11.5 27t29.5 17.5t39.5 9.5t42.5 3q35 0 70 -10t67 -27 q62 34 118 95t98.5 139.5t67.5 171.5t25 192q0 50 -16.5 101t-50.5 92.5t-86 67.5t-123 26q-88 0 -173 -27.5t-152 -76.5t-108.5 -117.5t-41.5 -149.5q0 -32 7 -57t17 -45t21.5 -36t21.5 -28l-10 -10q-15 12 -30.5 32.5t-29 45t-22 52.5t-8.5 57q0 67 26.5 125.5t69.5 106 t98.5 84.5t113.5 62.5t114 38.5t100 13q92 0 157 -27t106 -74.5t60 -111t19 -136.5q0 -83 -30 -173t-80.5 -174t-116.5 -155.5t-137 -117.5q46 -32 75 -79.5t29 -102.5q0 -39 -14 -73t-40 -59.5t-63 -40t-84 -14.5q-60 0 -107 18.5t-82 44.5t-58.5 54t-38.5 47zM373 270 q26 0 51 5t51 16q-48 31 -102 31q-23 0 -42.5 -6.5t-19.5 -18.5t14 -19.5t48 -7.5z" />
<glyph unicode="4" horiz-adv-x="874" d="M772 272q-17 1 -31 1.5t-27.5 1.5t-28 2t-32.5 2v-295q0 -14 -8 -24.5t-19 -18t-22 -11.5t-18 -4q-11 0 -13 10.5t-2 22.5q2 82 3.5 162.5t3.5 159.5h-46q-21 0 -54.5 -1t-74 -3t-84 -4t-84 -4t-74.5 -4t-55 -3q-9 -1 -19.5 0t-19 5t-14.5 12.5t-6 23.5q0 11 21.5 50 t57 97t82 130.5t97 150t101.5 155.5t95 147t78.5 125t51.5 89v7t2 8q9 18 22 16t23 -13.5t14.5 -25.5t-4.5 -18q-22 -221 -28.5 -442t-6.5 -441q15 0 28 -0.5t27.5 -1t32 -1t41.5 -1.5q24 7 28.5 -1.5t-1 -22t-17 -26t-20.5 -12.5zM578 338q3 217 10 421.5t30 401.5 q-34 -57 -84 -134.5t-105 -163t-110 -172t-99 -160t-71.5 -128t-27.5 -75.5q0 -5 23 -6t59.5 0t82 3.5t90.5 5t85.5 4.5t66.5 3h50z" />
<glyph unicode="5" horiz-adv-x="600" d="M254 -74q-47 0 -80.5 8.5t-55.5 20.5t-32 24.5t-10 20.5q0 7 4.5 17t11 19t13 15t10.5 6q9 0 8.5 -9.5t5.5 -18.5q4 -6 14.5 -14.5t28.5 -15.5t44.5 -12t64.5 -5q53 0 91.5 16t64 42t38 59t12.5 67q0 44 -18.5 80t-48.5 62t-69 40t-81 14q-26 0 -48.5 -2.5t-39.5 -7.5 q-9 -40 -23.5 -64t-39.5 -24q-19 0 -25 12.5t-6 20.5q0 20 17.5 46t52.5 46q2 26 3 56t1 59v54v42q0 71 -3 142t-8.5 137t-12 124t-13.5 103t-14 75t-13 40q-8 8 -8 16t7 9t12 7q6 9 27.5 9.5t52 -4t67.5 -12.5t74 -15.5t72.5 -13t62.5 -5.5q43 0 71.5 13.5t41.5 50.5l12 -2 q-4 -28 -13 -53t-24 -43.5t-36.5 -29.5t-49.5 -11q-43 0 -76.5 8.5t-66 19t-69 19t-85.5 8.5q8 -92 13 -161t8 -121.5t4 -91.5t1.5 -70.5t0.5 -58.5v-56q0 -56 -1 -116.5t-8 -113.5q22 10 49 14.5t58 4.5q46 0 89.5 -14t77 -42t53.5 -70t20 -99q0 -62 -21 -112t-58 -85 t-89 -54.5t-113 -19.5zM137 307q11 0 17 35q-25 -12 -25 -27q0 -8 8 -8z" />
<glyph unicode="6" horiz-adv-x="963" d="M1008 1098q-21 24 -43.5 46.5t-52.5 39.5t-71.5 27t-99.5 10q-114 0 -203 -41.5t-156.5 -111t-114.5 -159t-76.5 -186t-42.5 -192.5t-13 -177q0 -31 3 -64t9 -65q9 39 29 74.5t50 61.5t70 41.5t91 15.5q42 0 82.5 -15.5t71.5 -44t50 -68t19 -87.5q0 -58 -20 -108 t-53.5 -86.5t-77.5 -57.5t-92 -21q-69 0 -124.5 30t-94.5 83t-59.5 126.5t-20.5 160.5q0 93 21.5 200.5t63 214.5t102 206.5t138.5 175.5t173 121.5t206 45.5q55 0 97.5 -18t74 -46t51.5 -61t29 -63zM176 131q26 -63 75 -104t126 -41q35 0 66 8t54 26t36.5 47t13.5 72 q0 44 -15.5 83t-42.5 68.5t-63 46.5t-78 17q-47 0 -79.5 -17t-53 -45t-30 -64t-9.5 -74v-23z" />
<glyph unicode="7" horiz-adv-x="891" d="M61 1049q-6 12 -10 26.5t-4 30.5q0 26 9.5 52.5t29 48t49 35t68.5 13.5q76 0 144 -11.5t136 -26t140.5 -26t158.5 -11.5q56 52 104.5 81t86.5 29q17 0 29 -10.5t12 -30.5q0 -27 -23.5 -48.5t-60 -36.5t-82 -24.5t-90.5 -13.5q-53 -61 -106.5 -146.5t-102.5 -185.5 t-92 -209t-75 -217t-50.5 -209.5t-20.5 -185.5v-4q0 -8 -7 -15t-16.5 -12t-21 -8.5t-20.5 -3.5q-21 0 -21 15q12 117 39 233.5t65.5 227t86 214.5t100 195.5t107.5 170t108 138.5h-26q-70 0 -140 12t-139.5 27t-138 27t-135.5 12q-22 0 -38.5 -8.5t-28 -22t-17 -30.5 t-5.5 -35q0 -12 2.5 -24t8.5 -23zM942 1245q-31 0 -64.5 -17t-68.5 -48q28 1 55.5 3.5t49 8.5t34.5 16t13 25q0 6 -6.5 9t-12.5 3z" />
<glyph unicode="8" horiz-adv-x="942" d="M535 1264q61 0 106 -17.5t76 -40.5q12 -4 33.5 -12.5t46 -23.5t49.5 -38t45.5 -54.5t33.5 -72t13 -92.5q0 -89 -35.5 -167.5t-92 -146t-127.5 -124.5t-142 -102q27 -26 49.5 -52.5t39.5 -55t26.5 -59.5t9.5 -65q0 -40 -16 -76.5t-44.5 -64.5t-69.5 -44.5t-90 -16.5 q-47 0 -86 13t-68 36t-45 55t-16 70q0 45 17 79t46 61.5t68.5 52t83.5 50.5q-58 46 -121.5 94t-116.5 103.5t-87.5 123t-34.5 152.5q0 90 36 169t97 138.5t142.5 93.5t173.5 34zM737 1096q-9 11 -27 29.5t-45.5 36t-64 30t-82.5 12.5q-84 0 -153.5 -23t-119.5 -67t-78 -108 t-28 -146q0 -79 36.5 -142.5t92.5 -117.5t121.5 -103t124.5 -100q68 42 131 93t111 113.5t77 138.5t29 169q0 65 -19 113t-50 80q-4 -7 -11 -13.5t-15 -8.5t-16 0.5t-14 13.5zM616 115q0 32 -11 61t-29.5 56t-44.5 52t-56 50q-41 -24 -74 -45t-56.5 -44.5t-36.5 -50.5 t-13 -63q0 -32 13.5 -58t35.5 -44t50 -27.5t57 -9.5q32 0 62 7.5t53 22.5t36.5 38t13.5 55z" />
<glyph unicode="9" horiz-adv-x="932" d="M627 -49v45t1 81t3 107.5t6 125t10 134t15 134.5q-59 -42 -136 -73.5t-170 -31.5q-76 0 -126.5 24.5t-80.5 63t-42.5 86.5t-12.5 96q0 63 20 126t55 121t82.5 108t103.5 87t116.5 58t122.5 21q60 0 103.5 -16t73 -43.5t47 -65t26.5 -80.5q-2 -42 -17.5 -60t-27.5 -18 q-13 0 -15 10q0 57 -16 96.5t-45 64t-71 35.5t-93 11q-103 0 -180.5 -41t-129.5 -104t-78 -137.5t-26 -141.5q0 -59 20.5 -102.5t55.5 -71.5t81.5 -41.5t98.5 -13.5q85 0 151 19.5t116 51.5q10 68 24.5 128t33 105t42.5 71t53 26q19 0 34 -17.5t15 -45.5q0 -23 -7.5 -49.5 t-20.5 -54.5t-30.5 -54.5t-37.5 -48.5q-9 -11 -22 -23t-27 -26q-6 -59 -9.5 -123.5t-6 -129.5t-3.5 -128.5t-1 -119v-101.5v-76q0 -6 -6 -10.5t-15 -8.5t-19.5 -6t-19.5 -2q-11 0 -16 5t-2 24zM801 891q-14 0 -25 -16.5t-19.5 -46.5t-15.5 -71t-12 -89q43 46 64.5 98 t21.5 98q0 8 -2.5 17.5t-11.5 9.5z" />
<glyph unicode=":" horiz-adv-x="309" d="M160 154q25 0 36 -17.5t11 -42.5q0 -29 -16 -45t-39 -16q-17 0 -33.5 13t-16.5 42q0 32 16.5 49t41.5 17zM160 440q25 0 36 -17t11 -42q0 -29 -16 -45.5t-39 -16.5q-17 0 -33.5 13.5t-16.5 42.5q0 32 16.5 48.5t41.5 16.5z" />
<glyph unicode=";" horiz-adv-x="309" d="M158 154q26 0 38.5 -21.5t12.5 -50.5q0 -15 -2.5 -37t-12.5 -46.5t-30 -51.5t-55 -53q-6 -5 -10 -4.5t-5 3.5t0 7t4 6q15 9 28 29t21.5 40.5t10 37t-7.5 18.5q-22 5 -35 19.5t-13 37.5q0 32 16.5 49t39.5 17zM160 440q25 0 36 -17t11 -42q0 -29 -16 -45.5t-39 -16.5 q-17 0 -33.5 13.5t-16.5 42.5q0 32 16.5 48.5t41.5 16.5z" />
<glyph unicode="&#x3c;" d="M166 559q0 8 18.5 21t49 29.5t70 35t81.5 37.5t83 37.5t75.5 34.5t58.5 28t31 19q3 3 10 2t14.5 -5t13 -9t5.5 -11q0 -14 -6 -21t-8 -9q-23 -13 -62 -31t-84 -38t-91 -40.5t-83 -37.5t-60.5 -30t-23.5 -18q0 -7 24 -21.5t61.5 -34t83.5 -42.5t90 -46t82 -45t58 -40 q8 -6 5 -16.5t-10.5 -19.5t-16 -14.5t-12.5 -1.5q-7 8 -34 24t-66 37l-84.5 45.5t-89.5 48.5t-83 46t-63 39q-11 -2 -18 5t-11.5 15.5t-6 16.5t-1.5 10z" />
<glyph unicode="=" d="M139 614q-4 0 -4 9q0 6 2.5 14.5t6.5 17t8.5 14t9.5 5.5q56 0 102 1t90 2t89.5 2t101.5 1h26.5t44 -0.5t51 -1t48.5 -1.5t36.5 -2.5t14.5 -4.5q0 -5 -4 -14.5t-10 -18.5t-13 -16t-12 -7q-56 3 -110.5 5t-110.5 2q-55 0 -100 -1t-87 -2.5t-85.5 -2.5t-94.5 -1zM139 410 q-4 0 -4 8q0 6 1.5 14.5t4 17t6.5 14t9 5.5q56 0 99.5 0.5t85 0.5t85 0.5t98.5 0.5q8 0 27.5 0.5t44 0.5h51t48.5 -1t36 -2.5t14 -3.5q0 -5 -3.5 -14t-8.5 -18t-11 -16t-11 -7q-56 3 -113 2.5t-113 -0.5q-54 0 -96 -0.5t-80 -0.5t-78.5 -0.5t-91.5 -0.5z" />
<glyph unicode="&#x3e;" d="M694 510q0 -8 -18.5 -21t-49 -29.5t-70 -35t-81.5 -37.5t-83 -37.5t-75.5 -34.5t-58.5 -28t-31 -19q-3 -3 -10 -2t-14.5 5t-13 9t-5.5 11q0 14 6.5 21.5t8.5 9.5q23 13 62 31t83.5 37.5t90.5 40t83 37.5t60.5 30t23.5 18q0 7 -24 21.5t-61.5 34t-83.5 42.5t-90 46t-82 45 t-58 40q-8 6 -5 16.5t10.5 19.5t16.5 14.5t13 1.5q7 -8 34 -24t65.5 -37t84 -45.5t89.5 -48.5t83 -46.5t63 -38.5q11 1 18 -5.5t11.5 -15t6 -17t1.5 -9.5z" />
<glyph unicode="?" horiz-adv-x="809" d="M307 766q-26 -32 -55 -55t-72 -23q-29 0 -51 11.5t-37 30t-23 43t-8 50.5q0 53 20 105t54.5 99.5t81 87.5t98.5 69.5t107 46t108 16.5q58 0 99 -17t67.5 -45.5t39 -67t12.5 -81.5q0 -74 -28.5 -139.5t-71 -125t-92 -113.5t-92 -105t-71 -100t-28.5 -99q0 -35 18 -55 t47 -20q20 0 40 7.5t40 30.5l8 -6q-6 -11 -17 -24.5t-25 -25.5t-31.5 -20t-36.5 -8q-42 0 -68.5 29t-26.5 76q0 45 26.5 92.5t66.5 98.5t86.5 106t86.5 115t66.5 124.5t26.5 135.5q0 34 -10.5 65.5t-32 55.5t-54 38.5t-75.5 14.5q-86 0 -159 -30.5t-126.5 -79t-84 -110 t-30.5 -122.5q0 -45 25.5 -76t75.5 -31q41 0 62 12t36 27zM410 133q24 0 35.5 -17.5t11.5 -41.5q0 -29 -16.5 -45.5t-39.5 -16.5q-17 0 -33 13.5t-16 42.5q0 32 16.5 48.5t41.5 16.5z" />
<glyph unicode="@" horiz-adv-x="1323" d="M782 498q0 -47 11 -82q21 37 32 77.5t11 71.5q0 16 -4.5 25.5t-10.5 9.5q-14 0 -26.5 -29.5t-12.5 -72.5zM922 240q-48 0 -88 27t-60 83q-40 -49 -93.5 -81.5t-115.5 -32.5q-34 0 -60.5 15t-45 40.5t-28 60t-9.5 72.5q0 65 29 131t77 119t111 86t131 33q49 0 82.5 -11 t53.5 -26t29 -30t9 -24q0 -8 -5 -13t-12.5 -8t-16 -4t-15.5 -1q-6 0 -12 6t-13 14q-8 9 -18.5 20.5t-25.5 21t-35 16t-46 6.5q-55 0 -102.5 -28.5t-82 -71.5t-54 -93.5t-19.5 -95.5q0 -35 9.5 -64.5t27.5 -51t42.5 -34t54.5 -12.5q48 0 83.5 18.5t61.5 49.5q-5 18 -7.5 41 t-2.5 49q0 54 8.5 87.5t19.5 53t23 26.5t20 7q10 0 22.5 -13.5t12.5 -47.5q0 -45 -16 -94.5t-45 -96.5q17 -40 57.5 -66t89.5 -26q63 0 109.5 34t76.5 86t45 114.5t15 119.5q0 104 -41.5 184.5t-108.5 136t-151.5 84.5t-169.5 29q-128 0 -237 -43.5t-189.5 -120.5t-126 -182 t-45.5 -227q0 -101 36.5 -191.5t106 -158.5t172 -108t234.5 -40q84 0 159.5 14.5t153.5 43.5l6 -21q-34 -18 -74 -35.5t-85.5 -31t-95.5 -21.5t-103 -8q-136 0 -241 41.5t-176.5 113t-108.5 168t-37 207.5q0 88 25 171.5t70.5 157t108.5 135t139.5 105.5t164 68.5 t180.5 24.5q130 0 223 -41t152.5 -107t87.5 -149.5t28 -169.5q0 -49 -11 -100.5t-32 -100.5t-50.5 -92.5t-66 -76t-79.5 -51.5t-90 -19z" />
<glyph unicode="A" horiz-adv-x="1577" d="M12 293q5 -42 18 -87t38.5 -81.5t65 -60t97.5 -23.5t113 21.5t107.5 60.5t102.5 92.5t97 118.5q-55 -2 -110.5 -4.5t-112.5 -5.5q-12 0 -27 -3.5t-18 -3.5q-10 0 -10 13q0 6 3.5 14t10.5 15.5t17.5 12.5t23.5 5q28 0 96.5 2.5t161.5 7.5q71 104 135 224t121 238.5 t108 228t95 193t81 133.5t68 50q19 0 30.5 -12.5t17 -33t7 -47t1.5 -54.5q0 -118 -9.5 -230.5t-22 -223l-25 -221t-19.5 -224.5q28 2 54 2h50h43q23 0 40.5 -1.5t17.5 -11.5q0 -12 -11.5 -25.5t-37.5 -13.5q-42 -2 -81 -2h-79q-2 -38 -2 -75.5v-75.5q0 -32 4 -64t16 -57.5 t33.5 -42t56.5 -16.5q25 0 49.5 12.5t46.5 33t40 45.5t30 50l12 -6q-12 -26 -29.5 -62t-41.5 -69t-56.5 -56.5t-74.5 -23.5q-75 0 -107.5 58.5t-32.5 176.5q0 42 0.5 84.5t4.5 85.5q-135 -3 -263.5 -7.5t-261.5 -10.5q-54 -80 -111.5 -148.5t-117 -119t-121 -79 t-123.5 -28.5q-46 0 -79 16.5t-56 44t-38.5 62.5t-24.5 71.5t-14 72t-9 63.5zM731 389q58 2 120 4.5t125 5t125 5t120 4.5q6 110 15.5 225.5t18 230.5t15 227t6.5 216q0 7 -0.5 20t-1.5 25t-3 21t-5 9q-14 0 -40.5 -44.5t-63.5 -120t-83.5 -175t-101.5 -210t-117 -225 t-129 -218.5z" />
<glyph unicode="B" horiz-adv-x="1503" d="M442 106q16 -11 30 -20t30 -18q-3 48 -4.5 94t-3.5 92q-41 3 -67 13t-26 30q0 22 24.5 33t66.5 14v119q0 120 2 232t7 222t14 221t24 228q-103 -38 -196.5 -92t-164.5 -123.5t-113 -154t-42 -181.5q0 -21 7 -48.5t21 -56t35 -55t49 -45.5l-12 -14q-31 21 -54 49.5 t-38.5 59t-23 61t-7.5 57.5q0 102 46 192t122.5 166t174.5 137t202 105q2 11 4 23l4 24q2 13 4 27t2 16q0 10 -0.5 20.5t8.5 10.5q6 0 13 -4t13 -10t10.5 -13.5t4.5 -13.5q-2 -15 -4 -29l-4 -28q99 35 192 54.5t169 19.5q103 0 195.5 -25t162.5 -78.5t110.5 -138 t40.5 -203.5q0 -106 -27 -200t-75 -175.5t-114 -150t-143.5 -122t-164 -91.5t-174.5 -60q25 -23 37 -52.5t12 -63.5q0 -29 -10 -57.5t-30.5 -52t-52 -38t-73.5 -14.5q-24 0 -47 4t-43 10q2 -18 3 -36t3 -35q0 -5 1 -14.5t1 -12.5q0 -9 -7.5 -16t-12.5 -7q-33 0 -39 50 q-3 26 -5.5 50.5t-4.5 49.5q-23 14 -41 28t-31 25zM551 629q0 -57 -1 -129.5t1 -151.5h18q54 0 99 -12.5t77 -34.5q86 16 168 48.5t154.5 80t133 110.5t104 141t68 171t24.5 201q0 89 -31 162t-87.5 124.5t-135.5 80t-176 28.5q-87 0 -182 -15.5t-191 -46.5 q-16 -149 -25 -261.5t-13 -201t-4.5 -159t-0.5 -135.5zM553 252q2 -54 4.5 -106.5t5.5 -102.5q14 -5 28.5 -6.5t31.5 -1.5q73 0 107 39t34 96q0 61 -35 98q-42 -9 -84 -12.5t-82 -3.5h-10zM553 283h4q35 0 70 2t69 8q-23 12 -53.5 19t-69.5 7h-20v-36zM494 285q0 8 -1 15 t-1 15q-35 -6 -35 -18q0 -6 10.5 -8t26.5 -4z" />
<glyph unicode="C" horiz-adv-x="1120" d="M1081 371q-5 -28 -18 -73.5t-37 -96.5t-60.5 -103t-88 -93.5t-120.5 -68t-157 -26.5q-100 0 -193 48t-165 138t-115 220.5t-43 295.5q0 117 21 229t60.5 211t96 182.5t128.5 143.5t158 93.5t183 33.5q73 0 131 -22t98.5 -60t62 -89.5t21.5 -110.5q0 -39 -11.5 -76.5 t-27.5 -70t-33.5 -59t-29.5 -42.5l-12 10q12 16 22.5 37.5t18.5 46.5t13 52.5t5 56.5q0 53 -18.5 100t-53.5 82.5t-85.5 56.5t-114.5 21q-96 0 -176.5 -28.5t-144.5 -80t-112.5 -123t-80.5 -157.5t-48 -183t-16 -200q0 -81 13.5 -163.5t40.5 -159.5t67.5 -144.5t94 -117.5 t121 -79t147.5 -29q106 0 182 37.5t128 96t82.5 129.5t45.5 139z" />
<glyph unicode="D" horiz-adv-x="1444" d="M627 350v55.5t2 61.5q-34 -11 -73.5 -17t-82.5 -6q-119 0 -207.5 39t-147.5 104.5t-88.5 151.5t-29.5 181q0 98 29 182.5t79.5 154.5t120 124.5t149.5 92t167.5 57t175.5 19.5q156 0 283 -48t217 -140.5t139 -228t49 -310.5q0 -78 -11.5 -173t-36.5 -192t-65 -188.5 t-97.5 -163t-132.5 -114.5t-171 -43q-63 0 -116 21t-99 42q-20 -43 -57 -67.5t-86 -24.5q-15 0 -33.5 5t-34.5 15t-26.5 25.5t-10.5 36.5t10 36.5t26.5 26t38 16t44.5 5.5q22 0 43 -3.5t43 -8.5v18q0 50 -5 113.5t-5 144.5zM729 852q-17 -72 -25.5 -158.5t-13.5 -171.5 q42 13 70 27.5t51 30.5l6 -11q-18 -17 -50 -38.5t-77 -41.5q-2 -37 -2 -70.5v-64.5q0 -43 1.5 -76t3.5 -61t3.5 -54t1.5 -54q0 -14 -1 -26.5t-3 -23.5q50 -17 98.5 -33t102.5 -16q89 0 157 32.5t118 88t83 129t53 155t28.5 166.5t8.5 164q0 160 -42 297.5t-124 238.5 t-202 158.5t-277 57.5q-148 0 -267.5 -39t-204 -113.5t-130 -183.5t-45.5 -250q0 -87 35.5 -163t94.5 -132t135 -88t157 -32q94 0 156 12q5 71 13.5 151.5t27.5 171.5q2 13 4 27t2 16q0 10 -0.5 20.5t8.5 10.5q5 0 13 -6t15 -14.5t12 -17.5t5 -15zM549 -33q41 0 59.5 20 t24.5 48q-22 8 -41.5 13t-38.5 5q-29 0 -52.5 -10t-23.5 -33q0 -20 21.5 -31.5t50.5 -11.5z" />
<glyph unicode="E" horiz-adv-x="1061" d="M1137 299q-11 -17 -34.5 -50.5t-57.5 -75t-78.5 -85t-97.5 -79t-113 -58.5t-125 -23q-102 0 -160.5 57.5t-60.5 172.5q-98 13 -174 56t-128.5 109.5t-80 153t-27.5 187.5q0 109 36.5 214t101 199t152 173t189.5 136.5t214.5 90t226.5 32.5q48 0 104.5 -11.5t105.5 -39 t82 -73.5t33 -115q0 -53 -33 -118t-102 -124l-8 8q48 50 67 101t19 110q0 55 -28.5 92.5t-70.5 60.5t-90.5 32.5t-89.5 9.5q-111 0 -219 -27.5t-204.5 -77.5t-179 -120t-142 -155t-93.5 -183t-34 -203q0 -83 28.5 -158.5t79.5 -136.5t120.5 -103.5t150.5 -58.5 q10 44 32.5 83t53 68.5t68 46.5t77.5 17q44 0 73.5 -23.5t29.5 -74.5q0 -49 -24 -84t-61.5 -57t-82.5 -32.5t-88 -10.5h-25t-23 2q3 -36 20 -65.5t43.5 -50t60.5 -31.5t71 -11q133 0 257 79t226 232zM643 381q-42 0 -75 -13t-57 -35.5t-39 -53t-21 -66.5q14 -2 27.5 -2h27.5 q34 0 72 6.5t69 21t51.5 36t20.5 51.5q0 15 -7 25t-18 17t-24.5 10t-26.5 3z" />
<glyph unicode="F" horiz-adv-x="1108" d="M838 389h29.5t51.5 -1.5t48.5 -6t21.5 -12.5q0 -27 -22 -27q-41 2 -77 2h-71q-2 -4 -2 -10q-15 -73 -34 -143.5t-49.5 -126t-76 -89.5t-112.5 -34q-50 0 -88 19.5t-66 48.5t-46 63t-28 63l13 6q18 -43 39 -72t44 -46.5t47.5 -25t49.5 -7.5q54 0 91 18t64.5 59.5t48 109 t40.5 167.5q-66 0 -132.5 -4t-142.5 -12q-12 0 -27 -3t-18 -3q-10 0 -10 12t14.5 27.5t40.5 15.5q16 0 44 1.5t64.5 3t81 3t93.5 2.5q11 54 22 114.5t23 131.5q26 153 63.5 296t90.5 259q-29 0 -69 2.5t-85 5.5t-93 5.5t-93 2.5q-122 0 -230 -32.5t-189.5 -98.5t-129 -165.5 t-47.5 -233.5q0 -55 6.5 -97t16.5 -74t23 -54t25 -37l-12 -13q-13 15 -28 40t-27.5 61t-20.5 82.5t-8 105.5q0 128 48 235t131 183.5t195 119t240 42.5q52 0 103 -3.5t96.5 -8t84.5 -8t67 -3.5h24q26 50 55.5 90.5t62 69.5t68.5 45t76 16q57 0 80 -23t23 -52 q0 -34 -26 -68.5t-72.5 -63t-111 -48t-140.5 -23.5q-32 -79 -56.5 -177t-45 -203.5t-38.5 -213t-37 -205.5h11zM1223 1411q-63 0 -110.5 -45t-84.5 -121q84 4 136.5 18.5t82 33t39.5 38.5t10 35q0 20 -20.5 30.5t-52.5 10.5z" />
<glyph unicode="G" horiz-adv-x="893" d="M494 -354q27 1 49 14t38.5 40t25.5 69.5t9 101.5q0 37 -5 94.5t-11 128.5q-42 -43 -97.5 -68.5t-129.5 -25.5q-69 0 -126.5 21.5t-99 66.5t-64 113.5t-22.5 163.5q0 100 29 203.5t80.5 203.5t121.5 194.5t151.5 178t171 153t180 119.5t178.5 77.5t166 27.5q43 0 90 -11.5 t86 -40.5t64.5 -79t25.5 -127q0 -53 -33 -118t-102 -124l-8 8q48 50 67 101t19 110q0 51 -19 92t-49 69.5t-67 44t-74 15.5q-122 0 -244.5 -46.5t-235.5 -126.5t-211 -187.5t-170 -230.5t-113.5 -254.5t-41.5 -258.5q0 -52 15.5 -105.5t49 -96.5t86.5 -70t127 -27 q75 0 120.5 18t76.5 50q-8 90 -14 188t-6 195q0 47 0.5 98.5t3 102t9 95.5t17.5 79.5t28 55t42 20.5q38 0 56 -67.5t18 -207.5q0 -81 -10.5 -183t-36.5 -208q-17 -66 -48 -121q7 -81 13 -150t6 -112q0 -52 -15.5 -111t-45 -108.5t-73 -82t-98.5 -32.5q-18 0 -33.5 5.5 t-26 13.5t-16.5 17t-6 17t4.5 18t11 19t13 15t10.5 6q5 0 6 -3.5t1.5 -8t1.5 -9.5t6 -8q11 -6 26.5 -11t51.5 -3zM639 516q0 -68 4 -143t10 -150q5 13 9.5 25t9.5 26q25 73 30 160.5t5 181.5q0 69 -3 124t-9 93.5t-15 59t-21 20.5q-11 0 -16.5 -23t-8 -60t-2 -82t2 -89 t3 -82t1.5 -61z" />
<glyph unicode="H" horiz-adv-x="1008" d="M920 369q23 0 40 -1.5t17 -11.5q0 -18 -12 -26t-31 -11t-42.5 -2.5t-45.5 0.5h-23v-108q0 -64 2.5 -108.5t7.5 -77t11 -57t14 -48.5q6 -6 6 -10q0 -9 -16 -18t-33 -9q-12 0 -18.5 5t-10.5 22q-7 22 -12 58.5t-8 76t-4.5 76t-1.5 59.5v69t2 70q-113 0 -212 3.5t-198 3.5 h-39q-5 -96 -23 -189.5t-53 -179t-88.5 -159t-130.5 -128.5l-16 13q70 52 117 128t75.5 162.5t40.5 177t13 173.5q-53 0 -106.5 -3t-110.5 -8q-13 -2 -27.5 -4t-17.5 -2q-11 0 -11 12q0 23 14.5 35t44 17t74 5.5t103.5 0.5h37q-2 129 -10.5 248.5t-18.5 239.5t-18 246 t-8 269q0 17 1.5 38.5t4.5 40t7 31.5t9 13t16 -5.5t22 -14t19.5 -17t8.5 -14.5q0 -3 -2.5 -9t-5 -18t-5 -30.5t-2.5 -46.5q0 -95 3.5 -170t9 -141.5t12 -130t12 -136t9 -159.5t3.5 -199v-35q106 -2 222 -4t225 -2q3 118 9 239t13 233.5t14 211.5t13 174.5t10 121.5t4 52 q0 9 -4 25t-4 30q0 3 7 5.5t16.5 4.5t18.5 3t13 1q13 0 22 -15t9 -28q0 -38 -5 -97.5t-12.5 -136.5t-16.5 -170.5t-18 -198.5t-16 -219.5t-10 -235.5h95z" />
<glyph unicode="I" horiz-adv-x="872" d="M653 43q-15 3 -29.5 6t-29.5 6q-34 -49 -83.5 -76.5t-117.5 -27.5q-43 0 -62.5 14.5t-19.5 34.5q0 14 12.5 28t36 25.5t57.5 19t77 7.5q15 0 30 -1t29 -3q38 61 57 153t28.5 201.5t12.5 229t9 235t19 219.5t42 182q-67 -7 -142 -14.5t-148 -23.5t-139.5 -44.5t-117.5 -76 t-81 -118t-30 -171.5q0 -42 12 -83t36 -73t60.5 -51.5t84.5 -19.5q43 0 74.5 12t54 29t38 35.5t26.5 31.5l10 -6q-9 -15 -27 -42.5t-46 -54t-66.5 -46t-88.5 -19.5q-57 0 -100 22.5t-72 58.5t-44 80.5t-15 88.5q0 108 36.5 187.5t97 136t139 94t161.5 61.5t164.5 38.5 t149.5 25.5q29 52 71.5 81t102.5 29q18 0 35.5 -14.5t17.5 -42.5q0 -27 -15.5 -45t-43.5 -30t-65.5 -19t-82.5 -13q-23 -72 -31.5 -172t-12.5 -214t-6.5 -235t-13.5 -233.5t-33.5 -210t-66.5 -165.5q13 -3 26 -6.5t27 -6.5zM489 10q14 10 27.5 22t24.5 27q-10 2 -19 2h-20 q-38 0 -62.5 -4.5t-39 -11t-20 -15t-5.5 -16.5q0 -11 9.5 -17.5t31.5 -6.5q17 0 35 4t38 16zM915 1432q-40 0 -70.5 -16.5t-51.5 -53.5q63 11 102 23.5t39 35.5q0 8 -7.5 9.5t-11.5 1.5z" />
<glyph unicode="J" horiz-adv-x="807" d="M82 -92q5 -31 18.5 -63t36.5 -58.5t57.5 -43.5t81.5 -17q72 0 120.5 44t80 120t49.5 177.5t29 217.5q-37 -13 -78 -21t-86 -8q-84 0 -156 23t-124 68t-81.5 110.5t-29.5 150.5q0 96 31 173.5t82.5 140t119 111t140.5 87.5t146.5 69t137.5 56q31 91 80 145t127 54 q8 0 19 -2t21.5 -8.5t18 -19t7.5 -32.5q0 -33 -19 -59t-52 -47.5t-78 -40.5t-97 -37q-12 -82 -18 -183t-10.5 -211.5t-10.5 -226.5t-16 -227q63 28 105 65t77 68l14 -14q-12 -12 -30.5 -30t-44 -39t-57 -43.5t-68.5 -41.5q-14 -130 -38.5 -245.5t-67 -202.5t-106.5 -138 t-157 -51q-43 0 -86 15t-77 42.5t-55.5 67t-21.5 88.5q0 12 6 21.5t15.5 16t21 10.5t23.5 4q8 0 8 -9q0 -5 -4 -11.5t-4 -14.5zM416 309q80 0 143 17q9 109 14.5 225t13 228t19.5 215.5t33 189.5q-63 -21 -130 -44.5t-131 -53t-121.5 -67.5t-100.5 -88t-68 -114.5 t-25 -146.5q0 -78 16 -135t43.5 -97t63 -65.5t75 -39.5t79.5 -19t76 -5zM842 1397q-23 0 -45 -7.5t-41.5 -23.5t-35 -41.5t-24.5 -62.5q37 15 68.5 29t54 28t35 28t12.5 29q0 6 -6 13.5t-18 7.5z" />
<glyph unicode="K" horiz-adv-x="848" d="M184 2q0 -6 1.5 -14.5t0.5 -16t-5 -13t-15 -5.5q-16 0 -24.5 6t-10.5 23q-3 32 -7 68.5t-7 74.5q-22 -25 -37.5 -31t-28.5 -6q-23 0 -37 14t-14 35q0 17 9.5 32t25 26t35 17.5t39.5 6.5q-8 103 -13.5 218t-5.5 239v150.5t2 149t7 168.5t14 210q2 11 3 23t1 14q0 8 -1 16 t7 8q5 0 16 -2.5t22 -6t19 -8.5t8 -9q-10 -142 -16 -249t-9 -189.5t-4 -147t-1 -121.5q0 -43 0.5 -95.5t1.5 -110.5t3 -119t5 -121q43 61 98.5 149.5t122 192.5t141.5 216t156 220t166.5 204.5t172.5 170t174 116.5t171 43q42 0 74.5 -13t54.5 -34.5t33.5 -50.5t11.5 -61 q0 -45 -17 -87t-38.5 -76t-41 -55.5t-24.5 -25.5l-12 8l22.5 27t23.5 37.5t18.5 54t7.5 76.5q0 27 -9.5 51t-26.5 42t-41.5 28t-55.5 10q-74 0 -153.5 -40t-160.5 -108.5t-162.5 -159.5t-160 -193.5t-153.5 -210.5t-143 -209.5t-127.5 -191.5t-107.5 -157q45 -12 85 -35.5 t77.5 -51.5t73 -57.5t72 -53t74 -39t79.5 -15.5q37 0 62.5 13.5t42 33t27 42.5t18.5 42l14 -6q-5 -12 -11.5 -30t-17 -38.5t-24.5 -41t-34 -37t-45.5 -27t-58.5 -10.5q-49 0 -92 15.5t-81.5 40t-73.5 55.5t-68 61t-65 56t-64 42q2 -45 4.5 -87t7.5 -79zM63 137 q13 0 25.5 6.5t26.5 22.5q-2 5 -2 9v9q-3 0 -6.5 1t-6.5 1q-34 0 -45.5 -11.5t-11.5 -20.5q0 -17 20 -17z" />
<glyph unicode="L" horiz-adv-x="750" d="M954 954q30 20 57 48t48 62.5t33 74t12 82.5q0 65 -28.5 117.5t-77.5 89t-113.5 56t-136.5 19.5q-90 0 -175 -24.5t-160 -68.5t-137.5 -106t-108 -137t-70.5 -161t-25 -179q0 -64 11 -123t27 -116t35.5 -112.5t35.5 -111.5t27 -114t11 -119q0 -15 -1.5 -30t-6.5 -29 q34 -13 67.5 -30.5t66 -33t63.5 -26.5t61 -11q31 0 53.5 8.5t38.5 24.5t27.5 37t19.5 47l21 -4q-31 -92 -77 -130t-112 -38q-37 0 -70.5 10.5t-64 26t-58.5 33.5t-54 32q-19 -35 -49 -60.5t-70 -25.5q-35 0 -54.5 20t-19.5 42q0 21 10 39t26.5 31t37 20.5t41.5 7.5 q33 0 69 -12q0 6 1 11.5t1 10.5q0 53 -13.5 107.5t-34 110t-44.5 113t-44.5 116.5t-34 120.5t-13.5 125.5q0 99 29.5 194t82.5 180.5t125.5 157.5t159 124.5t183 82t196.5 29.5q94 0 165.5 -24t119.5 -66t72 -99t24 -123q0 -51 -15 -94.5t-41 -81.5t-61.5 -71t-76.5 -62z M94 -14q26 0 43.5 13.5t28.5 33.5q-19 9 -37 15.5t-35 6.5q-23 0 -34 -12t-11 -25q0 -14 11 -23t34 -9z" />
<glyph unicode="M" horiz-adv-x="1675" d="M1679 158q-3 -11 -14 -35.5t-27.5 -55.5t-37.5 -64.5t-44 -61t-48 -45t-48 -17.5q-35 0 -59.5 32t-39.5 80t-21.5 105t-6.5 107q0 155 20 306.5t52.5 300.5t74 295.5t83.5 291.5q-21 0 -58.5 -50t-85.5 -132t-104 -188t-113 -217.5t-113 -220t-104 -196.5 q-5 -9 -13 -22.5t-18.5 -25.5t-23.5 -21t-27 -9q-15 0 -21 10t-8 27q-5 59 -9 133.5t-8.5 152t-9.5 153t-11 138t-14 106t-19 57.5q0 -8 1 -18q0 -8 0.5 -20t0.5 -26q0 -50 -10 -123t-30 -158.5t-49.5 -178t-68.5 -181.5t-87 -169.5t-106 -141t-124.5 -96t-141.5 -35.5 q-51 0 -85 19.5t-55 47t-32 57t-16 48.5l10 4q12 -29 33 -48t46.5 -30t54 -15.5t57.5 -4.5q66 0 126 30.5t112.5 83t98 123t83 150.5t66 165.5t48 168.5t29 159t8.5 137q0 14 -2 32t-4 34q1 4 4.5 11t9.5 14t14.5 11.5t20.5 4.5q28 0 46.5 -40t29.5 -105t17 -147.5 t10 -167.5t7 -165t9 -139q6 0 23.5 31t44.5 83.5t62 123t74.5 149.5t83 163t87 163t86.5 149.5t82 123t73 83.5t60 31q8 -5 16 -11.5t8 -15.5q-37 -135 -78 -286.5t-75.5 -310.5t-57 -321t-22.5 -319q0 -38 6 -83.5t18 -84.5t29 -65.5t39 -26.5q19 0 45 24t52 56.5t47.5 67 t31.5 55.5z" />
<glyph unicode="N" horiz-adv-x="1305" d="M2075 1411q-20 30 -42 59.5t-53 53.5t-73 38.5t-101 14.5q-105 0 -188 -51t-147 -138.5t-111 -203t-81.5 -245t-57 -264.5t-38 -261.5t-25 -236t-17.5 -187.5q-5 -16 -22 -28.5t-29 -12.5q-14 0 -17 26q-8 55 -18 131t-24 162t-32 178t-42.5 180t-56.5 166.5t-73 139.5 q-20 -71 -47 -158t-59.5 -181.5t-71 -192t-80.5 -188.5t-88 -170.5t-94.5 -138.5t-99 -93.5t-101.5 -34.5q-48 0 -81.5 18t-55.5 41.5t-33.5 45.5t-15.5 30l8 6q9 -10 22.5 -22.5t34.5 -23.5t51 -18.5t72 -7.5q55 0 107 35.5t100.5 96t92.5 141t83 171t73.5 186t63.5 186 t51.5 171t39.5 140.5q-38 48 -86 75t-105 27q-50 0 -89 -16t-65.5 -42.5t-40.5 -61.5t-14 -72q0 -40 12 -71.5t29 -55t36 -39.5t34 -25l-8 -10q-10 5 -33 22t-47 44.5t-42 64.5t-18 82q0 61 21.5 105.5t56 73.5t78 43.5t88.5 14.5q63 0 115.5 -24t95.5 -68q3 10 6 20.5 t6 16.5q5 15 12.5 22.5t14.5 10.5t12 3.5t6 0.5q-3 -17 -10 -44t-16 -62q45 -56 80 -129.5t62 -155.5t46.5 -168.5t33.5 -167t24.5 -151.5t19.5 -123q8 84 21 195t32 235.5t46.5 254.5t65.5 253.5t88 233t114 191.5t143.5 129.5t177.5 47.5q47 0 85 -13t67.5 -34t51 -47 t37 -52.5t25.5 -50t15 -39.5z" />
<glyph unicode="O" horiz-adv-x="1174" d="M602 -4q83 0 150.5 29t120 78t91.5 113.5t64 136.5t37 146t12 142q0 103 -14 202t-39 189q0 2 -7 4.5t-7 10.5q0 5 5.5 13t14 15.5t18 13t17.5 5.5q9 0 17 -19t15 -50t12.5 -70.5t10 -80t6.5 -78.5t2 -67q0 -77 -12.5 -166.5t-39.5 -178.5t-69.5 -171.5t-103.5 -145.5 t-141 -101t-182 -38q-88 0 -159.5 30t-127.5 82t-96.5 123t-67 153.5t-39 172t-12.5 179.5q0 98 18 200t53.5 198.5t89 181.5t125 148.5t161.5 100.5t198 37q80 0 139 -27.5t98 -71t58.5 -96.5t19.5 -104q0 -60 -23.5 -115t-76.5 -106l-12 16q37 37 48 80.5t11 85.5 q0 53 -23.5 102t-64.5 87t-95.5 60.5t-115.5 22.5q-101 0 -180.5 -34t-140.5 -92t-104.5 -134t-71 -160.5t-40 -171.5t-12.5 -167q0 -70 11 -150.5t34 -159.5t60 -152t88.5 -128.5t119 -89t152.5 -33.5z" />
<glyph unicode="P" horiz-adv-x="1153" d="M334 1372q0 8 2 14t10 11q6 3 15 8.5t18 5.5q5 0 9.5 -2.5t4.5 -7.5q2 -37 0.5 -123.5t-6.5 -202.5q61 94 128.5 175.5t136.5 141.5t137.5 94t132.5 34q48 0 86.5 -14.5t66.5 -48t43 -89t15 -137.5q0 -72 -19 -159.5t-53.5 -177t-82.5 -173.5t-106.5 -149t-125 -104.5 t-138.5 -39.5q-50 0 -85.5 17.5t-61 44.5t-41 61.5t-24.5 67.5t-12.5 62.5t-4.5 47.5l20 4q26 -122 77 -181.5t145 -59.5q75 0 137.5 34t111.5 90.5t86 129t61 149t36 151.5t12 136q0 47 -8 93.5t-27.5 83.5t-51 60t-79.5 23q-65 0 -132.5 -31t-133.5 -86.5t-129 -131.5 t-119 -167q-5 -111 -13 -236t-20 -248t-29 -235.5t-39.5 -198.5t-50.5 -137t-63 -51t-54 30.5t-28.5 74t-11.5 91t-2 81.5q0 82 18 176.5t51 194.5t78.5 201.5t100.5 197.5q6 118 9 224t3 181zM174 6q17 0 32.5 37.5t29.5 103t26 153.5t22.5 188.5t18.5 208t14 212.5 q-42 -84 -76.5 -173.5t-59.5 -180.5t-38.5 -181.5t-13.5 -176.5q0 -36 3 -70.5t9 -61.5t14.5 -43t18.5 -16z" />
<glyph unicode="Q" horiz-adv-x="981" d="M989 143q-3 -9 -14 -30.5t-29 -48.5t-42.5 -56t-55 -53t-66.5 -39.5t-77 -15.5q-33 0 -70.5 11.5t-76 29t-77 37t-73.5 34.5q-41 -24 -76.5 -37.5t-61.5 -13.5q-13 0 -26 2.5t-24 8.5t-18 15.5t-7 24.5q0 16 9.5 30.5t27 25t41 16.5t51.5 6q26 0 53 -6.5t55 -17.5 q63 45 133.5 113.5t139.5 152t132 178.5t111 193.5t76.5 196t28.5 185.5q0 74 -23 132.5t-63.5 99.5t-95 62.5t-117.5 21.5q-96 0 -185.5 -21t-168.5 -57.5t-144 -86.5t-112 -107.5t-73 -121t-26 -126.5q0 -48 10 -86t25.5 -66t34.5 -47t37 -31l-7 -8q-27 14 -53 36 t-46.5 51.5t-33 66.5t-12.5 80q0 71 33 143t90 138t133 123t162 99t177 66t179 24q71 0 134.5 -19.5t111.5 -62.5t76 -112t28 -168q0 -86 -30 -183.5t-80.5 -197.5t-117 -198.5t-140 -187t-149.5 -163t-144 -125.5q32 -15 64.5 -31t65 -29.5t64 -22.5t62.5 -9 q67 0 111.5 21.5t74 51.5t47 62t29.5 54zM272 -6q20 0 46 8.5t55 24.5q-40 16 -68 16q-32 0 -50.5 -8.5t-18.5 -22.5q0 -11 12 -14.5t24 -3.5z" />
<glyph unicode="R" horiz-adv-x="1300" d="M1227 37q-6 -12 -27 -36.5t-51.5 -49t-70 -42.5t-83.5 -18q-56 0 -106.5 32t-96 79t-86 101t-77.5 98q-16 -3 -32 -3.5t-32 -0.5q-29 0 -53 3.5t-41 12.5q-5 -57 -9.5 -114t-10.5 -115q0 -14 -11.5 -20.5t-25.5 -6.5q-11 0 -20 4t-9 10q0 7 10 15q22 340 34.5 683 t23.5 695q-89 -29 -168.5 -72.5t-139 -100t-94.5 -123.5t-35 -142q0 -25 5.5 -46t13.5 -37.5t16.5 -28t14.5 -17.5l-13 -9q-5 6 -14 18.5t-17.5 31.5t-15 44t-6.5 56q0 88 37.5 164.5t100.5 138.5t145.5 109.5t171.5 79.5q2 34 3 68t3 69q0 9 13 13.5t26 4.5q11 0 19.5 -3 t8.5 -9q0 -4 -4 -8q-2 -29 -3 -58t-3 -57q128 35 242 35q103 0 195.5 -28t162.5 -87.5t111 -152t41 -222.5q0 -79 -21 -162.5t-59 -163.5t-91 -154t-118 -134.5t-139 -105t-154 -64.5q39 -39 76.5 -84.5t77.5 -84t85.5 -64t100.5 -25.5q30 0 60.5 8t56.5 20.5t46.5 28.5 t29.5 31zM516 1380q-9 -266 -14.5 -532t-24.5 -543q5 2 11 3t14 1q46 0 85 -19.5t75 -51.5q79 15 149.5 51t130.5 88.5t108 117.5t82 138t52 150.5t18 154.5q0 101 -25 187.5t-80 149.5t-143 98.5t-215 35.5q-110 0 -223 -29zM565 229h19t18 2q-23 23 -44 38.5t-40 15.5 q-18 0 -28.5 -7t-10.5 -18q0 -14 25.5 -22.5t60.5 -8.5z" />
<glyph unicode="S" horiz-adv-x="946" d="M528 -74q-18 0 -33.5 5.5t-26 13.5t-16.5 17.5t-6 17.5q0 7 4.5 17t11 19t13 15t10.5 6q5 0 6 -3.5t1.5 -8t1.5 -9.5t6 -8q11 -6 26.5 -10t51.5 -4q46 0 86.5 14.5t71 39t48 57.5t17.5 71q0 52 -32.5 83t-86 50.5t-122 31.5t-139.5 26.5t-139.5 37t-122 61.5t-86 100 t-32.5 153q0 103 42 196.5t113 173.5t163 144t192 109t201.5 69.5t189.5 24.5q142 0 216.5 -50.5t74.5 -150.5q0 -45 -21 -86t-47 -73.5t-49.5 -54t-28.5 -26.5l-6 9q1 1 18 19t36 46t35 62t16 69q0 81 -67 120.5t-195 39.5q-132 0 -246 -31t-208.5 -82.5t-168 -118.5 t-124 -138t-77 -141t-26.5 -128q0 -78 33 -127.5t87 -81t122.5 -48.5t140.5 -30t140.5 -26.5t122.5 -37t87 -62t33 -101.5q0 -58 -18.5 -101t-47.5 -74t-64.5 -51.5t-70.5 -32.5t-64.5 -17t-46.5 -5z" />
<glyph unicode="T" horiz-adv-x="1294" d="M1632 1348q9 -6 21 -15.5t23.5 -23.5t19.5 -32t8 -40q0 -26 -9 -50t-28.5 -42t-50 -28.5t-72.5 -10.5q-52 0 -103.5 10t-104 26.5t-106 37.5t-108.5 43q-3 -337 -21.5 -648t-58.5 -606q-12 -34 -23.5 -47.5t-21.5 -13.5q-8 0 -12 6.5t-4 15.5v7q18 145 27.5 284.5t15 278 t8 280t6.5 291.5q2 50 3 93.5t1 88.5q-80 28 -167.5 48t-184.5 20q-141 0 -259 -26.5t-203 -85.5t-132 -153.5t-47 -230.5q0 -50 15 -102t49.5 -94.5t90 -69.5t136.5 -27q70 0 119 20.5t83 49.5t55.5 60.5t35.5 54.5l14 -8q-7 -14 -19.5 -36.5t-32 -48.5t-46.5 -53 t-62.5 -49t-79.5 -35.5t-98 -13.5q-69 0 -126 24.5t-97.5 69t-63 107.5t-22.5 141q0 95 27.5 175t76 144t114.5 112.5t142.5 81t160 49t167.5 16.5q100 0 188 -19t168 -47v109q0 14 6 24.5t15.5 17t20.5 10t20 3.5q8 0 13 -3t5 -9v-181q58 -22 113.5 -44t110.5 -40t110 -29 t113 -11q19 0 38.5 5t35 14.5t25 24.5t9.5 35q0 32 -17 51t-36 33z" />
<glyph unicode="U" horiz-adv-x="1348" d="M1286 285q-14 -22 -38.5 -58t-59.5 -80q6 -38 13.5 -72.5t17.5 -62.5h4q4 0 4 -4q0 -5 -5.5 -13.5t-14 -16.5t-19 -14.5t-19.5 -6.5q-12 0 -24 32.5t-25 88.5q-35 -33 -75.5 -63.5t-87.5 -53.5t-99.5 -37t-109.5 -14q-54 0 -109.5 17.5t-100.5 58t-73.5 106.5t-28.5 164 q0 64 13.5 135.5t33.5 147.5t43 155t43 158t33.5 156.5t13.5 150.5q0 46 -11 84.5t-34 66t-58 43t-83 15.5q-43 0 -89 -13.5t-90 -37.5t-84 -56t-69.5 -69t-47 -77.5t-17.5 -80.5q0 -18 10 -36.5t35 -18.5q18 0 35 9t28 26l11 -6q-6 -12 -13.5 -25.5t-17.5 -25t-23.5 -18.5 t-31.5 -7q-20 0 -32.5 7.5t-20 19.5t-10.5 26.5t-3 28.5q0 47 21.5 96.5t57 96t82 88t97 72.5t101.5 49t96 18q43 0 85 -14.5t74 -44.5t52 -76.5t20 -110.5q0 -72 -13 -148t-32 -154.5t-42 -158.5t-42 -160.5t-32 -159.5t-13 -155q0 -57 16.5 -107.5t49.5 -89t82 -60.5 t114 -22q57 0 106.5 10.5t91.5 28.5t78 41.5t66 50.5q-8 46 -15.5 100.5t-12.5 112.5t-8 117t-3 115q0 235 24.5 394.5t64.5 257t92 139.5t106 42q25 0 43 -10.5t31.5 -26.5t23 -34.5t17.5 -34.5l-13 -8q-20 20 -43 34.5t-61 14.5q-81 0 -124.5 -58.5t-63.5 -162t-23.5 -246 t-3.5 -309.5q0 -84 9.5 -180.5t25.5 -186.5q29 35 51 67t39 54z" />
<glyph unicode="V" horiz-adv-x="831" d="M1348 1325q6 19 12 45.5t6 59.5q0 42 -24.5 67t-75.5 25q-85 0 -157 -43.5t-133 -119t-111 -178.5t-91 -221.5t-73 -247t-56.5 -256.5t-42.5 -250t-31 -226q-1 -7 -1.5 -17.5t-4 -22t-11 -22.5t-22.5 -18q-37 -21 -40 4q-7 66 -15.5 149.5t-21 175t-28 186t-35.5 183 t-45 166.5t-55.5 136.5t-67 92t-79.5 33.5q-49 0 -81.5 -27.5t-32.5 -78.5q0 -31 11 -53t34 -42l-4 -4q-37 17 -54.5 49t-17.5 66q0 30 11.5 56.5t32.5 46t49.5 31t62.5 11.5q53 0 96 -35.5t78 -95t62.5 -138.5t48.5 -165.5t36.5 -176t27 -171t20 -149.5t14.5 -111 q16 104 36.5 225.5t47.5 249.5t61 257t76.5 248t94.5 222.5t114.5 180t137 120t161.5 43.5q26 0 50.5 -8t44 -24t31 -40.5t11.5 -56.5q0 -22 -6.5 -44t-15 -40.5t-17 -32t-12.5 -18.5z" />
<glyph unicode="W" horiz-adv-x="1374" d="M393 68q28 20 78 68.5t111 115t125.5 145t121.5 158.5q-5 50 -6.5 91.5t-1.5 72.5q0 57 10.5 109t31 91t51 62t71.5 23q32 0 48 -22.5t16 -59.5q0 -30 -12 -68t-33 -81.5t-50 -91t-63 -97.5q7 -86 18.5 -180t27 -183.5t34 -167.5t39.5 -133q33 140 69 284t76.5 285 t87 274t101 250.5t117.5 216t137 169t160.5 110t187.5 39.5q59 0 103 -20.5t75 -51t50 -67.5t28 -70l-9 -6q-8 10 -24 35t-45 50.5t-74 45t-111 19.5q-116 0 -212.5 -51.5t-177.5 -148.5t-150 -236.5t-130 -316t-116.5 -386.5t-110.5 -448q-2 -10 -10.5 -20.5t-18.5 -18.5 t-20 -13.5t-14 -5.5q-5 0 -8 1t-5 4t-4.5 9t-7.5 17q-21 50 -39.5 125t-34 162t-27.5 178t-19 172q-47 -63 -98 -124t-101 -116.5t-96 -103t-83.5 -82.5t-64 -54.5t-37.5 -19.5q-8 0 -12 7t-6.5 16.5t-3 18t-0.5 11.5q0 88 12 174.5t27 172.5t27 172t12 174q0 29 -7 59.5 t-25.5 55.5t-50 41t-79.5 16q-45 0 -84 -16.5t-67.5 -43.5t-45 -61.5t-16.5 -71.5q0 -46 25 -81t65 -44l-2 -8q-21 4 -43 17.5t-40 33.5t-29 45t-11 54q0 54 27.5 97t68.5 73t89 45.5t89 15.5q42 0 78 -13t62.5 -40.5t41.5 -70.5t15 -103q0 -77 -12 -161.5t-27 -172.5 t-27 -176.5t-12 -173.5zM883 762q0 -28 0.5 -58.5t3.5 -62.5q45 72 73.5 137t28.5 113q0 7 -1.5 16t-5 17t-9.5 14t-15 6q-27 0 -42.5 -19.5t-22.5 -48t-8.5 -59.5t-1.5 -55z" />
<glyph unicode="X" horiz-adv-x="1153" d="M1925 1290q-10 9 -29 25.5t-47.5 33t-67 28.5t-87.5 12q-85 0 -164.5 -48t-155.5 -130.5t-148 -191.5t-141 -231.5t-136 -251t-132 -249.5q9 -72 19.5 -132.5t25.5 -104.5t35 -68.5t49 -24.5q22 0 45.5 12t45 27t38 29.5t23.5 19.5l4 -2q-4 -7 -14.5 -21t-26.5 -31 t-34.5 -35t-38.5 -33t-39.5 -24.5t-35.5 -9.5q-32 0 -55.5 22.5t-41 62t-29.5 95t-21 121.5q-56 -99 -110 -184.5t-108 -149t-107 -99.5t-107 -36q-39 0 -71 18.5t-56 43.5t-40.5 50t-25.5 38l9 8q14 -15 31 -30.5t39.5 -29t52 -22t67.5 -8.5q51 0 102 36t102.5 98.5 t104.5 147.5t107 183q-12 100 -23.5 211.5t-28 220.5t-41.5 209t-65.5 176t-99.5 121t-142 45q-81 0 -136.5 -30t-90.5 -78t-50.5 -107t-15.5 -117q0 -51 10.5 -91t27.5 -70.5t39 -51t46 -30.5l-6 -13q-34 6 -66 26t-57.5 51t-41 72.5t-15.5 92.5q0 85 34 159.5t88.5 129.5 t122.5 86.5t136 31.5q87 0 149.5 -42.5t106.5 -114.5t72.5 -166.5t47.5 -199.5t31 -213.5t23 -207.5q64 121 130 250t135 251.5t141.5 232t148.5 192t157 130.5t167 48q53 0 93.5 -16.5t70 -41t48.5 -53t29 -51.5z" />
<glyph unicode="Y" horiz-adv-x="788" d="M203 809q-26 3 -61 12t-66.5 30.5t-53.5 58t-22 94.5q0 53 21.5 93t56.5 66.5t79 40t89 13.5q72 0 126.5 -25.5t94 -69.5t65.5 -102t41.5 -123t22.5 -132.5t8 -131.5q24 97 59.5 201t83.5 203t108 188.5t134.5 156.5t163.5 106.5t193 39.5q41 0 81 -12t71 -36t50 -59.5 t19 -83.5q0 -60 -23.5 -108.5t-55.5 -84.5t-65 -60t-51 -35l-8 10q17 12 41.5 31t47 48t38.5 70t16 97q0 29 -10 58t-31.5 52.5t-54.5 38t-78 14.5q-107 0 -196.5 -42t-163 -113t-132 -166t-104 -201t-79 -217t-56.5 -215q-2 -71 -5 -148.5t-8 -150.5t-11 -136.5t-13 -105.5 q-1 -11 -8.5 -19t-17.5 -14t-20.5 -9t-16.5 -3t-11.5 4.5t-5.5 12.5q4 31 10.5 78t13.5 102.5t14 116.5t13 121.5t9.5 116t3.5 100.5q0 56 -4 121t-16 129.5t-34 124.5t-58 105.5t-87.5 73t-122.5 27.5q-36 0 -69.5 -10.5t-59 -31.5t-40.5 -52.5t-15 -73.5q0 -45 16 -75 t40.5 -50t53 -31.5t54.5 -17.5z" />
<glyph unicode="Z" horiz-adv-x="1102" d="M1204 82q-23 -38 -49.5 -75.5t-60.5 -67.5t-77 -49t-99 -19q-79 0 -153 19.5t-145 45.5t-141 52t-141 39q-38 -31 -78 -52.5t-74 -21.5q-21 0 -37 9t-16 32q0 12 7.5 24t23.5 22t41.5 16.5t60.5 6.5q16 0 31 -1t31 -1q52 60 113 155.5t129.5 209.5t142.5 239.5t152 247 t159 230.5t164 190q-57 0 -118 5t-127.5 10.5t-139.5 10.5t-154 5q-128 0 -242.5 -27t-200.5 -82t-137 -138.5t-51 -196.5q0 -42 7.5 -76.5t21.5 -63t35 -52.5t47 -46l-8 -10q-15 10 -35.5 31.5t-39.5 52t-32.5 68.5t-13.5 83q0 93 27.5 168.5t76.5 134.5t117.5 102 t150.5 71t174.5 41.5t190.5 13.5q55 0 115.5 -6t121.5 -12.5t120.5 -12.5t113.5 -6h58q54 43 104.5 68.5t99.5 25.5q19 0 31 -11.5t12 -27.5q0 -26 -27.5 -47t-68.5 -36t-89 -24.5t-89 -13.5q-53 -55 -107 -128t-108 -157.5t-108 -177.5t-108.5 -187t-108.5 -185.5 t-108.5 -173.5t-109 -151t-108.5 -118q79 -9 151 -27.5t142.5 -36.5t142.5 -32t152 -14q54 0 91.5 15.5t64 38t44 47t31.5 42.5zM209 4q17 0 43 4.5t49 24.5q-15 2 -31.5 3t-31.5 1q-28 0 -42 -6.5t-14 -14.5t8 -10t19 -2zM1430 1452q-33 0 -58.5 -11t-54.5 -34q28 3 52 7 t42 9.5t28.5 11.5t10.5 13q0 3 -7.5 3.5t-12.5 0.5z" />
<glyph unicode="[" horiz-adv-x="799" d="M520 1413q-49 -2 -95 -6q-39 -4 -79.5 -11.5t-66.5 -19.5q0 -177 -2.5 -365t-6 -377t-6 -374t-2.5 -354q0 -28 2.5 -49.5t11 -36.5t24.5 -23t42 -8q42 0 84.5 3t79.5 15l6 -22q-20 -7 -46.5 -15t-55 -15t-57.5 -12t-54 -5q-34 0 -55.5 12.5t-34 32t-17 44.5t-4.5 50 q0 64 1.5 147.5t3 179t4 200t4 211.5t3 213t1.5 204q0 105 -2 198.5t-2 166.5q0 16 10.5 23.5t44.5 10.5t97 3t167 2v-23z" />
<glyph unicode="\" horiz-adv-x="623" d="M29 1356q78 -188 144 -360t128 -337.5t124.5 -328.5t133.5 -334q6 -16 -5 -23.5t-24 -7.5q-17 0 -20 21q-68 169 -130.5 328.5t-126.5 323t-132.5 337.5t-147.5 373q-1 1 -1 2q-1 1 -1 4q0 6 6.5 9t14.5 3t21.5 -2.5t15.5 -7.5z" />
<glyph unicode="]" horiz-adv-x="799" d="M238 -227q18 2 52 2t69.5 2t65 8.5t38.5 21.5q1 16 2 70.5t2.5 135t2.5 182t2.5 212.5t2 226.5t0 223t-1.5 202.5t-3.5 166t-6.5 112t-10 41q-45 0 -96.5 -2t-127.5 -14l-2 20q29 8 69.5 17t80.5 17t72.5 13t46.5 5q13 0 21 -6.5t13 -16t7 -20t2 -19.5q0 -198 2 -392.5 t2 -389t-3.5 -390t-13.5 -395.5q-1 -14 -1.5 -25t-4 -18t-12.5 -10.5t-27 -3.5h-241z" />
<glyph unicode="^" d="M264 1065q-5 -5 -15.5 -2.5t-21 7.5t-17.5 12t-3 12q26 35 67 86t84 110q30 40 47 67.5t28.5 44.5t22 24.5t27.5 7.5h8t15 -2t14.5 -7t7.5 -14q14 -44 33 -84t41.5 -80t48.5 -80t54 -84q9 -15 -6 -28t-46 -13q-20 23 -38 54.5t-34.5 66t-31.5 68t-28.5 60t-25 43 t-20.5 16.5q-10 0 -33 -28t-52.5 -70t-62.5 -92t-63 -95z" />
<glyph unicode="_" horiz-adv-x="512" d="M268 -195q-45 0 -82 -1t-71.5 -2t-70.5 -2t-79 -1q-2 0 -4 1.5t-2 6.5q0 6 3.5 15t9 17.5t12.5 14t14 5.5q46 0 83 1t72 2t72 2t82 1h37t55 -1t50 -3t22 -6q0 -5 -3.5 -14.5t-8.5 -18.5t-10.5 -16t-10.5 -7q-46 3 -84 4.5t-86 1.5z" />
<glyph unicode="`" horiz-adv-x="614" d="M213 680q-10 0 -10 8q0 6 4 15t10 17t13.5 13.5t13.5 5.5q4 0 6 -2q22 -24 41.5 -47.5t38.5 -45t38.5 -42.5t41.5 -41q2 -2 2 -10q0 -9 -7.5 -19t-15.5 -10t-10 4q-40 47 -86 85t-80 69z" />
<glyph unicode="a" horiz-adv-x="514" d="M371 346q-9 0 -16.5 10.5t-19.5 22.5t-30.5 22.5t-48.5 10.5q-42 0 -78 -21.5t-62 -54t-40.5 -71t-14.5 -72.5q0 -53 27 -87t72 -34q35 0 61.5 13.5t44.5 35.5q-6 27 -6 67q0 43 6.5 70t16 42t19.5 20.5t17 5.5q8 0 18.5 -11t10.5 -39q0 -35 -12.5 -73.5t-34.5 -73.5 q12 -31 37 -45t57 -14q28 0 52.5 12.5t46 33.5t40.5 48.5t35 56.5l6 -4q-12 -38 -32 -74t-46 -64t-56.5 -44.5t-63.5 -16.5q-25 0 -54.5 16.5t-48.5 59.5q-31 -37 -71 -61.5t-86 -24.5q-26 0 -47 12t-35.5 32t-22.5 47t-8 57q0 51 22.5 102t60 92t86 66.5t101.5 25.5 q39 0 65.5 -8.5t42.5 -20t23 -23.5t7 -19q0 -14 -14.5 -19.5t-26.5 -5.5zM287 213q0 -33 6 -57q15 28 22 57.5t7 50.5q0 25 -9 25t-17.5 -22t-8.5 -54z" />
<glyph unicode="b" horiz-adv-x="516" d="M184 8q-34 0 -60.5 6.5t-45 23t-28 44.5t-9.5 70q0 26 3 84.5t7 148.5t7 210t3 269q0 73 -0.5 140.5t-1.5 120t-1.5 85t-0.5 35.5q0 8 2.5 14t10.5 11q6 3 14.5 8.5t17.5 5.5q11 0 17 -6q6 -5 9.5 -18.5t5.5 -46t2.5 -90t0.5 -148.5q0 -84 -4 -174t-9.5 -177t-12 -167 t-12 -144t-9.5 -106.5t-4 -54.5q0 -25 10 -45.5t26.5 -35.5t37.5 -23.5t43 -8.5q42 0 77.5 21.5t61.5 54t40.5 71t14.5 72.5q0 53 -26.5 87t-71.5 34q-44 0 -74.5 -21t-50 -51t-28.5 -63t-9 -58q0 -9 0.5 -13.5t3.5 -16.5q3 -13 -1 -18t-10.5 -3t-12.5 12t-6 27q0 42 18 89 t49 86.5t73.5 66t90.5 26.5q26 0 47 -11.5t35.5 -32t22.5 -47t8 -56.5q0 -51 -22.5 -102t-60 -92t-86.5 -67t-102 -26z" />
<glyph unicode="c" horiz-adv-x="436" d="M266 449q15 0 31 -4t29 -11.5t21.5 -18.5t8.5 -26q0 -32 -19.5 -56t-42.5 -41q-27 -19 -61 -34l-6 10q18 10 32 23q12 11 22 27.5t10 37.5q0 20 -18 37t-50 17t-57.5 -16.5t-43.5 -43t-28 -60t-10 -67.5q0 -29 8.5 -55.5t25.5 -46.5t44 -31.5t65 -11.5q37 0 65 9.5 t47 20.5q22 13 38 31l8 -6q-20 -32 -48 -57q-25 -21 -62 -38.5t-89 -17.5q-28 0 -57.5 9.5t-53.5 29t-39.5 50t-15.5 71.5q0 53 18.5 102t51.5 86t78 59t98 22z" />
<glyph unicode="d" horiz-adv-x="602" d="M295 432q-3 29 -3.5 60t-0.5 65q0 72 3.5 151.5t11 156.5t18.5 147t27 123t36 84.5t45 31.5q38 0 56 -67t18 -207q0 -82 -10.5 -183.5t-36.5 -207.5q-22 -91 -41.5 -159.5t-36.5 -119.5q9 -48 22.5 -91t30.5 -75t38 -50.5t46 -18.5q21 0 42 17t39.5 40t33 47t22.5 39 l9 -4l-5 -14t-15 -35.5t-24.5 -46.5t-32.5 -46.5t-40 -36t-47 -14.5q-54 0 -95 46t-69 133q-14 -32 -35 -62.5t-47 -54t-57.5 -37.5t-65.5 -14q-26 0 -49.5 9t-40.5 26.5t-27 41.5t-10 54q0 51 23 99.5t62 87t89.5 62t106.5 23.5h10zM414 1204q-11 0 -19.5 -28.5 t-15.5 -75.5t-12 -108t-8.5 -125t-5 -126.5t-1.5 -113.5q0 -59 5 -128.5t16 -138.5q15 48 31 108.5t28.5 130t20.5 147t8 161.5q0 69 -3 124t-8.5 93.5t-14.5 59t-21 20.5zM170 90q31 0 55 13.5t43 34t33 45.5t25 48q-10 36 -16 74.5t-11 81.5q-15 6 -33 6 q-52 0 -89.5 -16.5t-61.5 -42.5t-35.5 -58t-11.5 -63q0 -53 28.5 -88t73.5 -35z" />
<glyph unicode="e" horiz-adv-x="446" d="M317 494q13 -3 13 -17q0 -4 -2.5 -10.5t-6 -13t-7.5 -11t-7 -4.5q-5 0 -12 3.5t-20 8t-34 8t-55 3.5q-48 0 -80 -18t-32 -50q0 -23 19.5 -38.5t46 -24.5t54 -13t42.5 -4q11 0 14.5 -3.5t3.5 -6.5q0 -8 -6.5 -9.5t-16.5 -4.5q-26 -9 -53 -22.5t-49.5 -32t-36.5 -41.5 t-14 -50q0 -45 36.5 -74.5t102.5 -29.5q75 0 125 22.5t82.5 52.5t50.5 60.5t27 46.5l6 -4q-17 -49 -43.5 -91t-64 -72.5t-87.5 -48t-114 -17.5q-39 0 -72 9.5t-57 26.5t-37 42t-13 57q0 37 17 64t39 44.5t43.5 27t30.5 13.5q-31 5 -55 17q-20 11 -37 30.5t-17 53.5 q0 31 15 56.5t40.5 42.5t59 26.5t71.5 9.5q22 0 44.5 -3t45.5 -11z" />
<glyph unicode="f" horiz-adv-x="338" d="M139 -741q-27 0 -48.5 12.5t-36 44.5t-22 86t-7.5 137v312.5t0.5 229.5t0.5 165t0.5 120.5t0.5 96v90.5q0 76 6 158t18.5 161t32.5 150t48 125t65 85.5t84 31.5q18 0 36 -11.5t32.5 -35t23 -58.5t8.5 -82q0 -82 -17.5 -167t-45.5 -167t-62 -157t-66 -137t-59 -107 t-41 -66q0 -3 -0.5 -7.5t-0.5 -14v-26t1 -44.5q3 -29 13.5 -51.5t26 -38t34 -23.5t37.5 -8q40 0 70.5 16.5t54.5 42t42 57t33 61.5l7 -4q-9 -23 -25.5 -60t-42 -72t-61.5 -60.5t-84 -25.5q-14 0 -30.5 2.5t-33.5 12.5q25 -63 46 -123.5t36.5 -124.5t24 -134.5t8.5 -154.5 q0 -53 -8.5 -96.5t-22.5 -75t-34 -48.5t-42 -17zM94 559q0 -29 -0.5 -62t-1.5 -64.5t-1.5 -60.5t-0.5 -50q17 32 41.5 79t51 103.5t52 121.5t46 133t33 138t12.5 137q0 36 -3.5 68.5t-13 56.5t-26 38.5t-43.5 14.5q-28 0 -50 -25.5t-38 -71t-27 -107.5t-18 -134.5t-10 -153 t-3 -161.5zM205 -469q0 79 -10 151t-26 138.5t-37 129t-42 122.5v-170q0 -72 -0.5 -144.5t0.5 -139.5t3.5 -125t7.5 -101t14.5 -67.5t23.5 -24.5q15 0 27.5 11.5t21 38t13 71t4.5 110.5z" />
<glyph unicode="g" horiz-adv-x="516" d="M352 440q28 0 47 -4t30 -10.5t15.5 -14t4.5 -14.5q0 -11 -10.5 -25t-18.5 -14q-4 0 -10.5 3.5t-19 7t-31 7t-46.5 3.5q-115 0 -178 -50.5t-63 -138.5q0 -15 6.5 -33t20 -33t35 -25.5t52.5 -10.5q59 0 100.5 22t69.5 50q0 5 1 9t3 9q7 34 18.5 63.5t24.5 51t26 33.5t22 12 q11 0 12.5 -7t1.5 -12q0 -18 -20.5 -59.5t-55.5 -87.5q-8 -48 -16 -121t-15 -167t-11.5 -206.5t-4.5 -238.5q0 -105 4 -202.5t8.5 -172.5t8.5 -121.5t4 -50.5q0 -14 -2.5 -21.5t-10.5 -15.5q-6 -6 -14.5 -13t-17.5 -7q-12 0 -17 8q-6 7 -13 29t-12.5 73.5t-9.5 140.5t-4 232 q0 126 8 243.5t20.5 221t27.5 191t28 153.5q-42 -42 -92.5 -71t-107.5 -29q-26 0 -50.5 7.5t-43 23.5t-29.5 40t-11 56q0 43 24.5 93.5t69 93t106.5 71t136 28.5zM408 248q-4 -5 -7 -15t-6 -24q4 5 7 8.5t5 6.5q2 4 3 7q4 14 6 22q2 7 1 7.5t-9 -12.5z" />
<glyph unicode="h" horiz-adv-x="434" d="M41 152q0 26 3 84.5t7 148.5t7 210t3 269q0 73 -0.5 140.5t-1.5 120t-1.5 85t-0.5 35.5q0 8 2.5 14t10.5 11q6 3 14.5 8.5t17.5 5.5q11 0 17 -6q6 -5 9.5 -18.5t5.5 -46t2.5 -90t0.5 -148.5q0 -84 -4 -174t-9.5 -177t-12 -167t-12 -144t-9.5 -106.5t-4 -54.5v-12t1 -13.5 t3 -11t6 -4.5q10 0 21 32t28 86q11 34 25 69t29.5 63.5t32 46.5t32.5 18q12 0 20.5 -7t14.5 -17.5t9 -22.5t5 -23l3 -36t4 -55t4.5 -65t5.5 -65q5 -56 27 -81t57 -25q14 0 22 2t15 2q5 0 2 -10q-2 -4 -17 -13.5t-53 -9.5q-32 0 -53.5 10.5t-34 33t-19 59t-8.5 87.5 q-2 29 -3.5 60.5t-5 57.5t-9.5 42.5t-17 16.5q-9 0 -20 -20.5t-21.5 -48t-19.5 -55t-14 -42.5q-4 -12 -12 -40t-19 -57t-24 -51t-27 -22q-12 0 -19 13.5t-10.5 33t-4.5 40t-1 34.5z" />
<glyph unicode="i" horiz-adv-x="260" d="M68 416q8 0 15.5 -4.5t13 -9.5t9 -10.5t3.5 -6.5t-2.5 -10.5t-6 -31.5t-6 -57.5t-2.5 -88.5q0 -71 17.5 -99t42.5 -28t49.5 15t46.5 39t41.5 54.5t34.5 61.5l6 -4q-4 -10 -12 -30.5t-20 -44.5t-28.5 -49.5t-38 -46t-47 -34t-55.5 -13.5q-21 0 -38.5 8t-31 29.5t-21 59.5 t-7.5 98q0 31 2.5 66.5t7 66t11.5 50.5t16 20zM92 664q25 0 36 -17.5t11 -42.5q0 -29 -16 -45t-39 -16q-17 0 -33 13t-16 42q0 32 16 49t41 17z" />
<glyph unicode="j" horiz-adv-x="262" d="M-203 -772q0 101 20 178.5t54 143.5t79.5 126t96.5 127q-2 48 -3.5 92t-3 92t-2.5 103t-1 125q0 20 1 56t2 71.5t2 63t1 30.5q0 10 3.5 17t6.5 10q3 4 10 10.5t15.5 13t15.5 11t10 4.5q7 0 8 -4t1 -6t-1.5 -23.5t-4 -59.5t-4 -90t-1.5 -114t0.5 -109t2 -84t3 -67.5 t3.5 -59.5q45 62 90 134t90 165l14 -14q-46 -103 -95 -180t-97 -142q2 -40 3 -87.5t1 -118.5q0 -151 -16.5 -264.5t-43.5 -189t-62 -113.5t-73 -38q-24 0 -47 12.5t-40 36.5t-27.5 59.5t-10.5 82.5zM51 -389q0 45 -1 82t-1 71q-41 -54 -76 -105.5t-61.5 -109t-41.5 -125.5 t-15 -155q0 -29 5 -62t16.5 -61t29 -46t43.5 -18q20 0 36 21.5t27 59t18.5 88.5t12 110t6.5 122.5t2 127.5zM94 721q23 0 37 -16t14 -48q0 -35 -16.5 -51t-38.5 -16q-15 0 -31 13.5t-16 47.5q0 32 15.5 51t35.5 19z" />
<glyph unicode="k" horiz-adv-x="473" d="M39 23q-3 0 -8.5 5t-5.5 13q0 14 6.5 26.5t17.5 30.5v107q0 28 -3 108t-3 222q0 76 6 158t18.5 161t32.5 150t48.5 124.5t65 85t83.5 31.5q18 0 36 -11.5t32.5 -34.5t23 -58t8.5 -82q0 -80 -17 -163t-43.5 -163.5t-59.5 -154t-65 -135t-59 -107.5t-42 -70q-2 -21 -2 -42 v-38q22 32 52.5 73t65.5 77t73.5 61t76.5 25q34 0 46.5 -13t12.5 -36q0 -30 -16 -56t-39.5 -48t-51 -40t-51 -31t-39.5 -22t-16 -12q0 -8 17.5 -20.5t39.5 -24.5t40 -21l20 -10q6 -3 12 -5.5t6 -8.5q0 -2 -3 -9t-8 -14t-12 -12.5t-16 -5.5q-17 0 -43 12.5t-49 28.5 q-24 15 -39.5 34.5t-15.5 34.5q0 5 5 13.5t16 13.5q3 1 17 10t33.5 22t41 30t40 35.5t30.5 36.5t12 34q0 14 -8.5 24.5t-28.5 10.5q-14 0 -29.5 -8t-32 -20.5t-32.5 -29t-31 -34.5q-13 -16 -32 -43t-36.5 -54.5t-31 -51t-15.5 -32.5q-2 -8 -4.5 -20.5t-8.5 -25.5t-15 -22 t-23 -9zM106 541q0 -29 1 -60t1.5 -61.5t1.5 -58.5t1 -50q27 50 66 129t76 174t63 199t26 203q0 36 -3.5 68.5t-12.5 56.5t-26 38.5t-44 14.5q-28 0 -50 -26t-39 -71.5t-28.5 -107.5t-18.5 -134.5t-10.5 -152.5t-3.5 -161z" />
<glyph unicode="l" horiz-adv-x="344" d="M403 217q-2 -7 -15.5 -37.5t-37 -65t-56 -62t-73.5 -27.5q-53 0 -96 40.5t-73.5 115t-47 180.5t-16.5 237q0 72 5 151.5t16 156.5t27.5 147t39.5 123t53.5 84.5t67.5 31.5q55 0 80.5 -67t25.5 -207q0 -82 -12 -183.5t-41 -207.5q-38 -134 -79.5 -228.5t-70.5 -150.5 q11 -39 24.5 -71t30.5 -55.5t37 -36.5t44 -13q30 0 56 18t46.5 42t35.5 49t23 40zM49 668q0 -42 2.5 -90.5t7.5 -98.5t12.5 -100t18.5 -96q21 44 49.5 113t55 155.5t45 187.5t18.5 209q0 68 -5.5 124.5t-16.5 97t-27.5 63t-38.5 22.5q-21 0 -38 -29.5t-30.5 -77.5 t-23.5 -110t-16.5 -127t-9.5 -128.5t-3 -114.5z" />
<glyph unicode="m" horiz-adv-x="694" d="M53 512q6 6 15 6q18 0 28 -18t10 -68v-41.5t-0.5 -58t-0.5 -64.5t-0.5 -61.5t-0.5 -49v-26.5q0 -22 7 -22q4 0 10.5 12.5t15 32.5t18.5 44.5t21 49.5q18 40 32 74.5t27.5 60t29 39.5t36.5 14q29 0 42 -26.5t13 -87.5q0 -24 -0.5 -58.5t-0.5 -66.5t-0.5 -57t-0.5 -29 q0 -13 2 -13t6.5 10t11 27t15 39.5t17.5 46.5q18 47 31 82.5t25 59.5t24.5 36.5t27.5 12.5q4 0 13.5 -1.5t19.5 -7t17 -16t7 -29.5q0 -11 1 -43t3 -69.5t3.5 -72.5t3.5 -52q1 -23 9 -36.5t16 -22t15 -12.5t7 -7q0 -5 -12.5 -9.5t-24.5 -4.5q-39 0 -55 24t-20.5 66t-4 98 t-4.5 121q-2 11 -4 16.5t-10 5.5q-7 0 -16 -17t-19 -42.5t-20.5 -55.5t-20.5 -57q-7 -18 -17 -47t-21.5 -56.5t-24.5 -47t-27 -19.5q-15 0 -21.5 11.5t-8.5 36.5t-1.5 64t0.5 93v113q0 28 -6.5 34.5t-14.5 6.5q-11 0 -19 -9.5t-19 -35.5q-5 -11 -14.5 -33.5t-21.5 -50.5 t-25 -58.5t-25 -57.5t-21.5 -47.5t-13.5 -27.5q-13 -17 -22 -22.5t-21 -5.5q-5 0 -10.5 2.5t-10.5 9t-8.5 19t-3.5 32.5v342q0 21 -6 28.5t-13.5 9.5t-13.5 2t-6 5t7.5 10.5t16.5 10t17 8t10 4.5z" />
<glyph unicode="n" horiz-adv-x="455" d="M86 446q5 0 8 -8t4.5 -19t1.5 -23.5v-22.5q0 -26 -1.5 -53.5t-3 -53t-2.5 -47t-1 -35.5q0 -26 2 -41.5t10 -15.5q5 0 13 13t17.5 31.5t18.5 39.5t17 37q10 21 22.5 46.5t26.5 48t29.5 37.5t32.5 15q11 0 19.5 -6t14.5 -15.5t9.5 -20t5.5 -19.5q3 -23 6.5 -72.5 t9.5 -105.5q5 -56 27 -81.5t57 -25.5q14 0 22.5 2t14.5 2q5 0 2 -10q-1 -2 -4.5 -5.5t-11.5 -7.5t-21.5 -7t-32.5 -3q-32 0 -53 10.5t-34 33.5t-19 59.5t-8 87.5q-2 24 -3.5 46.5t-5 40t-9.5 28t-17 10.5q-9 0 -21.5 -18t-24.5 -42.5t-22.5 -50.5t-17.5 -41 q-22 -47 -36.5 -77t-31.5 -58q-5 -8 -10.5 -13t-13.5 -5q-12 0 -19 20t-10.5 46t-4.5 52.5t-1 40.5q0 16 0.5 39t1.5 45t1.5 40t0.5 24t-0.5 16.5t-0.5 21t-0.5 19t-0.5 11.5q0 8 4.5 13.5t9.5 8.5t16 10.5t17 7.5z" />
<glyph unicode="o" horiz-adv-x="451" d="M205 63q24 0 47 10.5t41 31t28.5 50.5t10.5 70q0 33 -8 62.5t-23.5 51.5t-40 35t-57.5 13q-23 0 -46 -8.5t-41 -27t-29 -47t-11 -68.5q0 -32 8 -62.5t23.5 -55.5t40 -40t57.5 -15zM170 12q-66 0 -108 43.5t-42 126.5q0 56 21 103.5t54.5 82t74.5 53.5t80 19q63 0 101 -43 t38 -127q0 -56 -19.5 -103t-51 -81.5t-70.5 -54t-78 -19.5z" />
<glyph unicode="p" horiz-adv-x="489" d="M113 604q5 0 3.5 -19.5t-5 -50t-7.5 -67.5t-4 -72q0 -71 1.5 -133t4.5 -121q33 55 67.5 100t69.5 77t70 49.5t70 17.5q28 0 47 -15.5t19 -54.5q0 -28 -11.5 -56.5t-31 -57t-44 -55.5t-49.5 -51q-60 -56 -135 -109l-10 12q59 51 106 100q20 21 39 43.5t34 45t24.5 43 t9.5 38.5q0 6 -1.5 16t-7.5 19.5t-17.5 16t-30.5 6.5q-23 0 -49 -16t-53.5 -45.5t-56 -72t-56.5 -94.5q4 -72 9 -139t9.5 -133.5t7 -135.5t2.5 -145q0 -176 -19.5 -308t-50 -220.5t-69 -133t-76.5 -44.5q-22 0 -43.5 18t-38 52.5t-27 84.5t-10.5 115q0 95 18 211t50.5 237.5 t76.5 242t95 225.5v100q0 118 9.5 207.5t21.5 150t23.5 91t15.5 30.5zM66 -496q0 88 -2.5 147.5t-6 108t-7 96.5t-5.5 113q-38 -86 -71 -184.5t-58.5 -203.5t-40 -212t-14.5 -209q0 -39 4 -87t14.5 -90t27 -70.5t42.5 -28.5q20 0 37 25t30 69t22.5 103.5t15.5 128.5t9 144 t3 150z" />
<glyph unicode="q" horiz-adv-x="504" d="M295 428q5 68 9 107.5t9 39.5q9 0 16.5 -4t13 -9.5t8.5 -10.5t3 -6q0 -11 -1 -43.5t-1 -81.5q38 -9 64 -31t26 -59q0 -31 -16.5 -52.5t-44.5 -41.5l-14 4q8 20 13 35.5t5 29.5q0 22 -9.5 37.5t-25.5 26.5q-2 -87 -3.5 -200.5t-4.5 -240.5q28 -58 52.5 -107.5t45 -97 t36 -95t26.5 -101.5t16.5 -118t5.5 -144q0 -25 -2.5 -56.5t-9 -65t-17 -65.5t-27 -56.5t-39.5 -40t-54 -15.5q-51 0 -78 68t-27 182q0 72 1 173.5t2.5 217t4 237.5t5.5 236q-9 -12 -22 -26t-31 -26t-40.5 -20t-50.5 -8q-23 0 -47 9.5t-43.5 29t-32 49.5t-12.5 72 q0 53 25 101.5t65.5 85.5t92 59t104.5 22h4zM467 -766q0 88 -3.5 157.5t-10.5 126t-17 102.5t-24 88.5t-31.5 83t-38.5 85.5q-2 -95 -3 -190t-2.5 -185t-2 -171t-0.5 -146q0 -97 17 -147t40 -50q25 0 40.5 24t23 60t10 79.5t2.5 82.5zM283 104q3 81 5 152t5 131 q-8 0 -16.5 1t-16.5 1q-45 0 -81 -16.5t-60.5 -43t-37.5 -59.5t-13 -67q0 -29 6 -55.5t19.5 -46.5t34.5 -32t50 -12q40 0 66 16.5t39 30.5z" />
<glyph unicode="r" horiz-adv-x="471" d="M223 422q25 0 40 -10.5t22.5 -25t9.5 -29.5t2 -25q0 -12 -3 -38t-6 -54t-6 -52t-3 -32q0 -20 3 -36.5t11 -29.5t22 -20t37 -7q42 0 88 42t86 116l6 -4q-11 -37 -34 -75.5t-53 -70.5t-64 -52.5t-66 -20.5q-27 0 -43.5 11.5t-25.5 29t-12 38t-3 38.5q0 22 4 51.5t8.5 59 t8.5 55.5t4 41q0 13 -4.5 21t-11.5 12.5t-14 5.5t-11 1q-11 0 -28.5 -3t-49.5 -3q-9 0 -18 1t-19 3q-3 -39 -12.5 -76t-21 -68t-23.5 -53.5t-20 -31.5q-13 0 -13 12q1 6 10.5 24.5t21 47.5t22 69t12.5 89q-47 27 -47 96q0 19 7.5 32t22.5 13q22 0 31.5 -25.5t11.5 -68.5 q7 -2 13.5 -3t15.5 -1q26 0 48.5 3t43.5 3zM70 446q0 -4 4 -8q-1 5 -1.5 10t-1.5 8q-1 4 -1 7q-3 0 -5 -3t5 -14z" />
<glyph unicode="s" horiz-adv-x="338" d="M-4 121q34 54 61 110.5t45 110.5q-24 34 -40.5 69.5t-16.5 73.5q0 37 7 67t19 51t27 32.5t31 11.5q22 0 35.5 -22t11.5 -56q-2 -40 -10.5 -86t-24.5 -94q20 -23 41.5 -45.5t39 -46.5t29 -51.5t11.5 -59.5q0 -44 -16.5 -81t-39.5 -64t-48 -42t-43 -15q-31 0 -47.5 16 t-16.5 35q0 15 5 30t11.5 27.5t13 20.5t9.5 8q5 0 6.5 -3.5t1.5 -6.5q0 -5 -1 -14t-1 -15q0 -17 11.5 -28t37.5 -11q11 0 25 5t27 16t21.5 27.5t8.5 39.5q0 21 -10 44t-26 47t-35.5 49t-38.5 51q-23 -57 -50.5 -110.5t-58.5 -98.5zM72 537q0 -38 14 -67.5t37 -57.5 q8 31 11 59.5t3 54.5q0 70 -31 70q-9 0 -21.5 -13.5t-12.5 -45.5z" />
<glyph unicode="t" horiz-adv-x="330" d="M389 217q-7 -20 -22 -54t-40.5 -66.5t-62 -55.5t-84.5 -21q-43 3 -72 25t-47 67.5t-26 115t-8 167.5q0 94 5 169.5t13 133.5q-46 -2 -80.5 -2h-48.5q-29 0 -57.5 4t-53.5 14t-46 26.5t-35 41.5l4 9q1 -2 9.5 -9.5t30.5 -15.5t60 -14.5t98 -6.5h125q16 90 32.5 134.5 t22.5 56.5q8 17 23.5 29t26.5 12q21 0 34 -40t13 -124q0 -15 -1 -31.5t-1 -33.5q48 1 91.5 2t78 2t58 2t30.5 2q5 0 17 1t16 1q16 0 16 -10q0 -14 -8.5 -25.5t-34.5 -13.5q-5 -1 -29.5 -1.5t-61.5 -1.5t-83 -2.5t-94 -3.5q-10 -85 -36 -185.5t-73 -215.5q4 -66 11.5 -110 t20.5 -70.5t32.5 -37.5t46.5 -11q29 0 54 11t45.5 27.5t36 36t26 36.5t16 28t6.5 12zM158 700q-17 0 -33 -1t-33 -1q-3 -57 -4.5 -117t-1.5 -114v-113q29 91 47.5 177t24.5 169zM96 745q16 0 32.5 1.5t33.5 1.5v34q0 50 -3 80t-6.5 46.5t-8 22t-7.5 5.5q-8 0 -14 -15 t-11 -40.5t-9 -60.5t-7 -75z" />
<glyph unicode="u" horiz-adv-x="494" d="M309 205q0 7 0.5 17t0.5 20t0.5 17.5t0.5 10.5q0 7 -2.5 9t-5.5 -11q-2 -4 -8 -23t-17 -45.5t-26.5 -57t-36.5 -56t-47 -42.5t-57 -17q-47 0 -66.5 25.5t-19.5 76.5q0 15 3 43.5t7 59t7 58t3 42.5q0 43 -22 43q-5 0 -9 -1t-6 -1q-8 0 -8 8q0 3 8.5 10.5t36.5 7.5 q32 0 44.5 -24t12.5 -56q0 -14 -2.5 -39.5t-5.5 -53.5t-5.5 -53.5t-2.5 -37.5q0 -38 12.5 -53.5t34.5 -15.5q21 0 41.5 16.5t38 40t30.5 48.5t21 42q8 22 14 48t11.5 52.5t9.5 50.5t8 42q2 9 19 12.5t34 3.5q9 0 9 -6q0 -25 -1 -68t-1 -88q0 -112 13.5 -161.5t53.5 -49.5 q9 0 15.5 2t11.5 2q4 0 4 -4q0 3 0 -1t-4.5 -10.5t-17 -12t-37.5 -5.5q-27 0 -44.5 9.5t-28.5 31.5t-16.5 57.5t-7.5 86.5z" />
<glyph unicode="v" horiz-adv-x="428" d="M137 49q15 0 36 17t43.5 46t43.5 66.5t35 79.5q-31 17 -47.5 49t-16.5 66q0 21 5.5 40t15.5 33.5t22.5 22.5t26.5 8q19 0 33 -18.5t14 -63.5q0 -21 -5.5 -49.5t-16.5 -60.5h20q24 0 44 8.5t36.5 22t29 31.5t21.5 36l12 -6q-6 -14 -18.5 -36t-31.5 -42.5t-44.5 -35.5 t-56.5 -15h-12t-13 2q-16 -44 -39 -87.5t-50.5 -78.5t-59 -56.5t-64.5 -21.5q-13 0 -23 2.5t-18 14t-13.5 34.5t-9.5 64t-5.5 102.5t-1.5 149.5q0 43 -23 43q-5 0 -8.5 -1t-5.5 -1q-8 0 -8 8q0 3 12.5 10.5t40.5 7.5q32 0 42.5 -14.5t10.5 -46.5q0 -84 1.5 -141t4.5 -94 t7 -56t9.5 -28t11.5 -10t13 -1zM256 381q0 -28 10.5 -52t36.5 -36q5 18 7.5 35.5t2.5 36.5q0 10 -1 21.5t-4 20.5t-9 15t-16 6q-11 0 -19 -13.5t-8 -33.5z" />
<glyph unicode="w" horiz-adv-x="676" d="M352 0q-23 0 -35.5 24t-19.5 60t-10.5 78t-7.5 78t-10 60t-19 24q-9 0 -21.5 -17.5t-24.5 -41t-22.5 -48t-17.5 -39.5q-11 -23 -19.5 -41t-16.5 -33t-15.5 -28.5t-16.5 -26.5q-5 -8 -12.5 -13t-15.5 -5q-12 0 -19 20t-10.5 46t-4.5 52.5t-1 40.5q0 16 0.5 39t1.5 45 t1.5 40t0.5 24q0 18 -1.5 30t-3.5 19t-3.5 10.5t-1.5 5.5q0 8 8.5 15t13.5 10t16 10.5t17 7.5q5 0 8 -8t4.5 -19t1.5 -23.5v-22.5q0 -26 -1.5 -53.5t-3 -53t-2.5 -47t-1 -35.5q0 -26 2 -44.5t10 -18.5q5 0 13.5 13t18.5 32t20 40t18 36q10 20 21.5 44.5t24.5 46t28 36 t32 14.5q23 0 33 -16t15 -43q1 -10 3 -35t5.5 -56t7.5 -64.5t10.5 -61.5t15 -46t19.5 -18q14 0 32 14t37 38t37 55.5t33 66.5q-24 19 -34.5 50.5t-10.5 66.5q0 31 7 56t17.5 43t24 28t25.5 10q23 0 33 -23.5t10 -52.5q0 -26 -9 -65t-26 -84q11 -5 23 -6.5t26 -1.5q27 0 48 6 t39.5 19t35.5 33t35 48l12 -6q-13 -19 -31.5 -43t-42.5 -45.5t-54 -36t-66 -14.5q-23 0 -41 6q-17 -39 -38 -76t-46 -65.5t-52.5 -46t-56.5 -17.5zM500 360q0 -34 9.5 -59.5t31.5 -42.5q8 26 13 53t5 51q0 60 -27 60q-11 0 -21.5 -16.5t-10.5 -45.5z" />
<glyph unicode="x" horiz-adv-x="516" d="M35 352q-3 -11 -10.5 -7t-4.5 13q5 15 12 32.5t16.5 31.5t23.5 23.5t32 9.5q22 0 39 -16.5t31 -45.5q20 -42 41 -88.5t43 -89.5q25 28 45.5 57.5t36.5 57.5q-22 17 -34.5 44.5t-12.5 59.5q0 22 6 41t16.5 33t24.5 22.5t29 8.5q21 0 35 -17t14 -55q0 -23 -11.5 -54.5 t-31.5 -66.5q16 -8 43 -8q21 0 41 8q2 0 3 1t3 1q4 0 4 -4q0 -3 -5 -8.5t-14.5 -11t-23 -9.5t-29.5 -4q-22 0 -39 8q-18 -30 -41 -61.5t-49 -62.5q16 -31 32 -58t31 -47t28 -31.5t24 -11.5q28 0 53.5 19.5t46.5 62.5q3 8 9.5 3t3.5 -11q-29 -54 -64 -89.5t-76 -35.5 q-32 0 -64 40.5t-67 108.5q-26 -27 -52 -49.5t-50.5 -39.5t-46 -26.5t-39.5 -9.5q-1 0 -6 0.5t-10.5 4.5t-10 12.5t-4.5 23.5q0 11 4 23t10 12t10.5 -5t8.5 -11.5t8 -11.5t10 -5q29 0 71 29t87 74q-25 48 -50 103.5t-54 117.5q-5 9 -15 17t-18 8q-14 0 -24 -14t-19 -46z M311 444q0 -24 11.5 -47t31.5 -39q13 25 20 46.5t7 39.5q0 20 -8.5 35t-24.5 15q-17 0 -27 -15t-10 -35z" />
<glyph unicode="y" horiz-adv-x="459" d="M-49 -791q0 59 23.5 88t60.5 29q17 0 27 -7.5t10 -18.5q0 -7 -6 -7q-4 0 -8.5 2.5t-12.5 2.5q-11 0 -22 -10.5t-11 -39.5q0 -34 9.5 -70.5t28 -66.5t46.5 -49.5t64 -19.5q31 0 55 21.5t41 59t28.5 88.5t18 109.5t9.5 122.5t3 127q0 62 -1 112.5t-2.5 95.5t-3.5 87.5 t-3.5 89t-2.5 100t-1 119.5v86q-14 -42 -34.5 -87t-45.5 -82t-53 -61t-57 -24q-47 0 -66.5 26t-19.5 77q0 15 3 46.5t7 66t7 65t3 45.5q0 43 -16 43q-2 0 -3 -0.5t-3 -0.5q-2 -1 -3 -1q-6 0 -6 8q0 3 15 10.5t43 7.5q13 0 19 -5t8.5 -14.5t2.5 -22.5v-29q0 -14 -2.5 -44.5 t-5.5 -64t-5.5 -63t-2.5 -41.5q0 -39 12.5 -54.5t34.5 -15.5q17 0 36.5 18.5t38 48.5t35 67.5t30.5 75.5t22.5 72.5t11.5 57.5v2v8q0 12 6.5 21t16 14t20 7.5t19.5 2.5q6 0 7 -4t1 -6q0 -3 -5 -72t-5 -194q0 -76 1 -129.5t2.5 -95t3.5 -76t3.5 -72t2.5 -82.5t1 -108 q0 -151 -21.5 -264.5t-57.5 -189t-82 -113.5t-95 -38q-34 0 -65.5 17t-55.5 46t-38.5 67.5t-14.5 82.5z" />
<glyph unicode="z" horiz-adv-x="467" d="M223 217q5 -2 21 -17.5t35.5 -45t40 -73t34.5 -101.5q42 52 84 111.5t80 131.5l14 -8q-42 -77 -85 -140.5t-87 -117.5q7 -32 11 -68.5t4 -78.5q0 -67 -6 -140t-19 -143t-32 -133t-45 -111t-59 -76t-73 -28q-24 0 -47 10.5t-40 31.5t-27.5 52.5t-10.5 73.5q0 94 23.5 169 t62.5 140.5t90.5 127.5t108.5 130q-11 64 -29.5 113t-39.5 82.5t-42 52.5t-36 24q-10 5 -16.5 7.5t-6.5 11.5q0 5 4 9.5t15 4.5q15 0 39 9t46.5 26t39 41t16.5 55q0 34 -23.5 56t-58.5 22q-51 0 -86.5 -18.5t-58 -41t-35.5 -41t-19 -18.5t-8 3.5t-2 6.5q0 5 17 30t49.5 53 t78.5 50.5t105 22.5q49 0 80.5 -26.5t31.5 -69.5q0 -46 -22 -76.5t-48 -49.5q-31 -22 -69 -36zM313 -233q0 34 -2.5 63t-5.5 57q-48 -57 -90 -111.5t-73.5 -113t-49.5 -125t-18 -149.5q0 -26 5 -55t16.5 -53t29 -40t43.5 -16q34 0 57.5 28.5t40 75t26 105t14 119t6 117 t1.5 98.5z" />
<glyph unicode="{" horiz-adv-x="778" d="M481 1425q-65 -10 -107 -33.5t-67 -56t-35 -72.5t-10 -83q0 -54 14 -105t31 -98.5t31 -92t14 -85.5q0 -45 -12.5 -84.5t-40.5 -81.5q25 -22 38 -52.5t13 -88.5q0 -35 -13 -89t-29 -115t-29 -122t-13 -109q0 -49 11.5 -93t35 -78t59.5 -57t85 -30l-4 -22q-58 7 -102.5 34 t-74.5 68.5t-45.5 92.5t-15.5 106q0 54 10.5 111t23.5 111t23.5 101.5t10.5 83.5q0 12 -1 26t-5.5 28.5t-14 28t-26.5 24.5q-5 0 -15 0.5t-10 5.5q0 7 4 16t11 17t17.5 12.5t22.5 3.5q19 34 19 131q0 48 -11.5 89.5t-25.5 83.5t-25.5 88t-11.5 102q0 45 12 94.5t42 93t82 76 t132 41.5z" />
<glyph unicode="|" horiz-adv-x="410" d="M203 1491q-2 0 -3 1q-3 1 -3 3q0 5 6 13.5t14 16.5t17.5 13.5t15.5 5.5q3 0 6.5 -3.5t3.5 -12.5q-4 -45 -6.5 -104.5t-4 -125t-2.5 -133.5t-2 -130.5t-1 -116v-89.5q0 -41 0.5 -109t1 -153t1 -182t2 -196.5t2.5 -197.5t3 -184.5t4 -156.5t4 -115q0 -17 -13.5 -32 t-35.5 -15q-5 0 -8.5 1t-3.5 3t4 6q0 65 -1.5 170.5t-3 231.5t-4 261.5t-4 261.5t-3 231.5t-1.5 170.5v86.5t1 117.5t2 132t2.5 131t4 115.5t5.5 83.5z" />
<glyph unicode="}" horiz-adv-x="778" d="M240 -205q64 10 105 33.5t64 56.5t31.5 73t8.5 83q0 54 -12.5 104.5t-27.5 98t-27.5 92t-12.5 86.5q0 45 12.5 84.5t40.5 81.5q-25 12 -42.5 45.5t-17.5 89.5q0 51 14 108t30.5 115t30.5 113.5t14 103.5q0 49 -11 93t-33.5 78.5t-58 57t-84.5 29.5l4 23 q58 -7 103.5 -34.5t77 -68.5t48.5 -92.5t17 -105.5q0 -55 -14.5 -112.5t-31.5 -111.5t-31.5 -102t-14.5 -84q0 -12 1.5 -26t7 -29t15.5 -29t27 -24q2 0 8 0.5t12.5 0.5t11.5 -0.5t5 -2.5q0 -7 -4 -16.5t-11.5 -17.5t-17.5 -13t-22 -3q-10 -17 -21.5 -49t-11.5 -80t14 -88.5 t31 -82.5t31 -90t14 -111q0 -45 -12 -93.5t-43 -90.5t-83 -73t-132 -40z" />
<glyph unicode="~" d="M180 465q-6 -18 -17 -21t-21 1.5t-16.5 14t-2.5 17.5q13 29 32.5 59t44 54t54.5 39.5t65 15.5q30 0 66.5 -22t75 -48.5t75 -48.5t66.5 -22q24 0 41.5 12t31 30.5t24 40.5t20.5 42q-2 7 7.5 11t21.5 3t21 -6.5t5 -15.5q-14 -39 -32 -71.5t-41 -56t-51 -36.5t-62 -13 q-35 0 -70 22t-71 49t-72 49t-72 22q-21 0 -40.5 -13.5t-36 -32.5t-28.5 -39.5t-18 -35.5z" />
<glyph unicode="&#xa1;" horiz-adv-x="348" d="M154 -686q2 -3 2 -7v-7q0 -22 -11.5 -35t-31.5 -13q-13 0 -23 6.5t-10 24.5q0 56 2 126.5t5.5 150.5t8 165.5t9 172t8 169.5t6.5 158q-2 4 -2 11q0 12 9.5 20t20.5 8q13 0 13 -12q2 -164 2 -337v-349q0 -63 -1.5 -126t-6.5 -126zM133 344q-25 0 -36 17.5t-11 41.5 q0 29 16 45.5t39 16.5q17 0 33 -13t16 -42q0 -32 -16 -49t-41 -17z" />
<glyph unicode="&#xa2;" horiz-adv-x="436" d="M274 645q10 11 17.5 29t7.5 35q0 20 -17 35.5t-59 15.5h-8q0 -45 1 -90.5t1 -98.5v-76t2 -75h8q37 0 65 10.5t47 23.5q22 15 38 35l8 -6q-17 -27 -41 -49q-20 -20 -51.5 -37.5t-73.5 -23.5q3 -78 5.5 -151t2.5 -144q0 -23 -14 -32t-25 -9q-10 0 -10 4q0 23 2 46t2 46 q0 60 -1 119t-3 119q-28 1 -56 10.5t-50.5 29t-37 49t-14.5 70.5t11 79.5t31.5 71t49.5 58.5t64 41q0 78 2.5 156t11.5 149q-2 0 -3 1q-3 1 -3 4q0 6 4.5 14.5t11 16t13.5 13t12 5.5q11 0 11 -17q-13 -97 -17 -175.5t-4 -153.5q24 6 51 6q15 0 31 -4t29 -11.5t21.5 -18.5 t8.5 -26q0 -34 -22.5 -59.5t-46.5 -42.5zM178 424q-2 54 -2 107.5v107.5v111q-22 -11 -40 -30t-31 -42.5t-20 -50.5t-7 -54q0 -61 24.5 -99t75.5 -50z" />
<glyph unicode="&#xa3;" horiz-adv-x="1100" d="M281 254q9 -31 14.5 -61.5t5.5 -61.5q0 -15 -1.5 -30t-6.5 -29q34 -13 67.5 -30.5t66 -33t63.5 -26.5t61 -11q31 0 53.5 8.5t38.5 24.5t27.5 37t19.5 47l21 -4q-31 -92 -77 -130t-112 -38q-37 0 -70.5 10.5t-64 26t-59 33.5t-54.5 32q-18 -35 -48 -60.5t-70 -25.5 q-35 0 -54.5 20t-19.5 42q0 21 10 39t26.5 31t37 20.5t41.5 7.5q33 0 69 -12q0 6 1 11.5t1 10.5q0 38 -11 75t-28 75h-129q-2 1 -3 2q-3 1 -3 6q0 12 7 27.5t12 15.5h46.5t45.5 2q-20 40 -41.5 81t-39 83t-29 86t-11.5 90q0 77 24.5 152t67.5 141.5t100.5 123t123.5 98 t137 64.5t141 23q94 0 165.5 -24t119.5 -65.5t72 -98.5t24 -123q0 -51 -15 -94.5t-41 -81.5t-61.5 -71t-77.5 -62l-10 12q30 20 57 48t48 62t33 73.5t12 82.5q0 65 -28.5 117.5t-77.5 89t-114 56.5t-137 20q-59 0 -118 -19t-114 -53t-102.5 -81.5t-83 -105.5t-55.5 -124 t-20 -137q0 -50 11 -96.5t27.5 -91t35.5 -88t36 -87.5q16 2 32.5 2h33.5h24.5t38.5 -0.5t35.5 -2t15.5 -5.5q0 -5 -2 -12.5t-5 -15.5t-6.5 -13.5t-6.5 -5.5q-28 3 -56.5 2.5t-56.5 -0.5h-30zM176 -14q26 0 43.5 13.5t28.5 33.5q-19 9 -37 15.5t-35 6.5q-23 0 -34 -12 t-11 -25q0 -14 11 -23t34 -9z" />
<glyph unicode="&#xa4;" horiz-adv-x="780" d="M680 950q-1 2 -1 4q0 5 1 7q4 4 12.5 7t18 4t18 0t12.5 -5q9 -3 -2 -17q-46 -40 -79.5 -71.5t-59.5 -57.5q35 -35 56.5 -82t21.5 -98q0 -54 -17.5 -99.5t-46.5 -80.5q25 -23 50.5 -48.5t56.5 -54.5q8 -8 11 -16t2.5 -16t-3.5 -14.5t-6 -10.5l-7.5 -3t-4.5 -1 q-17 15 -32 32.5t-32 32.5q-18 19 -35 35t-32 31q-42 -38 -93.5 -59t-105.5 -21q-43 0 -85 12.5t-77 38.5q-39 -48 -92 -104q-15 -17 -32 -14.5t-25 10.5q-3 3 -3.5 5.5t-0.5 4.5q17 17 33.5 33t31.5 33q16 17 29.5 31.5t25.5 29.5q-29 31 -47 74.5t-18 99.5q0 110 72 197 q-23 23 -47.5 49.5t-49.5 58.5q-2 -1 -3 -1q-3 0 -5 1q-5 4 -6.5 13.5t-1.5 20t2.5 20t7.5 14.5q2 2 6 2t11 -8q37 -47 65.5 -80.5t52.5 -59.5q35 32 78 52t92 20q50 0 93.5 -14t78.5 -39q25 25 52 49.5t59 52.5zM418 401q40 0 77 15t65.5 42t45.5 64t17 80q0 46 -19 90.5 t-51.5 79t-76 55.5t-93.5 21q-46 0 -84 -18t-65.5 -47t-42.5 -67.5t-15 -78.5q0 -56 21.5 -100t56 -74t78 -46t86.5 -16z" />
<glyph unicode="&#xa5;" horiz-adv-x="1272" d="M594 313q-2 -51 -5 -100t-7 -93t-8 -81.5t-9 -65.5q-1 -11 -8.5 -19t-17.5 -14t-20.5 -9t-16.5 -3t-11.5 4.5t-5.5 12.5q4 27 9.5 67.5t11.5 89.5t12.5 103t11.5 108q-51 -2 -101.5 -2h-98.5l-4 2q-4 2 -4 6q0 13 9 25t15 12q47 0 94 1t95 1q3 32 5.5 62t4.5 59 q-56 -2 -110 -2h-105l-4 2q-4 2 -4 6q0 13 10 25t16 12q50 0 99.5 1t99.5 1q2 16 2 29v27q0 56 -4 121t-16 129.5t-34 124.5t-58 105.5t-87.5 73t-122.5 27.5q-36 0 -69.5 -10.5t-59 -31.5t-40.5 -52.5t-15 -73.5q0 -45 16 -75t40.5 -50t53 -31.5t54.5 -17.5l-4 -10 q-26 3 -61 12t-66.5 30.5t-53.5 58t-22 94.5q0 53 21.5 93t56.5 66.5t79 40t89 13.5q74 0 129.5 -27t95.5 -73t65.5 -106.5t40.5 -128t21 -137t6 -133.5v-10q15 69 37 142t51.5 142t67 130.5t83.5 107t101 72.5t121 27q37 0 71 -10.5t59.5 -33t40.5 -57t15 -82.5 q0 -60 -23.5 -108.5t-55 -84.5t-64.5 -60t-51 -35l-8 10q17 12 41.5 31t47 48t38.5 70t16 97q0 29 -8.5 57t-26 49.5t-44 35t-62.5 13.5q-65 0 -118.5 -27t-97.5 -74t-78.5 -109.5t-62 -133t-47.5 -146t-35 -147.5h68h35t55.5 -0.5t51 -2t22.5 -5.5q0 -5 -3 -11.5 t-7.5 -13.5t-9.5 -11.5t-9 -4.5q-40 3 -80.5 2.5t-81.5 -0.5h-49q-2 -5 -2 -8v-8q-2 -25 -2 -51t-2 -52h47h33.5t52.5 -0.5t48.5 -2t21.5 -5.5q0 -5 -3 -11.5t-7 -13.5t-8.5 -11.5t-8.5 -4.5q-35 3 -75.5 2.5t-77.5 -0.5h-27z" />
<glyph unicode="&#xa6;" horiz-adv-x="410" d="M203 350q-2 0 -3 1q-3 1 -3 3q0 6 6 14t14 16t17.5 13.5t15.5 5.5q3 0 6.5 -2t3.5 -8q-4 -27 -6.5 -62t-4 -74t-2.5 -79.5t-2 -78t-1 -69.5v-53q0 -49 1 -104.5t3.5 -113t5.5 -114.5t8 -110q0 -17 -13.5 -32t-35.5 -15q-5 0 -8.5 1t-3.5 3t4 6q0 115 -8.5 228.5 t-8.5 230.5v51t1 69.5t2 77.5t2.5 77.5t4 68.5t5.5 49zM203 1491q-2 0 -3 1q-3 1 -3 3q0 5 6 13.5t14 16.5t17.5 13.5t15.5 5.5q3 0 6.5 -2t3.5 -8q-5 -40 -8.5 -98t-5 -118t-2 -114t-0.5 -86q0 -49 1 -104.5t3.5 -113t5.5 -114.5t8 -110q0 -17 -13.5 -32t-35.5 -15 q-5 0 -8.5 1t-3.5 3t4 6q0 115 -8.5 228.5t-8.5 230.5v51t1 69.5t2 77.5t2.5 77.5t4 68.5t5.5 49z" />
<glyph unicode="&#xa7;" horiz-adv-x="752" d="M248 176q-17 -25 -30 -53t-13 -55q0 -31 15 -53.5t39 -37.5t52.5 -22.5t55.5 -7.5q36 0 76 12t73.5 35.5t55.5 58.5t22 80q0 25 -11.5 49t-29 46t-38 41.5t-38.5 37.5q-27 26 -62.5 53.5t-73.5 56.5t-74.5 60t-65.5 63t-46.5 65.5t-17.5 68.5q0 46 25 85t67 62 q-55 50 -91 103t-36 118q0 38 16.5 77t45 75t65.5 67t78 54t83.5 36t80.5 13q45 0 78.5 -11.5t55.5 -32t33 -48t11 -58.5q0 -55 -31 -116l-16 6q8 18 13.5 35.5t5.5 34.5q0 28 -12 52t-34 41.5t-53.5 27.5t-70.5 10q-45 0 -99.5 -17.5t-101 -49t-78 -75t-31.5 -96.5 q0 -39 20.5 -73.5t50.5 -65t64.5 -57.5t63.5 -50q42 -34 95 -74t100 -83.5t79.5 -88.5t32.5 -90q0 -48 -26.5 -88t-71.5 -63q37 -38 60.5 -80t23.5 -90q0 -55 -24 -104.5t-64 -87.5t-90.5 -60.5t-102.5 -22.5q-32 0 -65 7.5t-60 24t-44 42.5t-17 62q0 27 14.5 67.5 t52.5 89.5zM590 444q0 51 -33 97t-83.5 89.5t-110 86.5t-113.5 88q-26 -13 -40.5 -36.5t-14.5 -51.5q0 -55 34.5 -102t85.5 -90.5t110 -86t107 -88.5q15 7 25.5 18.5t18 24.5t11 26.5t3.5 24.5z" />
<glyph unicode="&#xa8;" horiz-adv-x="614" d="M176 596q0 19 13.5 32t31.5 13q19 0 32 -13t13 -32t-13 -32t-32 -13q-18 0 -31.5 13t-13.5 32zM348 596q0 19 13.5 32t31.5 13q19 0 32 -13t13 -32t-13 -32t-32 -13q-18 0 -31.5 13t-13.5 32z" />
<glyph unicode="&#xa9;" horiz-adv-x="1706" d="M840 -31q-97 0 -189.5 25.5t-174 72t-149.5 112.5t-117 147t-76.5 175.5t-27.5 198.5t25 201.5t71.5 182t114 154.5t152 119.5t185.5 77t214 27.5q100 0 193.5 -26.5t174.5 -74.5t148 -116t115 -151.5t74 -180.5t26 -202q0 -95 -28.5 -187t-79.5 -174.5t-121.5 -152.5 t-154.5 -120.5t-179.5 -79t-195.5 -28.5zM868 29q88 0 172 22.5t159 64t137.5 101.5t107.5 134.5t70.5 162.5t25.5 186q0 101 -27.5 192.5t-76 170t-115 141.5t-145.5 108t-167.5 69t-179.5 24q-145 0 -267 -46.5t-210 -133t-137 -210.5t-49 -278q0 -97 23 -187t66 -168.5 t105 -143.5t140 -111.5t170.5 -72t197.5 -25.5zM1251 555q-4 -18 -14.5 -46t-30 -60.5t-49 -65.5t-71.5 -59.5t-98 -43t-128 -16.5q-87 0 -169 27.5t-145.5 79t-101.5 126t-38 169.5q0 67 18 132.5t51.5 124t81.5 109t107.5 87t129 57t146.5 20.5q64 0 121 -18t100 -48.5 t67.5 -70t24.5 -82.5q0 -29 -10 -56t-24 -51t-29.5 -43t-26.5 -30l-12 8q22 23 37.5 58t15.5 77q0 37 -22 72t-60 63t-88 45t-106 17q-128 0 -217.5 -37t-146.5 -98t-83 -140t-26 -164q0 -66 26.5 -133.5t79.5 -122t133 -89t187 -34.5q85 0 146.5 22.5t103.5 57t67 77 t37 83.5z" />
<glyph unicode="&#xaa;" horiz-adv-x="541" d="M541 938q-17 -32 -45 -55t-62 -23q-25 0 -53 16.5t-43 57.5q-29 -35 -68 -58.5t-84 -23.5q-24 0 -44 11t-33.5 30t-21 44t-7.5 54q0 48 21.5 97t57 88t81.5 63.5t96 24.5q37 0 62.5 -8.5t40.5 -19.5t21.5 -22.5t6.5 -17.5q0 -14 -13.5 -19.5t-25.5 -5.5q-8 0 -15.5 10 t-19 22t-29 22t-45.5 10q-41 0 -74.5 -20.5t-58 -51.5t-38 -68t-13.5 -69q0 -49 25 -82t67 -33q34 0 59 13.5t44 33.5q-6 28 -6 64q0 42 6 67.5t15 39.5t18.5 19t15.5 5q8 0 17.5 -10.5t9.5 -36.5q0 -32 -13 -68.5t-33 -70.5q13 -32 36.5 -48t54.5 -16q47 0 84 37zM96 733 q-6 0 -7.5 7.5t1 17t8 17t13.5 7.5q63 0 128.5 2t127.5 2q29 0 59 -1t59 -3q6 0 5 -8t-5.5 -17t-11.5 -16.5t-12 -5.5q-31 3 -63.5 3.5t-63.5 0.5q-62 0 -125 -2t-113 -4zM348 1047q0 -16 1 -28.5t3 -25.5q14 26 21.5 53.5t7.5 49.5q0 9 -1.5 15.5t-6.5 6.5 q-8 0 -16.5 -20.5t-8.5 -50.5z" />
<glyph unicode="&#xab;" horiz-adv-x="528" d="M233 451q-15 -15 -36 -39t-42 -51t-38 -54.5t-23 -48.5q2 -15 17.5 -36.5t36 -44t42.5 -43t37 -34.5q2 -2 2 -4v-4q0 -12 -11 -25.5t-30 -13.5q-3 0 -7 1t-9 7q-18 17 -40.5 38t-42 45t-33 49t-13.5 51q0 13 9.5 32t24.5 40.5t34.5 43.5t38.5 42.5t37 37.5t30 27z M438 451q-15 -15 -36.5 -39t-42.5 -51t-37.5 -54.5t-22.5 -48.5q2 -15 17.5 -36.5t36 -44t42.5 -43t37 -34.5q2 -2 2 -4v-4q0 -12 -11 -25.5t-30 -13.5q-3 0 -7 1t-9 7q-18 17 -40.5 38t-42 45t-33 49t-13.5 51q0 13 9.5 32t24.5 40.5t34.5 43.5t38.5 42.5t37 37.5t30 27z " />
<glyph unicode="&#xac;" d="M766 254q0 -9 -14.5 -16t-26.5 -7q-16 0 -16 9q0 35 -1 64.5t-2.5 57.5t-2.5 57t-1 64q0 31 0.5 56.5t4.5 54.5q-47 3 -89 4.5t-92 1.5q-109 0 -206.5 -3t-200.5 -3q-4 0 -4 8q0 6 2.5 14.5t6 17t8 14t9.5 5.5q112 0 213 3t211 3q11 0 40.5 -0.5t62 -1.5t60.5 -2.5 t36 -3.5q4 0 4 -4q-3 -41 -4.5 -75.5t-1.5 -77.5q0 -36 0.5 -66.5t1.5 -58.5t1.5 -56t0.5 -59z" />
<glyph unicode="&#xad;" horiz-adv-x="471" d="M264 248q-57 0 -107 -1t-104 -1q-2 1 -3 2q-3 1 -3 6q0 6 2 16.5t5 20t6 17t6 7.5q57 0 108.5 2t108.5 2q6 0 24.5 0.5t38.5 0t35.5 -2.5t15.5 -6q0 -5 -2 -15.5t-5 -21.5t-6.5 -19.5t-6.5 -8.5q-28 3 -56.5 2.5t-56.5 -0.5z" />
<glyph unicode="&#xae;" horiz-adv-x="1176" d="M561 473q-112 0 -197.5 40t-143.5 105.5t-87.5 149.5t-30.5 172q0 98 39.5 188t108 159t160.5 110t198 41q109 0 195.5 -41.5t146.5 -110.5t91.5 -158t31.5 -184q0 -67 -20.5 -127.5t-56 -113t-84 -95t-105.5 -72.5t-120 -46.5t-126 -16.5zM600 524q83 0 159 30t134 85 t92.5 131.5t34.5 169.5q0 97 -40 179.5t-105 143t-147.5 94.5t-168.5 34q-82 0 -155.5 -33t-128.5 -90t-87 -132.5t-32 -160.5q-1 -92 33 -173.5t94 -142.5t141.5 -97.5t175.5 -37.5zM819 682l-15 -21t-24.5 -28t-32.5 -24.5t-38 -10.5q-31 0 -55 26.5t-43.5 64t-36.5 79 t-33 70.5h-21q-9 0 -18 0.5t-17 3.5q-3 -50 -7 -99t-7 -102q-2 -16 -9.5 -19.5t-16 -0.5t-15.5 10t-6 12q6 74 11.5 140.5t10.5 130t9 126t6 127.5q2 17 3 34t1 36q-38 -12 -70.5 -29.5t-57 -40.5t-38.5 -51t-14 -61q0 -23 9 -36.5t15 -21.5l-8 -10q-5 6 -17 23.5t-12 48.5 q0 37 15.5 69t42.5 59t62.5 48t74.5 35v32t2 35q0 10 5.5 12t12 0t12 -6.5t5.5 -7.5v-25.5t-2 -27.5q29 8 57.5 12t54.5 4q48 0 87.5 -12t68 -36t44 -60t15.5 -84q0 -52 -19.5 -96.5t-53.5 -79t-80 -57.5t-98 -31q20 -29 35 -65t31 -68t34.5 -54t44.5 -22t50.5 15.5 t41.5 37.5zM500 1161q0 -69 -3 -135.5t-8 -134.5q5 2 11 2q21 0 37 -11t30 -28q56 7 99 30.5t71.5 55t43 68t14.5 71.5q0 38 -10 70.5t-33.5 56.5t-61 37.5t-92.5 13.5q-25 0 -49.5 -2.5t-48.5 -7.5v-86zM535 852q-8 12 -16.5 19.5t-16.5 7.5q-10 0 -13 -2q0 -5 -1 -9.5 t-1 -9.5q7 -6 33 -6h15z" />
<glyph unicode="&#xaf;" horiz-adv-x="614" d="M186 567q-7 0 -8.5 8.5t0.5 18.5t8 18.5t15 8.5q38 0 78.5 2t78.5 2q19 0 37.5 -1t36.5 -3q6 -1 5 -10t-6.5 -18.5t-12.5 -17.5t-12 -6q-19 3 -38.5 3.5t-37.5 0.5q-37 0 -76 -2t-68 -4z" />
<glyph unicode="&#xb0;" horiz-adv-x="522" d="M113 1083q0 43 17.5 76.5t45 57t61.5 35.5t66 12q28 0 54.5 -10t47.5 -30t33.5 -50.5t12.5 -71.5q0 -39 -16.5 -70.5t-42.5 -53.5t-59 -34t-67 -12q-27 0 -54.5 8.5t-49.5 27t-35.5 47t-13.5 68.5zM158 1106q0 -32 13 -57t33.5 -42t45.5 -25.5t49 -8.5q21 0 40 7t34 20.5 t24 34.5t9 48q0 31 -12.5 56.5t-32 43t-44 27t-49.5 9.5q-20 0 -39.5 -6.5t-35.5 -20t-25.5 -35t-9.5 -51.5z" />
<glyph unicode="&#xb1;" d="M475 305q0 -14 -14 -23.5t-27 -9.5q-16 0 -16 15q0 72 -2.5 127.5t-3.5 111.5q-75 -2 -146.5 -3t-146.5 -1q-4 0 -4 8q0 6 2.5 15t6 17.5t8 14t9.5 5.5q72 0 138.5 1t132.5 3v71q0 27 0.5 48t1 41t1.5 41t3 49q0 4 6 10t14.5 10.5t17.5 8t15 3.5t6 -4q-2 -31 -3 -55.5 t-1.5 -48.5t-1 -49.5t-0.5 -57.5v-65h94h27.5t44 -0.5t51 -1t48.5 -1.5t36 -2.5t14 -4.5q0 -5 -4 -14.5t-10 -18.5t-12.5 -16t-11.5 -7q-111 6 -222 6h-55q1 -56 2.5 -108t1.5 -115zM139 133q-4 0 -4 8q0 6 1.5 15t4 17.5t6.5 14t9 5.5q56 0 99.5 0.5t85 0.5t85 0.5 t98.5 0.5h27.5t44 0.5t51 0t48.5 -1t36 -2t14 -4.5q0 -5 -3.5 -14t-8.5 -18t-11 -16t-11 -7q-56 3 -113 2.5t-113 -0.5q-54 0 -96 -0.5t-80 -0.5t-78.5 -0.5t-91.5 -0.5z" />
<glyph unicode="&#xb2;" horiz-adv-x="670" d="M528 522q-6 -11 -13.5 -26.5t-18.5 -29t-26 -23t-36 -9.5t-40 6.5t-36.5 16t-34 21t-32.5 20.5q-26 -19 -50 -26t-36 -7q-55 0 -55 33q0 11 6.5 19t16.5 13.5t22 8t24 2.5q17 0 35 -4t37 -11q45 32 93.5 87t89 125t67 149.5t26.5 161.5q0 37 -12 67t-33 51t-49.5 32 t-62.5 11q-60 0 -119 -18.5t-106 -52.5t-76 -81.5t-29 -105.5q0 -20 11 -33.5t36 -13.5q19 0 30 8t17 11l6 -4q-2 -5 -6.5 -15t-12.5 -20.5t-19 -18.5t-25 -8q-18 0 -31 8.5t-20.5 22t-11 30t-3.5 33.5q0 41 16.5 80.5t44.5 74t65 63.5t77 50t81.5 32.5t78.5 11.5 q100 0 157.5 -52t57.5 -151q0 -81 -30.5 -162t-77 -153t-102 -131.5t-104.5 -98.5q32 -12 64 -22.5t63 -10.5q19 0 32 4t21.5 10t14 13.5t10.5 15.5zM205 496q11 0 26.5 3t32.5 11q-21 12 -49 12q-20 0 -25.5 -4.5t-5.5 -9.5q0 -6 6 -9t15 -3z" />
<glyph unicode="&#xb3;" horiz-adv-x="664" d="M147 547q8 -10 20 -22.5t30.5 -23t44.5 -17.5t61 -7q47 0 73.5 20t26.5 58q0 28 -11 50.5t-30 37.5q-50 -25 -98 -25q-23 0 -44 10.5t-21 28.5q0 10 8 17.5t20 13t26.5 8t27.5 2.5q44 0 90 -22q37 22 71.5 59.5t61 85.5t42 104.5t15.5 116.5q0 31 -10.5 60.5t-31.5 53 t-53 38t-75 14.5q-57 0 -111 -15t-97 -43.5t-69 -69t-26 -91.5q0 -38 15.5 -62.5t29.5 -39.5l-12 -6q-10 7 -20.5 19.5t-19.5 27.5t-14.5 32t-5.5 35q0 42 17 78.5t45 66t64.5 53t74 39t74 24t65.5 8.5q60 0 102 -17t69 -46.5t39 -69t12 -84.5q0 -51 -19 -106.5t-51 -107.5 t-74 -96.5t-88 -74.5q29 -20 48.5 -49.5t19.5 -63.5q0 -24 -9.5 -45t-27 -36.5t-42.5 -24.5t-56 -9q-39 0 -70 11.5t-53.5 27.5t-38.5 33t-25 29zM276 647q29 0 64 12q-31 19 -64 19q-14 0 -26 -3t-12 -11t8.5 -12.5t29.5 -4.5z" />
<glyph unicode="&#xb4;" horiz-adv-x="614" d="M221 528q-6 -6 -14 -6q-6 0 -10.5 5t-6.5 12q0 7 7 14q49 43 93 90.5t75 81.5q2 2 4 2q5 0 13.5 -4.5t16.5 -11t13.5 -14t5.5 -13.5q0 -2 -1 -2t-3 -2q-44 -37 -94.5 -75t-98.5 -77z" />
<glyph unicode="&#xb5;" horiz-adv-x="494" d="M350 205q0 7 0.5 17t0.5 20t0.5 17.5t0.5 10.5q0 7 -2.5 9t-5.5 -11q-2 -4 -6 -23t-12 -45.5t-20 -57t-28 -56t-37.5 -42.5t-47.5 -17q-21 0 -34 12t-20 29t-9.5 36t-2.5 33q0 8 -4 5.5t-4 -5.5q0 -109 2 -189.5t4 -136.5t4 -90t2 -51q0 -8 -2 -11.5t-10 -8.5 q-6 -3 -11 -7.5t-14 -4.5q-8 0 -16 4q-5 3 -6.5 38t-0.5 87.5t3.5 115t5 120.5t4.5 103t2 64q0 21 1.5 59t1 75t-6 64t-19.5 27q-5 0 -8.5 -1t-5.5 -1q-8 0 -8 8q0 4 8.5 11.5t36.5 7.5q32 0 44.5 -24t12.5 -56v-77t4.5 -83t15 -66.5t32.5 -27.5q21 0 38.5 13.5t31 33 t23.5 41.5t17 39q9 21 15 47.5t11 52.5t9 50.5t8 42.5q2 9 19 12.5t34 3.5q9 0 9 -6q0 -25 -1 -68t-1 -88q0 -112 13.5 -161.5t53.5 -49.5q9 0 15.5 2t11.5 2q4 0 4 -4q0 -2 -2 -7t-8 -10t-18 -8.5t-32 -3.5q-27 0 -44.5 9.5t-28 31.5t-16 57.5t-7.5 86.5z" />
<glyph unicode="&#xb6;" horiz-adv-x="752" d="M541 1311q-19 2 -38.5 2h-39.5q-5 -162 -6.5 -312.5t0 -297.5t6 -294.5t12.5 -304.5q0 -17 -9.5 -32t-31.5 -15q-5 0 -8.5 1t-3.5 3q0 1 -0.5 6.5t-0.5 12v12t1 6.5q0 159 -3.5 318t-6.5 321h-17q-43 0 -94 14t-95.5 49t-74 93.5t-29.5 148.5q0 72 33.5 131t88 101.5 t123 66t138.5 23.5q40 0 77 -5.5t65.5 -19t45.5 -37t17 -59.5q0 -18 -7.5 -45.5t-23.5 -58.5l-10 4q8 18 12.5 37.5t4.5 36.5q0 40 -22 60t-56 28q-12 -148 -14.5 -296t0.5 -297.5t9.5 -301.5t14.5 -306q0 -17 -9.5 -32t-31.5 -15q-5 0 -8.5 1t-3.5 3q0 1 -0.5 11.5t-1 23.5 t-1 23.5t0.5 11.5q0 147 -3.5 294.5t-6 295.5t-2 295.5t9.5 294.5z" />
<glyph unicode="&#xb7;" horiz-adv-x="268" d="M154 553q24 0 35.5 -17.5t11.5 -41.5q0 -29 -16.5 -45.5t-39.5 -16.5q-17 0 -33 13t-16 42q0 32 16.5 49t41.5 17z" />
<glyph unicode="&#xb8;" horiz-adv-x="614" d="M330 10q-8 -26 -13.5 -47.5t-5.5 -40.5q6 3 17 6.5t28 3.5q34 0 53 -20.5t19 -54.5q0 -15 -5.5 -34.5t-19 -36.5t-37 -28.5t-59.5 -11.5q-8 0 -20 1.5t-25 4.5t-26 8t-23 13q-5 4 -4 14.5t5.5 20.5t9.5 14t7 -6q17 -11 37.5 -15t50.5 -4q12 0 25.5 1.5t24 7t17.5 15 t7 25.5q0 45 -53 45q-23 0 -35 -5t-20 -5q-3 0 -6 1.5t-3 6.5q0 7 3.5 21.5t8.5 31.5t10.5 35t10.5 33h21z" />
<glyph unicode="&#xb9;" horiz-adv-x="356" d="M188 455q-3 21 -4.5 59t-2.5 80.5t-1 83v67.5q0 96 3 166.5t6.5 121t6.5 84t3 54.5q0 15 -9 15q-10 0 -27.5 -12t-39 -31t-44.5 -42.5t-44 -45.5l-15 14q28 31 58.5 65.5t58.5 63.5t51.5 47.5t36.5 18.5q8 0 14.5 -3t6.5 -8v-26q-4 -43 -6 -76.5t-3 -65t-1.5 -64.5 t-0.5 -75t0.5 -96t0.5 -127q0 -27 2 -68.5t5 -82t5 -73t2 -42.5q0 -4 -5.5 -7.5t-13.5 -6t-16.5 -4t-13.5 -1.5q-13 0 -13 17z" />
<glyph unicode="&#xba;" horiz-adv-x="463" d="M268 905q23 0 45 10t39 29.5t27 48t10 66.5q0 31 -7.5 59t-22.5 49t-38.5 33t-54.5 12q-21 0 -43 -8t-39 -25.5t-28 -44.5t-11 -65q0 -30 7.5 -59.5t22.5 -52.5t38 -37.5t55 -14.5zM236 858q-63 0 -103.5 40.5t-40.5 119.5q0 54 20 99t52 77.5t70.5 51t76.5 18.5 q60 0 95.5 -41t35.5 -121q0 -53 -18.5 -97.5t-48 -77t-66 -51t-73.5 -18.5zM88 733q-6 0 -7.5 7.5t1 17t7.5 17t13 7.5q31 0 54 0.5t44 1.5t43.5 1.5t53.5 0.5q29 0 59.5 -1t59.5 -3q6 0 5 -8t-6 -17t-11.5 -16.5t-12.5 -5.5q-31 3 -63.5 3.5t-63.5 0.5t-53 -0.5t-41 -1.5 l-38 -2t-44 -2z" />
<glyph unicode="&#xbb;" horiz-adv-x="528" d="M53 49q15 15 36.5 38.5t42.5 50.5t38 54.5t23 49.5q-3 15 -18.5 36.5t-36 43.5t-42.5 42.5t-37 34.5q-2 2 -2 4.5v4.5q0 12 11.5 25t29.5 13q3 0 7.5 -1t9.5 -7q18 -17 40.5 -38t42 -44.5t33 -49t13.5 -50.5q0 -13 -9.5 -32t-24.5 -40.5t-34.5 -43.5t-38.5 -42.5 t-37 -37.5t-30 -27zM258 49q15 15 36.5 38.5t42.5 50.5t37.5 54.5t22.5 49.5q-2 15 -17.5 36.5t-36 43.5t-42.5 42.5t-37 34.5q-2 2 -2 4.5v4.5q0 12 11.5 25t29.5 13q3 0 7 -1t9 -7q19 -17 41.5 -38t42 -44.5t33 -49t13.5 -50.5q0 -20 -20.5 -51.5t-48.5 -64.5t-57.5 -62.5 t-48.5 -44.5z" />
<glyph unicode="&#xbc;" horiz-adv-x="1040" d="M973 160q-19 2 -33 3t-33 1v-174q0 -9 -7 -15.5t-16 -11t-18.5 -6.5t-13.5 -2q-8 0 -9 6t-1 14q2 48 2 95.5t2 95.5h-29q-21 0 -59 -1.5t-79.5 -3t-79.5 -4t-58 -3.5q-13 0 -26 8t-13 26q0 9 24 49t61.5 96.5t83 122.5t87.5 128.5t75.5 113.5t47.5 78q0 2 1 3t1 3 q6 12 16.5 10.5t19 -8.5t13 -15.5t-1.5 -10.5q-14 -136 -18.5 -271.5t-4.5 -271.5q14 0 30 -1t42 -1q15 4 18 -3.5t-0.5 -18.5t-11 -21t-12.5 -10zM831 1272q0 3 15 4t24 -2q8 2 13 -2t2 -12q1 -2 1 -5q0 -1 -1 -2q-102 -188 -189 -353t-168.5 -320t-161 -306.5 t-165.5 -312.5q-3 -11 -9 -14.5t-12 -1.5q-14 0 -25 8t-3 22q90 162 170.5 318t161 313.5t165 321.5t182.5 344zM846 215q2 127 6 246.5t18 234.5q-24 -37 -56 -84t-66.5 -97t-68 -99t-60 -91t-42.5 -72.5t-16 -43.5q0 -3 14 -3.5t37 0.5t51 2.5t56.5 3t53.5 2.5t42 1h31z M229 455q-3 21 -4.5 59t-2.5 80.5t-1 83v67.5q0 96 3 166.5t6.5 121t6.5 84t3 54.5q0 15 -9 15q-10 0 -27.5 -12t-39 -31t-44.5 -42.5t-44 -45.5l-15 14q28 31 58.5 65.5t58.5 63.5t51.5 47.5t36.5 18.5q8 0 14.5 -3t6.5 -8v-26q-4 -43 -6 -76.5t-3.5 -65t-2 -64.5t0 -75 t0.5 -96v-127q0 -27 2.5 -68.5t5 -82t5 -73t2.5 -42.5q0 -4 -5.5 -7.5t-13.5 -6t-16.5 -4t-13.5 -1.5q-13 0 -13 17z" />
<glyph unicode="&#xbd;" horiz-adv-x="1227" d="M1075 37l-13.5 -27t-18.5 -28.5t-26 -23t-36 -9.5t-40 6.5t-36.5 16t-34 20.5t-32.5 20q-26 -17 -50 -24.5t-36 -7.5q-26 0 -41 8.5t-15 23.5q0 12 6.5 20t17 13t22.5 7.5t24 2.5q17 0 35 -4t37 -10q44 32 93 87t89.5 124.5t67 149.5t26.5 161q0 38 -12 68t-33 51t-50 32 t-63 11q-60 0 -118.5 -18.5t-105.5 -52.5t-76 -81.5t-29 -105.5q0 -20 11 -33.5t36 -13.5q18 0 29.5 7.5t17.5 10.5l6 -4q-2 -5 -6.5 -15t-13 -20t-19.5 -18t-24 -8q-19 0 -31.5 8.5t-20 22t-11 30t-3.5 33.5q0 41 16.5 80.5t44.5 74t65 63.5t77 49.5t81.5 32t78.5 11.5 q100 0 157.5 -51.5t57.5 -151.5q0 -54 -14 -108.5t-38 -106t-55.5 -100t-66.5 -90.5t-71 -77.5t-69 -61.5q32 -13 64 -23t63 -10q19 0 31.5 4t21 10t14.5 13.5t11 15.5zM831 1272q0 3 15 4t24 -2q8 2 13 -2t2 -12q1 -2 1 -5q0 -1 -1 -2q-102 -188 -189 -353t-168.5 -320 t-161 -306.5t-165.5 -312.5q-3 -11 -9 -14.5t-12 -1.5q-14 0 -25 8t-3 22q90 162 170.5 318t161 313.5t165 321.5t182.5 344zM229 455q-3 21 -4.5 59t-2.5 80.5t-1 83v67.5q0 96 3 166.5t6.5 121t6.5 84t3 54.5q0 15 -9 15q-10 0 -27.5 -12t-39 -31t-44.5 -42.5t-44 -45.5 l-15 14q28 31 58.5 65.5t58.5 63.5t51.5 47.5t36.5 18.5q8 0 14.5 -3t6.5 -8v-26q-4 -43 -6 -76.5t-3.5 -65t-2 -64.5t0 -75t0.5 -96v-127q0 -27 2.5 -68.5t5 -82t5 -73t2.5 -42.5q0 -4 -5.5 -7.5t-13.5 -6t-16.5 -4t-13.5 -1.5q-13 0 -13 17zM752 10q11 0 26.5 3.5 t32.5 11.5q-21 12 -49 12q-20 0 -25.5 -4.5t-5.5 -9.5q0 -13 21 -13z" />
<glyph unicode="&#xbe;" horiz-adv-x="1210" d="M1143 160q-19 2 -33 3t-33 1v-174q0 -9 -7 -15.5t-16 -11t-18.5 -6.5t-13.5 -2q-8 0 -9 6t-1 14q2 48 2 95.5t2 95.5h-29q-21 0 -59 -1.5t-79.5 -3t-79.5 -4t-58 -3.5q-13 0 -26 8t-13 26q0 9 24 49t61.5 96.5t83 122.5t87.5 128.5t75.5 113.5t47.5 78q0 2 1 3t1 3 q6 12 16.5 10.5t19 -8.5t13 -15.5t-1.5 -10.5q-14 -136 -18.5 -271.5t-4.5 -271.5q14 0 30 -1t42 -1q15 4 18 -3.5t-0.5 -18.5t-11 -21t-12.5 -10zM147 547q8 -10 20 -22.5t30.5 -23t44.5 -17.5t61 -7q47 0 73.5 20t26.5 58q0 28 -11 50.5t-30 37.5q-50 -25 -98 -25 q-23 0 -44 10.5t-21 28.5q0 10 8 17.5t20 13t26.5 8t27.5 2.5q44 0 90 -22q37 22 71.5 59.5t61 85.5t42 104.5t15.5 116.5q0 31 -10.5 60.5t-31.5 53t-53 38t-75 14.5q-57 0 -111 -15t-97 -43.5t-69 -69t-26 -91.5q0 -38 15.5 -62.5t29.5 -39.5l-12 -6q-10 7 -20.5 19.5 t-19.5 27.5t-14.5 32t-5.5 35q0 42 17 78.5t45 66t64.5 53t74 39t74 24t65.5 8.5q60 0 102 -17t69 -46.5t39 -69t12 -84.5q0 -51 -19 -106.5t-51 -107.5t-74 -96.5t-88 -74.5q29 -20 48.5 -49.5t19.5 -63.5q0 -24 -9.5 -45t-27 -36.5t-42.5 -24.5t-56 -9q-39 0 -70 11.5 t-53.5 27.5t-38.5 33t-25 29zM1001 1272q0 3 15 4t24 -2q8 2 13 -2t2 -12q1 -2 1 -5q0 -1 -1 -2q-102 -188 -189 -353t-168.5 -320t-161 -306.5t-165.5 -312.5q-3 -11 -9 -14.5t-12 -1.5q-14 0 -25 8t-3 22q90 162 170.5 318t161 313.5t165 321.5t182.5 344zM1016 215 q2 127 6 246.5t18 234.5q-24 -37 -56 -84t-66.5 -97t-68 -99t-60 -91t-42.5 -72.5t-16 -43.5q0 -3 14 -3.5t37 0.5t51 2.5t56.5 3t53.5 2.5t42 1h31zM276 647q29 0 64 12q-31 19 -64 19q-14 0 -26 -3t-12 -11t8.5 -12.5t29.5 -4.5z" />
<glyph unicode="&#xbf;" horiz-adv-x="809" d="M459 -248q13 16 26.5 30.5t28.5 25t32.5 16.5t39.5 6q28 0 50.5 -11.5t37.5 -30t23 -43t8 -50.5q0 -53 -20 -105t-55 -99.5t-81 -87.5t-98 -69.5t-107.5 -46t-107.5 -16.5q-58 0 -99 17t-67.5 45.5t-39 67t-12.5 81.5q0 74 28.5 139.5t71 125t92 113.5t92 105t71 100 t28.5 99q0 35 -18 55.5t-47 20.5q-20 0 -40 -8t-40 -31l-8 6q6 11 17 24.5t25 25.5t31.5 20t36.5 8q42 0 68.5 -29t26.5 -76q0 -45 -26.5 -92.5t-66.5 -98.5t-86.5 -106t-86.5 -115t-66.5 -124.5t-26.5 -135.5q0 -35 10.5 -66.5t32 -55.5t53.5 -38t76 -14q85 0 158.5 30.5 t127 79.5t84 110t30.5 122q0 45 -25.5 76t-75.5 31q-41 0 -62 -12t-36 -27zM356 385q-24 0 -35.5 17.5t-11.5 41.5q0 29 16.5 45.5t39.5 16.5q17 0 33 -13t16 -42q0 -32 -16.5 -49t-41.5 -17z" />
<glyph unicode="&#xc0;" horiz-adv-x="1577" d="M12 293q5 -42 18 -87t38.5 -81.5t65 -60t97.5 -23.5t113 21.5t107.5 60.5t102.5 92.5t97 118.5q-55 -2 -110.5 -4.5t-112.5 -5.5q-12 0 -27 -3.5t-18 -3.5q-10 0 -10 13q0 6 3.5 14t10.5 15.5t17.5 12.5t23.5 5q28 0 96.5 2.5t161.5 7.5q71 104 135 224t121 238.5 t108 228t95 193t81 133.5t68 50q19 0 30.5 -12.5t17 -33t7 -47t1.5 -54.5q0 -118 -9.5 -230.5t-22 -223l-25 -221t-19.5 -224.5q28 2 54 2h50h43q23 0 40.5 -1.5t17.5 -11.5q0 -12 -11.5 -25.5t-37.5 -13.5q-42 -2 -81 -2h-79q-2 -38 -2 -75.5v-75.5q0 -32 4 -64t16 -57.5 t33.5 -42t56.5 -16.5q25 0 49.5 12.5t46.5 33t40 45.5t30 50l12 -6q-12 -26 -29.5 -62t-41.5 -69t-56.5 -56.5t-74.5 -23.5q-75 0 -107.5 58.5t-32.5 176.5q0 42 0.5 84.5t4.5 85.5q-135 -3 -263.5 -7.5t-261.5 -10.5q-54 -80 -111.5 -148.5t-117 -119t-121 -79 t-123.5 -28.5q-46 0 -79 16.5t-56 44t-38.5 62.5t-24.5 71.5t-14 72t-9 63.5zM731 389q58 2 120 4.5t125 5t125 5t120 4.5q6 110 15.5 225.5t18 230.5t15 227t6.5 216q0 7 -0.5 20t-1.5 25t-3 21t-5 9q-14 0 -40.5 -44.5t-63.5 -120t-83.5 -175t-101.5 -210t-117 -225 t-129 -218.5zM1163 1681q-10 0 -10 8q0 6 4 15t10 17t13.5 13.5t13.5 5.5q4 0 6 -2q22 -24 41.5 -47.5t38.5 -45t38.5 -42.5t41.5 -41q2 -2 2 -10q0 -9 -7.5 -19t-15.5 -10t-10 4q-40 47 -86 85t-80 69z" />
<glyph unicode="&#xc1;" horiz-adv-x="1577" d="M12 293q5 -42 18 -87t38.5 -81.5t65 -60t97.5 -23.5t113 21.5t107.5 60.5t102.5 92.5t97 118.5q-55 -2 -110.5 -4.5t-112.5 -5.5q-12 0 -27 -3.5t-18 -3.5q-10 0 -10 13q0 6 3.5 14t10.5 15.5t17.5 12.5t23.5 5q28 0 96.5 2.5t161.5 7.5q71 104 135 224t121 238.5 t108 228t95 193t81 133.5t68 50q19 0 30.5 -12.5t17 -33t7 -47t1.5 -54.5q0 -118 -9.5 -230.5t-22 -223l-25 -221t-19.5 -224.5q28 2 54 2h50h43q23 0 40.5 -1.5t17.5 -11.5q0 -12 -11.5 -25.5t-37.5 -13.5q-42 -2 -81 -2h-79q-2 -38 -2 -75.5v-75.5q0 -32 4 -64t16 -57.5 t33.5 -42t56.5 -16.5q25 0 49.5 12.5t46.5 33t40 45.5t30 50l12 -6q-12 -26 -29.5 -62t-41.5 -69t-56.5 -56.5t-74.5 -23.5q-75 0 -107.5 58.5t-32.5 176.5q0 42 0.5 84.5t4.5 85.5q-135 -3 -263.5 -7.5t-261.5 -10.5q-54 -80 -111.5 -148.5t-117 -119t-121 -79 t-123.5 -28.5q-46 0 -79 16.5t-56 44t-38.5 62.5t-24.5 71.5t-14 72t-9 63.5zM731 389q58 2 120 4.5t125 5t125 5t120 4.5q6 110 15.5 225.5t18 230.5t15 227t6.5 216q0 7 -0.5 20t-1.5 25t-3 21t-5 9q-14 0 -40.5 -44.5t-63.5 -120t-83.5 -175t-101.5 -210t-117 -225 t-129 -218.5zM1284 1529q-6 -6 -14 -6q-6 0 -10.5 5t-6.5 12q0 7 7 14q49 43 93 90.5t75 81.5q2 2 4 2q5 0 13.5 -4.5t16.5 -11t13.5 -14t5.5 -13.5q0 -2 -1 -2t-3 -2q-44 -37 -94.5 -75t-98.5 -77z" />
<glyph unicode="&#xc2;" horiz-adv-x="1577" d="M12 293q5 -42 18 -87t38.5 -81.5t65 -60t97.5 -23.5t113 21.5t107.5 60.5t102.5 92.5t97 118.5q-55 -2 -110.5 -4.5t-112.5 -5.5q-12 0 -27 -3.5t-18 -3.5q-10 0 -10 13q0 6 3.5 14t10.5 15.5t17.5 12.5t23.5 5q28 0 96.5 2.5t161.5 7.5q71 104 135 224t121 238.5 t108 228t95 193t81 133.5t68 50q19 0 30.5 -12.5t17 -33t7 -47t1.5 -54.5q0 -118 -9.5 -230.5t-22 -223l-25 -221t-19.5 -224.5q28 2 54 2h50h43q23 0 40.5 -1.5t17.5 -11.5q0 -12 -11.5 -25.5t-37.5 -13.5q-42 -2 -81 -2h-79q-2 -38 -2 -75.5v-75.5q0 -32 4 -64t16 -57.5 t33.5 -42t56.5 -16.5q25 0 49.5 12.5t46.5 33t40 45.5t30 50l12 -6q-12 -26 -29.5 -62t-41.5 -69t-56.5 -56.5t-74.5 -23.5q-75 0 -107.5 58.5t-32.5 176.5q0 42 0.5 84.5t4.5 85.5q-135 -3 -263.5 -7.5t-261.5 -10.5q-54 -80 -111.5 -148.5t-117 -119t-121 -79 t-123.5 -28.5q-46 0 -79 16.5t-56 44t-38.5 62.5t-24.5 71.5t-14 72t-9 63.5zM731 389q58 2 120 4.5t125 5t125 5t120 4.5q6 110 15.5 225.5t18 230.5t15 227t6.5 216q0 7 -0.5 20t-1.5 25t-3 21t-5 9q-14 0 -40.5 -44.5t-63.5 -120t-83.5 -175t-101.5 -210t-117 -225 t-129 -218.5zM1163 1527q-4 -4 -6 -4q-6 0 -10.5 7.5t-4.5 15.5q0 5 12 20t30.5 34t40 40t40.5 38.5t32.5 28.5t16.5 11h9t14.5 -2t14 -7t7.5 -14q14 -34 35.5 -66.5t55.5 -60.5q3 -3 5.5 -7t2.5 -7q0 -11 -13 -19t-34 -8q-16 13 -31.5 34.5t-29 42t-25 35.5t-19.5 15 t-24.5 -13t-37 -32t-42 -41.5t-39.5 -40.5z" />
<glyph unicode="&#xc3;" horiz-adv-x="1577" d="M12 293q5 -42 18 -87t38.5 -81.5t65 -60t97.5 -23.5t113 21.5t107.5 60.5t102.5 92.5t97 118.5q-55 -2 -110.5 -4.5t-112.5 -5.5q-12 0 -27 -3.5t-18 -3.5q-10 0 -10 13q0 6 3.5 14t10.5 15.5t17.5 12.5t23.5 5q28 0 96.5 2.5t161.5 7.5q71 104 135 224t121 238.5 t108 228t95 193t81 133.5t68 50q19 0 30.5 -12.5t17 -33t7 -47t1.5 -54.5q0 -118 -9.5 -230.5t-22 -223l-25 -221t-19.5 -224.5q28 2 54 2h50h43q23 0 40.5 -1.5t17.5 -11.5q0 -12 -11.5 -25.5t-37.5 -13.5q-42 -2 -81 -2h-79q-2 -38 -2 -75.5v-75.5q0 -32 4 -64t16 -57.5 t33.5 -42t56.5 -16.5q25 0 49.5 12.5t46.5 33t40 45.5t30 50l12 -6q-12 -26 -29.5 -62t-41.5 -69t-56.5 -56.5t-74.5 -23.5q-75 0 -107.5 58.5t-32.5 176.5q0 42 0.5 84.5t4.5 85.5q-135 -3 -263.5 -7.5t-261.5 -10.5q-54 -80 -111.5 -148.5t-117 -119t-121 -79 t-123.5 -28.5q-46 0 -79 16.5t-56 44t-38.5 62.5t-24.5 71.5t-14 72t-9 63.5zM731 389q58 2 120 4.5t125 5t125 5t120 4.5q6 110 15.5 225.5t18 230.5t15 227t6.5 216q0 7 -0.5 20t-1.5 25t-3 21t-5 9q-14 0 -40.5 -44.5t-63.5 -120t-83.5 -175t-101.5 -210t-117 -225 t-129 -218.5zM1147 1568q0 -12 -8.5 -20t-16.5 -8q-9 0 -12 12q7 34 21.5 59t31 41t33 23.5t27.5 7.5q20 0 40 -14t39.5 -31t37.5 -31t34 -14q17 0 29 7t21 17.5t14.5 23t9.5 22.5v2q0 5 6 8.5t14 3.5q11 0 11 -8q-10 -36 -24.5 -60.5t-31 -38.5t-32.5 -20t-29 -6 q-24 0 -44.5 13t-39 29t-35.5 29t-33 13q-26 0 -41.5 -19t-21.5 -41z" />
<glyph unicode="&#xc4;" horiz-adv-x="1577" d="M12 293q5 -42 18 -87t38.5 -81.5t65 -60t97.5 -23.5t113 21.5t107.5 60.5t102.5 92.5t97 118.5q-55 -2 -110.5 -4.5t-112.5 -5.5q-12 0 -27 -3.5t-18 -3.5q-10 0 -10 13q0 6 3.5 14t10.5 15.5t17.5 12.5t23.5 5q28 0 96.5 2.5t161.5 7.5q71 104 135 224t121 238.5 t108 228t95 193t81 133.5t68 50q19 0 30.5 -12.5t17 -33t7 -47t1.5 -54.5q0 -118 -9.5 -230.5t-22 -223l-25 -221t-19.5 -224.5q28 2 54 2h50h43q23 0 40.5 -1.5t17.5 -11.5q0 -12 -11.5 -25.5t-37.5 -13.5q-42 -2 -81 -2h-79q-2 -38 -2 -75.5v-75.5q0 -32 4 -64t16 -57.5 t33.5 -42t56.5 -16.5q25 0 49.5 12.5t46.5 33t40 45.5t30 50l12 -6q-12 -26 -29.5 -62t-41.5 -69t-56.5 -56.5t-74.5 -23.5q-75 0 -107.5 58.5t-32.5 176.5q0 42 0.5 84.5t4.5 85.5q-135 -3 -263.5 -7.5t-261.5 -10.5q-54 -80 -111.5 -148.5t-117 -119t-121 -79 t-123.5 -28.5q-46 0 -79 16.5t-56 44t-38.5 62.5t-24.5 71.5t-14 72t-9 63.5zM731 389q58 2 120 4.5t125 5t125 5t120 4.5q6 110 15.5 225.5t18 230.5t15 227t6.5 216q0 7 -0.5 20t-1.5 25t-3 21t-5 9q-14 0 -40.5 -44.5t-63.5 -120t-83.5 -175t-101.5 -210t-117 -225 t-129 -218.5zM1163 1597q0 19 13.5 32t31.5 13q19 0 32 -13t13 -32t-13 -32t-32 -13q-18 0 -31.5 13t-13.5 32zM1335 1597q0 19 13.5 32t31.5 13q19 0 32 -13t13 -32t-13 -32t-32 -13q-18 0 -31.5 13t-13.5 32z" />
<glyph unicode="&#xc5;" horiz-adv-x="1577" d="M12 293q5 -42 18 -87t38.5 -81.5t65 -60t97.5 -23.5t113 21.5t107.5 60.5t102.5 92.5t97 118.5q-55 -2 -110.5 -4.5t-112.5 -5.5q-12 0 -27 -3.5t-18 -3.5q-10 0 -10 13q0 6 3.5 14t10.5 15.5t17.5 12.5t23.5 5q28 0 96.5 2.5t161.5 7.5q71 104 135 224t121 238.5 t108 228t95 193t81 133.5t68 50q19 0 30.5 -12.5t17 -33t7 -47t1.5 -54.5q0 -118 -9.5 -230.5t-22 -223l-25 -221t-19.5 -224.5q28 2 54 2h50h43q23 0 40.5 -1.5t17.5 -11.5q0 -12 -11.5 -25.5t-37.5 -13.5q-42 -2 -81 -2h-79q-2 -38 -2 -75.5v-75.5q0 -32 4 -64t16 -57.5 t33.5 -42t56.5 -16.5q25 0 49.5 12.5t46.5 33t40 45.5t30 50l12 -6q-12 -26 -29.5 -62t-41.5 -69t-56.5 -56.5t-74.5 -23.5q-75 0 -107.5 58.5t-32.5 176.5q0 42 0.5 84.5t4.5 85.5q-135 -3 -263.5 -7.5t-261.5 -10.5q-54 -80 -111.5 -148.5t-117 -119t-121 -79 t-123.5 -28.5q-46 0 -79 16.5t-56 44t-38.5 62.5t-24.5 71.5t-14 72t-9 63.5zM731 389q58 2 120 4.5t125 5t125 5t120 4.5q6 110 15.5 225.5t18 230.5t15 227t6.5 216q0 7 -0.5 20t-1.5 25t-3 21t-5 9q-14 0 -40.5 -44.5t-63.5 -120t-83.5 -175t-101.5 -210t-117 -225 t-129 -218.5zM1148 1658q0 39 16 69t41 50.5t55 31.5t58 11q24 0 47.5 -8.5t42.5 -26.5t30.5 -45.5t11.5 -64.5q0 -35 -14.5 -63t-37.5 -47.5t-52.5 -30.5t-59.5 -11q-25 0 -49.5 8t-44 24.5t-32 42t-12.5 60.5zM1187 1681q1 -29 11.5 -51t27.5 -38t38.5 -24t45.5 -8 q19 0 37 6.5t31.5 19t22 30.5t8.5 42q0 56 -34 89.5t-83 33.5q-18 0 -37 -6t-34.5 -18.5t-25 -31.5t-8.5 -44z" />
<glyph unicode="&#xc6;" horiz-adv-x="2335" d="M1481 31q-31 -44 -63.5 -63t-63.5 -19q-37 0 -63.5 10t-43.5 34t-25 64t-8 99q0 46 1.5 95t3.5 101h-5q-90 -2 -159.5 -3t-129 -2.5t-114.5 -3.5t-115 -5q-55 -81 -113 -150t-117.5 -119.5t-121 -79t-123.5 -28.5q-46 0 -79 16.5t-56 44t-38.5 62.5t-24.5 71.5t-14 72 t-9 63.5l12 2q5 -42 18 -87t38.5 -81.5t65 -60t97.5 -23.5t113 21.5t107.5 60.5t102.5 92.5t97 118.5q-48 -2 -101.5 -4.5t-121.5 -5.5q-12 0 -27 -3.5t-18 -3.5q-10 0 -10 13q0 6 3.5 14t10.5 15.5t17.5 12.5t23.5 5q34 0 102 2.5t158 7.5q70 105 134 225t121 238.5 t107.5 227.5t94.5 192.5t81 133.5t68 50q19 0 30.5 -12.5t17 -33t7 -47t1.5 -54.5q0 -99 -5.5 -191.5t-13.5 -185.5q34 80 86.5 154t118 138.5t143 117.5t161.5 90.5t173.5 58t179.5 20.5q48 0 104.5 -11.5t106 -39t82.5 -73.5t33 -115q0 -53 -33 -118t-102 -124l-8 8 q48 50 67 101t19 110q0 55 -28.5 92.5t-70.5 60.5t-90.5 32.5t-89.5 9.5q-111 0 -219 -27.5t-204.5 -77.5t-179 -120t-142 -155t-93.5 -183t-34 -203q0 -83 28.5 -158.5t79.5 -136.5t120.5 -103.5t150.5 -58.5q10 44 32.5 83t53 68.5t68 46.5t77.5 17q43 0 72.5 -23.5 t29.5 -74.5q0 -49 -24 -84t-61 -57t-82.5 -32.5t-88.5 -10.5h-24t-23 2q2 -36 19 -65.5t44 -50t61 -31.5t71 -11q133 0 257 79t226 232l12 -8q-11 -17 -34.5 -50.5t-57.5 -75t-78.5 -85t-97 -79t-112 -58.5t-125.5 -23q-102 0 -161 58t-61 172q-77 10 -141 39.5t-113.5 74.5 t-84 104.5t-52.5 129.5q-5 -74 -8.5 -149t-3.5 -152q0 -32 2 -67t11.5 -64t29.5 -48.5t55 -19.5q37 0 56.5 10.5t31.5 22.5zM1221 403q6 111 15.5 228t18 233.5t15 228.5t6.5 214q0 7 -0.5 20t-1.5 25t-3 21t-5 9q-14 0 -40.5 -44.5t-63.5 -119.5t-83.5 -175t-101.5 -210 t-117 -224.5t-129 -219.5q102 5 214 9.5t218 4.5h43h15zM1917 381q-42 0 -75 -13t-57 -35.5t-39.5 -53t-21.5 -66.5q14 -2 28 -2h28q34 0 72 6.5t69 21t51.5 36t20.5 51.5q0 15 -7 25t-18 17t-24.5 10t-26.5 3z" />
<glyph unicode="&#xc7;" horiz-adv-x="1120" d="M1081 371q-5 -28 -18 -72t-36 -94.5t-58.5 -101.5t-86 -93t-117 -69t-151.5 -29q-8 -25 -12 -45t-4 -39q6 3 17 6.5t28 3.5q34 0 53 -21t19 -55q0 -15 -5.5 -34.5t-19 -36t-37 -28t-59.5 -11.5q-9 0 -21 1t-25 4t-25.5 8t-22.5 13q-6 4 -4.5 15t5.5 20.5t9.5 13.5t7.5 -6 q17 -11 37 -14.5t51 -3.5q12 0 25.5 1.5t24 7t17.5 15t7 25.5q0 45 -53 45q-23 0 -35.5 -5t-20.5 -5t-8 8q0 7 3 20.5t8 29.5t10 33t10 32q-99 1 -191 49.5t-163 138.5t-113.5 220t-42.5 294q0 117 21 229t60.5 211t96 182.5t128.5 143.5t158 93.5t183 33.5q73 0 131 -22 t98.5 -60t62 -89.5t21.5 -110.5q0 -39 -11.5 -76.5t-27.5 -70t-33.5 -59t-29.5 -42.5l-12 10q12 16 22.5 37.5t18.5 46.5t13 52.5t5 56.5q0 53 -18.5 100t-53.5 82.5t-85.5 56.5t-114.5 21q-96 0 -176.5 -28.5t-144.5 -80t-112.5 -123t-80.5 -157.5t-48 -183t-16 -200 q0 -81 13.5 -163.5t40.5 -159.5t67.5 -144.5t94 -117.5t121 -79t147.5 -29q106 0 182 37.5t128 96t82.5 129.5t45.5 139z" />
<glyph unicode="&#xc8;" horiz-adv-x="1061" d="M1137 299q-11 -17 -34.5 -50.5t-57.5 -75t-78.5 -85t-97.5 -79t-113 -58.5t-125 -23q-102 0 -160.5 57.5t-60.5 172.5q-98 13 -174 56t-128.5 109.5t-80 153t-27.5 187.5q0 109 36.5 214t101 199t152 173t189.5 136.5t214.5 90t226.5 32.5q48 0 104.5 -11.5t105.5 -39 t82 -73.5t33 -115q0 -53 -33 -118t-102 -124l-8 8q48 50 67 101t19 110q0 55 -28.5 92.5t-70.5 60.5t-90.5 32.5t-89.5 9.5q-111 0 -219 -27.5t-204.5 -77.5t-179 -120t-142 -155t-93.5 -183t-34 -203q0 -83 28.5 -158.5t79.5 -136.5t120.5 -103.5t150.5 -58.5 q10 44 32.5 83t53 68.5t68 46.5t77.5 17q44 0 73.5 -23.5t29.5 -74.5q0 -49 -24 -84t-61.5 -57t-82.5 -32.5t-88 -10.5h-25t-23 2q3 -36 20 -65.5t43.5 -50t60.5 -31.5t71 -11q133 0 257 79t226 232zM643 381q-42 0 -75 -13t-57 -35.5t-39 -53t-21 -66.5q14 -2 27.5 -2h27.5 q34 0 72 6.5t69 21t51.5 36t20.5 51.5q0 15 -7 25t-18 17t-24.5 10t-26.5 3zM737 1739q-10 0 -10 8q0 6 4 15t10 17t13.5 13.5t13.5 5.5q4 0 6 -2q22 -24 41.5 -47.5t38.5 -45t38.5 -42.5t41.5 -41q2 -2 2 -10q0 -9 -7.5 -19t-15.5 -10t-10 4q-40 47 -86 85t-80 69z" />
<glyph unicode="&#xc9;" horiz-adv-x="1061" d="M1137 299q-11 -17 -34.5 -50.5t-57.5 -75t-78.5 -85t-97.5 -79t-113 -58.5t-125 -23q-102 0 -160.5 57.5t-60.5 172.5q-98 13 -174 56t-128.5 109.5t-80 153t-27.5 187.5q0 109 36.5 214t101 199t152 173t189.5 136.5t214.5 90t226.5 32.5q48 0 104.5 -11.5t105.5 -39 t82 -73.5t33 -115q0 -53 -33 -118t-102 -124l-8 8q48 50 67 101t19 110q0 55 -28.5 92.5t-70.5 60.5t-90.5 32.5t-89.5 9.5q-111 0 -219 -27.5t-204.5 -77.5t-179 -120t-142 -155t-93.5 -183t-34 -203q0 -83 28.5 -158.5t79.5 -136.5t120.5 -103.5t150.5 -58.5 q10 44 32.5 83t53 68.5t68 46.5t77.5 17q44 0 73.5 -23.5t29.5 -74.5q0 -49 -24 -84t-61.5 -57t-82.5 -32.5t-88 -10.5h-25t-23 2q3 -36 20 -65.5t43.5 -50t60.5 -31.5t71 -11q133 0 257 79t226 232zM643 381q-42 0 -75 -13t-57 -35.5t-39 -53t-21 -66.5q14 -2 27.5 -2h27.5 q34 0 72 6.5t69 21t51.5 36t20.5 51.5q0 15 -7 25t-18 17t-24.5 10t-26.5 3zM858 1587q-6 -6 -14 -6q-6 0 -10.5 5t-6.5 12q0 7 7 14q49 43 93 90.5t75 81.5q2 2 4 2q5 0 13.5 -4.5t16.5 -11t13.5 -14t5.5 -13.5q0 -2 -1 -2t-3 -2q-44 -37 -94.5 -75t-98.5 -77z" />
<glyph unicode="&#xca;" horiz-adv-x="1061" d="M1137 299q-11 -17 -34.5 -50.5t-57.5 -75t-78.5 -85t-97.5 -79t-113 -58.5t-125 -23q-102 0 -160.5 57.5t-60.5 172.5q-98 13 -174 56t-128.5 109.5t-80 153t-27.5 187.5q0 109 36.5 214t101 199t152 173t189.5 136.5t214.5 90t226.5 32.5q48 0 104.5 -11.5t105.5 -39 t82 -73.5t33 -115q0 -53 -33 -118t-102 -124l-8 8q48 50 67 101t19 110q0 55 -28.5 92.5t-70.5 60.5t-90.5 32.5t-89.5 9.5q-111 0 -219 -27.5t-204.5 -77.5t-179 -120t-142 -155t-93.5 -183t-34 -203q0 -83 28.5 -158.5t79.5 -136.5t120.5 -103.5t150.5 -58.5 q10 44 32.5 83t53 68.5t68 46.5t77.5 17q44 0 73.5 -23.5t29.5 -74.5q0 -49 -24 -84t-61.5 -57t-82.5 -32.5t-88 -10.5h-25t-23 2q3 -36 20 -65.5t43.5 -50t60.5 -31.5t71 -11q133 0 257 79t226 232zM643 381q-42 0 -75 -13t-57 -35.5t-39 -53t-21 -66.5q14 -2 27.5 -2h27.5 q34 0 72 6.5t69 21t51.5 36t20.5 51.5q0 15 -7 25t-18 17t-24.5 10t-26.5 3zM737 1585q-4 -4 -6 -4q-6 0 -10.5 7.5t-4.5 15.5q0 5 12 20t30.5 34t40 40t40.5 38.5t32.5 28.5t16.5 11h9t14.5 -2t14 -7t7.5 -14q14 -34 35.5 -66.5t55.5 -60.5q3 -3 5.5 -7t2.5 -7 q0 -11 -13 -19t-34 -8q-16 13 -31.5 34.5t-29 42t-25 35.5t-19.5 15t-24.5 -13t-37 -32t-42 -41.5t-39.5 -40.5z" />
<glyph unicode="&#xcb;" horiz-adv-x="1061" d="M1137 299q-11 -17 -34.5 -50.5t-57.5 -75t-78.5 -85t-97.5 -79t-113 -58.5t-125 -23q-102 0 -160.5 57.5t-60.5 172.5q-98 13 -174 56t-128.5 109.5t-80 153t-27.5 187.5q0 109 36.5 214t101 199t152 173t189.5 136.5t214.5 90t226.5 32.5q48 0 104.5 -11.5t105.5 -39 t82 -73.5t33 -115q0 -53 -33 -118t-102 -124l-8 8q48 50 67 101t19 110q0 55 -28.5 92.5t-70.5 60.5t-90.5 32.5t-89.5 9.5q-111 0 -219 -27.5t-204.5 -77.5t-179 -120t-142 -155t-93.5 -183t-34 -203q0 -83 28.5 -158.5t79.5 -136.5t120.5 -103.5t150.5 -58.5 q10 44 32.5 83t53 68.5t68 46.5t77.5 17q44 0 73.5 -23.5t29.5 -74.5q0 -49 -24 -84t-61.5 -57t-82.5 -32.5t-88 -10.5h-25t-23 2q3 -36 20 -65.5t43.5 -50t60.5 -31.5t71 -11q133 0 257 79t226 232zM643 381q-42 0 -75 -13t-57 -35.5t-39 -53t-21 -66.5q14 -2 27.5 -2h27.5 q34 0 72 6.5t69 21t51.5 36t20.5 51.5q0 15 -7 25t-18 17t-24.5 10t-26.5 3zM737 1655q0 19 13.5 32t31.5 13q19 0 32 -13t13 -32t-13 -32t-32 -13q-18 0 -31.5 13t-13.5 32zM909 1655q0 19 13.5 32t31.5 13q19 0 32 -13t13 -32t-13 -32t-32 -13q-18 0 -31.5 13t-13.5 32z " />
<glyph unicode="&#xcc;" horiz-adv-x="872" d="M653 43q-15 3 -29.5 6t-29.5 6q-34 -49 -83.5 -76.5t-117.5 -27.5q-43 0 -62.5 14.5t-19.5 34.5q0 14 12.5 28t36 25.5t57.5 19t77 7.5q15 0 30 -1t29 -3q38 61 57 153t28.5 201.5t12.5 229t9 235t19 219.5t42 182q-67 -7 -142 -14.5t-148 -23.5t-139.5 -44.5t-117.5 -76 t-81 -118t-30 -171.5q0 -42 12 -83t36 -73t60.5 -51.5t84.5 -19.5q43 0 74.5 12t54 29t38 35.5t26.5 31.5l10 -6q-9 -15 -27 -42.5t-46 -54t-66.5 -46t-88.5 -19.5q-57 0 -100 22.5t-72 58.5t-44 80.5t-15 88.5q0 108 36.5 187.5t97 136t139 94t161.5 61.5t164.5 38.5 t149.5 25.5q29 52 71.5 81t102.5 29q18 0 35.5 -14.5t17.5 -42.5q0 -27 -15.5 -45t-43.5 -30t-65.5 -19t-82.5 -13q-23 -72 -31.5 -172t-12.5 -214t-6.5 -235t-13.5 -233.5t-33.5 -210t-66.5 -165.5q13 -3 26 -6.5t27 -6.5zM489 10q14 10 27.5 22t24.5 27q-10 2 -19 2h-20 q-38 0 -62.5 -4.5t-39 -11t-20 -15t-5.5 -16.5q0 -11 9.5 -17.5t31.5 -6.5q17 0 35 4t38 16zM915 1432q-40 0 -70.5 -16.5t-51.5 -53.5q63 11 102 23.5t39 35.5q0 8 -7.5 9.5t-11.5 1.5zM428 1614q-10 0 -10 8q0 6 4 15t10 17t13.5 13.5t13.5 5.5q4 0 6 -2 q22 -24 41.5 -47.5t38.5 -45t38.5 -42.5t41.5 -41q2 -2 2 -10q0 -9 -7.5 -19t-15.5 -10t-10 4q-40 47 -86 85t-80 69z" />
<glyph unicode="&#xcd;" horiz-adv-x="872" d="M653 43q-15 3 -29.5 6t-29.5 6q-34 -49 -83.5 -76.5t-117.5 -27.5q-43 0 -62.5 14.5t-19.5 34.5q0 14 12.5 28t36 25.5t57.5 19t77 7.5q15 0 30 -1t29 -3q38 61 57 153t28.5 201.5t12.5 229t9 235t19 219.5t42 182q-67 -7 -142 -14.5t-148 -23.5t-139.5 -44.5t-117.5 -76 t-81 -118t-30 -171.5q0 -42 12 -83t36 -73t60.5 -51.5t84.5 -19.5q43 0 74.5 12t54 29t38 35.5t26.5 31.5l10 -6q-9 -15 -27 -42.5t-46 -54t-66.5 -46t-88.5 -19.5q-57 0 -100 22.5t-72 58.5t-44 80.5t-15 88.5q0 108 36.5 187.5t97 136t139 94t161.5 61.5t164.5 38.5 t149.5 25.5q29 52 71.5 81t102.5 29q18 0 35.5 -14.5t17.5 -42.5q0 -27 -15.5 -45t-43.5 -30t-65.5 -19t-82.5 -13q-23 -72 -31.5 -172t-12.5 -214t-6.5 -235t-13.5 -233.5t-33.5 -210t-66.5 -165.5q13 -3 26 -6.5t27 -6.5zM489 10q14 10 27.5 22t24.5 27q-10 2 -19 2h-20 q-38 0 -62.5 -4.5t-39 -11t-20 -15t-5.5 -16.5q0 -11 9.5 -17.5t31.5 -6.5q17 0 35 4t38 16zM915 1432q-40 0 -70.5 -16.5t-51.5 -53.5q63 11 102 23.5t39 35.5q0 8 -7.5 9.5t-11.5 1.5zM549 1462q-6 -6 -14 -6q-6 0 -10.5 5t-6.5 12q0 7 7 14q49 43 93 90.5t75 81.5 q2 2 4 2q5 0 13.5 -4.5t16.5 -11t13.5 -14t5.5 -13.5q0 -2 -1 -2t-3 -2q-44 -37 -94.5 -75t-98.5 -77z" />
<glyph unicode="&#xce;" horiz-adv-x="872" d="M653 43q-15 3 -29.5 6t-29.5 6q-34 -49 -83.5 -76.5t-117.5 -27.5q-43 0 -62.5 14.5t-19.5 34.5q0 14 12.5 28t36 25.5t57.5 19t77 7.5q15 0 30 -1t29 -3q38 61 57 153t28.5 201.5t12.5 229t9 235t19 219.5t42 182q-67 -7 -142 -14.5t-148 -23.5t-139.5 -44.5t-117.5 -76 t-81 -118t-30 -171.5q0 -42 12 -83t36 -73t60.5 -51.5t84.5 -19.5q43 0 74.5 12t54 29t38 35.5t26.5 31.5l10 -6q-9 -15 -27 -42.5t-46 -54t-66.5 -46t-88.5 -19.5q-57 0 -100 22.5t-72 58.5t-44 80.5t-15 88.5q0 108 36.5 187.5t97 136t139 94t161.5 61.5t164.5 38.5 t149.5 25.5q29 52 71.5 81t102.5 29q18 0 35.5 -14.5t17.5 -42.5q0 -27 -15.5 -45t-43.5 -30t-65.5 -19t-82.5 -13q-23 -72 -31.5 -172t-12.5 -214t-6.5 -235t-13.5 -233.5t-33.5 -210t-66.5 -165.5q13 -3 26 -6.5t27 -6.5zM489 10q14 10 27.5 22t24.5 27q-10 2 -19 2h-20 q-38 0 -62.5 -4.5t-39 -11t-20 -15t-5.5 -16.5q0 -11 9.5 -17.5t31.5 -6.5q17 0 35 4t38 16zM915 1432q-40 0 -70.5 -16.5t-51.5 -53.5q63 11 102 23.5t39 35.5q0 8 -7.5 9.5t-11.5 1.5zM428 1460q-4 -4 -6 -4q-6 0 -10.5 7.5t-4.5 15.5q0 5 12 20t30.5 34t40 40t40.5 38.5 t32.5 28.5t16.5 11h9t14.5 -2t14 -7t7.5 -14q14 -34 35.5 -66.5t55.5 -60.5q3 -3 5.5 -7t2.5 -7q0 -11 -13 -19t-34 -8q-16 13 -31.5 34.5t-29 42t-25 35.5t-19.5 15t-24.5 -13t-37 -32t-42 -41.5t-39.5 -40.5z" />
<glyph unicode="&#xcf;" horiz-adv-x="872" d="M653 43q-15 3 -29.5 6t-29.5 6q-34 -49 -83.5 -76.5t-117.5 -27.5q-43 0 -62.5 14.5t-19.5 34.5q0 14 12.5 28t36 25.5t57.5 19t77 7.5q15 0 30 -1t29 -3q38 61 57 153t28.5 201.5t12.5 229t9 235t19 219.5t42 182q-67 -7 -142 -14.5t-148 -23.5t-139.5 -44.5t-117.5 -76 t-81 -118t-30 -171.5q0 -42 12 -83t36 -73t60.5 -51.5t84.5 -19.5q43 0 74.5 12t54 29t38 35.5t26.5 31.5l10 -6q-9 -15 -27 -42.5t-46 -54t-66.5 -46t-88.5 -19.5q-57 0 -100 22.5t-72 58.5t-44 80.5t-15 88.5q0 108 36.5 187.5t97 136t139 94t161.5 61.5t164.5 38.5 t149.5 25.5q29 52 71.5 81t102.5 29q18 0 35.5 -14.5t17.5 -42.5q0 -27 -15.5 -45t-43.5 -30t-65.5 -19t-82.5 -13q-23 -72 -31.5 -172t-12.5 -214t-6.5 -235t-13.5 -233.5t-33.5 -210t-66.5 -165.5q13 -3 26 -6.5t27 -6.5zM489 10q14 10 27.5 22t24.5 27q-10 2 -19 2h-20 q-38 0 -62.5 -4.5t-39 -11t-20 -15t-5.5 -16.5q0 -11 9.5 -17.5t31.5 -6.5q17 0 35 4t38 16zM915 1432q-40 0 -70.5 -16.5t-51.5 -53.5q63 11 102 23.5t39 35.5q0 8 -7.5 9.5t-11.5 1.5zM428 1530q0 19 13.5 32t31.5 13q19 0 32 -13t13 -32t-13 -32t-32 -13q-18 0 -31.5 13 t-13.5 32zM600 1530q0 19 13.5 32t31.5 13q19 0 32 -13t13 -32t-13 -32t-32 -13q-18 0 -31.5 13t-13.5 32z" />
<glyph unicode="&#xd0;" horiz-adv-x="1444" d="M627 350v55.5t2 61.5q-34 -11 -73.5 -17t-82.5 -6q-119 0 -207.5 39t-147.5 104.5t-88.5 151.5t-29.5 181q0 98 29 182.5t79.5 154.5t120 124.5t149.5 92t167.5 57t175.5 19.5q156 0 283 -48t217 -140.5t139 -228t49 -310.5q0 -78 -11.5 -173t-36.5 -192t-65 -188.5 t-97.5 -163t-132.5 -114.5t-171 -43q-63 0 -116 21t-99 42q-20 -43 -57 -67.5t-86 -24.5q-15 0 -33.5 5t-34.5 15t-26.5 25.5t-10.5 36.5t10 36.5t26.5 26t38 16t44.5 5.5q22 0 43 -3.5t43 -8.5v18q0 34 -3 76.5t-5 91.5q-54 -3 -104 -5.5t-95 -2.5q-2 1 -3 2q-3 1 -3 6 q0 12 6.5 23.5t11.5 11.5q34 0 84 1t101 1v53zM897 272q-50 0 -102 -1.5t-105 -4.5q2 -46 5 -81.5t3 -75.5q0 -14 -1 -26.5t-3 -23.5q50 -17 98.5 -33t102.5 -16q89 0 157 32.5t118 88t83 129t53 155t28.5 166.5t8.5 164q0 160 -42 297.5t-124 238.5t-202 158.5t-277 57.5 q-148 0 -267.5 -39t-204 -113.5t-130 -183.5t-45.5 -250q0 -87 35.5 -163t94.5 -132t135 -88t157 -32q94 0 156 12q5 71 13.5 151.5t27.5 171.5q2 13 4 27t2 16q0 10 -0.5 20.5t8.5 10.5q5 0 13 -6t15 -14.5t12 -17.5t5 -15q-17 -72 -25.5 -158.5t-13.5 -171.5 q42 13 70 27.5t51 30.5l6 -11q-18 -17 -50 -38.5t-77 -41.5q-2 -37 -2 -70.5v-64.5v-55h53h19h34.5t41.5 -0.5t40 -1t30 -2.5t12 -4q0 -9 -7.5 -14t-13.5 -5zM549 -33q41 0 59.5 20t24.5 48q-22 8 -41.5 13t-38.5 5q-29 0 -52.5 -10t-23.5 -33q0 -20 21.5 -31.5t50.5 -11.5z " />
<glyph unicode="&#xd1;" horiz-adv-x="1305" d="M2075 1411q-20 30 -42 59.5t-53 53.5t-73 38.5t-101 14.5q-105 0 -188 -51t-147 -138.5t-111 -203t-81.5 -245t-57 -264.5t-38 -261.5t-25 -236t-17.5 -187.5q-5 -16 -22 -28.5t-29 -12.5q-14 0 -17 26q-8 55 -18 131t-24 162t-32 178t-42.5 180t-56.5 166.5t-73 139.5 q-20 -71 -47 -158t-59.5 -181.5t-71 -192t-80.5 -188.5t-88 -170.5t-94.5 -138.5t-99 -93.5t-101.5 -34.5q-48 0 -81.5 18t-55.5 41.5t-33.5 45.5t-15.5 30l8 6q9 -10 22.5 -22.5t34.5 -23.5t51 -18.5t72 -7.5q55 0 107 35.5t100.5 96t92.5 141t83 171t73.5 186t63.5 186 t51.5 171t39.5 140.5q-38 48 -86 75t-105 27q-50 0 -89 -16t-65.5 -42.5t-40.5 -61.5t-14 -72q0 -40 12 -71.5t29 -55t36 -39.5t34 -25l-8 -10q-10 5 -33 22t-47 44.5t-42 64.5t-18 82q0 61 21.5 105.5t56 73.5t78 43.5t88.5 14.5q63 0 115.5 -24t95.5 -68q3 10 6 20.5 t6 16.5q5 15 12.5 22.5t14.5 10.5t12 3.5t6 0.5q-3 -17 -10 -44t-16 -62q45 -56 80 -129.5t62 -155.5t46.5 -168.5t33.5 -167t24.5 -151.5t19.5 -123q8 84 21 195t32 235.5t46.5 254.5t65.5 253.5t88 233t114 191.5t143.5 129.5t177.5 47.5q47 0 85 -13t67.5 -34t51 -47 t37 -52.5t25.5 -50t15 -39.5zM942 1274q0 -12 -8.5 -20t-16.5 -8q-9 0 -12 12q7 34 21.5 59t31 41t33 23.5t27.5 7.5q20 0 40 -14t39.5 -31t37.5 -31t34 -14q17 0 29 7t21 17.5t14.5 23t9.5 22.5v2q0 5 6 8.5t14 3.5q11 0 11 -8q-10 -36 -24.5 -60.5t-31 -38.5t-32.5 -20 t-29 -6q-24 0 -44.5 13t-39 29t-35.5 29t-33 13q-26 0 -41.5 -19t-21.5 -41z" />
<glyph unicode="&#xd2;" horiz-adv-x="1174" d="M602 -4q83 0 150.5 29t120 78t91.5 113.5t64 136.5t37 146t12 142q0 103 -14 202t-39 189q0 2 -7 4.5t-7 10.5q0 5 5.5 13t14 15.5t18 13t17.5 5.5q9 0 17 -19t15 -50t12.5 -70.5t10 -80t6.5 -78.5t2 -67q0 -77 -12.5 -166.5t-39.5 -178.5t-69.5 -171.5t-103.5 -145.5 t-141 -101t-182 -38q-88 0 -159.5 30t-127.5 82t-96.5 123t-67 153.5t-39 172t-12.5 179.5q0 98 18 200t53.5 198.5t89 181.5t125 148.5t161.5 100.5t198 37q80 0 139 -27.5t98 -71t58.5 -96.5t19.5 -104q0 -60 -23.5 -115t-76.5 -106l-12 16q37 37 48 80.5t11 85.5 q0 53 -23.5 102t-64.5 87t-95.5 60.5t-115.5 22.5q-101 0 -180.5 -34t-140.5 -92t-104.5 -134t-71 -160.5t-40 -171.5t-12.5 -167q0 -70 11 -150.5t34 -159.5t60 -152t88.5 -128.5t119 -89t152.5 -33.5zM580 1761q-10 0 -10 8q0 6 4 15t10 17t13.5 13.5t13.5 5.5q4 0 6 -2 q22 -24 41.5 -47.5t38.5 -45t38.5 -42.5t41.5 -41q2 -2 2 -10q0 -9 -7.5 -19t-15.5 -10t-10 4q-40 47 -86 85t-80 69z" />
<glyph unicode="&#xd3;" horiz-adv-x="1174" d="M602 -4q83 0 150.5 29t120 78t91.5 113.5t64 136.5t37 146t12 142q0 103 -14 202t-39 189q0 2 -7 4.5t-7 10.5q0 5 5.5 13t14 15.5t18 13t17.5 5.5q9 0 17 -19t15 -50t12.5 -70.5t10 -80t6.5 -78.5t2 -67q0 -77 -12.5 -166.5t-39.5 -178.5t-69.5 -171.5t-103.5 -145.5 t-141 -101t-182 -38q-88 0 -159.5 30t-127.5 82t-96.5 123t-67 153.5t-39 172t-12.5 179.5q0 98 18 200t53.5 198.5t89 181.5t125 148.5t161.5 100.5t198 37q80 0 139 -27.5t98 -71t58.5 -96.5t19.5 -104q0 -60 -23.5 -115t-76.5 -106l-12 16q37 37 48 80.5t11 85.5 q0 53 -23.5 102t-64.5 87t-95.5 60.5t-115.5 22.5q-101 0 -180.5 -34t-140.5 -92t-104.5 -134t-71 -160.5t-40 -171.5t-12.5 -167q0 -70 11 -150.5t34 -159.5t60 -152t88.5 -128.5t119 -89t152.5 -33.5zM700 1609q-6 -6 -14 -6q-6 0 -10.5 5t-6.5 12q0 7 7 14q49 43 93 90.5 t75 81.5q2 2 4 2q5 0 13.5 -4.5t16.5 -11t13.5 -14t5.5 -13.5q0 -2 -1 -2t-3 -2q-44 -37 -94.5 -75t-98.5 -77z" />
<glyph unicode="&#xd4;" horiz-adv-x="1174" d="M602 -4q83 0 150.5 29t120 78t91.5 113.5t64 136.5t37 146t12 142q0 103 -14 202t-39 189q0 2 -7 4.5t-7 10.5q0 5 5.5 13t14 15.5t18 13t17.5 5.5q9 0 17 -19t15 -50t12.5 -70.5t10 -80t6.5 -78.5t2 -67q0 -77 -12.5 -166.5t-39.5 -178.5t-69.5 -171.5t-103.5 -145.5 t-141 -101t-182 -38q-88 0 -159.5 30t-127.5 82t-96.5 123t-67 153.5t-39 172t-12.5 179.5q0 98 18 200t53.5 198.5t89 181.5t125 148.5t161.5 100.5t198 37q80 0 139 -27.5t98 -71t58.5 -96.5t19.5 -104q0 -60 -23.5 -115t-76.5 -106l-12 16q37 37 48 80.5t11 85.5 q0 53 -23.5 102t-64.5 87t-95.5 60.5t-115.5 22.5q-101 0 -180.5 -34t-140.5 -92t-104.5 -134t-71 -160.5t-40 -171.5t-12.5 -167q0 -70 11 -150.5t34 -159.5t60 -152t88.5 -128.5t119 -89t152.5 -33.5zM580 1607q-4 -4 -6 -4q-6 0 -10.5 7.5t-4.5 15.5q0 5 12 20t30.5 34 t40 40t40.5 38.5t32.5 28.5t16.5 11h9t14.5 -2t14 -7t7.5 -14q14 -34 35.5 -66.5t55.5 -60.5q3 -3 5.5 -7t2.5 -7q0 -11 -13 -19t-34 -8q-16 13 -31.5 34.5t-29 42t-25 35.5t-19.5 15t-24.5 -13t-37 -32t-42 -41.5t-39.5 -40.5z" />
<glyph unicode="&#xd5;" horiz-adv-x="1174" d="M602 -4q83 0 150.5 29t120 78t91.5 113.5t64 136.5t37 146t12 142q0 103 -14 202t-39 189q0 2 -7 4.5t-7 10.5q0 5 5.5 13t14 15.5t18 13t17.5 5.5q9 0 17 -19t15 -50t12.5 -70.5t10 -80t6.5 -78.5t2 -67q0 -77 -12.5 -166.5t-39.5 -178.5t-69.5 -171.5t-103.5 -145.5 t-141 -101t-182 -38q-88 0 -159.5 30t-127.5 82t-96.5 123t-67 153.5t-39 172t-12.5 179.5q0 98 18 200t53.5 198.5t89 181.5t125 148.5t161.5 100.5t198 37q80 0 139 -27.5t98 -71t58.5 -96.5t19.5 -104q0 -60 -23.5 -115t-76.5 -106l-12 16q37 37 48 80.5t11 85.5 q0 53 -23.5 102t-64.5 87t-95.5 60.5t-115.5 22.5q-101 0 -180.5 -34t-140.5 -92t-104.5 -134t-71 -160.5t-40 -171.5t-12.5 -167q0 -70 11 -150.5t34 -159.5t60 -152t88.5 -128.5t119 -89t152.5 -33.5zM563 1648q0 -12 -8.5 -20t-16.5 -8q-9 0 -12 12q7 34 21.5 59t31 41 t33 23.5t27.5 7.5q20 0 40 -14t39.5 -31t37.5 -31t34 -14q17 0 29 7t21 17.5t14.5 23t9.5 22.5v2q0 5 6 8.5t14 3.5q11 0 11 -8q-10 -36 -24.5 -60.5t-31 -38.5t-32.5 -20t-29 -6q-24 0 -44.5 13t-39 29t-35.5 29t-33 13q-26 0 -41.5 -19t-21.5 -41z" />
<glyph unicode="&#xd6;" horiz-adv-x="1174" d="M602 -4q83 0 150.5 29t120 78t91.5 113.5t64 136.5t37 146t12 142q0 103 -14 202t-39 189q0 2 -7 4.5t-7 10.5q0 5 5.5 13t14 15.5t18 13t17.5 5.5q9 0 17 -19t15 -50t12.5 -70.5t10 -80t6.5 -78.5t2 -67q0 -77 -12.5 -166.5t-39.5 -178.5t-69.5 -171.5t-103.5 -145.5 t-141 -101t-182 -38q-88 0 -159.5 30t-127.5 82t-96.5 123t-67 153.5t-39 172t-12.5 179.5q0 98 18 200t53.5 198.5t89 181.5t125 148.5t161.5 100.5t198 37q80 0 139 -27.5t98 -71t58.5 -96.5t19.5 -104q0 -60 -23.5 -115t-76.5 -106l-12 16q37 37 48 80.5t11 85.5 q0 53 -23.5 102t-64.5 87t-95.5 60.5t-115.5 22.5q-101 0 -180.5 -34t-140.5 -92t-104.5 -134t-71 -160.5t-40 -171.5t-12.5 -167q0 -70 11 -150.5t34 -159.5t60 -152t88.5 -128.5t119 -89t152.5 -33.5zM579 1677q0 19 13.5 32t31.5 13q19 0 32 -13t13 -32t-13 -32t-32 -13 q-18 0 -31.5 13t-13.5 32zM751 1677q0 19 13.5 32t31.5 13q19 0 32 -13t13 -32t-13 -32t-32 -13q-18 0 -31.5 13t-13.5 32z" />
<glyph unicode="&#xd7;" d="M737 297q10 -9 1.5 -21.5t-17.5 -21.5q-5 -5 -10.5 -5.5t-10.5 5.5q-58 57 -124.5 120.5t-131.5 125.5q-32 -33 -64 -67t-63.5 -66.5t-61 -63t-56.5 -57.5q-3 -3 -9 2q-5 4 -12 10.5t-13 13.5t-9 12.5t0 8.5l247 248q-11 11 -22 21.5t-21 21.5q-19 19 -47.5 48t-59 60.5 t-59 61.5t-47.5 51q-3 3 0.5 8.5t9.5 11.5t12.5 12t10.5 11q5 3 8 0q21 -23 49 -52t58 -60t59 -60.5t52 -52.5l18 -20t20 -21q17 18 35 35t33 32q5 6 21.5 23t39 39t47.5 46t46.5 44t36 32t16.5 11q3 -4 9 -11t11 -14.5t7.5 -14.5t-1.5 -11q-20 -19 -49.5 -47t-60.5 -58 t-60.5 -58.5t-48.5 -47.5q-9 -11 -19.5 -20.5t-21.5 -20.5q32 -32 66 -64.5t67 -64t63.5 -61t55.5 -54.5z" />
<glyph unicode="&#xd8;" horiz-adv-x="1174" d="M1096 1634q3 3 17 4.5t22 -0.5q8 0 13 -4t5 -10q0 -2 -2 -4l-2 -2q-32 -59 -67.5 -122.5t-73.5 -131.5q30 -65 30 -129q0 -60 -23.5 -115t-76.5 -106l-12 16q37 37 48 80.5t11 85.5q0 23 -5.5 46t-14.5 46q-78 -138 -162.5 -286.5t-169 -297.5t-167 -293t-155.5 -272 q54 -65 125.5 -104t165.5 -39q83 0 150.5 29t120 78t91.5 113.5t64 136.5t37 146t12 142q0 103 -14 202t-39 189q0 2 -7 4.5t-7 10.5q0 5 5.5 13t14 15.5t18 13t17.5 5.5q9 0 17 -19t15 -50t12.5 -70.5t10 -80t6.5 -78.5t2 -67q0 -77 -12.5 -166.5t-39.5 -178.5 t-69.5 -171.5t-103.5 -145.5t-141 -101t-182 -38q-99 0 -175 37t-135 98q-35 -63 -67 -119.5t-60 -107.5q-2 -11 -8 -14.5t-14 -1.5q-13 2 -23 10.5t-2 22.5q31 54 66 116t76 133q-42 54 -72 120t-49.5 139.5t-29 151t-9.5 155.5q0 98 18 200t53.5 198.5t89 181.5t125 148.5 t161.5 100.5t198 37q87 0 149.5 -32.5t100.5 -82.5q34 59 64.5 112.5t58.5 102.5zM137 709q0 -62 8 -131t25.5 -139t44.5 -136.5t66 -122.5q74 132 157 280t167.5 299.5t168 301.5t158.5 285q-20 27 -47 49t-58.5 38.5t-67.5 25.5t-73 9q-101 0 -180.5 -34t-140.5 -92 t-104.5 -134t-71 -160.5t-40 -171.5t-12.5 -167z" />
<glyph unicode="&#xd9;" horiz-adv-x="1348" d="M1286 285q-14 -22 -38.5 -58t-59.5 -80q6 -38 13.5 -72.5t17.5 -62.5h4q4 0 4 -4q0 -5 -5.5 -13.5t-14 -16.5t-19 -14.5t-19.5 -6.5q-12 0 -24 32.5t-25 88.5q-35 -33 -75.5 -63.5t-87.5 -53.5t-99.5 -37t-109.5 -14q-54 0 -109.5 17.5t-100.5 58t-73.5 106.5t-28.5 164 q0 64 13.5 135.5t33.5 147.5t43 155t43 158t33.5 156.5t13.5 150.5q0 46 -11 84.5t-34 66t-58 43t-83 15.5q-43 0 -89 -13.5t-90 -37.5t-84 -56t-69.5 -69t-47 -77.5t-17.5 -80.5q0 -18 10 -36.5t35 -18.5q18 0 35 9t28 26l11 -6q-6 -12 -13.5 -25.5t-17.5 -25t-23.5 -18.5 t-31.5 -7q-20 0 -32.5 7.5t-20 19.5t-10.5 26.5t-3 28.5q0 47 21.5 96.5t57 96t82 88t97 72.5t101.5 49t96 18q43 0 85 -14.5t74 -44.5t52 -76.5t20 -110.5q0 -72 -13 -148t-32 -154.5t-42 -158.5t-42 -160.5t-32 -159.5t-13 -155q0 -57 16.5 -107.5t49.5 -89t82 -60.5 t114 -22q57 0 106.5 10.5t91.5 28.5t78 41.5t66 50.5q-8 46 -15.5 100.5t-12.5 112.5t-8 117t-3 115q0 235 24.5 394.5t64.5 257t92 139.5t106 42q25 0 43 -10.5t31.5 -26.5t23 -34.5t17.5 -34.5l-13 -8q-20 20 -43 34.5t-61 14.5q-81 0 -124.5 -58.5t-63.5 -162t-23.5 -246 t-3.5 -309.5q0 -84 9.5 -180.5t25.5 -186.5q29 35 51 67t39 54zM840 1628q-10 0 -10 8q0 6 4 15t10 17t13.5 13.5t13.5 5.5q4 0 6 -2q22 -24 41.5 -47.5t38.5 -45t38.5 -42.5t41.5 -41q2 -2 2 -10q0 -9 -7.5 -19t-15.5 -10t-10 4q-40 47 -86 85t-80 69z" />
<glyph unicode="&#xda;" horiz-adv-x="1348" d="M1286 285q-14 -22 -38.5 -58t-59.5 -80q6 -38 13.5 -72.5t17.5 -62.5h4q4 0 4 -4q0 -5 -5.5 -13.5t-14 -16.5t-19 -14.5t-19.5 -6.5q-12 0 -24 32.5t-25 88.5q-35 -33 -75.5 -63.5t-87.5 -53.5t-99.5 -37t-109.5 -14q-54 0 -109.5 17.5t-100.5 58t-73.5 106.5t-28.5 164 q0 64 13.5 135.5t33.5 147.5t43 155t43 158t33.5 156.5t13.5 150.5q0 46 -11 84.5t-34 66t-58 43t-83 15.5q-43 0 -89 -13.5t-90 -37.5t-84 -56t-69.5 -69t-47 -77.5t-17.5 -80.5q0 -18 10 -36.5t35 -18.5q18 0 35 9t28 26l11 -6q-6 -12 -13.5 -25.5t-17.5 -25t-23.5 -18.5 t-31.5 -7q-20 0 -32.5 7.5t-20 19.5t-10.5 26.5t-3 28.5q0 47 21.5 96.5t57 96t82 88t97 72.5t101.5 49t96 18q43 0 85 -14.5t74 -44.5t52 -76.5t20 -110.5q0 -72 -13 -148t-32 -154.5t-42 -158.5t-42 -160.5t-32 -159.5t-13 -155q0 -57 16.5 -107.5t49.5 -89t82 -60.5 t114 -22q57 0 106.5 10.5t91.5 28.5t78 41.5t66 50.5q-8 46 -15.5 100.5t-12.5 112.5t-8 117t-3 115q0 235 24.5 394.5t64.5 257t92 139.5t106 42q25 0 43 -10.5t31.5 -26.5t23 -34.5t17.5 -34.5l-13 -8q-20 20 -43 34.5t-61 14.5q-81 0 -124.5 -58.5t-63.5 -162t-23.5 -246 t-3.5 -309.5q0 -84 9.5 -180.5t25.5 -186.5q29 35 51 67t39 54zM960 1476q-6 -6 -14 -6q-6 0 -10.5 5t-6.5 12q0 7 7 14q49 43 93 90.5t75 81.5q2 2 4 2q5 0 13.5 -4.5t16.5 -11t13.5 -14t5.5 -13.5q0 -2 -1 -2t-3 -2q-44 -37 -94.5 -75t-98.5 -77z" />
<glyph unicode="&#xdb;" horiz-adv-x="1348" d="M1286 285q-14 -22 -38.5 -58t-59.5 -80q6 -38 13.5 -72.5t17.5 -62.5h4q4 0 4 -4q0 -5 -5.5 -13.5t-14 -16.5t-19 -14.5t-19.5 -6.5q-12 0 -24 32.5t-25 88.5q-35 -33 -75.5 -63.5t-87.5 -53.5t-99.5 -37t-109.5 -14q-54 0 -109.5 17.5t-100.5 58t-73.5 106.5t-28.5 164 q0 64 13.5 135.5t33.5 147.5t43 155t43 158t33.5 156.5t13.5 150.5q0 46 -11 84.5t-34 66t-58 43t-83 15.5q-43 0 -89 -13.5t-90 -37.5t-84 -56t-69.5 -69t-47 -77.5t-17.5 -80.5q0 -18 10 -36.5t35 -18.5q18 0 35 9t28 26l11 -6q-6 -12 -13.5 -25.5t-17.5 -25t-23.5 -18.5 t-31.5 -7q-20 0 -32.5 7.5t-20 19.5t-10.5 26.5t-3 28.5q0 47 21.5 96.5t57 96t82 88t97 72.5t101.5 49t96 18q43 0 85 -14.5t74 -44.5t52 -76.5t20 -110.5q0 -72 -13 -148t-32 -154.5t-42 -158.5t-42 -160.5t-32 -159.5t-13 -155q0 -57 16.5 -107.5t49.5 -89t82 -60.5 t114 -22q57 0 106.5 10.5t91.5 28.5t78 41.5t66 50.5q-8 46 -15.5 100.5t-12.5 112.5t-8 117t-3 115q0 235 24.5 394.5t64.5 257t92 139.5t106 42q25 0 43 -10.5t31.5 -26.5t23 -34.5t17.5 -34.5l-13 -8q-20 20 -43 34.5t-61 14.5q-81 0 -124.5 -58.5t-63.5 -162t-23.5 -246 t-3.5 -309.5q0 -84 9.5 -180.5t25.5 -186.5q29 35 51 67t39 54zM840 1474q-4 -4 -6 -4q-6 0 -10.5 7.5t-4.5 15.5q0 5 12 20t30.5 34t40 40t40.5 38.5t32.5 28.5t16.5 11h9t14.5 -2t14 -7t7.5 -14q14 -34 35.5 -66.5t55.5 -60.5q3 -3 5.5 -7t2.5 -7q0 -11 -13 -19t-34 -8 q-16 13 -31.5 34.5t-29 42t-25 35.5t-19.5 15t-24.5 -13t-37 -32t-42 -41.5t-39.5 -40.5z" />
<glyph unicode="&#xdc;" horiz-adv-x="1348" d="M1286 285q-14 -22 -38.5 -58t-59.5 -80q6 -38 13.5 -72.5t17.5 -62.5h4q4 0 4 -4q0 -5 -5.5 -13.5t-14 -16.5t-19 -14.5t-19.5 -6.5q-12 0 -24 32.5t-25 88.5q-35 -33 -75.5 -63.5t-87.5 -53.5t-99.5 -37t-109.5 -14q-54 0 -109.5 17.5t-100.5 58t-73.5 106.5t-28.5 164 q0 64 13.5 135.5t33.5 147.5t43 155t43 158t33.5 156.5t13.5 150.5q0 46 -11 84.5t-34 66t-58 43t-83 15.5q-43 0 -89 -13.5t-90 -37.5t-84 -56t-69.5 -69t-47 -77.5t-17.5 -80.5q0 -18 10 -36.5t35 -18.5q18 0 35 9t28 26l11 -6q-6 -12 -13.5 -25.5t-17.5 -25t-23.5 -18.5 t-31.5 -7q-20 0 -32.5 7.5t-20 19.5t-10.5 26.5t-3 28.5q0 47 21.5 96.5t57 96t82 88t97 72.5t101.5 49t96 18q43 0 85 -14.5t74 -44.5t52 -76.5t20 -110.5q0 -72 -13 -148t-32 -154.5t-42 -158.5t-42 -160.5t-32 -159.5t-13 -155q0 -57 16.5 -107.5t49.5 -89t82 -60.5 t114 -22q57 0 106.5 10.5t91.5 28.5t78 41.5t66 50.5q-8 46 -15.5 100.5t-12.5 112.5t-8 117t-3 115q0 235 24.5 394.5t64.5 257t92 139.5t106 42q25 0 43 -10.5t31.5 -26.5t23 -34.5t17.5 -34.5l-13 -8q-20 20 -43 34.5t-61 14.5q-81 0 -124.5 -58.5t-63.5 -162t-23.5 -246 t-3.5 -309.5q0 -84 9.5 -180.5t25.5 -186.5q29 35 51 67t39 54zM840 1544q0 19 13.5 32t31.5 13q19 0 32 -13t13 -32t-13 -32t-32 -13q-18 0 -31.5 13t-13.5 32zM1012 1544q0 19 13.5 32t31.5 13q19 0 32 -13t13 -32t-13 -32t-32 -13q-18 0 -31.5 13t-13.5 32z" />
<glyph unicode="&#xdd;" horiz-adv-x="788" d="M203 809q-26 3 -61 12t-66.5 30.5t-53.5 58t-22 94.5q0 53 21.5 93t56.5 66.5t79 40t89 13.5q72 0 126.5 -25.5t94 -69.5t65.5 -102t41.5 -123t22.5 -132.5t8 -131.5q24 97 59.5 201t83.5 203t108 188.5t134.5 156.5t163.5 106.5t193 39.5q41 0 81 -12t71 -36t50 -59.5 t19 -83.5q0 -60 -23.5 -108.5t-55.5 -84.5t-65 -60t-51 -35l-8 10q17 12 41.5 31t47 48t38.5 70t16 97q0 29 -10 58t-31.5 52.5t-54.5 38t-78 14.5q-107 0 -196.5 -42t-163 -113t-132 -166t-104 -201t-79 -217t-56.5 -215q-2 -71 -5 -148.5t-8 -150.5t-11 -136.5t-13 -105.5 q-1 -11 -8.5 -19t-17.5 -14t-20.5 -9t-16.5 -3t-11.5 4.5t-5.5 12.5q4 31 10.5 78t13.5 102.5t14 116.5t13 121.5t9.5 116t3.5 100.5q0 56 -4 121t-16 129.5t-34 124.5t-58 105.5t-87.5 73t-122.5 27.5q-36 0 -69.5 -10.5t-59 -31.5t-40.5 -52.5t-15 -73.5q0 -45 16 -75 t40.5 -50t53 -31.5t54.5 -17.5zM643 1323q-6 -6 -14 -6q-6 0 -10.5 5t-6.5 12q0 7 7 14q49 43 93 90.5t75 81.5q2 2 4 2q5 0 13.5 -4.5t16.5 -11t13.5 -14t5.5 -13.5q0 -2 -1 -2t-3 -2q-44 -37 -94.5 -75t-98.5 -77z" />
<glyph unicode="&#xde;" horiz-adv-x="1133" d="M334 1372q0 8 2 14t10 11q6 3 15 8.5t18 5.5q5 0 9.5 -2.5t4.5 -7.5q1 -27 0.5 -82t-2.5 -129t-6 -163.5t-10 -186.5q62 80 131 148.5t139.5 118.5t141 78.5t135.5 28.5q48 0 86.5 -12t66.5 -39.5t43 -74t15 -115.5q0 -60 -19 -133t-53.5 -147.5t-82.5 -144.5 t-106.5 -124.5t-125 -87.5t-138.5 -33q-50 0 -85.5 17.5t-61 44.5t-41 61.5t-24.5 67.5t-12.5 62.5t-4.5 47.5l20 4q26 -122 77 -181.5t145 -59.5q75 0 137.5 27.5t111.5 73.5t86 104.5t61 121t36 123t12 109.5q0 38 -8 76t-27.5 68t-51 48.5t-79.5 18.5q-68 0 -137.5 -26 t-137 -71.5t-131.5 -108.5t-120 -136q-7 -103 -16.5 -208t-22 -202t-29 -182t-37 -148t-45 -99t-53.5 -36q-35 0 -54 25t-28.5 60t-11.5 73t-2 65q0 64 17 138t48 152t74 157t94 155q6 89 11 177.5t8.5 170t5.5 153t2 126.5zM174 6q21 0 39.5 57.5t35 153.5t30.5 219.5 t24 255.5q-39 -64 -71 -131t-55 -135.5t-35.5 -136.5t-12.5 -133q0 -29 3 -56t9 -48t14.5 -33.5t18.5 -12.5z" />
<glyph unicode="&#xdf;" horiz-adv-x="479" d="M25 395q0 38 -0.5 95t1 125.5t6.5 143t16 146.5t29 137t46 114.5t67 78.5t91 29q18 0 36 -11.5t32.5 -35t23 -58.5t8.5 -82q0 -95 -24 -181t-53 -157t-53 -123t-24 -79q0 -30 14 -57.5t35.5 -54.5t46 -54t46 -56t35.5 -61t14 -68q0 -44 -16.5 -81t-40 -64t-48.5 -42 t-43 -15q-31 0 -47 16t-16 35q0 15 5 30t11.5 27.5t13 20.5t9.5 8q5 0 6.5 -3.5t1.5 -6.5q0 -5 -1 -14t-1 -15q0 -17 11.5 -28t37.5 -11q11 0 25 5t27 16t21.5 27.5t8.5 39.5q0 30 -14 56t-35 51t-46 51.5t-46 58t-35 70t-14 88.5q0 51 21 109t45.5 123.5t45.5 139.5t21 156 q0 36 -3.5 68.5t-13 56.5t-26 38.5t-43.5 14.5q-39 0 -65 -40t-42.5 -104.5t-25.5 -145.5t-12.5 -163.5t-4 -159t-0.5 -130.5q0 -226 6 -403t12.5 -297t12.5 -177t6 -43q0 -11 -2 -17.5t-10 -12.5q-7 -5 -15.5 -11t-17.5 -6q-10 0 -16 6q-4 5 -9 16.5t-9.5 42.5t-8.5 89 t-7 155t-5 239.5t-2 344.5z" />
<glyph unicode="&#xe0;" horiz-adv-x="514" d="M371 346q-9 0 -16.5 10.5t-19.5 22.5t-30.5 22.5t-48.5 10.5q-42 0 -78 -21.5t-62 -54t-40.5 -71t-14.5 -72.5q0 -53 27 -87t72 -34q35 0 61.5 13.5t44.5 35.5q-6 27 -6 67q0 43 6.5 70t16 42t19.5 20.5t17 5.5q8 0 18.5 -11t10.5 -39q0 -35 -12.5 -73.5t-34.5 -73.5 q12 -31 37 -45t57 -14q28 0 52.5 12.5t46 33.5t40.5 48.5t35 56.5l6 -4q-12 -38 -32 -74t-46 -64t-56.5 -44.5t-63.5 -16.5q-25 0 -54.5 16.5t-48.5 59.5q-31 -37 -71 -61.5t-86 -24.5q-26 0 -47 12t-35.5 32t-22.5 47t-8 57q0 51 22.5 102t60 92t86 66.5t101.5 25.5 q39 0 65.5 -8.5t42.5 -20t23 -23.5t7 -19q0 -14 -14.5 -19.5t-26.5 -5.5zM287 213q0 -33 6 -57q15 28 22 57.5t7 50.5q0 25 -9 25t-17.5 -22t-8.5 -54zM124 680q-10 0 -10 8q0 6 4 15t10 17t13.5 13.5t13.5 5.5q4 0 6 -2q22 -24 41.5 -47.5t38.5 -45t38.5 -42.5t41.5 -41 q2 -2 2 -10q0 -9 -7.5 -19t-15.5 -10t-10 4q-40 47 -86 85t-80 69z" />
<glyph unicode="&#xe1;" horiz-adv-x="514" d="M371 346q-9 0 -16.5 10.5t-19.5 22.5t-30.5 22.5t-48.5 10.5q-42 0 -78 -21.5t-62 -54t-40.5 -71t-14.5 -72.5q0 -53 27 -87t72 -34q35 0 61.5 13.5t44.5 35.5q-6 27 -6 67q0 43 6.5 70t16 42t19.5 20.5t17 5.5q8 0 18.5 -11t10.5 -39q0 -35 -12.5 -73.5t-34.5 -73.5 q12 -31 37 -45t57 -14q28 0 52.5 12.5t46 33.5t40.5 48.5t35 56.5l6 -4q-12 -38 -32 -74t-46 -64t-56.5 -44.5t-63.5 -16.5q-25 0 -54.5 16.5t-48.5 59.5q-31 -37 -71 -61.5t-86 -24.5q-26 0 -47 12t-35.5 32t-22.5 47t-8 57q0 51 22.5 102t60 92t86 66.5t101.5 25.5 q39 0 65.5 -8.5t42.5 -20t23 -23.5t7 -19q0 -14 -14.5 -19.5t-26.5 -5.5zM287 213q0 -33 6 -57q15 28 22 57.5t7 50.5q0 25 -9 25t-17.5 -22t-8.5 -54zM244 528q-6 -6 -14 -6q-6 0 -10.5 5t-6.5 12q0 7 7 14q49 43 93 90.5t75 81.5q2 2 4 2q5 0 13.5 -4.5t16.5 -11t13.5 -14 t5.5 -13.5q0 -2 -1 -2t-3 -2q-44 -37 -94.5 -75t-98.5 -77z" />
<glyph unicode="&#xe2;" horiz-adv-x="514" d="M371 346q-9 0 -16.5 10.5t-19.5 22.5t-30.5 22.5t-48.5 10.5q-42 0 -78 -21.5t-62 -54t-40.5 -71t-14.5 -72.5q0 -53 27 -87t72 -34q35 0 61.5 13.5t44.5 35.5q-6 27 -6 67q0 43 6.5 70t16 42t19.5 20.5t17 5.5q8 0 18.5 -11t10.5 -39q0 -35 -12.5 -73.5t-34.5 -73.5 q12 -31 37 -45t57 -14q28 0 52.5 12.5t46 33.5t40.5 48.5t35 56.5l6 -4q-12 -38 -32 -74t-46 -64t-56.5 -44.5t-63.5 -16.5q-25 0 -54.5 16.5t-48.5 59.5q-31 -37 -71 -61.5t-86 -24.5q-26 0 -47 12t-35.5 32t-22.5 47t-8 57q0 51 22.5 102t60 92t86 66.5t101.5 25.5 q39 0 65.5 -8.5t42.5 -20t23 -23.5t7 -19q0 -14 -14.5 -19.5t-26.5 -5.5zM287 213q0 -33 6 -57q15 28 22 57.5t7 50.5q0 25 -9 25t-17.5 -22t-8.5 -54zM124 526q-4 -4 -6 -4q-6 0 -10.5 7.5t-4.5 15.5q0 5 12 20t30.5 34t40 40t40.5 38.5t32.5 28.5t16.5 11h9t14.5 -2t14 -7 t7.5 -14q14 -34 35.5 -66.5t55.5 -60.5q3 -3 5.5 -7t2.5 -7q0 -11 -13 -19t-34 -8q-16 13 -31.5 34.5t-29 42t-25 35.5t-19.5 15t-24.5 -13t-37 -32t-42 -41.5t-39.5 -40.5z" />
<glyph unicode="&#xe3;" horiz-adv-x="514" d="M371 346q-9 0 -16.5 10.5t-19.5 22.5t-30.5 22.5t-48.5 10.5q-42 0 -78 -21.5t-62 -54t-40.5 -71t-14.5 -72.5q0 -53 27 -87t72 -34q35 0 61.5 13.5t44.5 35.5q-6 27 -6 67q0 43 6.5 70t16 42t19.5 20.5t17 5.5q8 0 18.5 -11t10.5 -39q0 -35 -12.5 -73.5t-34.5 -73.5 q12 -31 37 -45t57 -14q28 0 52.5 12.5t46 33.5t40.5 48.5t35 56.5l6 -4q-12 -38 -32 -74t-46 -64t-56.5 -44.5t-63.5 -16.5q-25 0 -54.5 16.5t-48.5 59.5q-31 -37 -71 -61.5t-86 -24.5q-26 0 -47 12t-35.5 32t-22.5 47t-8 57q0 51 22.5 102t60 92t86 66.5t101.5 25.5 q39 0 65.5 -8.5t42.5 -20t23 -23.5t7 -19q0 -14 -14.5 -19.5t-26.5 -5.5zM287 213q0 -33 6 -57q15 28 22 57.5t7 50.5q0 25 -9 25t-17.5 -22t-8.5 -54zM108 567q0 -12 -8.5 -20t-16.5 -8q-9 0 -12 12q7 34 21.5 59t31 41t33 23.5t27.5 7.5q20 0 40 -14t39.5 -31t37.5 -31 t34 -14q17 0 29 7t21 17.5t14.5 23t9.5 22.5v2q0 5 6 8.5t14 3.5q11 0 11 -8q-10 -36 -24.5 -60.5t-31 -38.5t-32.5 -20t-29 -6q-24 0 -44.5 13t-39 29t-35.5 29t-33 13q-26 0 -41.5 -19t-21.5 -41z" />
<glyph unicode="&#xe4;" horiz-adv-x="514" d="M371 346q-9 0 -16.5 10.5t-19.5 22.5t-30.5 22.5t-48.5 10.5q-42 0 -78 -21.5t-62 -54t-40.5 -71t-14.5 -72.5q0 -53 27 -87t72 -34q35 0 61.5 13.5t44.5 35.5q-6 27 -6 67q0 43 6.5 70t16 42t19.5 20.5t17 5.5q8 0 18.5 -11t10.5 -39q0 -35 -12.5 -73.5t-34.5 -73.5 q12 -31 37 -45t57 -14q28 0 52.5 12.5t46 33.5t40.5 48.5t35 56.5l6 -4q-12 -38 -32 -74t-46 -64t-56.5 -44.5t-63.5 -16.5q-25 0 -54.5 16.5t-48.5 59.5q-31 -37 -71 -61.5t-86 -24.5q-26 0 -47 12t-35.5 32t-22.5 47t-8 57q0 51 22.5 102t60 92t86 66.5t101.5 25.5 q39 0 65.5 -8.5t42.5 -20t23 -23.5t7 -19q0 -14 -14.5 -19.5t-26.5 -5.5zM287 213q0 -33 6 -57q15 28 22 57.5t7 50.5q0 25 -9 25t-17.5 -22t-8.5 -54zM124 596q0 19 13.5 32t31.5 13q19 0 32 -13t13 -32t-13 -32t-32 -13q-18 0 -31.5 13t-13.5 32zM296 596q0 19 13.5 32 t31.5 13q19 0 32 -13t13 -32t-13 -32t-32 -13q-18 0 -31.5 13t-13.5 32z" />
<glyph unicode="&#xe5;" horiz-adv-x="514" d="M371 346q-9 0 -16.5 10.5t-19.5 22.5t-30.5 22.5t-48.5 10.5q-42 0 -78 -21.5t-62 -54t-40.5 -71t-14.5 -72.5q0 -53 27 -87t72 -34q35 0 61.5 13.5t44.5 35.5q-6 27 -6 67q0 43 6.5 70t16 42t19.5 20.5t17 5.5q8 0 18.5 -11t10.5 -39q0 -35 -12.5 -73.5t-34.5 -73.5 q12 -31 37 -45t57 -14q28 0 52.5 12.5t46 33.5t40.5 48.5t35 56.5l6 -4q-12 -38 -32 -74t-46 -64t-56.5 -44.5t-63.5 -16.5q-25 0 -54.5 16.5t-48.5 59.5q-31 -37 -71 -61.5t-86 -24.5q-26 0 -47 12t-35.5 32t-22.5 47t-8 57q0 51 22.5 102t60 92t86 66.5t101.5 25.5 q39 0 65.5 -8.5t42.5 -20t23 -23.5t7 -19q0 -14 -14.5 -19.5t-26.5 -5.5zM287 213q0 -33 6 -57q15 28 22 57.5t7 50.5q0 25 -9 25t-17.5 -22t-8.5 -54zM109 657q0 39 16 69t41 50.5t55 31.5t58 11q24 0 47.5 -8.5t42.5 -26.5t30.5 -45.5t11.5 -64.5q0 -35 -14.5 -63 t-37.5 -47.5t-52.5 -30.5t-59.5 -11q-25 0 -49.5 8t-44 24.5t-32 42t-12.5 60.5zM148 680q1 -29 11.5 -51t27.5 -38t38.5 -24t45.5 -8q19 0 37 6.5t31.5 19t22 30.5t8.5 42q0 56 -34 89.5t-83 33.5q-18 0 -37 -6t-34.5 -18.5t-25 -31.5t-8.5 -44z" />
<glyph unicode="&#xe6;" horiz-adv-x="705" d="M475 39q75 0 125 22.5t82.5 52.5t50.5 60.5t27 46.5l6 -4q-17 -49 -43.5 -91t-64 -72.5t-87.5 -48t-114 -17.5q-63 0 -104 23t-56 65q-29 -37 -66.5 -60.5t-80.5 -23.5q-38 0 -65.5 10t-45.5 27t-26.5 39t-8.5 47q0 35 15.5 71t44.5 64.5t69.5 46.5t91.5 18 q11 0 31.5 -2.5t40.5 -13.5q-3 66 -26.5 98.5t-75.5 32.5q-36 0 -66 -10.5t-61 -38.5l-7 6q9 13 23.5 29t32.5 29.5t39.5 22.5t44.5 9q42 0 69.5 -13.5t42.5 -35.5q22 38 68.5 59t103.5 21q22 0 44.5 -3t45.5 -11q13 -3 13 -17q0 -4 -2.5 -10.5t-6 -13t-7.5 -11t-7 -4.5 q-5 0 -12 3.5t-19.5 8t-34 8t-55.5 3.5q-48 0 -80 -18t-32 -50q0 -23 19.5 -38.5t46 -24.5t54 -13t42.5 -4q11 0 14.5 -3.5t3.5 -6.5q0 -8 -6.5 -9.5t-16.5 -4.5q-26 -9 -53 -22.5t-49.5 -32t-36.5 -41.5t-14 -50q0 -45 36.5 -74.5t102.5 -29.5zM272 92q9 17 13.5 41t6.5 48 t2.5 43.5t0.5 27.5q-17 5 -36 13.5t-44 8.5q-75 0 -118.5 -30.5t-43.5 -93.5q0 -26 10.5 -45.5t27.5 -32.5t37.5 -20t41.5 -7q32 0 60 9.5t42 37.5zM348 291v-26.5t-2 -26.5q19 15 35.5 22t26.5 12q-9 1 -19 4q-8 2 -19 5.5t-22 9.5z" />
<glyph unicode="&#xe7;" horiz-adv-x="436" d="M266 449q15 0 31 -4t29 -11.5t21.5 -18.5t8.5 -26q0 -32 -19.5 -56t-42.5 -41q-27 -19 -61 -34l-6 10q18 10 32 23q12 11 22 27.5t10 37.5q0 20 -18 37t-50 17t-57.5 -16.5t-43.5 -43t-28 -60t-10 -67.5q0 -29 8.5 -55.5t25.5 -46.5t44 -31.5t65 -11.5q37 0 65 9.5 t47 20.5q22 13 38 31l8 -6q-19 -30 -47 -55q-24 -21 -60.5 -39t-87.5 -19q-6 -21 -10 -40.5t-4 -36.5q6 3 17 6.5t28 3.5q34 0 53 -21t19 -55q0 -15 -5.5 -34.5t-19 -36t-37 -28t-59.5 -11.5q-17 0 -45.5 5.5t-48.5 20.5q-6 4 -4.5 15t5.5 20.5t9.5 13.5t7.5 -6 q17 -11 37 -14.5t51 -3.5q12 0 25.5 1.5t24 7t17.5 15t7 25.5q0 45 -53 45q-23 0 -35 -5t-20 -5q-9 0 -9 8q0 7 3 19.5t7 28t9 32t10 30.5q-27 3 -54 13.5t-48 30t-34.5 48.5t-13.5 68q0 53 18.5 102t51.5 86t78 59t98 22z" />
<glyph unicode="&#xe8;" horiz-adv-x="446" d="M317 494q13 -3 13 -17q0 -4 -2.5 -10.5t-6 -13t-7.5 -11t-7 -4.5q-5 0 -12 3.5t-20 8t-34 8t-55 3.5q-48 0 -80 -18t-32 -50q0 -23 19.5 -38.5t46 -24.5t54 -13t42.5 -4q11 0 14.5 -3.5t3.5 -6.5q0 -8 -6.5 -9.5t-16.5 -4.5q-26 -9 -53 -22.5t-49.5 -32t-36.5 -41.5 t-14 -50q0 -45 36.5 -74.5t102.5 -29.5q75 0 125 22.5t82.5 52.5t50.5 60.5t27 46.5l6 -4q-17 -49 -43.5 -91t-64 -72.5t-87.5 -48t-114 -17.5q-39 0 -72 9.5t-57 26.5t-37 42t-13 57q0 37 17 64t39 44.5t43.5 27t30.5 13.5q-31 5 -55 17q-20 11 -37 30.5t-17 53.5 q0 31 15 56.5t40.5 42.5t59 26.5t71.5 9.5q22 0 44.5 -3t45.5 -11zM101 748q-10 0 -10 8q0 6 4 15t10 17t13.5 13.5t13.5 5.5q4 0 6 -2q22 -24 41.5 -47.5t38.5 -45t38.5 -42.5t41.5 -41q2 -2 2 -10q0 -9 -7.5 -19t-15.5 -10t-10 4q-40 47 -86 85t-80 69z" />
<glyph unicode="&#xe9;" horiz-adv-x="446" d="M317 494q13 -3 13 -17q0 -4 -2.5 -10.5t-6 -13t-7.5 -11t-7 -4.5q-5 0 -12 3.5t-20 8t-34 8t-55 3.5q-48 0 -80 -18t-32 -50q0 -23 19.5 -38.5t46 -24.5t54 -13t42.5 -4q11 0 14.5 -3.5t3.5 -6.5q0 -8 -6.5 -9.5t-16.5 -4.5q-26 -9 -53 -22.5t-49.5 -32t-36.5 -41.5 t-14 -50q0 -45 36.5 -74.5t102.5 -29.5q75 0 125 22.5t82.5 52.5t50.5 60.5t27 46.5l6 -4q-17 -49 -43.5 -91t-64 -72.5t-87.5 -48t-114 -17.5q-39 0 -72 9.5t-57 26.5t-37 42t-13 57q0 37 17 64t39 44.5t43.5 27t30.5 13.5q-31 5 -55 17q-20 11 -37 30.5t-17 53.5 q0 31 15 56.5t40.5 42.5t59 26.5t71.5 9.5q22 0 44.5 -3t45.5 -11zM221 596q-6 -6 -14 -6q-6 0 -10.5 5t-6.5 12q0 7 7 14q49 43 93 90.5t75 81.5q2 2 4 2q5 0 13.5 -4.5t16.5 -11t13.5 -14t5.5 -13.5q0 -2 -1 -2t-3 -2q-44 -37 -94.5 -75t-98.5 -77z" />
<glyph unicode="&#xea;" horiz-adv-x="446" d="M317 494q13 -3 13 -17q0 -4 -2.5 -10.5t-6 -13t-7.5 -11t-7 -4.5q-5 0 -12 3.5t-20 8t-34 8t-55 3.5q-48 0 -80 -18t-32 -50q0 -23 19.5 -38.5t46 -24.5t54 -13t42.5 -4q11 0 14.5 -3.5t3.5 -6.5q0 -8 -6.5 -9.5t-16.5 -4.5q-26 -9 -53 -22.5t-49.5 -32t-36.5 -41.5 t-14 -50q0 -45 36.5 -74.5t102.5 -29.5q75 0 125 22.5t82.5 52.5t50.5 60.5t27 46.5l6 -4q-17 -49 -43.5 -91t-64 -72.5t-87.5 -48t-114 -17.5q-39 0 -72 9.5t-57 26.5t-37 42t-13 57q0 37 17 64t39 44.5t43.5 27t30.5 13.5q-31 5 -55 17q-20 11 -37 30.5t-17 53.5 q0 31 15 56.5t40.5 42.5t59 26.5t71.5 9.5q22 0 44.5 -3t45.5 -11zM101 594q-4 -4 -6 -4q-6 0 -10.5 7.5t-4.5 15.5q0 5 12 20t30.5 34t40 40t40.5 38.5t32.5 28.5t16.5 11h9t14.5 -2t14 -7t7.5 -14q14 -34 35.5 -66.5t55.5 -60.5q3 -3 5.5 -7t2.5 -7q0 -11 -13 -19t-34 -8 q-16 13 -31.5 34.5t-29 42t-25 35.5t-19.5 15t-24.5 -13t-37 -32t-42 -41.5t-39.5 -40.5z" />
<glyph unicode="&#xeb;" horiz-adv-x="446" d="M317 494q13 -3 13 -17q0 -4 -2.5 -10.5t-6 -13t-7.5 -11t-7 -4.5q-5 0 -12 3.5t-20 8t-34 8t-55 3.5q-48 0 -80 -18t-32 -50q0 -23 19.5 -38.5t46 -24.5t54 -13t42.5 -4q11 0 14.5 -3.5t3.5 -6.5q0 -8 -6.5 -9.5t-16.5 -4.5q-26 -9 -53 -22.5t-49.5 -32t-36.5 -41.5 t-14 -50q0 -45 36.5 -74.5t102.5 -29.5q75 0 125 22.5t82.5 52.5t50.5 60.5t27 46.5l6 -4q-17 -49 -43.5 -91t-64 -72.5t-87.5 -48t-114 -17.5q-39 0 -72 9.5t-57 26.5t-37 42t-13 57q0 37 17 64t39 44.5t43.5 27t30.5 13.5q-31 5 -55 17q-20 11 -37 30.5t-17 53.5 q0 31 15 56.5t40.5 42.5t59 26.5t71.5 9.5q22 0 44.5 -3t45.5 -11zM101 664q0 19 13.5 32t31.5 13q19 0 32 -13t13 -32t-13 -32t-32 -13q-18 0 -31.5 13t-13.5 32zM273 664q0 19 13.5 32t31.5 13q19 0 32 -13t13 -32t-13 -32t-32 -13q-18 0 -31.5 13t-13.5 32z" />
<glyph unicode="&#xec;" horiz-adv-x="260" d="M68 416q8 0 15.5 -4.5t13 -9.5t9 -10.5t3.5 -6.5t-2.5 -10.5t-6 -31.5t-6 -57.5t-2.5 -88.5q0 -71 17.5 -99t42.5 -28t49.5 15t46.5 39t41.5 54.5t34.5 61.5l6 -4q-4 -10 -12 -30.5t-20 -44.5t-28.5 -49.5t-38 -46t-47 -34t-55.5 -13.5q-21 0 -38.5 8t-31 29.5t-21 59.5 t-7.5 98q0 31 2.5 66.5t7 66t11.5 50.5t16 20zM-34 656q-10 0 -10 8q0 6 4 15t10 17t13.5 13.5t13.5 5.5q4 0 6 -2q22 -24 41.5 -47.5t38.5 -45t38.5 -42.5t41.5 -41q2 -2 2 -10q0 -9 -7.5 -19t-15.5 -10t-10 4q-40 47 -86 85t-80 69z" />
<glyph unicode="&#xed;" horiz-adv-x="260" d="M68 416q8 0 15.5 -4.5t13 -9.5t9 -10.5t3.5 -6.5t-2.5 -10.5t-6 -31.5t-6 -57.5t-2.5 -88.5q0 -71 17.5 -99t42.5 -28t49.5 15t46.5 39t41.5 54.5t34.5 61.5l6 -4q-4 -10 -12 -30.5t-20 -44.5t-28.5 -49.5t-38 -46t-47 -34t-55.5 -13.5q-21 0 -38.5 8t-31 29.5t-21 59.5 t-7.5 98q0 31 2.5 66.5t7 66t11.5 50.5t16 20zM87 504q-6 -6 -14 -6q-6 0 -10.5 5t-6.5 12q0 7 7 14q49 43 93 90.5t75 81.5q2 2 4 2q5 0 13.5 -4.5t16.5 -11t13.5 -14t5.5 -13.5q0 -2 -1 -2t-3 -2q-44 -37 -94.5 -75t-98.5 -77z" />
<glyph unicode="&#xee;" horiz-adv-x="260" d="M68 416q8 0 15.5 -4.5t13 -9.5t9 -10.5t3.5 -6.5t-2.5 -10.5t-6 -31.5t-6 -57.5t-2.5 -88.5q0 -71 17.5 -99t42.5 -28t49.5 15t46.5 39t41.5 54.5t34.5 61.5l6 -4q-4 -10 -12 -30.5t-20 -44.5t-28.5 -49.5t-38 -46t-47 -34t-55.5 -13.5q-21 0 -38.5 8t-31 29.5t-21 59.5 t-7.5 98q0 31 2.5 66.5t7 66t11.5 50.5t16 20zM-34 502q-4 -4 -6 -4q-6 0 -10.5 7.5t-4.5 15.5q0 5 12 20t30.5 34t40 40t40.5 38.5t32.5 28.5t16.5 11h9t14.5 -2t14 -7t7.5 -14q14 -34 35.5 -66.5t55.5 -60.5q3 -3 5.5 -7t2.5 -7q0 -11 -13 -19t-34 -8q-16 13 -31.5 34.5 t-29 42t-25 35.5t-19.5 15t-24.5 -13t-37 -32t-42 -41.5t-39.5 -40.5z" />
<glyph unicode="&#xef;" horiz-adv-x="260" d="M68 416q8 0 15.5 -4.5t13 -9.5t9 -10.5t3.5 -6.5t-2.5 -10.5t-6 -31.5t-6 -57.5t-2.5 -88.5q0 -71 17.5 -99t42.5 -28t49.5 15t46.5 39t41.5 54.5t34.5 61.5l6 -4q-4 -10 -12 -30.5t-20 -44.5t-28.5 -49.5t-38 -46t-47 -34t-55.5 -13.5q-21 0 -38.5 8t-31 29.5t-21 59.5 t-7.5 98q0 31 2.5 66.5t7 66t11.5 50.5t16 20zM-34 572q0 19 13.5 32t31.5 13q19 0 32 -13t13 -32t-13 -32t-32 -13q-18 0 -31.5 13t-13.5 32zM138 572q0 19 13.5 32t31.5 13q19 0 32 -13t13 -32t-13 -32t-32 -13q-18 0 -31.5 13t-13.5 32z" />
<glyph unicode="&#xf0;" horiz-adv-x="451" d="M14 729l-4.5 -3t-3.5 -1q-6 0 -9 5t-3 13q0 6 8.5 17.5t22 25t30.5 28.5t35 30q-34 35 -69.5 66t-75.5 57l8 10q45 -23 86.5 -51t79.5 -60q11 10 21 17.5t18 15.5q6 5 18.5 15.5t26 21t26.5 18t19 7.5t6 -11t-5 -23.5t-13 -15.5q-22 -14 -46 -30.5t-47 -36.5 q118 -112 182 -261t64 -313q0 -56 -19.5 -103t-51 -81.5t-70.5 -54t-78 -19.5q-66 0 -108 43.5t-42 126.5q0 56 21 103.5t54.5 82t74.5 53.5t80 19q36 0 65 -16q-23 112 -74.5 212t-125.5 183q-28 -25 -53.5 -48t-47.5 -42zM205 63q24 0 47 10.5t41 31t28.5 50.5t10.5 70 q0 33 -8 62.5t-23.5 51.5t-40 35t-57.5 13q-23 0 -46 -8.5t-41 -27t-29 -47t-11 -68.5q0 -32 8 -62.5t23.5 -55.5t40 -40t57.5 -15z" />
<glyph unicode="&#xf1;" horiz-adv-x="455" d="M86 446q5 0 8 -8t4.5 -19t1.5 -23.5v-22.5q0 -26 -1.5 -53.5t-3 -53t-2.5 -47t-1 -35.5q0 -26 2 -41.5t10 -15.5q5 0 13 13t17.5 31.5t18.5 39.5t17 37q10 21 22.5 46.5t26.5 48t29.5 37.5t32.5 15q11 0 19.5 -6t14.5 -15.5t9.5 -20t5.5 -19.5q3 -23 6.5 -72.5 t9.5 -105.5q5 -56 27 -81.5t57 -25.5q14 0 22.5 2t14.5 2q5 0 2 -10q-1 -2 -4.5 -5.5t-11.5 -7.5t-21.5 -7t-32.5 -3q-32 0 -53 10.5t-34 33.5t-19 59.5t-8 87.5q-2 24 -3.5 46.5t-5 40t-9.5 28t-17 10.5q-9 0 -21.5 -18t-24.5 -42.5t-22.5 -50.5t-17.5 -41 q-22 -47 -36.5 -77t-31.5 -58q-5 -8 -10.5 -13t-13.5 -5q-12 0 -19 20t-10.5 46t-4.5 52.5t-1 40.5q0 16 0.5 39t1.5 45t1.5 40t0.5 24t-0.5 16.5t-0.5 21t-0.5 19t-0.5 11.5q0 8 4.5 13.5t9.5 8.5t16 10.5t17 7.5zM61 581q0 -12 -8.5 -20t-16.5 -8q-9 0 -12 12 q7 34 21.5 59t31 41t33 23.5t27.5 7.5q20 0 40 -14t39.5 -31t37.5 -31t34 -14q17 0 29 7t21 17.5t14.5 23t9.5 22.5v2q0 5 6 8.5t14 3.5q11 0 11 -8q-10 -36 -24.5 -60.5t-31 -38.5t-32.5 -20t-29 -6q-24 0 -44.5 13t-39 29t-35.5 29t-33 13q-26 0 -41.5 -19t-21.5 -41z" />
<glyph unicode="&#xf2;" horiz-adv-x="451" d="M205 63q24 0 47 10.5t41 31t28.5 50.5t10.5 70q0 33 -8 62.5t-23.5 51.5t-40 35t-57.5 13q-23 0 -46 -8.5t-41 -27t-29 -47t-11 -68.5q0 -32 8 -62.5t23.5 -55.5t40 -40t57.5 -15zM170 12q-66 0 -108 43.5t-42 126.5q0 56 21 103.5t54.5 82t74.5 53.5t80 19q63 0 101 -43 t38 -127q0 -56 -19.5 -103t-51 -81.5t-70.5 -54t-78 -19.5zM93 680q-10 0 -10 8q0 6 4 15t10 17t13.5 13.5t13.5 5.5q4 0 6 -2q22 -24 41.5 -47.5t38.5 -45t38.5 -42.5t41.5 -41q2 -2 2 -10q0 -9 -7.5 -19t-15.5 -10t-10 4q-40 47 -86 85t-80 69z" />
<glyph unicode="&#xf3;" horiz-adv-x="451" d="M205 63q24 0 47 10.5t41 31t28.5 50.5t10.5 70q0 33 -8 62.5t-23.5 51.5t-40 35t-57.5 13q-23 0 -46 -8.5t-41 -27t-29 -47t-11 -68.5q0 -32 8 -62.5t23.5 -55.5t40 -40t57.5 -15zM170 12q-66 0 -108 43.5t-42 126.5q0 56 21 103.5t54.5 82t74.5 53.5t80 19q63 0 101 -43 t38 -127q0 -56 -19.5 -103t-51 -81.5t-70.5 -54t-78 -19.5zM214 528q-6 -6 -14 -6q-6 0 -10.5 5t-6.5 12q0 7 7 14q49 43 93 90.5t75 81.5q2 2 4 2q5 0 13.5 -4.5t16.5 -11t13.5 -14t5.5 -13.5q0 -2 -1 -2t-3 -2q-44 -37 -94.5 -75t-98.5 -77z" />
<glyph unicode="&#xf4;" horiz-adv-x="451" d="M205 63q24 0 47 10.5t41 31t28.5 50.5t10.5 70q0 33 -8 62.5t-23.5 51.5t-40 35t-57.5 13q-23 0 -46 -8.5t-41 -27t-29 -47t-11 -68.5q0 -32 8 -62.5t23.5 -55.5t40 -40t57.5 -15zM170 12q-66 0 -108 43.5t-42 126.5q0 56 21 103.5t54.5 82t74.5 53.5t80 19q63 0 101 -43 t38 -127q0 -56 -19.5 -103t-51 -81.5t-70.5 -54t-78 -19.5zM93 526q-4 -4 -6 -4q-6 0 -10.5 7.5t-4.5 15.5q0 5 12 20t30.5 34t40 40t40.5 38.5t32.5 28.5t16.5 11h9t14.5 -2t14 -7t7.5 -14q14 -34 35.5 -66.5t55.5 -60.5q3 -3 5.5 -7t2.5 -7q0 -11 -13 -19t-34 -8 q-16 13 -31.5 34.5t-29 42t-25 35.5t-19.5 15t-24.5 -13t-37 -32t-42 -41.5t-39.5 -40.5z" />
<glyph unicode="&#xf5;" horiz-adv-x="451" d="M205 63q24 0 47 10.5t41 31t28.5 50.5t10.5 70q0 33 -8 62.5t-23.5 51.5t-40 35t-57.5 13q-23 0 -46 -8.5t-41 -27t-29 -47t-11 -68.5q0 -32 8 -62.5t23.5 -55.5t40 -40t57.5 -15zM170 12q-66 0 -108 43.5t-42 126.5q0 56 21 103.5t54.5 82t74.5 53.5t80 19q63 0 101 -43 t38 -127q0 -56 -19.5 -103t-51 -81.5t-70.5 -54t-78 -19.5zM77 567q0 -12 -8.5 -20t-16.5 -8q-9 0 -12 12q7 34 21.5 59t31 41t33 23.5t27.5 7.5q20 0 40 -14t39.5 -31t37.5 -31t34 -14q17 0 29 7t21 17.5t14.5 23t9.5 22.5v2q0 5 6 8.5t14 3.5q11 0 11 -8 q-10 -36 -24.5 -60.5t-31 -38.5t-32.5 -20t-29 -6q-24 0 -44.5 13t-39 29t-35.5 29t-33 13q-26 0 -41.5 -19t-21.5 -41z" />
<glyph unicode="&#xf6;" horiz-adv-x="451" d="M205 63q24 0 47 10.5t41 31t28.5 50.5t10.5 70q0 33 -8 62.5t-23.5 51.5t-40 35t-57.5 13q-23 0 -46 -8.5t-41 -27t-29 -47t-11 -68.5q0 -32 8 -62.5t23.5 -55.5t40 -40t57.5 -15zM170 12q-66 0 -108 43.5t-42 126.5q0 56 21 103.5t54.5 82t74.5 53.5t80 19q63 0 101 -43 t38 -127q0 -56 -19.5 -103t-51 -81.5t-70.5 -54t-78 -19.5zM93 596q0 19 13.5 32t31.5 13q19 0 32 -13t13 -32t-13 -32t-32 -13q-18 0 -31.5 13t-13.5 32zM265 596q0 19 13.5 32t31.5 13q19 0 32 -13t13 -32t-13 -32t-32 -13q-18 0 -31.5 13t-13.5 32z" />
<glyph unicode="&#xf7;" d="M139 512q-4 0 -4 8q0 6 2.5 15t6.5 17t8.5 13.5t9.5 5.5q56 0 105 1t97 2.5t97 2.5t104 1h44.5t67.5 -1t62 -3.5t27 -6.5q0 -5 -4 -14t-10 -18t-13 -16t-12 -7q-28 1 -52.5 2.5t-48 2t-48 1t-52.5 0.5q-54 0 -102 -1t-94.5 -2l-93 -2t-97.5 -1zM453 375q24 0 35.5 -15 t11.5 -36q0 -25 -16.5 -38.5t-39.5 -13.5q-17 0 -33 11.5t-16 35.5q0 28 16.5 42t41.5 14zM446 829q25 0 36.5 -14.5t11.5 -36.5q0 -25 -16.5 -38t-39.5 -13q-17 0 -33 11t-16 36q0 28 16.5 41.5t40.5 13.5z" />
<glyph unicode="&#xf8;" horiz-adv-x="451" d="M354 537q2 3 10.5 3.5t14.5 0.5q6 -2 11 -4t3 -7q0 -1 -0.5 -2t-0.5 -2q-1 -1 -1 -2q-33 -56 -63 -108q29 -20 45 -56.5t16 -89.5q0 -56 -19.5 -103t-51 -81.5t-70.5 -54t-78 -19.5q-33 0 -61 11q-14 -25 -29 -51t-29 -52q-3 -18 -16 -12q-9 0 -17 6t-2 18q16 28 31 54.5 t31 54.5q-28 20 -43 56t-15 85q0 56 21 103.5t54.5 82t74.5 53.5t80 19q12 0 24 -1.5t23 -6.5q27 52 57 105zM205 63q24 0 47 10.5t41 31t28.5 50.5t10.5 70q0 37 -10 69.5t-31 55.5q-38 -69 -75.5 -135.5t-74.5 -132.5q14 -9 29.5 -14t34.5 -5zM76 236q0 -36 9.5 -70.5 t29.5 -59.5q38 70 75 135.5t72 131.5q-12 6 -27 10t-32 4q-23 0 -46 -8.5t-41 -27t-29 -47t-11 -68.5z" />
<glyph unicode="&#xf9;" horiz-adv-x="494" d="M309 205q0 7 0.5 17t0.5 20t0.5 17.5t0.5 10.5q0 7 -2.5 9t-5.5 -11q-2 -4 -8 -23t-17 -45.5t-26.5 -57t-36.5 -56t-47 -42.5t-57 -17q-47 0 -66.5 25.5t-19.5 76.5q0 15 3 43.5t7 59t7 58t3 42.5q0 43 -22 43q-5 0 -9 -1t-6 -1q-8 0 -8 8q0 3 8.5 10.5t36.5 7.5 q32 0 44.5 -24t12.5 -56q0 -14 -2.5 -39.5t-5.5 -53.5t-5.5 -53.5t-2.5 -37.5q0 -38 12.5 -53.5t34.5 -15.5q21 0 41.5 16.5t38 40t30.5 48.5t21 42q8 22 14 48t11.5 52.5t9.5 50.5t8 42q2 9 19 12.5t34 3.5q9 0 9 -6q0 -25 -1 -68t-1 -88q0 -112 13.5 -161.5t53.5 -49.5 q9 0 15.5 2t11.5 2q4 0 4 -4q0 3 0 -1t-4.5 -10.5t-17 -12t-37.5 -5.5q-27 0 -44.5 9.5t-28.5 31.5t-16.5 57.5t-7.5 86.5zM69 650q-10 0 -10 8q0 6 4 15t10 17t13.5 13.5t13.5 5.5q4 0 6 -2q22 -24 41.5 -47.5t38.5 -45t38.5 -42.5t41.5 -41q2 -2 2 -10q0 -9 -7.5 -19 t-15.5 -10t-10 4q-40 47 -86 85t-80 69z" />
<glyph unicode="&#xfa;" horiz-adv-x="494" d="M309 205q0 7 0.5 17t0.5 20t0.5 17.5t0.5 10.5q0 7 -2.5 9t-5.5 -11q-2 -4 -8 -23t-17 -45.5t-26.5 -57t-36.5 -56t-47 -42.5t-57 -17q-47 0 -66.5 25.5t-19.5 76.5q0 15 3 43.5t7 59t7 58t3 42.5q0 43 -22 43q-5 0 -9 -1t-6 -1q-8 0 -8 8q0 3 8.5 10.5t36.5 7.5 q32 0 44.5 -24t12.5 -56q0 -14 -2.5 -39.5t-5.5 -53.5t-5.5 -53.5t-2.5 -37.5q0 -38 12.5 -53.5t34.5 -15.5q21 0 41.5 16.5t38 40t30.5 48.5t21 42q8 22 14 48t11.5 52.5t9.5 50.5t8 42q2 9 19 12.5t34 3.5q9 0 9 -6q0 -25 -1 -68t-1 -88q0 -112 13.5 -161.5t53.5 -49.5 q9 0 15.5 2t11.5 2q4 0 4 -4q0 3 0 -1t-4.5 -10.5t-17 -12t-37.5 -5.5q-27 0 -44.5 9.5t-28.5 31.5t-16.5 57.5t-7.5 86.5zM189 498q-6 -6 -14 -6q-6 0 -10.5 5t-6.5 12q0 7 7 14q49 43 93 90.5t75 81.5q2 2 4 2q5 0 13.5 -4.5t16.5 -11t13.5 -14t5.5 -13.5q0 -2 -1 -2 t-3 -2q-44 -37 -94.5 -75t-98.5 -77z" />
<glyph unicode="&#xfb;" horiz-adv-x="494" d="M309 205q0 7 0.5 17t0.5 20t0.5 17.5t0.5 10.5q0 7 -2.5 9t-5.5 -11q-2 -4 -8 -23t-17 -45.5t-26.5 -57t-36.5 -56t-47 -42.5t-57 -17q-47 0 -66.5 25.5t-19.5 76.5q0 15 3 43.5t7 59t7 58t3 42.5q0 43 -22 43q-5 0 -9 -1t-6 -1q-8 0 -8 8q0 3 8.5 10.5t36.5 7.5 q32 0 44.5 -24t12.5 -56q0 -14 -2.5 -39.5t-5.5 -53.5t-5.5 -53.5t-2.5 -37.5q0 -38 12.5 -53.5t34.5 -15.5q21 0 41.5 16.5t38 40t30.5 48.5t21 42q8 22 14 48t11.5 52.5t9.5 50.5t8 42q2 9 19 12.5t34 3.5q9 0 9 -6q0 -25 -1 -68t-1 -88q0 -112 13.5 -161.5t53.5 -49.5 q9 0 15.5 2t11.5 2q4 0 4 -4q0 3 0 -1t-4.5 -10.5t-17 -12t-37.5 -5.5q-27 0 -44.5 9.5t-28.5 31.5t-16.5 57.5t-7.5 86.5zM69 496q-4 -4 -6 -4q-6 0 -10.5 7.5t-4.5 15.5q0 5 12 20t30.5 34t40 40t40.5 38.5t32.5 28.5t16.5 11h9t14.5 -2t14 -7t7.5 -14q14 -34 35.5 -66.5 t55.5 -60.5q3 -3 5.5 -7t2.5 -7q0 -11 -13 -19t-34 -8q-16 13 -31.5 34.5t-29 42t-25 35.5t-19.5 15t-24.5 -13t-37 -32t-42 -41.5t-39.5 -40.5z" />
<glyph unicode="&#xfc;" horiz-adv-x="494" d="M309 205q0 7 0.5 17t0.5 20t0.5 17.5t0.5 10.5q0 7 -2.5 9t-5.5 -11q-2 -4 -8 -23t-17 -45.5t-26.5 -57t-36.5 -56t-47 -42.5t-57 -17q-47 0 -66.5 25.5t-19.5 76.5q0 15 3 43.5t7 59t7 58t3 42.5q0 43 -22 43q-5 0 -9 -1t-6 -1q-8 0 -8 8q0 3 8.5 10.5t36.5 7.5 q32 0 44.5 -24t12.5 -56q0 -14 -2.5 -39.5t-5.5 -53.5t-5.5 -53.5t-2.5 -37.5q0 -38 12.5 -53.5t34.5 -15.5q21 0 41.5 16.5t38 40t30.5 48.5t21 42q8 22 14 48t11.5 52.5t9.5 50.5t8 42q2 9 19 12.5t34 3.5q9 0 9 -6q0 -25 -1 -68t-1 -88q0 -112 13.5 -161.5t53.5 -49.5 q9 0 15.5 2t11.5 2q4 0 4 -4q0 3 0 -1t-4.5 -10.5t-17 -12t-37.5 -5.5q-27 0 -44.5 9.5t-28.5 31.5t-16.5 57.5t-7.5 86.5zM68 566q0 19 13.5 32t31.5 13q19 0 32 -13t13 -32t-13 -32t-32 -13q-18 0 -31.5 13t-13.5 32zM240 566q0 19 13.5 32t31.5 13q19 0 32 -13t13 -32 t-13 -32t-32 -13q-18 0 -31.5 13t-13.5 32z" />
<glyph unicode="&#xfd;" horiz-adv-x="459" d="M-49 -791q0 59 23.5 88t60.5 29q17 0 27 -7.5t10 -18.5q0 -7 -6 -7q-4 0 -8.5 2.5t-12.5 2.5q-11 0 -22 -10.5t-11 -39.5q0 -34 9.5 -70.5t28 -66.5t46.5 -49.5t64 -19.5q31 0 55 21.5t41 59t28.5 88.5t18 109.5t9.5 122.5t3 127q0 62 -1 112.5t-2.5 95.5t-3.5 87.5 t-3.5 89t-2.5 100t-1 119.5v86q-14 -42 -34.5 -87t-45.5 -82t-53 -61t-57 -24q-47 0 -66.5 26t-19.5 77q0 15 3 46.5t7 66t7 65t3 45.5q0 43 -16 43q-2 0 -3 -0.5t-3 -0.5q-2 -1 -3 -1q-6 0 -6 8q0 3 15 10.5t43 7.5q13 0 19 -5t8.5 -14.5t2.5 -22.5v-29q0 -14 -2.5 -44.5 t-5.5 -64t-5.5 -63t-2.5 -41.5q0 -39 12.5 -54.5t34.5 -15.5q17 0 36.5 18.5t38 48.5t35 67.5t30.5 75.5t22.5 72.5t11.5 57.5v2v8q0 12 6.5 21t16 14t20 7.5t19.5 2.5q6 0 7 -4t1 -6q0 -3 -5 -72t-5 -194q0 -76 1 -129.5t2.5 -95t3.5 -76t3.5 -72t2.5 -82.5t1 -108 q0 -151 -21.5 -264.5t-57.5 -189t-82 -113.5t-95 -38q-34 0 -65.5 17t-55.5 46t-38.5 67.5t-14.5 82.5zM197 509q-6 -6 -14 -6q-6 0 -10.5 5t-6.5 12q0 7 7 14q49 43 93 90.5t75 81.5q2 2 4 2q5 0 13.5 -4.5t16.5 -11t13.5 -14t5.5 -13.5q0 -2 -1 -2t-3 -2 q-44 -37 -94.5 -75t-98.5 -77z" />
<glyph unicode="&#xfe;" horiz-adv-x="489" d="M137 -455q0 -176 -19.5 -308t-50 -220.5t-69 -133t-76.5 -44.5q-22 0 -43.5 18t-38 52.5t-27 84.5t-10.5 115q0 95 18.5 211t51 238.5t77 243t95.5 225.5q-5 62 -9 129t-8 149t-6 184t-2 236q0 65 1.5 125.5t4 107.5t4 76.5t1.5 32.5q0 6 2 12t10 11q6 3 14.5 7.5 t18.5 4.5t16 -6q6 -4 6.5 -16.5t-1.5 -42t-4.5 -80.5t-2.5 -132q0 -121 1.5 -221t3.5 -183t5 -152t6 -128q33 55 67.5 100t69.5 77t70 49.5t70 17.5q28 0 47 -15.5t19 -54.5q0 -28 -11.5 -56.5t-31 -57t-44 -55.5t-49.5 -51q-60 -56 -135 -109l-10 12q59 51 106 100 q20 21 39 43.5t34 45t24.5 43t9.5 38.5q0 6 -1.5 16t-7.5 19.5t-17.5 16t-30.5 6.5q-23 0 -48.5 -16t-53.5 -45.5t-56.5 -71t-56.5 -93.5q4 -74 9 -138t9.5 -128t7 -134t2.5 -155zM66 -496q0 81 -1.5 147t-4 123t-5.5 107t-6 99q-38 -87 -72.5 -187t-60 -206t-40.5 -214.5 t-15 -212.5q0 -39 4 -87t14.5 -90t27 -70.5t42.5 -28.5q20 0 37 25t30 69t22.5 103.5t15.5 128.5t9 144t3 150z" />
<glyph unicode="&#xff;" horiz-adv-x="459" d="M-49 -791q0 59 23.5 88t60.5 29q17 0 27 -7.5t10 -18.5q0 -7 -6 -7q-4 0 -8.5 2.5t-12.5 2.5q-11 0 -22 -10.5t-11 -39.5q0 -34 9.5 -70.5t28 -66.5t46.5 -49.5t64 -19.5q31 0 55 21.5t41 59t28.5 88.5t18 109.5t9.5 122.5t3 127q0 62 -1 112.5t-2.5 95.5t-3.5 87.5 t-3.5 89t-2.5 100t-1 119.5v86q-14 -42 -34.5 -87t-45.5 -82t-53 -61t-57 -24q-47 0 -66.5 26t-19.5 77q0 15 3 46.5t7 66t7 65t3 45.5q0 43 -16 43q-2 0 -3 -0.5t-3 -0.5q-2 -1 -3 -1q-6 0 -6 8q0 3 15 10.5t43 7.5q13 0 19 -5t8.5 -14.5t2.5 -22.5v-29q0 -14 -2.5 -44.5 t-5.5 -64t-5.5 -63t-2.5 -41.5q0 -39 12.5 -54.5t34.5 -15.5q17 0 36.5 18.5t38 48.5t35 67.5t30.5 75.5t22.5 72.5t11.5 57.5v2v8q0 12 6.5 21t16 14t20 7.5t19.5 2.5q6 0 7 -4t1 -6q0 -3 -5 -72t-5 -194q0 -76 1 -129.5t2.5 -95t3.5 -76t3.5 -72t2.5 -82.5t1 -108 q0 -151 -21.5 -264.5t-57.5 -189t-82 -113.5t-95 -38q-34 0 -65.5 17t-55.5 46t-38.5 67.5t-14.5 82.5zM77 577q0 19 13.5 32t31.5 13q19 0 32 -13t13 -32t-13 -32t-32 -13q-18 0 -31.5 13t-13.5 32zM249 577q0 19 13.5 32t31.5 13q19 0 32 -13t13 -32t-13 -32t-32 -13 q-18 0 -31.5 13t-13.5 32z" />
<glyph unicode="&#x100;" horiz-adv-x="1577" d="M12 293q5 -42 18 -87t38.5 -81.5t65 -60t97.5 -23.5t113 21.5t107.5 60.5t102.5 92.5t97 118.5q-55 -2 -110.5 -4.5t-112.5 -5.5q-12 0 -27 -3.5t-18 -3.5q-10 0 -10 13q0 6 3.5 14t10.5 15.5t17.5 12.5t23.5 5q28 0 96.5 2.5t161.5 7.5q71 104 135 224t121 238.5 t108 228t95 193t81 133.5t68 50q19 0 30.5 -12.5t17 -33t7 -47t1.5 -54.5q0 -118 -9.5 -230.5t-22 -223l-25 -221t-19.5 -224.5q28 2 54 2h50h43q23 0 40.5 -1.5t17.5 -11.5q0 -12 -11.5 -25.5t-37.5 -13.5q-42 -2 -81 -2h-79q-2 -38 -2 -75.5v-75.5q0 -32 4 -64t16 -57.5 t33.5 -42t56.5 -16.5q25 0 49.5 12.5t46.5 33t40 45.5t30 50l12 -6q-12 -26 -29.5 -62t-41.5 -69t-56.5 -56.5t-74.5 -23.5q-75 0 -107.5 58.5t-32.5 176.5q0 42 0.5 84.5t4.5 85.5q-135 -3 -263.5 -7.5t-261.5 -10.5q-54 -80 -111.5 -148.5t-117 -119t-121 -79 t-123.5 -28.5q-46 0 -79 16.5t-56 44t-38.5 62.5t-24.5 71.5t-14 72t-9 63.5zM731 389q58 2 120 4.5t125 5t125 5t120 4.5q6 110 15.5 225.5t18 230.5t15 227t6.5 216q0 7 -0.5 20t-1.5 25t-3 21t-5 9q-14 0 -40.5 -44.5t-63.5 -120t-83.5 -175t-101.5 -210t-117 -225 t-129 -218.5zM1173 1568q-7 0 -8.5 8.5t0.5 18.5t8 18.5t15 8.5q38 0 78.5 2t78.5 2q19 0 37.5 -1t36.5 -3q6 -1 5 -10t-6.5 -18.5t-12.5 -17.5t-12 -6q-19 3 -38.5 3.5t-37.5 0.5q-37 0 -76 -2t-68 -4z" />
<glyph unicode="&#x101;" horiz-adv-x="514" d="M371 346q-9 0 -16.5 10.5t-19.5 22.5t-30.5 22.5t-48.5 10.5q-42 0 -78 -21.5t-62 -54t-40.5 -71t-14.5 -72.5q0 -53 27 -87t72 -34q35 0 61.5 13.5t44.5 35.5q-6 27 -6 67q0 43 6.5 70t16 42t19.5 20.5t17 5.5q8 0 18.5 -11t10.5 -39q0 -35 -12.5 -73.5t-34.5 -73.5 q12 -31 37 -45t57 -14q28 0 52.5 12.5t46 33.5t40.5 48.5t35 56.5l6 -4q-12 -38 -32 -74t-46 -64t-56.5 -44.5t-63.5 -16.5q-25 0 -54.5 16.5t-48.5 59.5q-31 -37 -71 -61.5t-86 -24.5q-26 0 -47 12t-35.5 32t-22.5 47t-8 57q0 51 22.5 102t60 92t86 66.5t101.5 25.5 q39 0 65.5 -8.5t42.5 -20t23 -23.5t7 -19q0 -14 -14.5 -19.5t-26.5 -5.5zM287 213q0 -33 6 -57q15 28 22 57.5t7 50.5q0 25 -9 25t-17.5 -22t-8.5 -54zM134 567q-7 0 -8.5 8.5t0.5 18.5t8 18.5t15 8.5q38 0 78.5 2t78.5 2q19 0 37.5 -1t36.5 -3q6 -1 5 -10t-6.5 -18.5 t-12.5 -17.5t-12 -6q-19 3 -38.5 3.5t-37.5 0.5q-37 0 -76 -2t-68 -4z" />
<glyph unicode="&#x102;" horiz-adv-x="1577" d="M12 293q5 -42 18 -87t38.5 -81.5t65 -60t97.5 -23.5t113 21.5t107.5 60.5t102.5 92.5t97 118.5q-55 -2 -110.5 -4.5t-112.5 -5.5q-12 0 -27 -3.5t-18 -3.5q-10 0 -10 13q0 6 3.5 14t10.5 15.5t17.5 12.5t23.5 5q28 0 96.5 2.5t161.5 7.5q71 104 135 224t121 238.5 t108 228t95 193t81 133.5t68 50q19 0 30.5 -12.5t17 -33t7 -47t1.5 -54.5q0 -118 -9.5 -230.5t-22 -223l-25 -221t-19.5 -224.5q28 2 54 2h50h43q23 0 40.5 -1.5t17.5 -11.5q0 -12 -11.5 -25.5t-37.5 -13.5q-42 -2 -81 -2h-79q-2 -38 -2 -75.5v-75.5q0 -32 4 -64t16 -57.5 t33.5 -42t56.5 -16.5q25 0 49.5 12.5t46.5 33t40 45.5t30 50l12 -6q-12 -26 -29.5 -62t-41.5 -69t-56.5 -56.5t-74.5 -23.5q-75 0 -107.5 58.5t-32.5 176.5q0 42 0.5 84.5t4.5 85.5q-135 -3 -263.5 -7.5t-261.5 -10.5q-54 -80 -111.5 -148.5t-117 -119t-121 -79 t-123.5 -28.5q-46 0 -79 16.5t-56 44t-38.5 62.5t-24.5 71.5t-14 72t-9 63.5zM731 389q58 2 120 4.5t125 5t125 5t120 4.5q6 110 15.5 225.5t18 230.5t15 227t6.5 216q0 7 -0.5 20t-1.5 25t-3 21t-5 9q-14 0 -40.5 -44.5t-63.5 -120t-83.5 -175t-101.5 -210t-117 -225 t-129 -218.5zM1149 1677q-2 7 5 16t16 15t16.5 6.5t7.5 -11.5q4 -29 16.5 -49.5t30 -34t37.5 -20t38 -6.5q24 0 42 8t31.5 21.5t22.5 31t15 35.5q3 7 9.5 12t12.5 7t10 0t3 -9q-19 -72 -58 -113.5t-110 -41.5q-26 0 -50.5 8.5t-44 25t-33 41.5t-17.5 58z" />
<glyph unicode="&#x103;" horiz-adv-x="514" d="M371 346q-9 0 -16.5 10.5t-19.5 22.5t-30.5 22.5t-48.5 10.5q-42 0 -78 -21.5t-62 -54t-40.5 -71t-14.5 -72.5q0 -53 27 -87t72 -34q35 0 61.5 13.5t44.5 35.5q-6 27 -6 67q0 43 6.5 70t16 42t19.5 20.5t17 5.5q8 0 18.5 -11t10.5 -39q0 -35 -12.5 -73.5t-34.5 -73.5 q12 -31 37 -45t57 -14q28 0 52.5 12.5t46 33.5t40.5 48.5t35 56.5l6 -4q-12 -38 -32 -74t-46 -64t-56.5 -44.5t-63.5 -16.5q-25 0 -54.5 16.5t-48.5 59.5q-31 -37 -71 -61.5t-86 -24.5q-26 0 -47 12t-35.5 32t-22.5 47t-8 57q0 51 22.5 102t60 92t86 66.5t101.5 25.5 q39 0 65.5 -8.5t42.5 -20t23 -23.5t7 -19q0 -14 -14.5 -19.5t-26.5 -5.5zM287 213q0 -33 6 -57q15 28 22 57.5t7 50.5q0 25 -9 25t-17.5 -22t-8.5 -54zM110 676q-2 7 5 16t16 15t16.5 6.5t7.5 -11.5q4 -29 16.5 -49.5t30 -34t37.5 -20t38 -6.5q24 0 42 8t31.5 21.5t22.5 31 t15 35.5q3 7 9.5 12t12.5 7t10 0t3 -9q-19 -72 -58 -113.5t-110 -41.5q-26 0 -50.5 8.5t-44 25t-33 41.5t-17.5 58z" />
<glyph unicode="&#x104;" horiz-adv-x="1577" d="M12 293q5 -42 18 -87t38.5 -81.5t65 -60t97.5 -23.5t113 21.5t107.5 60.5t102.5 92.5t97 118.5q-55 -2 -110.5 -4.5t-112.5 -5.5q-12 0 -27 -3.5t-18 -3.5q-10 0 -10 13q0 6 3.5 14t10.5 15.5t17.5 12.5t23.5 5q28 0 96.5 2.5t161.5 7.5q71 104 135 224t121 238.5 t108 228t95 193t81 133.5t68 50q19 0 30.5 -12.5t17 -33t7 -47t1.5 -54.5q0 -118 -9.5 -230.5t-22 -223l-25 -221t-19.5 -224.5q28 2 54 2h50h43q23 0 40.5 -1.5t17.5 -11.5q0 -12 -11.5 -25.5t-37.5 -13.5q-42 -2 -81 -2h-79q-2 -38 -2 -75.5v-75.5q0 -32 4 -64t16 -57.5 t33.5 -42t56.5 -16.5q25 0 49.5 12.5t46.5 33t40 45.5t30 50l12 -6l-11 -27.5t-19 -40t-30.5 -48t-43.5 -52.5q-13 -15 -27 -33t-25 -37t-18.5 -38t-7.5 -34q0 -17 13.5 -32t39.5 -15q32 0 66 11t61 28q2 6 7.5 4.5t9.5 -6t4.5 -11.5t-6.5 -13q-38 -31 -77 -45.5t-73 -14.5 q-15 0 -31 3.5t-29 12t-21.5 23.5t-8.5 39q0 29 19.5 60.5t44.5 60.5q-8 -3 -19.5 -4.5t-19.5 -1.5q-75 0 -107.5 58.5t-32.5 176.5q0 42 0.5 84.5t4.5 85.5q-135 -3 -263.5 -7.5t-261.5 -10.5q-54 -80 -111.5 -148.5t-117 -119t-121 -79t-123.5 -28.5q-46 0 -79 16.5 t-56 44t-38.5 62.5t-24.5 71.5t-14 72t-9 63.5zM731 389q58 2 120 4.5t125 5t125 5t120 4.5q6 110 15.5 225.5t18 230.5t15 227t6.5 216q0 7 -0.5 20t-1.5 25t-3 21t-5 9q-14 0 -40.5 -44.5t-63.5 -120t-83.5 -175t-101.5 -210t-117 -225t-129 -218.5z" />
<glyph unicode="&#x105;" horiz-adv-x="514" d="M371 346q-9 0 -16.5 10.5t-19.5 22.5t-30.5 22.5t-48.5 10.5q-42 0 -78 -21.5t-62 -54t-40.5 -71t-14.5 -72.5q0 -53 27 -87t72 -34q35 0 61.5 13.5t44.5 35.5q-6 27 -6 67q0 43 6.5 70t16 42t19.5 20.5t17 5.5q8 0 18.5 -11t10.5 -39q0 -35 -12.5 -73.5t-34.5 -73.5 q12 -31 37 -45t57 -14q28 0 52.5 12.5t46 33.5t40.5 48.5t35 56.5l6 -4q-21 -68 -64.5 -118.5t-94.5 -78.5q-35 -20 -60.5 -57.5t-25.5 -81.5q0 -17 14.5 -32t40.5 -15q32 0 64.5 11t60.5 28q1 5 6.5 4t10 -6t5 -12t-7.5 -13q-38 -31 -76.5 -45t-72.5 -14q-15 0 -31 3 t-29 12t-21.5 24t-8.5 39q0 38 26.5 78t61.5 75q-25 0 -53.5 17.5t-45.5 58.5q-31 -37 -71 -61.5t-86 -24.5q-26 0 -47 12t-35.5 32t-22.5 47t-8 57q0 51 22.5 102t60 92t86 66.5t101.5 25.5q39 0 65.5 -8.5t42.5 -20t23 -23.5t7 -19q0 -14 -14.5 -19.5t-26.5 -5.5zM287 213 q0 -33 6 -57q15 28 22 57.5t7 50.5q0 25 -9 25t-17.5 -22t-8.5 -54z" />
<glyph unicode="&#x106;" horiz-adv-x="1120" d="M1081 371q-5 -28 -18 -73.5t-37 -96.5t-60.5 -103t-88 -93.5t-120.5 -68t-157 -26.5q-100 0 -193 48t-165 138t-115 220.5t-43 295.5q0 117 21 229t60.5 211t96 182.5t128.5 143.5t158 93.5t183 33.5q73 0 131 -22t98.5 -60t62 -89.5t21.5 -110.5q0 -39 -11.5 -76.5 t-27.5 -70t-33.5 -59t-29.5 -42.5l-12 10q12 16 22.5 37.5t18.5 46.5t13 52.5t5 56.5q0 53 -18.5 100t-53.5 82.5t-85.5 56.5t-114.5 21q-96 0 -176.5 -28.5t-144.5 -80t-112.5 -123t-80.5 -157.5t-48 -183t-16 -200q0 -81 13.5 -163.5t40.5 -159.5t67.5 -144.5t94 -117.5 t121 -79t147.5 -29q106 0 182 37.5t128 96t82.5 129.5t45.5 139zM708 1583q-6 -6 -14 -6q-6 0 -10.5 5t-6.5 12q0 7 7 14q49 43 93 90.5t75 81.5q2 2 4 2q5 0 13.5 -4.5t16.5 -11t13.5 -14t5.5 -13.5q0 -2 -1 -2t-3 -2q-44 -37 -94.5 -75t-98.5 -77z" />
<glyph unicode="&#x107;" horiz-adv-x="436" d="M266 449q15 0 31 -4t29 -11.5t21.5 -18.5t8.5 -26q0 -32 -19.5 -56t-42.5 -41q-27 -19 -61 -34l-6 10q18 10 32 23q12 11 22 27.5t10 37.5q0 20 -18 37t-50 17t-57.5 -16.5t-43.5 -43t-28 -60t-10 -67.5q0 -29 8.5 -55.5t25.5 -46.5t44 -31.5t65 -11.5q37 0 65 9.5 t47 20.5q22 13 38 31l8 -6q-20 -32 -48 -57q-25 -21 -62 -38.5t-89 -17.5q-28 0 -57.5 9.5t-53.5 29t-39.5 50t-15.5 71.5q0 53 18.5 102t51.5 86t78 59t98 22zM220 536q-6 -6 -14 -6q-6 0 -10.5 5t-6.5 12q0 7 7 14q49 43 93 90.5t75 81.5q2 2 4 2q5 0 13.5 -4.5t16.5 -11 t13.5 -14t5.5 -13.5q0 -2 -1 -2t-3 -2q-44 -37 -94.5 -75t-98.5 -77z" />
<glyph unicode="&#x108;" horiz-adv-x="1120" d="M1081 371q-5 -28 -18 -73.5t-37 -96.5t-60.5 -103t-88 -93.5t-120.5 -68t-157 -26.5q-100 0 -193 48t-165 138t-115 220.5t-43 295.5q0 117 21 229t60.5 211t96 182.5t128.5 143.5t158 93.5t183 33.5q73 0 131 -22t98.5 -60t62 -89.5t21.5 -110.5q0 -39 -11.5 -76.5 t-27.5 -70t-33.5 -59t-29.5 -42.5l-12 10q12 16 22.5 37.5t18.5 46.5t13 52.5t5 56.5q0 53 -18.5 100t-53.5 82.5t-85.5 56.5t-114.5 21q-96 0 -176.5 -28.5t-144.5 -80t-112.5 -123t-80.5 -157.5t-48 -183t-16 -200q0 -81 13.5 -163.5t40.5 -159.5t67.5 -144.5t94 -117.5 t121 -79t147.5 -29q106 0 182 37.5t128 96t82.5 129.5t45.5 139zM588 1581q-4 -4 -6 -4q-6 0 -10.5 7.5t-4.5 15.5q0 5 12 20t30.5 34t40 40t40.5 38.5t32.5 28.5t16.5 11h9t14.5 -2t14 -7t7.5 -14q14 -34 35.5 -66.5t55.5 -60.5q3 -3 5.5 -7t2.5 -7q0 -11 -13 -19t-34 -8 q-16 13 -31.5 34.5t-29 42t-25 35.5t-19.5 15t-24.5 -13t-37 -32t-42 -41.5t-39.5 -40.5z" />
<glyph unicode="&#x109;" horiz-adv-x="436" d="M266 449q15 0 31 -4t29 -11.5t21.5 -18.5t8.5 -26q0 -32 -19.5 -56t-42.5 -41q-27 -19 -61 -34l-6 10q18 10 32 23q12 11 22 27.5t10 37.5q0 20 -18 37t-50 17t-57.5 -16.5t-43.5 -43t-28 -60t-10 -67.5q0 -29 8.5 -55.5t25.5 -46.5t44 -31.5t65 -11.5q37 0 65 9.5 t47 20.5q22 13 38 31l8 -6q-20 -32 -48 -57q-25 -21 -62 -38.5t-89 -17.5q-28 0 -57.5 9.5t-53.5 29t-39.5 50t-15.5 71.5q0 53 18.5 102t51.5 86t78 59t98 22zM99 534q-4 -4 -6 -4q-6 0 -10.5 7.5t-4.5 15.5q0 5 12 20t30.5 34t40 40t40.5 38.5t32.5 28.5t16.5 11h9 t14.5 -2t14 -7t7.5 -14q14 -34 35.5 -66.5t55.5 -60.5q3 -3 5.5 -7t2.5 -7q0 -11 -13 -19t-34 -8q-16 13 -31.5 34.5t-29 42t-25 35.5t-19.5 15t-24.5 -13t-37 -32t-42 -41.5t-39.5 -40.5z" />
<glyph unicode="&#x10a;" horiz-adv-x="1120" d="M1081 371q-5 -28 -18 -73.5t-37 -96.5t-60.5 -103t-88 -93.5t-120.5 -68t-157 -26.5q-100 0 -193 48t-165 138t-115 220.5t-43 295.5q0 117 21 229t60.5 211t96 182.5t128.5 143.5t158 93.5t183 33.5q73 0 131 -22t98.5 -60t62 -89.5t21.5 -110.5q0 -39 -11.5 -76.5 t-27.5 -70t-33.5 -59t-29.5 -42.5l-12 10q12 16 22.5 37.5t18.5 46.5t13 52.5t5 56.5q0 53 -18.5 100t-53.5 82.5t-85.5 56.5t-114.5 21q-96 0 -176.5 -28.5t-144.5 -80t-112.5 -123t-80.5 -157.5t-48 -183t-16 -200q0 -81 13.5 -163.5t40.5 -159.5t67.5 -144.5t94 -117.5 t121 -79t147.5 -29q106 0 182 37.5t128 96t82.5 129.5t45.5 139zM670 1647q0 20 14.5 34.5t34.5 14.5t34.5 -14.5t14.5 -34.5t-14.5 -34.5t-34.5 -14.5t-34.5 14.5t-14.5 34.5z" />
<glyph unicode="&#x10b;" horiz-adv-x="436" d="M266 449q15 0 31 -4t29 -11.5t21.5 -18.5t8.5 -26q0 -32 -19.5 -56t-42.5 -41q-27 -19 -61 -34l-6 10q18 10 32 23q12 11 22 27.5t10 37.5q0 20 -18 37t-50 17t-57.5 -16.5t-43.5 -43t-28 -60t-10 -67.5q0 -29 8.5 -55.5t25.5 -46.5t44 -31.5t65 -11.5q37 0 65 9.5 t47 20.5q22 13 38 31l8 -6q-20 -32 -48 -57q-25 -21 -62 -38.5t-89 -17.5q-28 0 -57.5 9.5t-53.5 29t-39.5 50t-15.5 71.5q0 53 18.5 102t51.5 86t78 59t98 22zM181 600q0 20 14.5 34.5t34.5 14.5t34.5 -14.5t14.5 -34.5t-14.5 -34.5t-34.5 -14.5t-34.5 14.5t-14.5 34.5z " />
<glyph unicode="&#x10c;" horiz-adv-x="1120" d="M1081 371q-5 -28 -18 -73.5t-37 -96.5t-60.5 -103t-88 -93.5t-120.5 -68t-157 -26.5q-100 0 -193 48t-165 138t-115 220.5t-43 295.5q0 117 21 229t60.5 211t96 182.5t128.5 143.5t158 93.5t183 33.5q73 0 131 -22t98.5 -60t62 -89.5t21.5 -110.5q0 -39 -11.5 -76.5 t-27.5 -70t-33.5 -59t-29.5 -42.5l-12 10q12 16 22.5 37.5t18.5 46.5t13 52.5t5 56.5q0 53 -18.5 100t-53.5 82.5t-85.5 56.5t-114.5 21q-96 0 -176.5 -28.5t-144.5 -80t-112.5 -123t-80.5 -157.5t-48 -183t-16 -200q0 -81 13.5 -163.5t40.5 -159.5t67.5 -144.5t94 -117.5 t121 -79t147.5 -29q106 0 182 37.5t128 96t82.5 129.5t45.5 139zM848 1762q5 8 16 8q6 0 11.5 -4t5.5 -11q0 -4 -2 -6q-18 -24 -39.5 -53.5t-43.5 -56t-42 -44.5t-35 -18q-13 0 -23.5 6t-19.5 23q-14 25 -36 57t-48 64q-6 6 -6 14q0 11 11 19t34 8q4 0 16.5 -20t28.5 -43.5 t32 -43.5t27 -20q5 0 17.5 11t29 28.5t34 39t32.5 42.5z" />
<glyph unicode="&#x10d;" horiz-adv-x="436" d="M266 449q15 0 31 -4t29 -11.5t21.5 -18.5t8.5 -26q0 -32 -19.5 -56t-42.5 -41q-27 -19 -61 -34l-6 10q18 10 32 23q12 11 22 27.5t10 37.5q0 20 -18 37t-50 17t-57.5 -16.5t-43.5 -43t-28 -60t-10 -67.5q0 -29 8.5 -55.5t25.5 -46.5t44 -31.5t65 -11.5q37 0 65 9.5 t47 20.5q22 13 38 31l8 -6q-20 -32 -48 -57q-25 -21 -62 -38.5t-89 -17.5q-28 0 -57.5 9.5t-53.5 29t-39.5 50t-15.5 71.5q0 53 18.5 102t51.5 86t78 59t98 22zM360 715q5 8 16 8q6 0 11.5 -4t5.5 -11q0 -4 -2 -6q-18 -24 -39.5 -53.5t-43.5 -56t-42 -44.5t-35 -18 q-13 0 -23.5 6t-19.5 23q-14 25 -36 57t-48 64q-6 6 -6 14q0 11 11 19t34 8q4 0 16.5 -20t28.5 -43.5t32 -43.5t27 -20q5 0 17.5 11t29 28.5t34 39t32.5 42.5z" />
<glyph unicode="&#x10e;" horiz-adv-x="1444" d="M627 350v55.5t2 61.5q-34 -11 -73.5 -17t-82.5 -6q-119 0 -207.5 39t-147.5 104.5t-88.5 151.5t-29.5 181q0 98 29 182.5t79.5 154.5t120 124.5t149.5 92t167.5 57t175.5 19.5q156 0 283 -48t217 -140.5t139 -228t49 -310.5q0 -78 -11.5 -173t-36.5 -192t-65 -188.5 t-97.5 -163t-132.5 -114.5t-171 -43q-63 0 -116 21t-99 42q-20 -43 -57 -67.5t-86 -24.5q-15 0 -33.5 5t-34.5 15t-26.5 25.5t-10.5 36.5t10 36.5t26.5 26t38 16t44.5 5.5q22 0 43 -3.5t43 -8.5v18q0 50 -5 113.5t-5 144.5zM729 852q-17 -72 -25.5 -158.5t-13.5 -171.5 q42 13 70 27.5t51 30.5l6 -11q-18 -17 -50 -38.5t-77 -41.5q-2 -37 -2 -70.5v-64.5q0 -43 1.5 -76t3.5 -61t3.5 -54t1.5 -54q0 -14 -1 -26.5t-3 -23.5q50 -17 98.5 -33t102.5 -16q89 0 157 32.5t118 88t83 129t53 155t28.5 166.5t8.5 164q0 160 -42 297.5t-124 238.5 t-202 158.5t-277 57.5q-148 0 -267.5 -39t-204 -113.5t-130 -183.5t-45.5 -250q0 -87 35.5 -163t94.5 -132t135 -88t157 -32q94 0 156 12q5 71 13.5 151.5t27.5 171.5q2 13 4 27t2 16q0 10 -0.5 20.5t8.5 10.5q5 0 13 -6t15 -14.5t12 -17.5t5 -15zM549 -33q41 0 59.5 20 t24.5 48q-22 8 -41.5 13t-38.5 5q-29 0 -52.5 -10t-23.5 -33q0 -20 21.5 -31.5t50.5 -11.5zM850 1805q5 8 16 8q6 0 11.5 -4t5.5 -11q0 -4 -2 -6q-18 -24 -39.5 -53.5t-43.5 -56t-42 -44.5t-35 -18q-13 0 -23.5 6t-19.5 23q-14 25 -36 57t-48 64q-6 6 -6 14q0 11 11 19t34 8 q4 0 16.5 -20t28.5 -43.5t32 -43.5t27 -20q5 0 17.5 11t29 28.5t34 39t32.5 42.5z" />
<glyph unicode="&#x10f;" horiz-adv-x="723" d="M295 432q-3 29 -3.5 60t-0.5 65q0 72 3.5 151.5t11 156.5t18.5 147t27 123t36 84.5t45 31.5q38 0 56 -67t18 -207q0 -82 -10.5 -183.5t-36.5 -207.5q-22 -91 -41.5 -159.5t-36.5 -119.5q9 -48 22.5 -91t30.5 -75t38 -50.5t46 -18.5q21 0 42 17t39.5 40t33 47t22.5 39 l9 -4l-5 -14t-15 -35.5t-24.5 -46.5t-32.5 -46.5t-40 -36t-47 -14.5q-54 0 -95 46t-69 133q-14 -32 -35 -62.5t-47 -54t-57.5 -37.5t-65.5 -14q-26 0 -49.5 9t-40.5 26.5t-27 41.5t-10 54q0 51 23 99.5t62 87t89.5 62t106.5 23.5h10zM414 1204q-11 0 -19.5 -28.5 t-15.5 -75.5t-12 -108t-8.5 -125t-5 -126.5t-1.5 -113.5q0 -59 5 -128.5t16 -138.5q15 48 31 108.5t28.5 130t20.5 147t8 161.5q0 69 -3 124t-8.5 93.5t-14.5 59t-21 20.5zM170 90q31 0 55 13.5t43 34t33 45.5t25 48q-10 36 -16 74.5t-11 81.5q-15 6 -33 6 q-52 0 -89.5 -16.5t-61.5 -42.5t-35.5 -58t-11.5 -63q0 -53 28.5 -88t73.5 -35zM651 1252q26 0 38.5 -21t12.5 -50q0 -15 -2.5 -37t-12.5 -47t-30 -52t-55 -53q-6 -5 -9.5 -4.5t-4.5 3.5t0 7t4 6q15 9 28 29t21.5 40.5t9.5 37t-8 18.5q-22 5 -34.5 20t-12.5 38q0 32 16 48.5 t39 16.5z" />
<glyph unicode="&#x110;" horiz-adv-x="1444" d="M627 350v55.5t2 61.5q-34 -11 -73.5 -17t-82.5 -6q-119 0 -207.5 39t-147.5 104.5t-88.5 151.5t-29.5 181q0 98 29 182.5t79.5 154.5t120 124.5t149.5 92t167.5 57t175.5 19.5q156 0 283 -48t217 -140.5t139 -228t49 -310.5q0 -78 -11.5 -173t-36.5 -192t-65 -188.5 t-97.5 -163t-132.5 -114.5t-171 -43q-63 0 -116 21t-99 42q-20 -43 -57 -67.5t-86 -24.5q-15 0 -33.5 5t-34.5 15t-26.5 25.5t-10.5 36.5t10 36.5t26.5 26t38 16t44.5 5.5q22 0 43 -3.5t43 -8.5v18q0 34 -3 76.5t-5 91.5q-54 -3 -104 -5.5t-95 -2.5q-2 1 -3 2q-3 1 -3 6 q0 12 6.5 23.5t11.5 11.5q34 0 84 1t101 1v53zM897 272q-50 0 -102 -1.5t-105 -4.5q2 -46 5 -81.5t3 -75.5q0 -14 -1 -26.5t-3 -23.5q50 -17 98.5 -33t102.5 -16q89 0 157 32.5t118 88t83 129t53 155t28.5 166.5t8.5 164q0 160 -42 297.5t-124 238.5t-202 158.5t-277 57.5 q-148 0 -267.5 -39t-204 -113.5t-130 -183.5t-45.5 -250q0 -87 35.5 -163t94.5 -132t135 -88t157 -32q94 0 156 12q5 71 13.5 151.5t27.5 171.5q2 13 4 27t2 16q0 10 -0.5 20.5t8.5 10.5q5 0 13 -6t15 -14.5t12 -17.5t5 -15q-17 -72 -25.5 -158.5t-13.5 -171.5 q42 13 70 27.5t51 30.5l6 -11q-18 -17 -50 -38.5t-77 -41.5q-2 -37 -2 -70.5v-64.5v-55h53h19h34.5t41.5 -0.5t40 -1t30 -2.5t12 -4q0 -9 -7.5 -14t-13.5 -5zM549 -33q41 0 59.5 20t24.5 48q-22 8 -41.5 13t-38.5 5q-29 0 -52.5 -10t-23.5 -33q0 -20 21.5 -31.5t50.5 -11.5z " />
<glyph unicode="&#x111;" horiz-adv-x="602" d="M598 743q-26 0 -54 -1t-57 -1q-5 -38 -12 -77.5t-16 -77.5q-22 -91 -41.5 -159.5t-36.5 -119.5q9 -48 22.5 -91t30.5 -75t38 -50.5t46 -18.5q21 0 42 17t39.5 40t33 47t22.5 39l9 -4l-5 -14t-15 -35.5t-24.5 -46.5t-32.5 -46.5t-40 -36t-47 -14.5q-54 0 -95 46t-69 133 q-14 -32 -35 -62.5t-47 -54t-57.5 -37.5t-65.5 -14q-26 0 -49.5 9t-40.5 26.5t-27 41.5t-10 54q0 51 23 99.5t62 87t89.5 62t106.5 23.5h10q-3 29 -3.5 60t-0.5 65q0 40 1 83.5t3 88.5q-43 -3 -85 -4.5t-79 -1.5q-2 1 -3 2q-3 1 -3 6q0 13 6.5 24t11.5 11h70t84 2 q5 91 16 177.5t27.5 154.5t39.5 109.5t52 41.5q38 0 56 -67t18 -207q0 -47 -3 -99t-11 -108q20 0 42 -0.5t41 -1.5t31 -2.5t12 -3.5q0 -9 -7 -14t-13 -5zM170 90q31 0 55 13.5t43 34t33 45.5t25 48q-10 36 -16 74.5t-11 81.5q-15 6 -33 6q-52 0 -89.5 -16.5t-61.5 -42.5 t-35.5 -58t-11.5 -63q0 -53 28.5 -88t73.5 -35zM414 1204q-9 0 -16.5 -18.5t-13.5 -50t-11 -74t-8.5 -91t-6 -100.5t-4.5 -102q25 2 47.5 2h40.5h13q6 64 6 137q0 69 -3 124t-8.5 93.5t-14.5 59t-21 20.5zM352 733v-106q0 -59 5 -128.5t16 -138.5q23 73 45 169t33 210z" />
<glyph unicode="&#x112;" horiz-adv-x="1061" d="M1137 299q-11 -17 -34.5 -50.5t-57.5 -75t-78.5 -85t-97.5 -79t-113 -58.5t-125 -23q-102 0 -160.5 57.5t-60.5 172.5q-98 13 -174 56t-128.5 109.5t-80 153t-27.5 187.5q0 109 36.5 214t101 199t152 173t189.5 136.5t214.5 90t226.5 32.5q48 0 104.5 -11.5t105.5 -39 t82 -73.5t33 -115q0 -53 -33 -118t-102 -124l-8 8q48 50 67 101t19 110q0 55 -28.5 92.5t-70.5 60.5t-90.5 32.5t-89.5 9.5q-111 0 -219 -27.5t-204.5 -77.5t-179 -120t-142 -155t-93.5 -183t-34 -203q0 -83 28.5 -158.5t79.5 -136.5t120.5 -103.5t150.5 -58.5 q10 44 32.5 83t53 68.5t68 46.5t77.5 17q44 0 73.5 -23.5t29.5 -74.5q0 -49 -24 -84t-61.5 -57t-82.5 -32.5t-88 -10.5h-25t-23 2q3 -36 20 -65.5t43.5 -50t60.5 -31.5t71 -11q133 0 257 79t226 232zM643 381q-42 0 -75 -13t-57 -35.5t-39 -53t-21 -66.5q14 -2 27.5 -2h27.5 q34 0 72 6.5t69 21t51.5 36t20.5 51.5q0 15 -7 25t-18 17t-24.5 10t-26.5 3zM747 1626q-7 0 -8.5 8.5t0.5 18.5t8 18.5t15 8.5q38 0 78.5 2t78.5 2q19 0 37.5 -1t36.5 -3q6 -1 5 -10t-6.5 -18.5t-12.5 -17.5t-12 -6q-19 3 -38.5 3.5t-37.5 0.5q-37 0 -76 -2t-68 -4z" />
<glyph unicode="&#x113;" horiz-adv-x="446" d="M317 494q13 -3 13 -17q0 -4 -2.5 -10.5t-6 -13t-7.5 -11t-7 -4.5q-5 0 -12 3.5t-20 8t-34 8t-55 3.5q-48 0 -80 -18t-32 -50q0 -23 19.5 -38.5t46 -24.5t54 -13t42.5 -4q11 0 14.5 -3.5t3.5 -6.5q0 -8 -6.5 -9.5t-16.5 -4.5q-26 -9 -53 -22.5t-49.5 -32t-36.5 -41.5 t-14 -50q0 -45 36.5 -74.5t102.5 -29.5q75 0 125 22.5t82.5 52.5t50.5 60.5t27 46.5l6 -4q-17 -49 -43.5 -91t-64 -72.5t-87.5 -48t-114 -17.5q-39 0 -72 9.5t-57 26.5t-37 42t-13 57q0 37 17 64t39 44.5t43.5 27t30.5 13.5q-31 5 -55 17q-20 11 -37 30.5t-17 53.5 q0 31 15 56.5t40.5 42.5t59 26.5t71.5 9.5q22 0 44.5 -3t45.5 -11zM111 635q-7 0 -8.5 8.5t0.5 18.5t8 18.5t15 8.5q38 0 78.5 2t78.5 2q19 0 37.5 -1t36.5 -3q6 -1 5 -10t-6.5 -18.5t-12.5 -17.5t-12 -6q-19 3 -38.5 3.5t-37.5 0.5q-37 0 -76 -2t-68 -4z" />
<glyph unicode="&#x114;" horiz-adv-x="1061" d="M1137 299q-11 -17 -34.5 -50.5t-57.5 -75t-78.5 -85t-97.5 -79t-113 -58.5t-125 -23q-102 0 -160.5 57.5t-60.5 172.5q-98 13 -174 56t-128.5 109.5t-80 153t-27.5 187.5q0 109 36.5 214t101 199t152 173t189.5 136.5t214.5 90t226.5 32.5q48 0 104.5 -11.5t105.5 -39 t82 -73.5t33 -115q0 -53 -33 -118t-102 -124l-8 8q48 50 67 101t19 110q0 55 -28.5 92.5t-70.5 60.5t-90.5 32.5t-89.5 9.5q-111 0 -219 -27.5t-204.5 -77.5t-179 -120t-142 -155t-93.5 -183t-34 -203q0 -83 28.5 -158.5t79.5 -136.5t120.5 -103.5t150.5 -58.5 q10 44 32.5 83t53 68.5t68 46.5t77.5 17q44 0 73.5 -23.5t29.5 -74.5q0 -49 -24 -84t-61.5 -57t-82.5 -32.5t-88 -10.5h-25t-23 2q3 -36 20 -65.5t43.5 -50t60.5 -31.5t71 -11q133 0 257 79t226 232zM643 381q-42 0 -75 -13t-57 -35.5t-39 -53t-21 -66.5q14 -2 27.5 -2h27.5 q34 0 72 6.5t69 21t51.5 36t20.5 51.5q0 15 -7 25t-18 17t-24.5 10t-26.5 3zM723 1735q-2 7 5 16t16 15t16.5 6.5t7.5 -11.5q4 -29 16.5 -49.5t30 -34t37.5 -20t38 -6.5q24 0 42 8t31.5 21.5t22.5 31t15 35.5q3 7 9.5 12t12.5 7t10 0t3 -9q-19 -72 -58 -113.5t-110 -41.5 q-26 0 -50.5 8.5t-44 25t-33 41.5t-17.5 58z" />
<glyph unicode="&#x115;" horiz-adv-x="446" d="M317 494q13 -3 13 -17q0 -4 -2.5 -10.5t-6 -13t-7.5 -11t-7 -4.5q-5 0 -12 3.5t-20 8t-34 8t-55 3.5q-48 0 -80 -18t-32 -50q0 -23 19.5 -38.5t46 -24.5t54 -13t42.5 -4q11 0 14.5 -3.5t3.5 -6.5q0 -8 -6.5 -9.5t-16.5 -4.5q-26 -9 -53 -22.5t-49.5 -32t-36.5 -41.5 t-14 -50q0 -45 36.5 -74.5t102.5 -29.5q75 0 125 22.5t82.5 52.5t50.5 60.5t27 46.5l6 -4q-17 -49 -43.5 -91t-64 -72.5t-87.5 -48t-114 -17.5q-39 0 -72 9.5t-57 26.5t-37 42t-13 57q0 37 17 64t39 44.5t43.5 27t30.5 13.5q-31 5 -55 17q-20 11 -37 30.5t-17 53.5 q0 31 15 56.5t40.5 42.5t59 26.5t71.5 9.5q22 0 44.5 -3t45.5 -11zM87 744q-2 7 5 16t16 15t16.5 6.5t7.5 -11.5q4 -29 16.5 -49.5t30 -34t37.5 -20t38 -6.5q24 0 42 8t31.5 21.5t22.5 31t15 35.5q3 7 9.5 12t12.5 7t10 0t3 -9q-19 -72 -58 -113.5t-110 -41.5 q-26 0 -50.5 8.5t-44 25t-33 41.5t-17.5 58z" />
<glyph unicode="&#x116;" horiz-adv-x="1061" d="M1137 299q-11 -17 -34.5 -50.5t-57.5 -75t-78.5 -85t-97.5 -79t-113 -58.5t-125 -23q-102 0 -160.5 57.5t-60.5 172.5q-98 13 -174 56t-128.5 109.5t-80 153t-27.5 187.5q0 109 36.5 214t101 199t152 173t189.5 136.5t214.5 90t226.5 32.5q48 0 104.5 -11.5t105.5 -39 t82 -73.5t33 -115q0 -53 -33 -118t-102 -124l-8 8q48 50 67 101t19 110q0 55 -28.5 92.5t-70.5 60.5t-90.5 32.5t-89.5 9.5q-111 0 -219 -27.5t-204.5 -77.5t-179 -120t-142 -155t-93.5 -183t-34 -203q0 -83 28.5 -158.5t79.5 -136.5t120.5 -103.5t150.5 -58.5 q10 44 32.5 83t53 68.5t68 46.5t77.5 17q44 0 73.5 -23.5t29.5 -74.5q0 -49 -24 -84t-61.5 -57t-82.5 -32.5t-88 -10.5h-25t-23 2q3 -36 20 -65.5t43.5 -50t60.5 -31.5t71 -11q133 0 257 79t226 232zM643 381q-42 0 -75 -13t-57 -35.5t-39 -53t-21 -66.5q14 -2 27.5 -2h27.5 q34 0 72 6.5t69 21t51.5 36t20.5 51.5q0 15 -7 25t-18 17t-24.5 10t-26.5 3zM819 1651q0 20 14.5 34.5t34.5 14.5t34.5 -14.5t14.5 -34.5t-14.5 -34.5t-34.5 -14.5t-34.5 14.5t-14.5 34.5z" />
<glyph unicode="&#x117;" horiz-adv-x="446" d="M317 494q13 -3 13 -17q0 -4 -2.5 -10.5t-6 -13t-7.5 -11t-7 -4.5q-5 0 -12 3.5t-20 8t-34 8t-55 3.5q-48 0 -80 -18t-32 -50q0 -23 19.5 -38.5t46 -24.5t54 -13t42.5 -4q11 0 14.5 -3.5t3.5 -6.5q0 -8 -6.5 -9.5t-16.5 -4.5q-26 -9 -53 -22.5t-49.5 -32t-36.5 -41.5 t-14 -50q0 -45 36.5 -74.5t102.5 -29.5q75 0 125 22.5t82.5 52.5t50.5 60.5t27 46.5l6 -4q-17 -49 -43.5 -91t-64 -72.5t-87.5 -48t-114 -17.5q-39 0 -72 9.5t-57 26.5t-37 42t-13 57q0 37 17 64t39 44.5t43.5 27t30.5 13.5q-31 5 -55 17q-20 11 -37 30.5t-17 53.5 q0 31 15 56.5t40.5 42.5t59 26.5t71.5 9.5q22 0 44.5 -3t45.5 -11zM183 660q0 20 14.5 34.5t34.5 14.5t34.5 -14.5t14.5 -34.5t-14.5 -34.5t-34.5 -14.5t-34.5 14.5t-14.5 34.5z" />
<glyph unicode="&#x118;" horiz-adv-x="1061" d="M1137 299q-12 -18 -38 -55t-64.5 -81t-88 -90t-106.5 -81q-17 -10 -33 -27t-28 -37t-19.5 -42t-7.5 -42q0 -17 14.5 -33t40.5 -16q32 0 64.5 12t60.5 29q1 5 6.5 4t10 -5.5t5 -11.5t-7.5 -13q-38 -31 -76.5 -45.5t-72.5 -14.5q-15 0 -31 3t-29 12t-21.5 24t-8.5 39 q0 32 18 64.5t49 66.5q-34 -14 -70 -22.5t-73 -8.5q-102 0 -160.5 57.5t-60.5 172.5q-98 13 -174 56t-128.5 109.5t-80 153t-27.5 187.5q0 109 36.5 214t101 199t152 173t189.5 136.5t214.5 90t226.5 32.5q48 0 104.5 -11.5t105.5 -39t82 -73.5t33 -115q0 -53 -33 -118 t-102 -124l-8 8q48 50 67 101t19 110q0 55 -28.5 92.5t-70.5 60.5t-90.5 32.5t-89.5 9.5q-111 0 -219 -27.5t-204.5 -77.5t-179 -120t-142 -155t-93.5 -183t-34 -203q0 -83 28.5 -158.5t79.5 -136.5t120.5 -103.5t150.5 -58.5q10 44 32.5 83t53 68.5t68 46.5t77.5 17 q44 0 73.5 -23.5t29.5 -74.5q0 -49 -24 -84t-61.5 -57t-82.5 -32.5t-88 -10.5h-25t-23 2q3 -36 20 -65.5t43.5 -50t60.5 -31.5t71 -11q133 0 257 79t226 232zM643 381q-42 0 -75 -13t-57 -35.5t-39 -53t-21 -66.5q14 -2 27.5 -2h27.5q34 0 72 6.5t69 21t51.5 36t20.5 51.5 q0 15 -7 25t-18 17t-24.5 10t-26.5 3z" />
<glyph unicode="&#x119;" horiz-adv-x="446" d="M317 494q13 -3 13 -17q0 -4 -2.5 -10.5t-6 -13t-7.5 -11t-7 -4.5q-5 0 -12 3.5t-20 8t-34 8t-55 3.5q-48 0 -80 -18t-32 -50q0 -23 19.5 -38.5t46 -24.5t54 -13t42.5 -4q11 0 14.5 -3.5t3.5 -6.5q0 -8 -6.5 -9.5t-16.5 -4.5q-26 -9 -53 -22.5t-49.5 -32t-36.5 -41.5 t-14 -50q0 -45 36.5 -74.5t102.5 -29.5q75 0 125 22.5t82.5 52.5t50.5 60.5t27 46.5l6 -4q-26 -74 -66.5 -124t-105.5 -79q-14 -6 -30 -19.5t-30 -32t-23 -40.5t-9 -45q0 -51 55 -51q32 0 64.5 11t60.5 28q1 5 6.5 4t10 -6t5 -12t-7.5 -13q-38 -31 -76.5 -45t-72.5 -14 q-15 0 -31 4t-29 13t-21.5 25t-8.5 40q0 66 80 135q-17 -3 -39.5 -5.5t-40.5 -2.5q-39 0 -72 9.5t-57 26.5t-37 42t-13 57q0 37 17 64t39 44.5t43.5 27t30.5 13.5q-31 5 -55 17q-20 11 -37 30.5t-17 53.5q0 31 15 56.5t40.5 42.5t59 26.5t71.5 9.5q22 0 44.5 -3t45.5 -11z " />
<glyph unicode="&#x11a;" horiz-adv-x="1061" d="M1137 299q-11 -17 -34.5 -50.5t-57.5 -75t-78.5 -85t-97.5 -79t-113 -58.5t-125 -23q-102 0 -160.5 57.5t-60.5 172.5q-98 13 -174 56t-128.5 109.5t-80 153t-27.5 187.5q0 109 36.5 214t101 199t152 173t189.5 136.5t214.5 90t226.5 32.5q48 0 104.5 -11.5t105.5 -39 t82 -73.5t33 -115q0 -53 -33 -118t-102 -124l-8 8q48 50 67 101t19 110q0 55 -28.5 92.5t-70.5 60.5t-90.5 32.5t-89.5 9.5q-111 0 -219 -27.5t-204.5 -77.5t-179 -120t-142 -155t-93.5 -183t-34 -203q0 -83 28.5 -158.5t79.5 -136.5t120.5 -103.5t150.5 -58.5 q10 44 32.5 83t53 68.5t68 46.5t77.5 17q44 0 73.5 -23.5t29.5 -74.5q0 -49 -24 -84t-61.5 -57t-82.5 -32.5t-88 -10.5h-25t-23 2q3 -36 20 -65.5t43.5 -50t60.5 -31.5t71 -11q133 0 257 79t226 232zM643 381q-42 0 -75 -13t-57 -35.5t-39 -53t-21 -66.5q14 -2 27.5 -2h27.5 q34 0 72 6.5t69 21t51.5 36t20.5 51.5q0 15 -7 25t-18 17t-24.5 10t-26.5 3zM997 1766q5 8 16 8q6 0 11.5 -4t5.5 -11q0 -4 -2 -6q-18 -24 -39.5 -53.5t-43.5 -56t-42 -44.5t-35 -18q-13 0 -23.5 6t-19.5 23q-14 25 -36 57t-48 64q-6 6 -6 14q0 11 11 19t34 8q4 0 16.5 -20 t28.5 -43.5t32 -43.5t27 -20q5 0 17.5 11t29 28.5t34 39t32.5 42.5z" />
<glyph unicode="&#x11b;" horiz-adv-x="446" d="M317 494q13 -3 13 -17q0 -4 -2.5 -10.5t-6 -13t-7.5 -11t-7 -4.5q-5 0 -12 3.5t-20 8t-34 8t-55 3.5q-48 0 -80 -18t-32 -50q0 -23 19.5 -38.5t46 -24.5t54 -13t42.5 -4q11 0 14.5 -3.5t3.5 -6.5q0 -8 -6.5 -9.5t-16.5 -4.5q-26 -9 -53 -22.5t-49.5 -32t-36.5 -41.5 t-14 -50q0 -45 36.5 -74.5t102.5 -29.5q75 0 125 22.5t82.5 52.5t50.5 60.5t27 46.5l6 -4q-17 -49 -43.5 -91t-64 -72.5t-87.5 -48t-114 -17.5q-39 0 -72 9.5t-57 26.5t-37 42t-13 57q0 37 17 64t39 44.5t43.5 27t30.5 13.5q-31 5 -55 17q-20 11 -37 30.5t-17 53.5 q0 31 15 56.5t40.5 42.5t59 26.5t71.5 9.5q22 0 44.5 -3t45.5 -11zM362 775q5 8 16 8q6 0 11.5 -4t5.5 -11q0 -4 -2 -6q-18 -24 -39.5 -53.5t-43.5 -56t-42 -44.5t-35 -18q-13 0 -23.5 6t-19.5 23q-14 25 -36 57t-48 64q-6 6 -6 14q0 11 11 19t34 8q4 0 16.5 -20t28.5 -43.5 t32 -43.5t27 -20q5 0 17.5 11t29 28.5t34 39t32.5 42.5z" />
<glyph unicode="&#x11c;" horiz-adv-x="893" d="M494 -354q27 1 49 14t38.5 40t25.5 69.5t9 101.5q0 37 -5 94.5t-11 128.5q-42 -43 -97.5 -68.5t-129.5 -25.5q-69 0 -126.5 21.5t-99 66.5t-64 113.5t-22.5 163.5q0 100 29 203.5t80.5 203.5t121.5 194.5t151.5 178t171 153t180 119.5t178.5 77.5t166 27.5q43 0 90 -11.5 t86 -40.5t64.5 -79t25.5 -127q0 -53 -33 -118t-102 -124l-8 8q48 50 67 101t19 110q0 51 -19 92t-49 69.5t-67 44t-74 15.5q-122 0 -244.5 -46.5t-235.5 -126.5t-211 -187.5t-170 -230.5t-113.5 -254.5t-41.5 -258.5q0 -52 15.5 -105.5t49 -96.5t86.5 -70t127 -27 q75 0 120.5 18t76.5 50q-8 90 -14 188t-6 195q0 47 0.5 98.5t3 102t9 95.5t17.5 79.5t28 55t42 20.5q38 0 56 -67.5t18 -207.5q0 -81 -10.5 -183t-36.5 -208q-17 -66 -48 -121q7 -81 13 -150t6 -112q0 -52 -15.5 -111t-45 -108.5t-73 -82t-98.5 -32.5q-18 0 -33.5 5.5 t-26 13.5t-16.5 17t-6 17t4.5 18t11 19t13 15t10.5 6q5 0 6 -3.5t1.5 -8t1.5 -9.5t6 -8q11 -6 26.5 -11t51.5 -3zM639 516q0 -68 4 -143t10 -150q5 13 9.5 25t9.5 26q25 73 30 160.5t5 181.5q0 69 -3 124t-9 93.5t-15 59t-21 20.5q-11 0 -16.5 -23t-8 -60t-2 -82t2 -89 t3 -82t1.5 -61zM512 1476q-4 -4 -6 -4q-6 0 -10.5 7.5t-4.5 15.5q0 5 12 20t30.5 34t40 40t40.5 38.5t32.5 28.5t16.5 11h9t14.5 -2t14 -7t7.5 -14q14 -34 35.5 -66.5t55.5 -60.5q3 -3 5.5 -7t2.5 -7q0 -11 -13 -19t-34 -8q-16 13 -31.5 34.5t-29 42t-25 35.5t-19.5 15 t-24.5 -13t-37 -32t-42 -41.5t-39.5 -40.5z" />
<glyph unicode="&#x11d;" horiz-adv-x="516" d="M352 440q28 0 47 -4t30 -10.5t15.5 -14t4.5 -14.5q0 -11 -10.5 -25t-18.5 -14q-4 0 -10.5 3.5t-19 7t-31 7t-46.5 3.5q-115 0 -178 -50.5t-63 -138.5q0 -15 6.5 -33t20 -33t35 -25.5t52.5 -10.5q59 0 100.5 22t69.5 50q0 5 1 9t3 9q7 34 18.5 63.5t24.5 51t26 33.5t22 12 q11 0 12.5 -7t1.5 -12q0 -18 -20.5 -59.5t-55.5 -87.5q-8 -48 -16 -121t-15 -167t-11.5 -206.5t-4.5 -238.5q0 -105 4 -202.5t8.5 -172.5t8.5 -121.5t4 -50.5q0 -14 -2.5 -21.5t-10.5 -15.5q-6 -6 -14.5 -13t-17.5 -7q-12 0 -17 8q-6 7 -13 29t-12.5 73.5t-9.5 140.5t-4 232 q0 126 8 243.5t20.5 221t27.5 191t28 153.5q-42 -42 -92.5 -71t-107.5 -29q-26 0 -50.5 7.5t-43 23.5t-29.5 40t-11 56q0 43 24.5 93.5t69 93t106.5 71t136 28.5zM408 248q-4 -5 -7 -15t-6 -24q4 5 7 8.5t5 6.5q2 4 3 7q4 14 6 22q2 7 1 7.5t-9 -12.5zM170 526q-4 -4 -6 -4 q-6 0 -10.5 7.5t-4.5 15.5q0 5 12 20t30.5 34t40 40t40.5 38.5t32.5 28.5t16.5 11h9t14.5 -2t14 -7t7.5 -14q14 -34 35.5 -66.5t55.5 -60.5q3 -3 5.5 -7t2.5 -7q0 -11 -13 -19t-34 -8q-16 13 -31.5 34.5t-29 42t-25 35.5t-19.5 15t-24.5 -13t-37 -32t-42 -41.5t-39.5 -40.5z " />
<glyph unicode="&#x11e;" horiz-adv-x="893" d="M494 -354q27 1 49 14t38.5 40t25.5 69.5t9 101.5q0 37 -5 94.5t-11 128.5q-42 -43 -97.5 -68.5t-129.5 -25.5q-69 0 -126.5 21.5t-99 66.5t-64 113.5t-22.5 163.5q0 100 29 203.5t80.5 203.5t121.5 194.5t151.5 178t171 153t180 119.5t178.5 77.5t166 27.5q43 0 90 -11.5 t86 -40.5t64.5 -79t25.5 -127q0 -53 -33 -118t-102 -124l-8 8q48 50 67 101t19 110q0 51 -19 92t-49 69.5t-67 44t-74 15.5q-122 0 -244.5 -46.5t-235.5 -126.5t-211 -187.5t-170 -230.5t-113.5 -254.5t-41.5 -258.5q0 -52 15.5 -105.5t49 -96.5t86.5 -70t127 -27 q75 0 120.5 18t76.5 50q-8 90 -14 188t-6 195q0 47 0.5 98.5t3 102t9 95.5t17.5 79.5t28 55t42 20.5q38 0 56 -67.5t18 -207.5q0 -81 -10.5 -183t-36.5 -208q-17 -66 -48 -121q7 -81 13 -150t6 -112q0 -52 -15.5 -111t-45 -108.5t-73 -82t-98.5 -32.5q-18 0 -33.5 5.5 t-26 13.5t-16.5 17t-6 17t4.5 18t11 19t13 15t10.5 6q5 0 6 -3.5t1.5 -8t1.5 -9.5t6 -8q11 -6 26.5 -11t51.5 -3zM639 516q0 -68 4 -143t10 -150q5 13 9.5 25t9.5 26q25 73 30 160.5t5 181.5q0 69 -3 124t-9 93.5t-15 59t-21 20.5q-11 0 -16.5 -23t-8 -60t-2 -82t2 -89 t3 -82t1.5 -61zM498 1626q-2 7 5 16t16 15t16.5 6.5t7.5 -11.5q4 -29 16.5 -49.5t30 -34t37.5 -20t38 -6.5q24 0 42 8t31.5 21.5t22.5 31t15 35.5q3 7 9.5 12t12.5 7t10 0t3 -9q-19 -72 -58 -113.5t-110 -41.5q-26 0 -50.5 8.5t-44 25t-33 41.5t-17.5 58z" />
<glyph unicode="&#x11f;" horiz-adv-x="516" d="M352 440q28 0 47 -4t30 -10.5t15.5 -14t4.5 -14.5q0 -11 -10.5 -25t-18.5 -14q-4 0 -10.5 3.5t-19 7t-31 7t-46.5 3.5q-115 0 -178 -50.5t-63 -138.5q0 -15 6.5 -33t20 -33t35 -25.5t52.5 -10.5q59 0 100.5 22t69.5 50q0 5 1 9t3 9q7 34 18.5 63.5t24.5 51t26 33.5t22 12 q11 0 12.5 -7t1.5 -12q0 -18 -20.5 -59.5t-55.5 -87.5q-8 -48 -16 -121t-15 -167t-11.5 -206.5t-4.5 -238.5q0 -105 4 -202.5t8.5 -172.5t8.5 -121.5t4 -50.5q0 -14 -2.5 -21.5t-10.5 -15.5q-6 -6 -14.5 -13t-17.5 -7q-12 0 -17 8q-6 7 -13 29t-12.5 73.5t-9.5 140.5t-4 232 q0 126 8 243.5t20.5 221t27.5 191t28 153.5q-42 -42 -92.5 -71t-107.5 -29q-26 0 -50.5 7.5t-43 23.5t-29.5 40t-11 56q0 43 24.5 93.5t69 93t106.5 71t136 28.5zM408 248q-4 -5 -7 -15t-6 -24q4 5 7 8.5t5 6.5q2 4 3 7q4 14 6 22q2 7 1 7.5t-9 -12.5zM156 676q-2 7 5 16 t16 15t16.5 6.5t7.5 -11.5q4 -29 16.5 -49.5t30 -34t37.5 -20t38 -6.5q24 0 42 8t31.5 21.5t22.5 31t15 35.5q3 7 9.5 12t12.5 7t10 0t3 -9q-19 -72 -58 -113.5t-110 -41.5q-26 0 -50.5 8.5t-44 25t-33 41.5t-17.5 58z" />
<glyph unicode="&#x120;" horiz-adv-x="893" d="M494 -354q27 1 49 14t38.5 40t25.5 69.5t9 101.5q0 37 -5 94.5t-11 128.5q-42 -43 -97.5 -68.5t-129.5 -25.5q-69 0 -126.5 21.5t-99 66.5t-64 113.5t-22.5 163.5q0 100 29 203.5t80.5 203.5t121.5 194.5t151.5 178t171 153t180 119.5t178.5 77.5t166 27.5q43 0 90 -11.5 t86 -40.5t64.5 -79t25.5 -127q0 -53 -33 -118t-102 -124l-8 8q48 50 67 101t19 110q0 51 -19 92t-49 69.5t-67 44t-74 15.5q-122 0 -244.5 -46.5t-235.5 -126.5t-211 -187.5t-170 -230.5t-113.5 -254.5t-41.5 -258.5q0 -52 15.5 -105.5t49 -96.5t86.5 -70t127 -27 q75 0 120.5 18t76.5 50q-8 90 -14 188t-6 195q0 47 0.5 98.5t3 102t9 95.5t17.5 79.5t28 55t42 20.5q38 0 56 -67.5t18 -207.5q0 -81 -10.5 -183t-36.5 -208q-17 -66 -48 -121q7 -81 13 -150t6 -112q0 -52 -15.5 -111t-45 -108.5t-73 -82t-98.5 -32.5q-18 0 -33.5 5.5 t-26 13.5t-16.5 17t-6 17t4.5 18t11 19t13 15t10.5 6q5 0 6 -3.5t1.5 -8t1.5 -9.5t6 -8q11 -6 26.5 -11t51.5 -3zM639 516q0 -68 4 -143t10 -150q5 13 9.5 25t9.5 26q25 73 30 160.5t5 181.5q0 69 -3 124t-9 93.5t-15 59t-21 20.5q-11 0 -16.5 -23t-8 -60t-2 -82t2 -89 t3 -82t1.5 -61zM594 1542q0 20 14.5 34.5t34.5 14.5t34.5 -14.5t14.5 -34.5t-14.5 -34.5t-34.5 -14.5t-34.5 14.5t-14.5 34.5z" />
<glyph unicode="&#x121;" horiz-adv-x="516" d="M352 440q28 0 47 -4t30 -10.5t15.5 -14t4.5 -14.5q0 -11 -10.5 -25t-18.5 -14q-4 0 -10.5 3.5t-19 7t-31 7t-46.5 3.5q-115 0 -178 -50.5t-63 -138.5q0 -15 6.5 -33t20 -33t35 -25.5t52.5 -10.5q59 0 100.5 22t69.5 50q0 5 1 9t3 9q7 34 18.5 63.5t24.5 51t26 33.5t22 12 q11 0 12.5 -7t1.5 -12q0 -18 -20.5 -59.5t-55.5 -87.5q-8 -48 -16 -121t-15 -167t-11.5 -206.5t-4.5 -238.5q0 -105 4 -202.5t8.5 -172.5t8.5 -121.5t4 -50.5q0 -14 -2.5 -21.5t-10.5 -15.5q-6 -6 -14.5 -13t-17.5 -7q-12 0 -17 8q-6 7 -13 29t-12.5 73.5t-9.5 140.5t-4 232 q0 126 8 243.5t20.5 221t27.5 191t28 153.5q-42 -42 -92.5 -71t-107.5 -29q-26 0 -50.5 7.5t-43 23.5t-29.5 40t-11 56q0 43 24.5 93.5t69 93t106.5 71t136 28.5zM408 248q-4 -5 -7 -15t-6 -24q4 5 7 8.5t5 6.5q2 4 3 7q4 14 6 22q2 7 1 7.5t-9 -12.5zM253 592 q0 20 14.5 34.5t34.5 14.5t34.5 -14.5t14.5 -34.5t-14.5 -34.5t-34.5 -14.5t-34.5 14.5t-14.5 34.5z" />
</font>
</defs>
</svg>
