<?xml version="1.0" standalone="no"?>
<!DOCTYPE svg PUBLIC "-//W3C//DTD SVG 1.1//EN" "http://www.w3.org/Graphics/SVG/1.1/DTD/svg11.dtd" >
<svg xmlns="http://www.w3.org/2000/svg">
<metadata></metadata>
<defs>
<font id="titillium_webregular" horiz-adv-x="1146" >
<font-face units-per-em="2048" ascent="1638" descent="-410" />
<missing-glyph horiz-adv-x="450" />
<glyph unicode="&#xd;" horiz-adv-x="681" />
<glyph unicode=" "  horiz-adv-x="450" />
<glyph unicode="&#x09;" horiz-adv-x="450" />
<glyph unicode="&#xa0;" horiz-adv-x="450" />
<glyph unicode="!" horiz-adv-x="505" d="M170 0v229h168v-229h-168zM182 467l-10 950h162l-10 -950h-142z" />
<glyph unicode="&#x22;" horiz-adv-x="763" d="M621 963h-138l-8 454h154zM281 963h-138l-8 454h154z" />
<glyph unicode="#" d="M1098 356h-228v-356h-139v356h-315v-356h-140v356h-227v131h227v381h-227v131h227v365h140v-365h315v365h139v-365h228v-131h-228v-381h228v-131zM731 487v381h-315v-381h315z" />
<glyph unicode="$" d="M1012 397q0 -416 -432 -415h-31l-29 -236q-104 6 -104 14l28 228l-292 37l16 125q158 -23 293 -31l67 512q-209 49 -298 126t-89 253q0 362 434 362q31 0 48 -2l34 264h105l-35 -270l256 -31l-12 -127q-141 16 -260 27l-62 -477q199 -47 281 -121t82 -238zM293 1018 q0 -111 55 -158t199 -82l59 461h-20q-293 0 -293 -221zM860 387q0 98 -51 145.5t-178 77.5l-64 -495h4q289 0 289 272z" />
<glyph unicode="%" d="M317 -8l420 1403l99 -33l-420 -1399zM282.5 1372q225.5 0 225.5 -282q0 -145 -59.5 -217t-166 -72t-166 71.5t-59.5 217.5q0 282 225.5 282zM182 1090q0 -184 101.5 -184.5t101.5 184.5q0 92 -23.5 135t-78 43t-78 -43t-23.5 -135zM641 270q0 281 224.5 281t224.5 -283 q0 -143 -59.5 -215.5t-166 -72.5t-165 72.5t-58.5 217.5zM764 270q0 -186 100 -186q57 0 80 45t23 139t-22.5 136t-78 42t-79 -42t-23.5 -134z" />
<glyph unicode="&#x26;" horiz-adv-x="1409" d="M381 1354q94 82 266 82t261 -82t89 -226.5t-71.5 -227.5t-243.5 -163l311 -307q45 131 58 332l149 -2q-27 -256 -94 -426l264 -250l-92 -102l-248 231q-141 -233 -428 -233t-401.5 110.5t-114.5 306t75 286.5t242 146q-72 82 -94 145.5t-22 160.5q0 137 94 219zM578 119 q252 0 346 184l-432 430q-135 -43 -192.5 -110.5t-57.5 -208.5q0 -295 336 -295zM440 1110q0 -125 92 -223l60 -58q141 61 196.5 121t55.5 164q0 188 -202 188.5t-202 -192.5z" />
<glyph unicode="'" horiz-adv-x="425" d="M143 963l-6 454h154l-10 -454h-138z" />
<glyph unicode="(" horiz-adv-x="540" d="M317 -256q-213 479 -213 872q0 197 53.5 427.5t106.5 361.5l53 131h148q-72 -188 -133.5 -465.5t-61.5 -453t49.5 -393.5t98.5 -349l47 -131h-148z" />
<glyph unicode=")" horiz-adv-x="540" d="M414 883q23 -143 22.5 -303t-53.5 -378t-107 -337l-53 -121h-147q70 164 132 431t62 442.5t-48 404.5t-97 371l-49 143h147q136 -305 191 -653z" />
<glyph unicode="*" horiz-adv-x="860" d="M764 1047h-270l84 -256l-101 -31l-84 258l-219 -162l-63 82l221 162l-217 157l63 86l217 -159l84 258l101 -33l-82 -260h266v-102z" />
<glyph unicode="+" d="M113 444v140h387v399h143v-399h391v-140h-391v-403h-143v403h-387z" />
<glyph unicode="," horiz-adv-x="456" d="M70 -252l94 471h170l-137 -471h-127z" />
<glyph unicode="-" horiz-adv-x="897" d="M139 492v143h621v-143h-621z" />
<glyph unicode="." horiz-adv-x="442" d="M137 0v233h168v-233h-168z" />
<glyph unicode="/" horiz-adv-x="843" d="M66 20l577 1430l137 -51l-577 -1428z" />
<glyph unicode="0" d="M571 1374q168 0 273 -63q221 -131 221 -656q0 -371 -123 -523t-368.5 -152t-369.5 150.5t-124 536.5t121.5 546.5t369.5 160.5zM573 1233q-117 0 -184 -49q-145 -100 -145 -531q0 -303 79.5 -418.5t249.5 -115.5t250 116.5t80 433t-77 440.5t-253 124z" />
<glyph unicode="1" d="M797 1352v-1352h-158v1176l-348 -230l-72 119l430 287h148z" />
<glyph unicode="2" d="M1006 0h-865v133l396 416q102 106 149 161.5t85 131.5t38 151q0 131 -71.5 184.5t-223.5 53.5q-133 0 -297 -35l-53 -10l-12 131q195 55 401.5 55t312 -87t105.5 -275q0 -143 -63.5 -250t-219.5 -256l-360 -367h678v-137z" />
<glyph unicode="3" d="M147 1317q193 57 413 57t318.5 -84t98.5 -268q0 -94 -25.5 -136t-41 -64.5t-40.5 -43.5q-45 -35 -71 -49l-23 -14q119 -43 176.5 -109.5t57.5 -218.5q0 -207 -105.5 -307t-333.5 -100q-180 0 -381 40l-63 15l14 129q221 -45 414 -45q293 2 293 262q0 244 -279 254h-272 v135h272q86 0 166 68.5t80 181.5t-63.5 163t-212.5 50q-164 0 -324 -31l-53 -10z" />
<glyph unicode="4" d="M737 0v264h-655v123l385 965h172l-391 -949h489v422h158v-422h172v-139h-172v-264h-158z" />
<glyph unicode="5" d="M977 1352v-144h-658l-36 -440q158 84 317 84q430 0 430 -399q0 -229 -118.5 -350t-333.5 -121q-172 0 -381 45l-68 14l18 125q236 -45 397 -45t242.5 83t81.5 232.5t-74.5 212t-211.5 62.5q-74 0 -155 -20.5t-124 -41.5l-43 -20l-108 20l36 703h789z" />
<glyph unicode="6" d="M987 1208q-184 25 -358 25t-268.5 -121t-94.5 -346l51 20q51 18 136.5 39t150.5 21q455 0 455 -420q0 -215 -124 -330.5t-349 -115.5q-483 0 -484 702q0 354 138.5 522t390.5 168q166 0 315 -24l55 -11zM594 705q-70 0 -153 -19.5t-130 -38.5l-47 -20q2 -233 79 -370.5 t234.5 -137.5t237.5 78.5t80 223t-79 214.5t-222 70z" />
<glyph unicode="7" d="M158 1208v144h839v-207l-520 -1165l-149 47l510 1128v53h-680z" />
<glyph unicode="8" d="M569.5 1374q225.5 0 357.5 -89t132 -263q0 -127 -51.5 -193.5t-173.5 -121.5q123 -55 184 -130t61 -210q0 -387 -506.5 -387t-506.5 364q0 145 56 221t177 142q-111 55 -161 125.5t-50 191.5q0 172 128 261t353.5 89zM233 371q0 -248 339 -248t339 260q0 109 -60 161 t-179 87h-215q-113 -31 -168.5 -91t-55.5 -169zM891 1004q0 227 -317.5 227t-317.5 -225q0 -90 49 -145.5t152 -92.5h215q111 35 165 90.5t54 145.5z" />
<glyph unicode="9" d="M506 119q371 0 373 471q-205 -78 -353 -78q-442 0 -442 412q0 207 127 327.5t342 120.5q248 0 368.5 -183t120.5 -538.5t-136 -513t-400 -157.5q-154 0 -318 28l-53 8l15 127q184 -24 356 -24zM539 651q125 0 288 56l54 18q-6 508 -328 508q-143 0 -224 -83t-81 -226 q0 -273 291 -273z" />
<glyph unicode=":" horiz-adv-x="444" d="M137 659v234h168v-234h-168zM137 0v233h168v-233h-168z" />
<glyph unicode=";" horiz-adv-x="507" d="M190 219h172l-137 -471h-127zM180 659v234h166v-234h-166z" />
<glyph unicode="&#x3c;" d="M977 838l-694 -322l694 -328v-161l-852 419v136l852 415v-159z" />
<glyph unicode="=" d="M131 633v141h885v-141h-885zM131 254v141h885v-141h-885z" />
<glyph unicode="&#x3e;" d="M862 516l-694 322v159l852 -415v-136l-852 -419v161z" />
<glyph unicode="?" horiz-adv-x="915" d="M831 1110q0 -133 -35.5 -201.5t-145 -160t-150.5 -145.5t-41 -120v-71h-129q-27 55 -27 124.5t47 130t151.5 150.5t139.5 143.5t35 148.5t-65.5 142t-207.5 47q-90 0 -264 -36l-53 -11l-10 125q207 61 342 62q211 0 312 -77t101 -251zM307 2v229h168v-229h-168z" />
<glyph unicode="@" horiz-adv-x="2000" d="M1911 625v-27q0 -434 -137 -547q-49 -39 -99.5 -51t-115 -12t-110.5 12t-71 31q-49 37 -67 80q-201 -121 -357 -121q-76 0 -132 18.5t-113 69.5q-115 102 -115 399t93 427t323 130q88 0 198 -39l37 -14v33h154v-391q0 -358 22 -426q10 -27 29.5 -49.5t42.5 -26.5t78 -4 t93 26.5t64.5 135t26.5 319.5v29q0 379 -168 549t-558 170t-579.5 -194t-189.5 -629t180.5 -619.5t591.5 -184.5l293 21l6 -137q-193 -18 -299 -19q-238 0 -402.5 45t-285.5 154q-240 209 -240 752q0 494 235.5 720t692.5 226t668 -210t211 -646zM965 125q88 0 299 94 q-18 111 -19 354v285q-123 41 -211 41q-166 0 -225 -94t-59 -305q0 -375 215 -375z" />
<glyph unicode="A" horiz-adv-x="1220" d="M49 0l389 1417h344l389 -1417h-155l-103 365h-606l-102 -365h-156zM557 1282l-215 -776h537l-215 776h-107z" />
<glyph unicode="B" horiz-adv-x="1261" d="M174 1417h514q211 0 316.5 -87t105.5 -273q0 -133 -46 -208t-136 -118q225 -78 225 -334q0 -213 -112.5 -305t-325.5 -92h-541v1417zM698 651h-366v-512h377q139 0 211.5 58.5t72.5 205.5q0 78 -29.5 131.5t-78.5 75.5q-91 41 -187 41zM682 1278h-350v-490h364 q131 0 191.5 62.5t60.5 188.5t-64.5 182.5t-201.5 56.5z" />
<glyph unicode="C" horiz-adv-x="1114" d="M1030 23q-211 -43 -379 -43t-271.5 46t-159.5 143t-77.5 223t-21.5 314.5t21.5 316.5t77.5 226.5t158.5 143.5t266.5 45t385 -45l-6 -133q-207 37 -369 36q-225 0 -297.5 -134t-72.5 -457q0 -162 13 -260.5t52 -177.5t114 -112.5t219 -33.5t341 37z" />
<glyph unicode="D" horiz-adv-x="1320" d="M680 0h-506v1417h506q346 0 459 -274q66 -158 65 -414q0 -535 -266 -674q-106 -55 -258 -55zM1042 729q0 408 -182 508q-74 41 -180 41h-348v-1139h348q362 0 362 590z" />
<glyph unicode="E" horiz-adv-x="1132" d="M174 0v1417h862v-139h-704v-490h581v-137h-581v-512h704v-139h-862z" />
<glyph unicode="F" horiz-adv-x="1077" d="M174 0v1417h848v-139h-690v-553h583v-139h-583v-586h-158z" />
<glyph unicode="G" horiz-adv-x="1261" d="M735 584v141h391v-696q-258 -49 -460 -49q-309 0 -429 178t-120 549.5t119.5 551t425.5 179.5q190 0 395 -41l69 -13l-6 -131q-254 43 -440 43q-236 0 -317.5 -136t-81.5 -452.5t81.5 -452.5t315.5 -136q143 0 293 28v437h-236z" />
<glyph unicode="H" horiz-adv-x="1382" d="M1053 0v641h-721v-641h-158v1417h158v-635h721v635h155v-1417h-155z" />
<glyph unicode="I" horiz-adv-x="503" d="M174 0v1417h158v-1417h-158z" />
<glyph unicode="J" horiz-adv-x="591" d="M37 -147v141q147 0 189 36t42 187v1200h156l2 -1222q0 -172 -57 -252q-47 -68 -187 -84q-55 -6 -145 -6z" />
<glyph unicode="K" horiz-adv-x="1165" d="M332 0h-158v1417h158v-659l233 8l363 651h180l-406 -712l428 -705h-186l-377 627l-235 -9v-618z" />
<glyph unicode="L" horiz-adv-x="980" d="M954 0h-780v1417h158v-1276h622v-141z" />
<glyph unicode="M" horiz-adv-x="1720" d="M174 0v1417h285l401 -1198l402 1198h284v-1417h-157v1249h-29l-412 -1198h-176l-412 1198h-28v-1249h-158z" />
<glyph unicode="N" horiz-adv-x="1384" d="M174 0v1417h295l543 -1278h43v1278h155v-1417h-288l-551 1278h-39v-1278h-158z" />
<glyph unicode="O" horiz-adv-x="1351" d="M360.5 255q81.5 -136 316 -136t315.5 133t81 446.5t-84 456.5t-314.5 143t-313 -142t-82.5 -453.5t81.5 -447.5zM1116 149.5q-121 -169.5 -439.5 -169.5t-439 174t-120.5 547.5t122.5 555t436 181.5t437.5 -180.5t124 -559.5t-121 -548.5z" />
<glyph unicode="P" horiz-adv-x="1214" d="M692 477h-360v-477h-158v1417h518q231 0 342 -112.5t111 -343.5q0 -484 -453 -484zM332 616h358q293 0 293 345q0 164 -69.5 240.5t-223.5 76.5h-358v-662z" />
<glyph unicode="Q" horiz-adv-x="1351" d="M676 -20q-317 0 -438 174t-121 547.5t122.5 555t436 181.5t437.5 -180.5t124 -555.5q0 -260 -53.5 -416.5t-182.5 -232.5l175 -280l-148 -70l-180 295q-68 -18 -172 -18zM360.5 255q81.5 -136 316 -136t315.5 132t81 446.5t-84 457.5t-314.5 143t-313 -142t-82.5 -453.5 t81.5 -447.5z" />
<glyph unicode="R" horiz-adv-x="1261" d="M332 543v-543h-158v1417h524q225 0 339 -104.5t114 -325.5q0 -328 -260 -412l272 -575h-174l-256 543h-401zM700 682q289 0 289 298t-291 298h-366v-596h368z" />
<glyph unicode="S" horiz-adv-x="1110" d="M565 1300q-307 0 -307 -231q0 -129 70.5 -177t286.5 -96t306.5 -125t90.5 -253q0 -436 -453 -436q-150 0 -375 34l-73 11l16 131q279 -37 424 -37q303 0 303 285q0 115 -66.5 165t-248.5 84q-240 51 -340.5 132t-100.5 272q0 381 457 381q150 0 358 -31l70 -10l-14 -133 q-285 34 -404 34z" />
<glyph unicode="T" horiz-adv-x="1077" d="M27 1276v141h1024v-141h-433v-1276h-155v1276h-436z" />
<glyph unicode="U" horiz-adv-x="1318" d="M322 426q0 -307 331 -307q172 0 259 72.5t87 234.5v991h156v-987q0 -238 -126 -344t-371.5 -106t-369.5 106.5t-124 343.5v987h158v-991z" />
<glyph unicode="V" horiz-adv-x="1191" d="M979 1417h164l-371 -1417h-352l-371 1417h164l326 -1278h114z" />
<glyph unicode="W" horiz-adv-x="1814" d="M61 1417h164l242 -1278h59l289 1266h184l289 -1266h60l241 1278h162l-287 -1417h-288l-269 1210l-268 -1210h-289z" />
<glyph unicode="X" horiz-adv-x="1142" d="M217 1417l358 -606l361 606h170l-436 -719l436 -698h-178l-357 588l-362 -588h-170l438 694l-438 723h178z" />
<glyph unicode="Y" horiz-adv-x="1101" d="M631 0h-158v596l-453 821h179l352 -663l352 663h178l-450 -821v-596z" />
<glyph unicode="Z" horiz-adv-x="1097" d="M88 1278v139h922v-184l-742 -1053v-41h742v-141h-922v182l739 1053v45h-739z" />
<glyph unicode="[" horiz-adv-x="673" d="M592 1534v-137h-275v-1512h275v-137h-430v1786h430z" />
<glyph unicode="\" horiz-adv-x="892" d="M829 29l-137 -58l-631 1418l138 59z" />
<glyph unicode="]" horiz-adv-x="673" d="M82 1397v137h430v-1786h-430v137h274v1512h-274z" />
<glyph unicode="^" d="M862 653l-293 547l-286 -547h-164l379 699h137l391 -699h-164z" />
<glyph unicode="_" horiz-adv-x="1294" d="M209 -188h876v-136h-876v136z" />
<glyph unicode="`" horiz-adv-x="483" d="M51 1516l443 -201l-43 -105l-453 174z" />
<glyph unicode="a" horiz-adv-x="1026" d="M870 715v-525q6 -76 119 -90l-6 -120q-162 0 -244 81q-184 -82 -368 -81q-141 0 -215 79.5t-74 229t75.5 220.5t237.5 87l322 31v88q0 104 -45 149t-123 45q-164 0 -340 -20l-64 -6l-6 116q225 45 399.5 45t253 -79.5t78.5 -249.5zM240 297q0 -188 155 -188q139 0 275 47 l47 16v338l-303 -29q-92 -8 -133 -53t-41 -131z" />
<glyph unicode="b" horiz-adv-x="1077" d="M600 1044q207 0 290 -117.5t83 -412.5t-103.5 -414.5t-380.5 -119.5q-86 0 -284 16l-58 6v1468h152v-497q156 71 301 71zM487 117q201 0 265.5 91t64.5 308t-51 304t-182 87q-119 0 -244 -45l-41 -14v-721q133 -10 188 -10z" />
<glyph unicode="c" horiz-adv-x="892" d="M530 1044q68 0 230 -24l49 -6l-6 -125q-164 18 -242 18q-174 0 -236.5 -83t-62.5 -307t58.5 -312t242.5 -88l242 18l6 -127q-190 -29 -285 -28q-240 0 -331 122.5t-91 414.5t98.5 409.5t327.5 117.5z" />
<glyph unicode="d" horiz-adv-x="1083" d="M934 1470v-1470h-152v70q-158 -90 -311 -90q-82 0 -143.5 20t-114.5 74q-111 111 -111 408.5t99.5 429.5t328.5 132q119 0 252 -26v452h152zM401.5 131q36.5 -14 95 -14t131 19.5t113.5 37.5l41 19v694q-131 25 -243 24q-156 0 -217.5 -99t-61.5 -308q0 -238 72 -320 q33 -39 69.5 -53z" />
<glyph unicode="e" horiz-adv-x="1034" d="M844 127l59 6l4 -121q-233 -33 -399 -32q-221 0 -313.5 128t-92.5 398q0 539 428 538q207 0 309.5 -115.5t102.5 -363.5l-8 -116h-676q0 -170 61.5 -252t214 -82t310.5 12zM788 571q0 188 -60 266t-196.5 78t-205 -81.5t-70.5 -262.5h532z" />
<glyph unicode="f" horiz-adv-x="677" d="M344 891v-891h-154v891h-129v133h129v92q0 217 61.5 296t215.5 79l207 -14l-2 -127q-115 4 -189.5 4t-106.5 -49.5t-32 -190.5v-90h297v-133h-297z" />
<glyph unicode="g" horiz-adv-x="1052" d="M543 -481q-246 0 -343.5 66.5t-97.5 242.5q0 84 37 136t125 118q-57 39 -57 141q0 35 51 129l18 33q-162 74 -161 309q0 350 383 350q98 0 182 -20l31 -6l303 8v-131l-195 4q68 -68 68 -205q0 -193 -95.5 -269.5t-299.5 -76.5q-55 0 -101 8q-37 -90 -37 -116 q0 -63 39 -79t235.5 -16t282.5 -61t86 -240q1 -325 -454 -325zM254 -160q0 -109 60.5 -150.5t223 -41.5t233.5 45t71 150.5t-51.5 136t-200.5 30.5l-221 10q-68 -49 -91.5 -86t-23.5 -94zM322.5 522q54.5 -51 179.5 -51t178 51t53 173t-53 173.5t-178 51.5t-179.5 -52.5 t-54.5 -173.5t54.5 -172z" />
<glyph unicode="h" horiz-adv-x="1099" d="M301 0h-154v1470h154v-503q164 78 315 77q205 0 276 -110.5t71 -392.5v-541h-154v537q0 213 -42 291.5t-177 78.5q-129 0 -250 -47l-39 -14v-846z" />
<glyph unicode="i" horiz-adv-x="448" d="M147 0v1024h154v-1024h-154zM147 1255v179h154v-179h-154z" />
<glyph unicode="j" horiz-adv-x="448" d="M150 27v997h151v-999q0 -188 -67.5 -282.5t-272.5 -199.5l-61 119q160 92 205 157t45 208zM150 1255v179h151v-179h-151z" />
<glyph unicode="k" horiz-adv-x="980" d="M301 0h-154v1470h154v-868l160 8l293 414h174l-334 -471l348 -553h-174l-305 475l-162 -6v-469z" />
<glyph unicode="l" horiz-adv-x="473" d="M160 0v1470h153v-1470h-153z" />
<glyph unicode="m" horiz-adv-x="1712" d="M301 0h-154v1024h152v-72q154 92 299 92q190 0 266 -104q68 41 175.5 72.5t189.5 31.5q205 0 275.5 -109.5t70.5 -393.5v-541h-154v537q0 213 -41 291.5t-174 78.5q-68 0 -139.5 -19.5t-110.5 -37.5l-38 -19q27 -68 26 -299v-532h-153v528q0 221 -40 300t-176 79 q-66 0 -134 -19.5t-105 -37.5l-35 -19v-831z" />
<glyph unicode="n" horiz-adv-x="1099" d="M301 0h-154v1024h152v-72q166 92 317 92q205 0 276 -110.5t71 -392.5v-541h-152v537q0 213 -42 291.5t-179 78.5q-66 0 -138.5 -19.5t-111.5 -37.5l-39 -19v-831z" />
<glyph unicode="o" horiz-adv-x="1081" d="M202.5 919.5q100.5 124.5 339 124.5t338 -124.5t99.5 -405.5t-94 -407.5t-344 -126.5t-344.5 126.5t-94.5 407.5t100.5 405.5zM314.5 203q54.5 -90 227.5 -90t226 89t53 314t-59.5 310t-220 85t-221 -85t-60.5 -309t54.5 -314z" />
<glyph unicode="p" horiz-adv-x="1079" d="M147 -455v1479h152v-74q156 94 307 94q195 0 283 -123.5t88 -408.5t-103.5 -408.5t-343.5 -123.5q-125 0 -229 22v-457h-154zM584 907q-61 0 -132 -20.5t-112 -40.5l-39 -21v-690q145 -23 221 -22q166 0 232.5 94t66.5 307t-60 303t-177 90z" />
<glyph unicode="q" horiz-adv-x="1077" d="M487 -20q-207 0 -296 120.5t-89 409.5t106.5 411.5t377.5 122.5l342 -20v-1479h-152v502q-144 -67 -289 -67zM588 911q-193 0 -261.5 -96t-68.5 -306t56.5 -301t189.5 -91q119 0 235 45l37 14v723q-127 12 -188 12z" />
<glyph unicode="r" horiz-adv-x="708" d="M147 0v1024h152v-139q178 123 375 162v-156q-86 -16 -179.5 -51t-142.5 -62l-51 -26v-752h-154z" />
<glyph unicode="s" horiz-adv-x="952" d="M469 907q-223 0 -223 -155q0 -72 51 -101.5t233.5 -61.5t258 -89.5t75.5 -215t-101 -231t-296 -73.5q-127 0 -299 28l-62 10l9 134q233 -35 352 -35t181.5 38t62.5 127t-53.5 120.5t-233.5 60.5t-256 84t-76 204.5t105.5 221t263.5 71.5q125 0 313 -28l57 -10l-4 -132 q-227 33 -358 33z" />
<glyph unicode="t" horiz-adv-x="718" d="M678 891h-326v-490q0 -176 25.5 -231t122.5 -55l182 12l10 -127q-137 -23 -209 -23q-160 0 -221 78t-61 297v539h-146v133h146v313h151v-313h326v-133z" />
<glyph unicode="u" horiz-adv-x="1087" d="M786 1024h154v-1024h-154v72q-154 -92 -303 -92q-209 0 -277.5 108.5t-68.5 400.5v535h154v-532q0 -223 39 -299t176 -76q68 0 137.5 19.5t106.5 37.5l36 19v831z" />
<glyph unicode="v" horiz-adv-x="985" d="M51 1024h164l240 -891h75l248 891h158l-289 -1024h-307z" />
<glyph unicode="w" horiz-adv-x="1560" d="M63 1024h154l207 -891h33l243 871h160l244 -871h35l204 891h154l-244 -1024h-256l-217 801l-217 -801h-256z" />
<glyph unicode="x" horiz-adv-x="925" d="M45 1024h168l250 -401l250 401h168l-326 -508l324 -516h-168l-248 399l-250 -399h-168l322 512z" />
<glyph unicode="y" horiz-adv-x="989" d="M51 1024h154l256 -891h67l258 891h154l-426 -1479h-154l134 455h-152z" />
<glyph unicode="z" horiz-adv-x="931" d="M86 887v137h760v-137l-574 -750h574v-137h-760v137l573 750h-573z" />
<glyph unicode="{" horiz-adv-x="720" d="M403 1178l15 -252q0 -131 -44 -190.5t-171 -96.5q125 -37 170 -99.5t45 -191.5l-15 -237q0 -115 50.5 -173.5t185.5 -66.5l-4 -133q-207 8 -294 91t-87 267l14 250q0 88 -51 142.5t-168 86.5v125q117 27 168 81.5t51 142.5l-14 262q0 188 87 270t296 90l2 -133 q-135 -8 -185.5 -64t-50.5 -171z" />
<glyph unicode="|" horiz-adv-x="471" d="M160 -455v1925h151v-1925h-151z" />
<glyph unicode="}" horiz-adv-x="720" d="M317 111l-14 237q0 129 45 191.5t170 99.5q-127 37 -171 96.5t-44 190.5l14 252q0 115 -50 171t-185 64l2 133q209 -8 296 -90t87 -270l-14 -262q0 -88 51 -142.5t168 -81.5v-125q-117 -33 -168 -87t-51 -142l14 -250q0 -184 -87 -267t-294 -91l-4 133q135 8 185 66.5 t50 173.5z" />
<glyph unicode="~" d="M776 399q-55 0 -209.5 63.5t-192.5 63.5t-91.5 -23.5t-87.5 -47.5l-35 -25l-23 127q127 109 238 109q59 0 211.5 -62.5t191.5 -62.5q72 0 180 69l35 25l21 -125q-129 -111 -238 -111z" />
<glyph unicode="&#xa1;" horiz-adv-x="466" d="M315 1024v-229h-168v229h168zM303 557l10 -950h-161l10 950h141z" />
<glyph unicode="&#xa2;" d="M569 -166v240q-190 10 -276 106t-86 323.5t89 333t273 115.5v242h133v-248q80 0 175 -18l32 -6l-6 -123q-162 14 -264 14q-152 0 -212 -68.5t-60 -236.5t60 -232.5t224 -64.5l254 14l6 -125q-123 -18 -209 -22v-244h-133z" />
<glyph unicode="&#xa3;" d="M911 1212q-164 23 -259 23t-130 -57.5t-35 -221.5v-102h351v-133h-351v-586h316l158 33l26 -131l-168 -37h-655v135h174v586h-137v133h137v113q0 240 68.5 322.5t234.5 82.5q106 0 227 -24l45 -11z" />
<glyph unicode="&#xa4;" d="M776 207q-94 -61 -204.5 -61.5t-200.5 61.5l-144 -146l-108 109l143 143q-59 92 -59 201t59 205l-143 143l108 109l144 -146q90 61 200.5 61.5t204.5 -61.5l144 146l108 -109l-145 -143q61 -94 61 -205t-61 -201l145 -143l-108 -109zM573.5 281q96.5 0 166 69.5 t69.5 165.5t-69.5 166t-166 70t-166 -70t-69.5 -166t69.5 -165.5t166 -69.5z" />
<glyph unicode="&#xa5;" d="M117 645v133h286l-356 574h176l352 -553l349 553h176l-350 -574h278v-133h-356l-17 -39v-139h375v-133h-375v-334h-157v334h-379v133h379v139l-17 39h-364z" />
<glyph unicode="&#xa6;" horiz-adv-x="479" d="M164 1470h151v-765h-151v765zM164 319h151v-774h-151v774z" />
<glyph unicode="&#xa7;" horiz-adv-x="1021" d="M856 1169q-223 31 -338 31t-174 -45t-59 -143.5t62.5 -136t236.5 -70.5t248.5 -92.5t74.5 -199.5t-90 -271q76 -66 76 -205q0 -344 -391 -344q-131 0 -297 24l-62 11l15 129q223 -31 336 -31q252 0 251 203q0 92 -59 123.5t-239.5 65.5t-260.5 97.5t-80 206.5 q0 80 43.5 156t75.5 102q-90 66 -90 228q0 326 393 325q104 0 283 -26l53 -9zM328 725q-68 -113 -68 -191.5t51 -117.5t189.5 -64.5t199.5 -52.5q10 14 31 74.5t21 134.5t-52.5 110.5t-184.5 60t-187 46.5z" />
<glyph unicode="&#xa8;" horiz-adv-x="483" d="M-25 1272v184h148v-184h-148zM385 1272v184h150v-184h-150z" />
<glyph unicode="&#xa9;" horiz-adv-x="1320" d="M275.5 491.5q-154.5 161.5 -154.5 398t153.5 397.5t387 161t386 -163t152.5 -398.5t-151.5 -396t-385 -160.5t-388 161.5zM211 888.5q0 -196.5 128 -332.5t320.5 -136t321.5 136t129 332.5t-129 334t-320.5 137.5t-320.5 -137.5t-129 -334zM668 565q-133 0 -186.5 77 t-53.5 246t54.5 245.5t187.5 76.5q76 0 137 -14l20 -6l-8 -109q-78 12 -148.5 12.5t-94 -46t-23.5 -156t25.5 -159.5t97.5 -50l143 14l8 -106q-75 -25 -159 -25z" />
<glyph unicode="&#xaa;" horiz-adv-x="790" d="M618 1147v-281q18 -23 62 -35l-4 -100q-78 0 -111 12.5t-59 40.5q-113 -53 -207 -53t-141 51.5t-47 137.5q0 164 196 176l180 12v45q0 45 -24.5 63.5t-75.5 18.5l-235 -14l-5 98q141 31 252 31t165 -45t54 -158zM246 922q0 -80 73 -80q59 0 144 26l24 9v137l-157 -10 q-45 -4 -64.5 -22.5t-19.5 -59.5z" />
<glyph unicode="&#xab;" horiz-adv-x="1103" d="M479 705l-254 -193l254 -215v-160l-387 309v123l387 293v-157zM967 705l-256 -193l256 -215v-160l-389 309v123l389 293v-157z" />
<glyph unicode="&#xac;" d="M133 700h877v-460h-144v321h-733v139z" />
<glyph unicode="&#xad;" horiz-adv-x="897" d="M139 492v143h621v-143h-621z" />
<glyph unicode="&#xae;" horiz-adv-x="1320" d="M275.5 491.5q-154.5 161.5 -154.5 398t153.5 397.5t387 161t386 -162t152.5 -398.5t-151.5 -397t-385 -160.5t-388 161.5zM340 1222.5q-129 -137.5 -129 -333t129 -332.5t320.5 -137t320.5 136t129 332.5t-129 334t-320.5 137.5t-320.5 -137.5zM555 797v-219h-119v620 h226q117 0 175 -45t58 -135t-23.5 -134t-80.5 -71l112 -235h-125l-102 219h-121zM553 1102v-209h121q55 0 79.5 24.5t24.5 79.5q0 104 -127 105h-98z" />
<glyph unicode="&#xaf;" horiz-adv-x="483" d="M-29 1278v121h564v-121h-564z" />
<glyph unicode="&#xb0;" d="M283 1149q0 129 80.5 209t209.5 80t210 -80t81 -209t-81 -209t-210 -80t-209.5 80t-80.5 209zM438 1286q-51 -53 -51 -138t51 -137.5t135 -52.5t137.5 52.5t53.5 137.5t-53.5 138t-137.5 53t-135 -53z" />
<glyph unicode="&#xb1;" d="M113 600v139h387v258h143v-258h391v-139h-391v-260h-143v260h-387zM113 217h921v-139h-921v139z" />
<glyph unicode="&#xb2;" horiz-adv-x="573" d="M489 979h-428v113l181 178q104 100 104 170q0 76 -100 76l-174 -19l-4 117q121 25 219 24q195 0 194 -186q0 -68 -28.5 -118t-96.5 -111l-129 -125h262v-119z" />
<glyph unicode="&#xb3;" horiz-adv-x="573" d="M279 1638q215 0 215 -172q0 -104 -80 -149q49 -16 72.5 -50t23.5 -110q0 -199 -217 -199q-88 0 -195 17l-37 4l9 115q117 -16 212 -16.5t95 86.5t-96 87h-134v109h134q29 0 53 26.5t24 63.5q0 70 -92 70l-188 -15l-8 113q121 20 209 20z" />
<glyph unicode="&#xb4;" horiz-adv-x="548" d="M53 1315l443 201l53 -132l-453 -174z" />
<glyph unicode="&#xb5;" d="M821 1024h154v-1024h-154v72q-154 -92 -288 -92t-207 34v-469h-154v1479h154v-532q0 -223 38.5 -299t176.5 -76q68 0 137.5 19.5t105.5 37.5l37 19v831z" />
<glyph unicode="&#xb6;" horiz-adv-x="1214" d="M842 0v1284h-238v-1284h-137v664h-14q-166 0 -273.5 104t-107.5 270t108.5 272.5t274.5 106.5h673v-133h-147v-1284h-139z" />
<glyph unicode="&#xb7;" horiz-adv-x="444" d="M139 469v233h168v-233h-168z" />
<glyph unicode="&#xb8;" horiz-adv-x="538" d="M453 -260q0 -184 -191 -184q-94 0 -151 10l-25 4l6 98q80 -6 135 -6q90 0 90 78q0 70 -90 70h-86v192h84v-102q121 0 174.5 -33t53.5 -127z" />
<glyph unicode="&#xb9;" horiz-adv-x="573" d="M395 1618v-639h-131v496l-139 -97l-59 97l206 143h123z" />
<glyph unicode="&#xba;" horiz-adv-x="778" d="M179.5 1276q70.5 74 210.5 74t209 -74t69 -232q0 -313 -277 -313q-283 0 -282 313q0 158 70.5 232zM281.5 900q31.5 -44 108.5 -44t106.5 44t29.5 144.5t-29.5 140.5t-106.5 40t-108.5 -41t-31.5 -140.5t31.5 -143.5z" />
<glyph unicode="&#xbb;" horiz-adv-x="1103" d="M879 512l-256 193v157l389 -293v-123l-389 -309v160zM393 512l-256 193v157l387 -293v-123l-387 -309v160z" />
<glyph unicode="&#xbc;" horiz-adv-x="1093" d="M406 1618v-639h-132v496l-139 -97l-59 97l207 143h123zM72 57l802 1295l82 -54l-804 -1292zM844 -205v99h-289v110l141 430h144l-150 -422h154l10 183h119v-183h55v-118h-55v-99h-129z" />
<glyph unicode="&#xbd;" horiz-adv-x="1083" d="M414 1618v-639h-131v496l-140 -97l-59 97l207 143h123zM68 57l802 1295l82 -54l-805 -1292zM995 -205h-428v113l181 178q104 100 104 170q0 76 -100 76l-174 -19l-5 117q121 25 218 25q197 0 196 -187q0 -68 -28.5 -118t-96.5 -111l-129 -125h262v-119z" />
<glyph unicode="&#xbe;" horiz-adv-x="1126" d="M317 1638q215 0 215 -172q0 -104 -79 -149q49 -16 72.5 -50t23.5 -110q0 -199 -217 -199q-88 0 -197 17l-35 4l9 115q117 -16 212 -16.5t95 86.5t-97 87h-133v109h133q29 0 53.5 26.5t24.5 63.5q0 70 -92 70l-188 -15l-8 113q120 20 208 20zM106 57l803 1295l82 -54 l-805 -1292zM879 -205v99h-289v110l141 430h143l-149 -422h154l10 183h119v-183h55v-118h-55v-99h-129z" />
<glyph unicode="&#xbf;" horiz-adv-x="903" d="M78 -84q0 133 36 201.5t145.5 160t150.5 145.5t41 120v71h129q27 -55 26.5 -124.5t-47.5 -130t-151.5 -150.5t-139.5 -143.5t-35 -148.5t66 -142t207 -47q109 0 264 34l53 13l11 -125q-207 -61 -342 -62q-211 0 -312.5 77t-101.5 251zM602 1024v-229h-168v229h168z" />
<glyph unicode="&#xc0;" horiz-adv-x="1220" d="M49 0l389 1417h344l389 -1417h-155l-103 365h-606l-102 -365h-156zM557 1282l-215 -776h537l-215 776h-107zM387 1907l442 -205l-47 -109l-448 179z" />
<glyph unicode="&#xc1;" horiz-adv-x="1220" d="M49 0l389 1417h344l389 -1417h-155l-103 365h-606l-102 -365h-156zM557 1282l-215 -776h537l-215 776h-107zM381 1702l442 205l54 -135l-449 -179z" />
<glyph unicode="&#xc2;" horiz-adv-x="1220" d="M49 0l389 1417h344l389 -1417h-155l-103 365h-606l-102 -365h-156zM557 1282l-215 -776h537l-215 776h-107zM266 1620l275 276h133l274 -276h-172l-168 164l-170 -164h-172z" />
<glyph unicode="&#xc3;" horiz-adv-x="1220" d="M49 0l389 1417h344l389 -1417h-155l-103 365h-606l-102 -365h-156zM557 1282l-215 -776h537l-215 776h-107zM766 1645q-43 0 -170 55t-154 55q-45 0 -125 -74l-26 -24l-35 115q39 45 92 81.5t100.5 36.5t172 -55t145.5 -55q41 0 119 71l24 23l37 -115q-96 -114 -180 -114 z" />
<glyph unicode="&#xc4;" horiz-adv-x="1220" d="M49 0l389 1417h344l389 -1417h-155l-103 365h-606l-102 -365h-156zM557 1282l-215 -776h537l-215 776h-107zM326 1655v184h149v-184h-149zM743 1655v184h148v-184h-148z" />
<glyph unicode="&#xc5;" horiz-adv-x="1220" d="M782.5 1681.5q67.5 -57.5 67.5 -151.5t-57 -156l378 -1374h-155l-103 365h-606l-102 -365h-156l377 1370q-61 57 -61 155.5t68.5 156t175 57.5t174 -57.5zM557 1282l-215 -776h537l-215 776h-107zM481 1524q0 -90 88 -107h76q90 16 90 107q0 51 -33.5 79.5t-93.5 28.5 q-127 1 -127 -108z" />
<glyph unicode="&#xc6;" horiz-adv-x="1794" d="M836 0v358h-514l-119 -358h-162l459 1425h1198v-149h-707v-471h584v-150h-584v-505h707v-150h-862zM614 1276l-249 -766h471l2 766h-224z" />
<glyph unicode="&#xc7;" horiz-adv-x="1114" d="M887 -260q0 -184 -191 -184q-94 0 -151 10l-25 4l6 98q80 -6 136 -6q90 0 90 78q0 70 -90 70h-87v172q-264 18 -359 191t-95 532q0 190 21.5 318t77.5 226.5t158.5 143.5t266.5 45t385 -45l-6 -133q-207 37 -369 36q-225 0 -297.5 -134t-72.5 -457q0 -162 13 -260.5 t52 -177.5t114 -112.5t219 -33.5t341 37l6 -135q-188 -41 -371 -43v-80q121 0 174.5 -33t53.5 -127z" />
<glyph unicode="&#xc8;" horiz-adv-x="1132" d="M174 0v1417h862v-139h-704v-490h581v-137h-581v-512h704v-139h-862zM399 1907l443 -205l-47 -109l-449 179z" />
<glyph unicode="&#xc9;" horiz-adv-x="1132" d="M174 0v1417h862v-139h-704v-490h581v-137h-581v-512h704v-139h-862zM360 1702l443 205l53 -135l-448 -179z" />
<glyph unicode="&#xca;" horiz-adv-x="1132" d="M174 0v1417h862v-139h-704v-490h581v-137h-581v-512h704v-139h-862zM260 1620l275 276h133l274 -276h-172l-168 164l-170 -164h-172z" />
<glyph unicode="&#xcb;" horiz-adv-x="1132" d="M174 0v1417h862v-139h-704v-490h581v-137h-581v-512h704v-139h-862zM322 1655v184h149v-184h-149zM739 1655v184h148v-184h-148z" />
<glyph unicode="&#xcc;" horiz-adv-x="503" d="M174 0v1417h158v-1417h-158zM12 1907l443 -205l-47 -109l-449 179z" />
<glyph unicode="&#xcd;" horiz-adv-x="503" d="M174 0v1417h158v-1417h-158zM27 1702l442 205l53 -135l-448 -179z" />
<glyph unicode="&#xce;" horiz-adv-x="503" d="M174 0v1417h158v-1417h-158zM-96 1620l274 276h133l275 -276h-172l-168 164l-170 -164h-172z" />
<glyph unicode="&#xcf;" horiz-adv-x="503" d="M174 0v1417h158v-1417h-158zM-31 1655v184h150v-184h-150zM387 1655v184h148v-184h-148z" />
<glyph unicode="&#xd0;" horiz-adv-x="1325" d="M41 637v149h139v639h506q289 0 406.5 -180t117.5 -510q0 -537 -268 -678q-104 -57 -256 -57h-506v637h-139zM1047 735q0 397 -183 500q-72 41 -178 41h-350v-490h323v-149h-323v-487h350q361 -1 361 585z" />
<glyph unicode="&#xd1;" horiz-adv-x="1384" d="M174 0v1417h295l543 -1278h43v1278h155v-1417h-288l-551 1278h-39v-1278h-158zM852 1645q-43 0 -170 55t-154 55q-45 0 -125 -74l-26 -24l-35 115q39 45 92 81.5t100.5 36.5t172 -55t145.5 -55q41 0 119 71l24 23l37 -115q-96 -114 -180 -114z" />
<glyph unicode="&#xd2;" horiz-adv-x="1351" d="M360.5 255q81.5 -136 316 -136t315.5 133t81 446.5t-84 456.5t-314.5 143t-313 -142t-82.5 -453.5t81.5 -447.5zM1116 149.5q-121 -169.5 -439.5 -169.5t-439 174t-120.5 547.5t122.5 555t436 181.5t437.5 -180.5t124 -559.5t-121 -548.5zM465 1907l442 -205l-47 -109 l-448 179z" />
<glyph unicode="&#xd3;" horiz-adv-x="1351" d="M360.5 255q81.5 -136 316 -136t315.5 133t81 446.5t-84 456.5t-314.5 143t-313 -142t-82.5 -453.5t81.5 -447.5zM1116 149.5q-121 -169.5 -439.5 -169.5t-439 174t-120.5 547.5t122.5 555t436 181.5t437.5 -180.5t124 -559.5t-121 -548.5zM406 1702l442 205l53 -135 l-448 -179z" />
<glyph unicode="&#xd4;" horiz-adv-x="1351" d="M360.5 255q81.5 -136 316 -136t315.5 133t81 446.5t-84 456.5t-314.5 143t-313 -142t-82.5 -453.5t81.5 -447.5zM1116 149.5q-121 -169.5 -439.5 -169.5t-439 174t-120.5 547.5t122.5 555t436 181.5t437.5 -180.5t124 -559.5t-121 -548.5zM336 1620l274 276h133l275 -276 h-172l-168 164l-170 -164h-172z" />
<glyph unicode="&#xd5;" horiz-adv-x="1351" d="M360.5 255q81.5 -136 316 -136t315.5 133t81 446.5t-84 456.5t-314.5 143t-313 -142t-82.5 -453.5t81.5 -447.5zM1116 149.5q-121 -169.5 -439.5 -169.5t-439 174t-120.5 547.5t122.5 555t436 181.5t437.5 -180.5t124 -559.5t-121 -548.5zM836 1645q-43 0 -170 55 t-154 55q-45 0 -125 -74l-27 -24l-34 115q39 45 92 81.5t100 36.5t172 -55t146 -55q41 0 118 71l25 23l37 -115q-96 -114 -180 -114z" />
<glyph unicode="&#xd6;" horiz-adv-x="1351" d="M360.5 255q81.5 -136 316 -136t315.5 133t81 446.5t-84 456.5t-314.5 143t-313 -142t-82.5 -453.5t81.5 -447.5zM1116 149.5q-121 -169.5 -439.5 -169.5t-439 174t-120.5 547.5t122.5 555t436 181.5t437.5 -180.5t124 -559.5t-121 -548.5zM393 1655v184h150v-184h-150z M811 1655v184h147v-184h-147z" />
<glyph unicode="&#xd7;" d="M246 940l327 -332l330 334l98 -98l-333 -330l333 -330l-98 -98l-330 332l-329 -332l-99 98l332 330l-332 328z" />
<glyph unicode="&#xd8;" horiz-adv-x="1351" d="M676 -20q-141 0 -246 34l-117 -252l-116 54l120 258q-109 82 -154.5 235.5t-45.5 392.5q0 373 122.5 554.5t436.5 181.5q154 0 258 -43l115 241l118 -49l-120 -260q190 -160 190 -625q0 -383 -121 -552.5t-440 -169.5zM361.5 1156q-82.5 -142 -82.5 -479t106 -456 l487 1039q-78 39 -196 38q-232 0 -314.5 -142zM676 119q236 0 316.5 133t80.5 462.5t-98 461.5l-481 -1029q69 -28 182 -28z" />
<glyph unicode="&#xd9;" horiz-adv-x="1318" d="M322 426q0 -307 331 -307q172 0 259 72.5t87 234.5v991h156v-987q0 -238 -126 -344t-371.5 -106t-369.5 106.5t-124 343.5v987h158v-991zM455 1907l442 -205l-47 -109l-449 179z" />
<glyph unicode="&#xda;" horiz-adv-x="1318" d="M322 426q0 -307 331 -307q172 0 259 72.5t87 234.5v991h156v-987q0 -238 -126 -344t-371.5 -106t-369.5 106.5t-124 343.5v987h158v-991zM408 1702l442 205l53 -135l-448 -179z" />
<glyph unicode="&#xdb;" horiz-adv-x="1318" d="M322 426q0 -307 331 -307q172 0 259 72.5t87 234.5v991h156v-987q0 -238 -126 -344t-371.5 -106t-369.5 106.5t-124 343.5v987h158v-991zM317 1620l275 276h133l274 -276h-172l-168 164l-170 -164h-172z" />
<glyph unicode="&#xdc;" horiz-adv-x="1318" d="M322 426q0 -307 331 -307q172 0 259 72.5t87 234.5v991h156v-987q0 -238 -126 -344t-371.5 -106t-369.5 106.5t-124 343.5v987h158v-991zM377 1655v184h149v-184h-149zM795 1655v184h147v-184h-147z" />
<glyph unicode="&#xdd;" horiz-adv-x="1101" d="M631 0h-158v596l-453 821h179l352 -663l352 663h178l-450 -821v-596zM342 1702l442 205l54 -135l-449 -179z" />
<glyph unicode="&#xde;" horiz-adv-x="1226" d="M690 399q295 0 295 340q0 160 -70.5 232.5t-224.5 72.5h-358v-645h358zM692 248h-360v-248h-158v1425h158v-229h360q231 0 343 -112.5t112 -347t-114 -361.5t-341 -127z" />
<glyph unicode="&#xdf;" horiz-adv-x="1175" d="M301 0h-154v1116q0 207 93.5 291t306.5 84t306 -69.5t93 -225.5q0 -109 -39 -167t-120.5 -94t-105.5 -54.5t-24 -50t34 -58.5t167 -92.5t189.5 -131t56.5 -186.5q0 -209 -93 -295.5t-319 -86.5q-102 0 -225 22l-43 8l6 129q174 -23 250 -22q147 0 205.5 54t58.5 153.5 t-43 144.5t-176 108.5t-180 112.5t-47 126t37.5 119t117.5 77t106.5 72.5t26.5 116.5t-52 116t-188 37t-190.5 -53.5t-54.5 -202.5v-1098z" />
<glyph unicode="&#xe0;" horiz-adv-x="1026" d="M870 715v-525q6 -76 119 -90l-6 -120q-162 0 -244 81q-184 -82 -368 -81q-141 0 -215 79.5t-74 229t75.5 220.5t237.5 87l322 31v88q0 104 -45 149t-123 45q-164 0 -340 -20l-64 -6l-6 116q225 45 399.5 45t253 -79.5t78.5 -249.5zM240 297q0 -188 155 -188q139 0 275 47 l47 16v338l-303 -29q-92 -8 -133 -53t-41 -131zM301 1516l442 -201l-43 -105l-452 174z" />
<glyph unicode="&#xe1;" horiz-adv-x="1026" d="M870 715v-525q6 -76 119 -90l-6 -120q-162 0 -244 81q-184 -82 -368 -81q-141 0 -215 79.5t-74 229t75.5 220.5t237.5 87l322 31v88q0 104 -45 149t-123 45q-164 0 -340 -20l-64 -6l-6 116q225 45 399.5 45t253 -79.5t78.5 -249.5zM240 297q0 -188 155 -188q139 0 275 47 l47 16v338l-303 -29q-92 -8 -133 -53t-41 -131zM242 1315l442 201l53 -132l-452 -174z" />
<glyph unicode="&#xe2;" horiz-adv-x="1026" d="M870 715v-525q6 -76 119 -90l-6 -120q-162 0 -244 81q-184 -82 -368 -81q-141 0 -215 79.5t-74 229t75.5 220.5t237.5 87l322 31v88q0 104 -45 149t-123 45q-164 0 -340 -20l-64 -6l-6 116q225 45 399.5 45t253 -79.5t78.5 -249.5zM240 297q0 -188 155 -188q139 0 275 47 l47 16v338l-303 -29q-92 -8 -133 -53t-41 -131zM195 1212l251 287h105l254 -287h-154l-149 179l-154 -179h-153z" />
<glyph unicode="&#xe3;" horiz-adv-x="1026" d="M870 715v-525q6 -76 119 -90l-6 -120q-162 0 -244 81q-184 -82 -368 -81q-141 0 -215 79.5t-74 229t75.5 220.5t237.5 87l322 31v88q0 104 -45 149t-123 45q-164 0 -340 -20l-64 -6l-6 116q225 45 399.5 45t253 -79.5t78.5 -249.5zM240 297q0 -188 155 -188q139 0 275 47 l47 16v338l-303 -29q-92 -8 -133 -53t-41 -131zM629 1253q-43 0 -148.5 48.5t-132.5 48.5q-47 0 -127 -62l-26 -20l-37 98q102 106 186 107q43 0 149.5 -47.5t129.5 -47.5q45 0 122 60l25 18l35 -98q-94 -105 -176 -105z" />
<glyph unicode="&#xe4;" horiz-adv-x="1026" d="M870 715v-525q6 -76 119 -90l-6 -120q-162 0 -244 81q-184 -82 -368 -81q-141 0 -215 79.5t-74 229t75.5 220.5t237.5 87l322 31v88q0 104 -45 149t-123 45q-164 0 -340 -20l-64 -6l-6 116q225 45 399.5 45t253 -79.5t78.5 -249.5zM240 297q0 -188 155 -188q139 0 275 47 l47 16v338l-303 -29q-92 -8 -133 -53t-41 -131zM215 1272v184h147v-184h-147zM625 1272v184h149v-184h-149z" />
<glyph unicode="&#xe5;" horiz-adv-x="1026" d="M870 715v-525q6 -76 119 -90l-6 -120q-162 0 -244 81q-184 -82 -368 -81q-141 0 -215 79.5t-74 229t75.5 220.5t237.5 87l322 31v88q0 104 -45 149t-123 45q-164 0 -340 -20l-64 -6l-6 116q225 45 399.5 45t253 -79.5t78.5 -249.5zM240 297q0 -188 155 -188q139 0 275 47 l47 16v338l-303 -29q-92 -8 -133 -53t-41 -131zM309 1321q0 90 61.5 151.5t150.5 61.5t150.5 -61.5t61.5 -151.5t-60.5 -151.5t-150.5 -61.5t-151.5 61.5t-61.5 151.5zM442.5 1402q-32.5 -34 -32.5 -82t32.5 -82t79.5 -34t80 34t33 82t-33 82t-80 34t-79.5 -34z" />
<glyph unicode="&#xe6;" horiz-adv-x="1646" d="M1454 133l59 4l5 -125q-231 -33 -415.5 -32.5t-283.5 110.5l-65 -29q-178 -82 -394 -81q-137 0 -207.5 80.5t-70.5 238.5t84 220.5t287 82.5l264 25v84q0 186 -178 186q-135 0 -326 -16l-63 -4l-7 137q244 31 404 30q209 0 276 -149q98 150 312.5 149.5t316.5 -116 t102 -363.5l-8 -119h-676q0 -168 61.5 -247.5t187.5 -79.5t335 14zM385 113q94 0 215 29.5t152 45.5q-39 104 -39 314l-299 -25q-90 -8 -132 -51t-42 -129q0 -184 145 -184zM870 571h531q0 182 -60.5 259t-196.5 77t-205 -80t-69 -256z" />
<glyph unicode="&#xe7;" horiz-adv-x="892" d="M737 -260q0 -184 -190 -184q-94 0 -154 10l-22 4l6 98q80 -6 135 -6q90 0 90 78q0 70 -90 70h-86v176q-180 20 -251 145t-71 401.5t98.5 394t327.5 117.5q68 0 230 -24l49 -6l-6 -125q-164 18 -242 18q-174 0 -236.5 -83t-62.5 -307t58.5 -312t242.5 -88l242 18l6 -127 q-190 -29 -285 -28h-16v-80q121 0 174 -33t53 -127z" />
<glyph unicode="&#xe8;" horiz-adv-x="1034" d="M844 127l59 6l4 -121q-233 -33 -399 -32q-221 0 -313.5 128t-92.5 398q0 539 428 538q207 0 309.5 -115.5t102.5 -363.5l-8 -116h-676q0 -170 61.5 -252t214 -82t310.5 12zM788 571q0 188 -60 266t-196.5 78t-205 -81.5t-70.5 -262.5h532zM301 1518l442 -201l-43 -105 l-452 174z" />
<glyph unicode="&#xe9;" horiz-adv-x="1034" d="M844 127l59 6l4 -121q-233 -33 -399 -32q-221 0 -313.5 128t-92.5 398q0 539 428 538q207 0 309.5 -115.5t102.5 -363.5l-8 -116h-676q0 -170 61.5 -252t214 -82t310.5 12zM788 571q0 188 -60 266t-196.5 78t-205 -81.5t-70.5 -262.5h532zM297 1315l442 201l54 -132 l-453 -174z" />
<glyph unicode="&#xea;" horiz-adv-x="1034" d="M844 127l59 6l4 -121q-233 -33 -399 -32q-221 0 -313.5 128t-92.5 398q0 539 428 538q207 0 309.5 -115.5t102.5 -363.5l-8 -116h-676q0 -170 61.5 -252t214 -82t310.5 12zM788 571q0 188 -60 266t-196.5 78t-205 -81.5t-70.5 -262.5h532zM229 1212l252 287h105l254 -287 h-154l-149 179l-154 -179h-154z" />
<glyph unicode="&#xeb;" horiz-adv-x="1034" d="M844 127l59 6l4 -121q-233 -33 -399 -32q-221 0 -313.5 128t-92.5 398q0 539 428 538q207 0 309.5 -115.5t102.5 -363.5l-8 -116h-676q0 -170 61.5 -252t214 -82t310.5 12zM788 571q0 188 -60 266t-196.5 78t-205 -81.5t-70.5 -262.5h532zM246 1272v184h147v-184h-147z M655 1272v184h150v-184h-150z" />
<glyph unicode="&#xec;" horiz-adv-x="448" d="M147 0v1024h154v-1024h-154zM-70 1516l443 -201l-43 -105l-453 174z" />
<glyph unicode="&#xed;" horiz-adv-x="448" d="M78 1315l442 201l53 -132l-452 -174zM147 1024h154v-1024h-154v1024z" />
<glyph unicode="&#xee;" horiz-adv-x="448" d="M147 1024h154v-1024h-154v1024zM-86 1212l252 287h104l254 -287h-153l-150 179l-153 -179h-154z" />
<glyph unicode="&#xef;" horiz-adv-x="448" d="M147 1024h154v-1024h-154v1024zM-63 1272v184h147v-184h-147zM346 1272v184h150v-184h-150z" />
<glyph unicode="&#xf0;" horiz-adv-x="1122" d="M700 1317q315 -201 315.5 -597t-110 -567t-362.5 -171q-219 0 -338 117.5t-119 329.5t112.5 332t317.5 120q133 0 287 -56l51 -18q-14 266 -281 424l-249 -166l-68 96l195 131q-111 47 -254 84l30 115q205 -41 355 -111l206 140l70 -97zM856 670q-184 74 -323.5 73.5 t-212 -85.5t-72.5 -228t74.5 -226t231.5 -83t228.5 121t73.5 428z" />
<glyph unicode="&#xf1;" horiz-adv-x="1099" d="M147 0v1024h152v-72l45 23q47 25 126 47t146 22q205 0 276 -110.5t71 -392.5v-541h-152v537q0 213 -42 291.5t-184.5 78.5t-283.5 -76v-831h-154zM715 1253q-43 0 -148.5 48.5t-132.5 48.5q-47 0 -127 -62l-26 -20l-37 98q102 106 186 107q43 0 149.5 -47.5t129.5 -47.5 q45 0 122 60l25 18l35 -98q-94 -105 -176 -105z" />
<glyph unicode="&#xf2;" horiz-adv-x="1081" d="M202.5 919.5q100.5 124.5 339 124.5t338 -124.5t99.5 -405.5t-94 -407.5t-344 -126.5t-344.5 126.5t-94.5 407.5t100.5 405.5zM314.5 203q54.5 -90 227.5 -90t226 89t53 314t-59.5 310t-220 85t-221 -85t-60.5 -309t54.5 -314zM342 1516l442 -201l-43 -105l-452 174z" />
<glyph unicode="&#xf3;" horiz-adv-x="1081" d="M879.5 919.5q99.5 -124.5 99.5 -405.5t-94 -407.5t-344 -126.5t-344.5 126.5t-94.5 407.5t100.5 405.5t339 124.5t338 -124.5zM768 202q53 89 53 314t-59.5 310t-220 85t-221 -85t-60.5 -309t54.5 -314t227.5 -90t226 89zM315 1315l443 201l53 -132l-453 -174z" />
<glyph unicode="&#xf4;" horiz-adv-x="1081" d="M879.5 919.5q99.5 -124.5 99.5 -405.5t-94 -407.5t-344 -126.5t-344.5 126.5t-94.5 407.5t100.5 405.5t339 124.5t338 -124.5zM768 202q53 89 53 314t-59.5 310t-220 85t-221 -85t-60.5 -309t54.5 -314t227.5 -90t226 89zM231 1212l252 287h105l254 -287h-154l-149 179 l-154 -179h-154z" />
<glyph unicode="&#xf5;" horiz-adv-x="1081" d="M879.5 919.5q99.5 -124.5 99.5 -405.5t-94 -407.5t-344 -126.5t-344.5 126.5t-94.5 407.5t100.5 405.5t339 124.5t338 -124.5zM768 202q53 89 53 314t-59.5 310t-220 85t-221 -85t-60.5 -309t54.5 -314t227.5 -90t226 89zM686 1253q-43 0 -148.5 48.5t-131.5 48.5 q-47 0 -127 -62l-27 -20l-37 98q102 106 186 107q43 0 149.5 -47.5t129.5 -47.5q45 0 123 60l24 18l35 -98q-94 -105 -176 -105z" />
<glyph unicode="&#xf6;" horiz-adv-x="1081" d="M879.5 919.5q99.5 -124.5 99.5 -405.5t-94 -407.5t-344 -126.5t-344.5 126.5t-94.5 407.5t100.5 405.5t339 124.5t338 -124.5zM768 202q53 89 53 314t-59.5 310t-220 85t-221 -85t-60.5 -309t54.5 -314t227.5 -90t226 89zM256 1272v184h147v-184h-147zM666 1272v184h149 v-184h-149z" />
<glyph unicode="&#xf7;" d="M246 575v150h116v98h422v-98h115v-150h-653zM496 61v207h153v-207h-153z" />
<glyph unicode="&#xf8;" horiz-adv-x="1081" d="M541 1044q80 0 151 -16l88 213l103 -39l-88 -213q184 -102 184 -465q0 -291 -94 -417.5t-344 -126.5q-84 0 -156 16l-88 -225l-102 36l90 224q-100 55 -141.5 174t-41.5 319q0 270 100.5 395t338.5 125zM541 911q-160 0 -220.5 -85t-60.5 -268t17.5 -267t68.5 -127 l297 735q-43 12 -102 12zM541 113q174 0 227 89t53 331.5t-86 320.5l-299 -731q37 -10 105 -10z" />
<glyph unicode="&#xf9;" horiz-adv-x="1087" d="M786 1024h154v-1024h-154v72q-154 -92 -303 -92q-209 0 -277.5 108.5t-68.5 400.5v535h154v-532q0 -223 39 -299t176 -76q68 0 137.5 19.5t106.5 37.5l36 19v831zM287 1516l442 -201l-43 -105l-453 174z" />
<glyph unicode="&#xfa;" horiz-adv-x="1087" d="M940 1024v-1024h-154v72l-43 -23q-43 -25 -118.5 -47t-141.5 -22q-209 0 -277.5 108.5t-68.5 400.5v535h154v-532q0 -223 39 -299t183 -76t273 76v831h154zM317 1315l443 201l53 -132l-453 -174z" />
<glyph unicode="&#xfb;" horiz-adv-x="1087" d="M940 1024v-1024h-154v72l-43 -23q-43 -25 -118.5 -47t-141.5 -22q-209 0 -277.5 108.5t-68.5 400.5v535h154v-532q0 -223 39 -299t183 -76t273 76v831h154zM215 1212l252 287h104l254 -287h-153l-150 179l-153 -179h-154z" />
<glyph unicode="&#xfc;" horiz-adv-x="1087" d="M940 1024v-1024h-154v72l-43 -23q-43 -25 -118.5 -47t-141.5 -22q-209 0 -277.5 108.5t-68.5 400.5v535h154v-532q0 -223 39 -299t183 -76t273 76v831h154zM270 1272v184h148v-184h-148zM680 1272v184h149v-184h-149z" />
<glyph unicode="&#xfd;" horiz-adv-x="989" d="M51 1024h154l256 -891h67l258 891h154l-426 -1479h-154l134 455h-152zM315 1315l443 201l53 -132l-453 -174z" />
<glyph unicode="&#xfe;" horiz-adv-x="1079" d="M500 113q193 0 255 93t62 309t-50 304t-181 88q-119 0 -246 -45l-39 -14v-723q133 -12 199 -12zM600 1044q207 0 291 -117.5t84 -410.5t-101.5 -414.5t-365.5 -121.5l-207 14v-449h-154v1925h154v-497q154 71 299 71z" />
<glyph unicode="&#xff;" horiz-adv-x="989" d="M51 1024h154l256 -891h67l258 891h154l-426 -1479h-154l134 455h-152zM213 1272v184h147v-184h-147zM623 1272v184h149v-184h-149z" />
<glyph unicode="&#x100;" horiz-adv-x="1220" d="M49 0l389 1417h344l389 -1417h-155l-103 365h-606l-102 -365h-156zM557 1282l-215 -776h537l-215 776h-107zM289 1663v119h637v-119h-637z" />
<glyph unicode="&#x101;" horiz-adv-x="1026" d="M870 715v-525q6 -76 119 -90l-6 -120q-162 0 -244 81q-184 -82 -368 -81q-141 0 -215 79.5t-74 229t75.5 220.5t237.5 87l322 31v88q0 104 -45 149t-123 45q-164 0 -340 -20l-64 -6l-6 116q225 45 399.5 45t253 -79.5t78.5 -249.5zM240 297q0 -188 155 -188q139 0 275 47 l47 16v338l-303 -29q-92 -8 -133 -53t-41 -131zM229 1278v121h564v-121h-564z" />
<glyph unicode="&#x102;" horiz-adv-x="1220" d="M49 0l389 1417h344l389 -1417h-155l-103 365h-606l-102 -365h-156zM557 1282l-215 -776h537l-215 776h-107zM480 1769q52 -43 127 -43t126 43t53 111h144q-6 -121 -94 -194.5t-229.5 -73.5t-228.5 73.5t-93 194.5h141q2 -68 54 -111z" />
<glyph unicode="&#x103;" horiz-adv-x="1030" d="M870 711v-504q2 -80 117 -94l-4 -133q-168 0 -244 77l-51 -20q-51 -18 -145 -37.5t-183 -19.5q-133 0 -205.5 81.5t-72.5 229t75.5 219.5t237.5 86l322 31v84q0 186 -178 186q-150 0 -392 -27l-6 134l66 10q197 31 340 30q164 0 243.5 -80.5t79.5 -252.5zM385 113 q154 0 332 61v328l-303 -25q-174 -16 -174 -180q0 -88 37.5 -136t107.5 -48zM394 1390q44 -42 123 -42t124 42t47 111h158q-6 -129 -93 -210t-235.5 -81t-235.5 81t-94 210h158q4 -69 48 -111z" />
<glyph unicode="&#x104;" horiz-adv-x="1220" d="M1012 -209q0 -39 23.5 -63.5t60.5 -24.5l102 12l14 -118q-92 -18 -167.5 -18.5t-129 47.5t-53.5 121t51.5 141.5t102.5 113.5l-103 363h-606l-102 -365h-156l389 1417h344l389 -1417h-16q-143 -143 -143 -209zM557 1282l-215 -776h537l-215 776h-107z" />
<glyph unicode="&#x105;" horiz-adv-x="1024" d="M870 715v-525q6 -76 119 -90l-6 -120q-25 0 -70 4q-125 -131 -125 -193q0 -39 24 -63.5t60 -24.5l103 12l14 -118q-92 -18 -168 -18.5t-129 47.5t-53 113.5t39 127.5q55 88 127 145q-33 16 -66 49q-184 -82 -368 -81q-141 0 -215 79.5t-74 229t75.5 220.5t237.5 87 l322 31v88q0 104 -45 149t-123 45q-164 0 -340 -20l-64 -6l-6 116q225 45 399.5 45t253 -79.5t78.5 -249.5zM240 297q0 -188 155 -188q139 0 275 47l47 16v338l-303 -29q-92 -8 -133 -53t-41 -131z" />
<glyph unicode="&#x106;" horiz-adv-x="1114" d="M1030 23q-211 -43 -379 -43t-271.5 46t-159.5 143t-77.5 223t-21.5 314.5t21.5 316.5t77.5 226.5t158.5 143.5t266.5 45t385 -45l-6 -133q-207 37 -369 36q-225 0 -297.5 -134t-72.5 -457q0 -162 13 -260.5t52 -177.5t114 -112.5t219 -33.5t341 37zM371 1702l442 205 l53 -135l-448 -179z" />
<glyph unicode="&#x107;" horiz-adv-x="892" d="M530 1044q68 0 230 -24l49 -6l-6 -125q-164 18 -242 18q-174 0 -236.5 -83t-62.5 -307t58.5 -312t242.5 -88l242 18l6 -127q-190 -29 -285 -28q-240 0 -331 122.5t-91 414.5t98.5 409.5t327.5 117.5zM258 1315l442 201l54 -132l-453 -174z" />
<glyph unicode="&#x108;" horiz-adv-x="1114" d="M1030 23q-211 -43 -379 -43t-271.5 46t-159.5 143t-77.5 223t-21.5 314.5t21.5 316.5t77.5 226.5t158.5 143.5t266.5 45t385 -45l-6 -133q-207 37 -369 36q-225 0 -297.5 -134t-72.5 -457q0 -162 13 -260.5t52 -177.5t114 -112.5t219 -33.5t341 37zM295 1620l274 276h133 l275 -276h-172l-168 164l-170 -164h-172z" />
<glyph unicode="&#x109;" horiz-adv-x="892" d="M530 1044q68 0 230 -24l49 -6l-6 -125q-164 18 -242 18q-174 0 -236.5 -83t-62.5 -307t58.5 -312t242.5 -88l242 18l6 -127q-190 -29 -285 -28q-240 0 -331 122.5t-91 414.5t98.5 409.5t327.5 117.5zM170 1212l252 287h104l254 -287h-153l-150 179l-153 -179h-154z" />
<glyph unicode="&#x10a;" horiz-adv-x="1114" d="M1030 23q-211 -43 -379 -43t-271.5 46t-159.5 143t-77.5 223t-21.5 314.5t21.5 316.5t77.5 226.5t158.5 143.5t266.5 45t385 -45l-6 -133q-207 37 -369 36q-225 0 -297.5 -134t-72.5 -457q0 -162 13 -260.5t52 -177.5t114 -112.5t219 -33.5t341 37zM522 1634v178h152 v-178h-152z" />
<glyph unicode="&#x10b;" horiz-adv-x="892" d="M530 1044q68 0 230 -24l49 -6l-6 -125q-164 18 -242 18q-174 0 -236.5 -83t-62.5 -307t58.5 -312t242.5 -88l242 18l6 -127q-190 -29 -285 -28q-240 0 -331 122.5t-91 414.5t98.5 409.5t327.5 117.5zM438 1247v178h152v-178h-152z" />
<glyph unicode="&#x10c;" horiz-adv-x="1114" d="M1030 23q-211 -43 -379 -43t-271.5 46t-159.5 143t-77.5 223t-21.5 314.5t21.5 316.5t77.5 226.5t158.5 143.5t266.5 45t385 -45l-6 -133q-207 37 -369 36q-225 0 -297.5 -134t-72.5 -457q0 -162 13 -260.5t52 -177.5t114 -112.5t219 -33.5t341 37zM555 1620l-274 276 h172l170 -163l168 163h172l-275 -276h-133z" />
<glyph unicode="&#x10d;" horiz-adv-x="892" d="M530 1044q68 0 230 -24l49 -6l-6 -125q-164 18 -242 18q-174 0 -236.5 -83t-62.5 -307t58.5 -312t242.5 -88l242 18l6 -127q-190 -29 -285 -28q-240 0 -331 122.5t-91 414.5t98.5 409.5t327.5 117.5zM438 1212l-252 287h152l154 -178l151 178h154l-256 -287h-103z" />
<glyph unicode="&#x10e;" horiz-adv-x="1320" d="M680 0h-506v1417h506q346 0 459 -274q66 -158 65 -414q0 -535 -266 -674q-106 -55 -258 -55zM1042 729q0 408 -182 508q-74 41 -180 41h-348v-1139h348q362 0 362 590zM537 1620l-275 276h172l170 -163l168 163h172l-274 -276h-133z" />
<glyph unicode="&#x10f;" horiz-adv-x="1177" d="M1143 1399h151l-100 -424h-133zM934 1470v-1470h-152v70q-158 -90 -311 -90q-82 0 -143.5 20t-114.5 74q-111 111 -111 408.5t99.5 429.5t328.5 132q119 0 252 -26v452h152zM401.5 131q36.5 -14 95 -14t131 19.5t113.5 37.5l41 19v694q-131 25 -243 24q-156 0 -217.5 -99 t-61.5 -308q0 -238 72 -320q33 -39 69.5 -53z" />
<glyph unicode="&#x110;" horiz-adv-x="1325" d="M41 637v149h139v639h506q289 0 406.5 -180t117.5 -510q0 -537 -268 -678q-104 -57 -256 -57h-506v637h-139zM1047 735q0 397 -183 500q-72 41 -178 41h-350v-490h323v-149h-323v-487h350q361 -1 361 585z" />
<glyph unicode="&#x111;" horiz-adv-x="1083" d="M934 1470v-61h47v-135h-47v-1274h-152v70q-158 -90 -311 -90q-82 0 -143.5 20t-114.5 74q-111 111 -111 408.5t99.5 429.5t328.5 132q119 0 252 -26v256h-397v135h397v61h152zM401.5 131q36.5 -14 95 -14t131 19.5t113.5 37.5l41 19v694q-131 25 -243 24 q-156 0 -217.5 -99t-61.5 -308q0 -238 72 -320q33 -39 69.5 -53z" />
<glyph unicode="&#x112;" horiz-adv-x="1132" d="M174 0v1417h862v-139h-704v-490h581v-137h-581v-512h704v-139h-862zM283 1663v119h637v-119h-637z" />
<glyph unicode="&#x113;" horiz-adv-x="1034" d="M844 127l59 6l4 -121q-233 -33 -399 -32q-221 0 -313.5 128t-92.5 398q0 539 428 538q207 0 309.5 -115.5t102.5 -363.5l-8 -116h-676q0 -170 61.5 -252t214 -82t310.5 12zM788 571q0 188 -60 266t-196.5 78t-205 -81.5t-70.5 -262.5h532zM252 1278v121h563v-121h-563z " />
<glyph unicode="&#x114;" horiz-adv-x="1132" d="M174 0v1417h862v-139h-704v-490h581v-137h-581v-512h704v-139h-862zM496.5 1769q52.5 -43 127 -43t126 43t53.5 111h143q-6 -121 -94 -194.5t-229.5 -73.5t-228.5 73.5t-93 194.5h141q2 -68 54.5 -111z" />
<glyph unicode="&#x115;" horiz-adv-x="1034" d="M844 127l59 6l4 -121q-233 -33 -399 -32q-221 0 -313.5 128t-92.5 398q0 539 428 538q207 0 309.5 -115.5t102.5 -363.5l-8 -116h-676q0 -170 61.5 -252t214 -82t310.5 12zM788 571q0 188 -60 266t-196.5 78t-205 -81.5t-70.5 -262.5h532zM397 1362q47 -47 128 -47 t128 47t49 125h127q-6 -123 -88 -205t-216 -82t-216 82t-88 205h125q4 -78 51 -125z" />
<glyph unicode="&#x116;" horiz-adv-x="1132" d="M174 0v1417h862v-139h-704v-490h581v-137h-581v-512h704v-139h-862zM532 1640v179h152v-179h-152z" />
<glyph unicode="&#x117;" horiz-adv-x="1034" d="M844 127l59 6l4 -121q-233 -33 -399 -32q-221 0 -313.5 128t-92.5 398q0 539 428 538q207 0 309.5 -115.5t102.5 -363.5l-8 -116h-676q0 -170 61.5 -252t214 -82t310.5 12zM788 571q0 188 -60 266t-196.5 78t-205 -81.5t-70.5 -262.5h532zM444 1247v178h152v-178h-152z " />
<glyph unicode="&#x118;" horiz-adv-x="1132" d="M174 0v1417h862v-139h-704v-490h581v-137h-581v-512h704v-139h-59q-143 -143 -143 -209q0 -39 23.5 -63.5t60.5 -24.5l102 12l14 -118q-92 -18 -167.5 -18.5t-129 47.5t-53.5 121t50 140.5t102 112.5h-662z" />
<glyph unicode="&#x119;" horiz-adv-x="1036" d="M702 -209q0 -39 24 -63.5t60 -24.5l103 12l14 -118q-92 -18 -168 -18.5t-129 47.5t-53 139.5t139 224.5q-106 -10 -184 -10q-221 0 -313.5 128t-92.5 398q0 539 428 538q207 0 309.5 -115.5t102.5 -363.5l-8 -116h-676q0 -170 61.5 -252t206.5 -82q160 0 318 12l59 6 l4 -121q-33 -4 -71 -10h12q-146 -143 -146 -211zM788 571q0 188 -60 266t-196.5 78t-205 -81.5t-70.5 -262.5h532z" />
<glyph unicode="&#x11a;" horiz-adv-x="1132" d="M174 0v1417h862v-139h-704v-490h581v-137h-581v-512h704v-139h-862zM528 1620l-274 276h172l170 -163l168 163h172l-274 -276h-134z" />
<glyph unicode="&#x11b;" horiz-adv-x="1034" d="M844 127l59 6l4 -121q-233 -33 -399 -32q-221 0 -313.5 128t-92.5 398q0 539 428 538q207 0 309.5 -115.5t102.5 -363.5l-8 -116h-676q0 -170 61.5 -252t214 -82t310.5 12zM788 571q0 188 -60 266t-196.5 78t-205 -81.5t-70.5 -262.5h532zM465 1212l-252 287h152 l153 -178l152 178h153l-256 -287h-102z" />
<glyph unicode="&#x11c;" horiz-adv-x="1261" d="M735 588v141h391v-696q-258 -49 -460 -49q-309 0 -429 178t-120 549.5t119.5 551t425.5 179.5q190 0 395 -41l69 -12l-6 -132q-254 43 -440 43q-236 0 -317.5 -136t-81.5 -452.5t81.5 -452.5t315.5 -136q143 0 293 29v436h-236zM319 1614l275 276h133l274 -276h-172 l-167 164l-170 -164h-173z" />
<glyph unicode="&#x11d;" horiz-adv-x="1052" d="M543 -481q-246 0 -343.5 66.5t-97.5 242.5q0 84 37 136t125 118q-57 39 -57 141q0 35 51 129l18 33q-162 74 -161 309q0 350 383 350q98 0 182 -20l31 -6l303 8v-131l-195 4q68 -68 68 -205q0 -193 -95.5 -269.5t-299.5 -76.5q-55 0 -101 8q-37 -90 -37 -116 q0 -63 39 -79t235.5 -16t282.5 -61t86 -240q1 -325 -454 -325zM254 -160q0 -109 60.5 -150.5t223 -41.5t233.5 45t71 150.5t-51.5 136t-200.5 30.5l-221 10q-68 -49 -91.5 -86t-23.5 -94zM322.5 522q54.5 -51 179.5 -51t178 51t53 173t-53 173.5t-178 51.5t-179.5 -52.5 t-54.5 -173.5t54.5 -172zM231 1212l252 287h105l254 -287h-154l-149 179l-154 -179h-154z" />
<glyph unicode="&#x11e;" horiz-adv-x="1261" d="M735 584v141h391v-696q-258 -49 -460 -49q-309 0 -429 178t-120 549.5t119.5 551t425.5 179.5q190 0 395 -41l69 -13l-6 -131q-254 43 -440 43q-236 0 -317.5 -136t-81.5 -452.5t81.5 -452.5t315.5 -136q143 0 293 28v437h-236zM546 1769q52 -43 127 -43t126 43t53 111 h143q-6 -121 -94 -194.5t-229.5 -73.5t-228.5 73.5t-93 194.5h142q2 -68 54 -111z" />
<glyph unicode="&#x11f;" horiz-adv-x="1052" d="M543 -481q-246 0 -343.5 66.5t-97.5 242.5q0 84 37 136t125 118q-57 39 -57 141q0 35 51 129l18 33q-162 74 -161 309q0 350 383 350q98 0 182 -20l31 -6l303 8v-131l-195 4q68 -68 68 -205q0 -193 -95.5 -269.5t-299.5 -76.5q-55 0 -101 8q-37 -90 -37 -116 q0 -63 39 -79t235.5 -16t282.5 -61t86 -240q1 -325 -454 -325zM254 -160q0 -109 60.5 -150.5t223 -41.5t233.5 45t71 150.5t-51.5 136t-200.5 30.5l-221 10q-68 -49 -91.5 -86t-23.5 -94zM322.5 522q54.5 -51 179.5 -51t178 51t53 173t-53 173.5t-178 51.5t-179.5 -52.5 t-54.5 -173.5t54.5 -172zM407.5 1362q47.5 -47 128 -47t128 47t49.5 125h127q-6 -123 -88 -205t-216.5 -82t-216 82t-88.5 205h125q4 -78 51.5 -125z" />
<glyph unicode="&#x120;" horiz-adv-x="1261" d="M735 584v141h391v-696q-258 -49 -460 -49q-309 0 -429 178t-120 549.5t119.5 551t425.5 179.5q190 0 395 -41l69 -13l-6 -131q-254 43 -440 43q-236 0 -317.5 -136t-81.5 -452.5t81.5 -452.5t315.5 -136q143 0 293 28v437h-236zM565 1640v179h152v-179h-152z" />
<glyph unicode="&#x121;" horiz-adv-x="1052" d="M543 -481q-246 0 -343.5 66.5t-97.5 242.5q0 84 37 136t125 118q-57 39 -57 141q0 35 51 129l18 33q-162 74 -161 309q0 350 383 350q98 0 182 -20l31 -6l303 8v-131l-195 4q68 -68 68 -205q0 -193 -95.5 -269.5t-299.5 -76.5q-55 0 -101 8q-37 -90 -37 -116 q0 -63 39 -79t235.5 -16t282.5 -61t86 -240q1 -325 -454 -325zM254 -160q0 -109 60.5 -150.5t223 -41.5t233.5 45t71 150.5t-51.5 136t-200.5 30.5l-221 10q-68 -49 -91.5 -86t-23.5 -94zM322.5 522q54.5 -51 179.5 -51t178 51t53 173t-53 173.5t-178 51.5t-179.5 -52.5 t-54.5 -173.5t54.5 -172zM459 1247v178h151v-178h-151z" />
<glyph unicode="&#x122;" horiz-adv-x="1261" d="M735 584v141h391v-696q-258 -49 -460 -49q-309 0 -429 178t-120 549.5t119.5 551t425.5 179.5q190 0 395 -41l69 -13l-6 -131q-254 43 -440 43q-236 0 -317.5 -136t-81.5 -452.5t81.5 -452.5t315.5 -136q143 0 293 28v437h-236zM616 -160h152l-102 -424h-134z" />
<glyph unicode="&#x123;" horiz-adv-x="1052" d="M629 1630l-84 -424h-152l103 424h133zM543 -481q-246 0 -343.5 66.5t-97.5 242.5q0 84 37 136t125 118q-57 39 -57 141q0 35 51 129l18 33q-162 74 -161 309q0 350 383 350q98 0 182 -20l31 -6l303 8v-131l-195 4q68 -68 68 -205q0 -193 -95.5 -269.5t-299.5 -76.5 q-55 0 -101 8q-37 -90 -37 -116q0 -63 39 -79t235.5 -16t282.5 -61t86 -240q1 -325 -454 -325zM254 -160q0 -109 60.5 -150.5t223 -41.5t233.5 45t71 150.5t-51.5 136t-200.5 30.5l-221 10q-68 -49 -91.5 -86t-23.5 -94zM322.5 522q54.5 -51 179.5 -51t178 51t53 173 t-53 173.5t-178 51.5t-179.5 -52.5t-54.5 -173.5t54.5 -172z" />
<glyph unicode="&#x124;" horiz-adv-x="1382" d="M1053 0v641h-721v-641h-158v1417h158v-635h721v635h155v-1417h-155zM352 1620l275 276h133l274 -276h-172l-168 164l-170 -164h-172z" />
<glyph unicode="&#x125;" horiz-adv-x="1099" d="M301 0h-154v1470h154v-503q164 78 315 77q205 0 276 -110.5t71 -392.5v-541h-154v537q0 213 -42 291.5t-177 78.5q-129 0 -250 -47l-39 -14v-846zM242 1585l252 287h104l254 -287h-154l-149 178l-154 -178h-153z" />
<glyph unicode="&#x126;" horiz-adv-x="1404" d="M31 1040v134h151v243h158v-243h721v243h156v-243h169v-134h-169v-1040h-156v641h-721v-641h-158v1040h-151zM340 782h721v258h-721v-258z" />
<glyph unicode="&#x127;" horiz-adv-x="1099" d="M20 1188v135h127v147h154v-147h315v-135h-315v-221q164 78 315 77q205 0 276 -110.5t71 -392.5v-541h-154v537q0 213 -42 291.5t-177 78.5q-129 0 -250 -47l-39 -14v-846h-154v1188h-127z" />
<glyph unicode="&#x128;" horiz-adv-x="503" d="M174 0v1417h158v-1417h-158zM410 1645q-45 0 -172 55t-152 55q-47 0 -127 -74l-27 -24l-34 115q39 45 92 81.5t99 36.5t172 -55t149 -55q39 0 114 71l27 23l37 -115q-96 -114 -178 -114z" />
<glyph unicode="&#x129;" horiz-adv-x="448" d="M147 1024h154v-1024h-154v1024zM375 1253q-43 0 -148.5 48.5t-132.5 48.5q-47 0 -127 -62l-26 -20l-37 98q102 106 186 107q43 0 149.5 -47.5t129.5 -47.5q45 0 123 60l24 18l35 -98q-94 -105 -176 -105z" />
<glyph unicode="&#x12a;" horiz-adv-x="503" d="M174 0v1417h158v-1417h-158zM-61 1663v119h636v-119h-636z" />
<glyph unicode="&#x12b;" horiz-adv-x="448" d="M147 1024h154v-1024h-154v1024zM-57 1278v121h563v-121h-563z" />
<glyph unicode="&#x12c;" horiz-adv-x="503" d="M174 0v1417h158v-1417h-158zM268.5 1726q75.5 0 126.5 43t54 111h143q-6 -121 -94 -194.5t-229.5 -73.5t-228.5 73.5t-93 194.5h141q2 -68 53.5 -111t127 -43z" />
<glyph unicode="&#x12d;" horiz-adv-x="448" d="M147 1024h154v-1024h-154v1024zM96 1362q47 -47 128 -47t128 47t49 125h127q-6 -123 -88 -205t-216 -82t-216 82t-88 205h125q4 -78 51 -125z" />
<glyph unicode="&#x12e;" horiz-adv-x="503" d="M174 0v1417h158v-1417q-156 -141 -156 -209q0 -39 23.5 -63.5t60.5 -24.5l105 12l14 -118q-92 -18 -168 -18.5t-129 47.5t-53 121t50 140.5t101 112.5h-6z" />
<glyph unicode="&#x12f;" horiz-adv-x="448" d="M147 0v1024h154v-1024q-156 -139 -156 -209q0 -39 24 -63.5t60 -24.5l105 12l14 -118q-92 -18 -168 -18.5t-129 47.5t-53 130q0 109 158 244h-9zM147 1255v179h154v-179h-154z" />
<glyph unicode="&#x130;" horiz-adv-x="503" d="M174 0v1417h158v-1417h-158zM176 1640v179h152v-179h-152z" />
<glyph unicode="&#x131;" horiz-adv-x="448" d="M147 0v1024h154v-1024h-154z" />
<glyph unicode="&#x134;" horiz-adv-x="591" d="M37 -147v141q147 0 189 36t42 187v1200h156l2 -1222q0 -172 -57 -252q-47 -68 -187 -84q-55 -6 -145 -6zM4 1614l275 276h133l274 -276h-172l-168 164l-170 -164h-172z" />
<glyph unicode="&#x135;" horiz-adv-x="448" d="M150 27v997h151v-999q0 -188 -67.5 -282.5t-272.5 -199.5l-61 119q158 92 204 158t46 207zM-84 1212l252 287h104l254 -287h-153l-150 179l-153 -179h-154z" />
<glyph unicode="&#x136;" horiz-adv-x="1163" d="M332 0h-158v1425h158v-657l231 8l363 649h182l-406 -712l428 -713h-186l-377 627l-235 -9v-618zM541 -160h151l-100 -424h-133z" />
<glyph unicode="&#x137;" horiz-adv-x="980" d="M205 -584l82 424h153l-102 -424h-133zM301 0h-154v1470h154v-868l160 8l293 414h174l-334 -471l348 -553h-174l-305 475l-162 -6v-469z" />
<glyph unicode="&#x139;" horiz-adv-x="980" d="M954 0h-780v1425h158v-1273h622v-152zM274 1702l443 205l53 -135l-448 -179z" />
<glyph unicode="&#x13a;" horiz-adv-x="473" d="M160 0v1470h153v-1470h-153zM106 1733l443 200l53 -131l-452 -174z" />
<glyph unicode="&#x13b;" horiz-adv-x="980" d="M494 -160h151l-102 -424h-133zM954 0h-780v1417h158v-1276h622v-141z" />
<glyph unicode="&#x13c;" horiz-adv-x="473" d="M160 0v1470h153v-1470h-153zM152 -160h151l-102 -424h-133z" />
<glyph unicode="&#x13d;" horiz-adv-x="1011" d="M899 1425v-479h-149v479h149zM954 0h-780v1417h158v-1276h622v-141z" />
<glyph unicode="&#x13e;" horiz-adv-x="552" d="M522 1399h152l-101 -424h-135zM160 0v1470h153v-1470h-153z" />
<glyph unicode="&#x141;" horiz-adv-x="989" d="M965 0h-781v557l-116 -82l-76 107l192 135v700h158v-590l291 203l76 -104l-367 -258v-527h623v-141z" />
<glyph unicode="&#x142;" horiz-adv-x="634" d="M233 0v571l-137 -96l-76 107l213 149v739h154v-632l152 106l75 -106l-227 -160v-678h-154z" />
<glyph unicode="&#x143;" horiz-adv-x="1384" d="M174 0v1417h295l543 -1278h43v1278h155v-1417h-288l-551 1278h-39v-1278h-158zM451 1702l442 205l53 -135l-448 -179z" />
<glyph unicode="&#x144;" horiz-adv-x="1099" d="M147 0v1024h152v-72l45 23q47 25 126 47t146 22q205 0 276 -110.5t71 -392.5v-541h-152v537q0 213 -42 291.5t-184.5 78.5t-283.5 -76v-831h-154zM328 1315l442 201l53 -132l-452 -174z" />
<glyph unicode="&#x145;" horiz-adv-x="1384" d="M664 -160h151l-102 -424h-133zM174 0v1417h295l543 -1278h43v1278h155v-1417h-288l-551 1278h-39v-1278h-158z" />
<glyph unicode="&#x146;" horiz-adv-x="1099" d="M260 -584l84 424h152l-101 -424h-135zM301 0h-154v1024h152v-72q166 92 317 92q205 0 276 -110.5t71 -392.5v-541h-152v537q0 213 -42 291.5t-179 78.5q-66 0 -138.5 -19.5t-111.5 -37.5l-39 -19v-831z" />
<glyph unicode="&#x147;" horiz-adv-x="1384" d="M174 0v1417h295l543 -1278h43v1278h155v-1417h-288l-551 1278h-39v-1278h-158zM627 1614l-275 276h172l170 -164l168 164h172l-274 -276h-133z" />
<glyph unicode="&#x148;" horiz-adv-x="1099" d="M301 0h-154v1024h152v-72q166 92 317 92q205 0 276 -110.5t71 -392.5v-541h-152v537q0 213 -42 291.5t-179 78.5q-66 0 -138.5 -19.5t-111.5 -37.5l-39 -19v-831zM496 1212l-252 287h151l154 -178l151 178h154l-256 -287h-102z" />
<glyph unicode="&#x14a;" horiz-adv-x="1384" d="M174 0v1417h295l543 -1278h43v1278h155v-239l2 -1223q0 -172 -57 -254q-47 -66 -186 -82q-55 -6 -146 -6v141q147 0 189.5 36t42.5 187v23h-133l-551 1278h-39v-1278h-158z" />
<glyph unicode="&#x14b;" horiz-adv-x="1101" d="M299 0h-152v1024h152v-68q178 88 324 88q197 0 269.5 -117.5t72.5 -394.5v-536q0 -190 -63.5 -282.5t-266.5 -198.5l-66 129q154 88 198 151.5t44 196.5v538q0 205 -42 290t-171 85q-59 0 -134 -18.5t-120 -38.5l-45 -19v-829z" />
<glyph unicode="&#x14c;" horiz-adv-x="1351" d="M360.5 255q81.5 -136 316 -136t315.5 133t81 446.5t-84 456.5t-314.5 143t-313 -142t-82.5 -453.5t81.5 -447.5zM1116 149.5q-121 -169.5 -439.5 -169.5t-439 174t-120.5 547.5t122.5 555t436 181.5t437.5 -180.5t124 -559.5t-121 -548.5zM356 1663v119h637v-119h-637z " />
<glyph unicode="&#x14d;" horiz-adv-x="1081" d="M879.5 919.5q99.5 -124.5 99.5 -405.5t-94 -407.5t-344 -126.5t-344.5 126.5t-94.5 407.5t100.5 405.5t339 124.5t338 -124.5zM768 202q53 89 53 314t-59.5 310t-220 85t-221 -85t-60.5 -309t54.5 -314t227.5 -90t226 89zM262 1303v120h563v-120h-563z" />
<glyph unicode="&#x14e;" horiz-adv-x="1351" d="M360.5 255q81.5 -136 316 -136t315.5 133t81 446.5t-84 456.5t-314.5 143t-313 -142t-82.5 -453.5t81.5 -447.5zM1116 149.5q-121 -169.5 -439.5 -169.5t-439 174t-120.5 547.5t122.5 555t436 181.5t437.5 -180.5t124 -559.5t-121 -548.5zM678 1726q76 0 127 43t53 111 h143q-6 -121 -94 -194.5t-229 -73.5t-228.5 73.5t-93.5 194.5h142q2 -68 53 -111t127 -43z" />
<glyph unicode="&#x14f;" horiz-adv-x="1081" d="M879.5 919.5q99.5 -124.5 99.5 -405.5t-94 -407.5t-344 -126.5t-344.5 126.5t-94.5 407.5t100.5 405.5t339 124.5t338 -124.5zM768 202q53 89 53 314t-59.5 310t-220 85t-221 -85t-60.5 -309t54.5 -314t227.5 -90t226 89zM418 1362q47 -47 128 -47t128 47t49 125h127 q-6 -123 -88 -205t-216 -82t-216 82t-88 205h125q4 -78 51 -125z" />
<glyph unicode="&#x150;" horiz-adv-x="1351" d="M360.5 255q81.5 -136 316 -136t315.5 133t81 446.5t-84 456.5t-314.5 143t-313 -142t-82.5 -453.5t81.5 -447.5zM1116 149.5q-121 -169.5 -439.5 -169.5t-439 174t-120.5 547.5t122.5 555t436 181.5t437.5 -180.5t124 -559.5t-121 -548.5zM713 1608l291 268l112 -72 l-299 -264zM309 1608l291 270l111 -72l-297 -264z" />
<glyph unicode="&#x151;" horiz-adv-x="1081" d="M879.5 919.5q99.5 -124.5 99.5 -405.5t-94 -407.5t-344 -126.5t-344.5 126.5t-94.5 407.5t100.5 405.5t339 124.5t338 -124.5zM768 202q53 89 53 314t-59.5 310t-220 85t-221 -85t-60.5 -309t54.5 -314t227.5 -90t226 89zM586 1278l297 285l110 -88l-303 -283zM190 1278 l297 283l111 -86l-301 -283z" />
<glyph unicode="&#x152;" horiz-adv-x="1894" d="M1798 -2h-846q-188 -18 -293 -18q-313 0 -427.5 173t-114.5 557t118.5 560t423.5 176q162 0 289 -21h850v-151h-694v-469h571v-152h-571v-501h694v-154zM680 133q106 0 268 14v1127q-215 18 -272 18q-231 0 -313 -133t-82 -449.5t79.5 -446.5t319.5 -130z" />
<glyph unicode="&#x153;" horiz-adv-x="1755" d="M1563 133l59 4l4 -125q-231 -33 -397 -32q-244 0 -332 186q-45 -98 -129 -142t-225 -44q-252 0 -346.5 126.5t-94.5 408.5t101.5 405.5t339.5 123.5q139 0 226 -50t134 -165q92 215 348 215q207 0 309.5 -115.5t102.5 -363.5l-8 -119h-676q0 -168 61.5 -247.5 t188.5 -79.5t334 14zM315.5 208q55.5 -91 226.5 -91t225 92t54 305t-64.5 302t-220 89t-216 -83t-60.5 -303t55.5 -311zM977 571h532q0 182 -60 259t-198 77q-274 0 -274 -336z" />
<glyph unicode="&#x154;" horiz-adv-x="1261" d="M332 543v-543h-158v1417h524q225 0 339 -104.5t114 -325.5q0 -328 -260 -412l272 -575h-174l-256 543h-401zM698 1278h-366v-596h368q289 0 289 298t-291 298zM383 1702l442 205l54 -135l-449 -179z" />
<glyph unicode="&#x155;" horiz-adv-x="708" d="M147 0v1024h152v-139q178 123 375 162v-156q-86 -16 -179.5 -51t-142.5 -62l-51 -26v-752h-154zM137 1315l443 201l53 -132l-453 -174z" />
<glyph unicode="&#x156;" horiz-adv-x="1261" d="M502 -584l84 424h151l-102 -424h-133zM332 543v-543h-158v1417h524q225 0 339 -104.5t114 -325.5q0 -328 -260 -412l272 -575h-174l-256 543h-401zM700 682q289 0 289 298t-291 298h-366v-596h368z" />
<glyph unicode="&#x157;" horiz-adv-x="708" d="M147 -160h152l-100 -424h-133zM147 0v1024h152v-139q178 123 375 162v-156q-86 -16 -179.5 -51t-142.5 -62l-51 -26v-752h-154z" />
<glyph unicode="&#x158;" horiz-adv-x="1261" d="M332 543v-543h-158v1417h524q225 0 339 -104.5t114 -325.5q0 -328 -260 -412l272 -575h-174l-256 543h-401zM700 682q289 0 289 298t-291 298h-366v-596h368zM549 1620l-275 276h172l170 -163l168 163h172l-274 -276h-133z" />
<glyph unicode="&#x159;" horiz-adv-x="708" d="M147 0v1024h152v-139q178 123 375 162v-156q-86 -16 -179.5 -51t-142.5 -62l-51 -26v-752h-154zM305 1212l-252 287h152l153 -178l152 178h154l-256 -287h-103z" />
<glyph unicode="&#x15a;" horiz-adv-x="1110" d="M565 1300q-307 0 -307 -231q0 -129 70.5 -177t286.5 -96t306.5 -125t90.5 -253q0 -436 -453 -436q-150 0 -375 34l-73 11l16 131q279 -37 424 -37q303 0 303 285q0 115 -66.5 165t-248.5 84q-240 51 -340.5 132t-100.5 272q0 381 457 381q150 0 358 -31l70 -10l-14 -133 q-285 34 -404 34zM334 1702l442 205l53 -135l-448 -179z" />
<glyph unicode="&#x15b;" horiz-adv-x="952" d="M469 907q-223 0 -223 -155q0 -72 51 -101.5t233.5 -61.5t258 -89.5t75.5 -215t-101 -231t-296 -73.5q-127 0 -299 28l-62 10l9 134q233 -35 352 -35t181.5 38t62.5 127t-53.5 120.5t-233.5 60.5t-256 84t-76 204.5t105.5 221t263.5 71.5q125 0 313 -28l57 -10l-4 -132 q-227 33 -358 33zM233 1315l443 201l53 -132l-453 -174z" />
<glyph unicode="&#x15c;" horiz-adv-x="1110" d="M565 1300q-307 0 -307 -231q0 -129 70.5 -177t286.5 -96t306.5 -125t90.5 -253q0 -436 -453 -436q-150 0 -375 34l-73 11l16 131q279 -37 424 -37q303 0 303 285q0 115 -66.5 165t-248.5 84q-240 51 -340.5 132t-100.5 272q0 381 457 381q150 0 358 -31l70 -10l-14 -133 q-285 34 -404 34zM221 1614l275 276h133l274 -276h-172l-168 164l-170 -164h-172z" />
<glyph unicode="&#x15d;" horiz-adv-x="952" d="M469 907q-223 0 -223 -155q0 -72 51 -101.5t233.5 -61.5t258 -89.5t75.5 -215t-101 -231t-296 -73.5q-127 0 -299 28l-62 10l9 134q233 -35 352 -35t181.5 38t62.5 127t-53.5 120.5t-233.5 60.5t-256 84t-76 204.5t105.5 221t263.5 71.5q125 0 313 -28l57 -10l-4 -132 q-227 33 -358 33zM174 1212l252 287h104l254 -287h-153l-150 179l-153 -179h-154z" />
<glyph unicode="&#x15e;" horiz-adv-x="1110" d="M840 -260q0 -184 -191 -184q-94 0 -153 10l-23 4l6 98q80 -6 135 -6q90 0 91 78q0 70 -91 70h-86v172q-152 4 -352 34l-65 11l16 131q279 -37 424 -37q303 0 303 285q0 115 -66.5 165t-248.5 84q-240 51 -340.5 132t-100.5 272q0 381 457 381q150 0 358 -31l70 -10 l-14 -133q-285 35 -404 34q-307 0 -307 -231q0 -129 70.5 -177t286.5 -96t306.5 -125t90.5 -253q0 -408 -400 -434v-84q121 0 174.5 -33t53.5 -127z" />
<glyph unicode="&#x15f;" horiz-adv-x="952" d="M729 -260q0 -184 -190 -184q-94 0 -154 10l-23 4l7 98q80 -6 135 -6q90 0 90 78q0 70 -90 70h-86v172q-119 4 -262 28l-50 8l9 134q233 -35 352 -35t181.5 38t62.5 127t-53.5 120.5t-233.5 60.5t-256 84t-76 204.5t105.5 221t263.5 71.5q125 0 313 -28l57 -10l-4 -132 q-227 33 -358 33q-223 0 -223 -155q0 -72 51 -101.5t233.5 -61.5t258 -89.5t75.5 -212t-92 -228t-270 -79.5v-80q121 0 174 -33t53 -127z" />
<glyph unicode="&#x160;" horiz-adv-x="1110" d="M565 1300q-307 0 -307 -231q0 -129 70.5 -177t286.5 -96t306.5 -125t90.5 -253q0 -436 -453 -436q-150 0 -375 34l-73 11l16 131q279 -37 424 -37q303 0 303 285q0 115 -66.5 165t-248.5 84q-240 51 -340.5 132t-100.5 272q0 381 457 381q150 0 358 -31l70 -10l-14 -133 q-285 34 -404 34zM512 1620l-274 276h172l170 -163l168 163h172l-275 -276h-133z" />
<glyph unicode="&#x161;" horiz-adv-x="952" d="M469 907q-223 0 -223 -155q0 -72 51 -101.5t233.5 -61.5t258 -89.5t75.5 -215t-101 -231t-296 -73.5q-127 0 -299 28l-62 10l9 134q233 -35 352 -35t181.5 38t62.5 127t-53.5 120.5t-233.5 60.5t-256 84t-76 204.5t105.5 221t263.5 71.5q125 0 313 -28l57 -10l-4 -132 q-227 33 -358 33zM442 1212l-252 287h152l154 -178l151 178h154l-256 -287h-103z" />
<glyph unicode="&#x162;" horiz-adv-x="0" />
<glyph unicode="&#x163;" horiz-adv-x="718" d="M678 891h-326v-490q0 -176 25.5 -231t122.5 -55l182 12l10 -127q-137 -23 -209 -23q-160 0 -221 78t-61 297v539h-146v133h146v313h151v-313h326v-133zM541 -260q0 -184 -191 -184q-94 0 -153 10l-23 4l6 98q80 -6 135 -6q90 0 91 78q0 70 -91 70h-86v192h84v-102 q121 0 174.5 -33t53.5 -127z" />
<glyph unicode="&#x164;" horiz-adv-x="1077" d="M27 1276v141h1024v-141h-433v-1276h-155v1276h-436zM473 1620l-274 276h172l170 -163l168 163h172l-275 -276h-133z" />
<glyph unicode="&#x165;" horiz-adv-x="884" d="M678 885h-324v-477q0 -176 24.5 -230.5t123.5 -54.5l182 10l8 -133q-135 -23 -207 -23q-162 0 -223 79t-61 296v533h-146v139h146v313h153v-313h324v-139zM905 1425v-479h-147v479h147z" />
<glyph unicode="&#x166;" horiz-adv-x="1083" d="M31 1276v141h1024v-141h-432v-526h335v-136h-335v-614h-156v614h-334v136h334v526h-436z" />
<glyph unicode="&#x167;" horiz-adv-x="724" d="M682 885h-324v-246h275v-121h-275v-110q0 -176 25 -230.5t123 -54.5l182 10l8 -133q-135 -23 -207 -23q-162 0 -223 79t-61 296v166h-113v121h113v246h-146v139h146v313h153v-313h324v-139z" />
<glyph unicode="&#x168;" horiz-adv-x="1318" d="M322 426q0 -307 331 -307q172 0 259 72.5t87 234.5v991h156v-987q0 -238 -126 -344t-371.5 -106t-369.5 106.5t-124 343.5v987h158v-991zM823 1645q-43 0 -170 55t-153 55q-45 0 -125 -74l-27 -24l-35 115q39 45 92.5 81.5t100.5 36.5t172 -55t145 -55q41 0 119 71l25 23 l37 -115q-97 -114 -181 -114z" />
<glyph unicode="&#x169;" horiz-adv-x="1087" d="M940 1024v-1024h-154v72l-43 -23q-43 -25 -118.5 -47t-141.5 -22q-209 0 -277.5 108.5t-68.5 400.5v535h154v-532q0 -223 39 -299t183 -76t273 76v831h154zM686 1253q-43 0 -148.5 48.5t-131.5 48.5q-47 0 -127 -62l-27 -20l-37 98q102 106 186 107q43 0 149.5 -47.5 t129.5 -47.5q45 0 123 60l24 18l35 -98q-94 -105 -176 -105z" />
<glyph unicode="&#x16a;" horiz-adv-x="1318" d="M322 426q0 -307 331 -307q172 0 259 72.5t87 234.5v991h156v-987q0 -238 -126 -344t-371.5 -106t-369.5 106.5t-124 343.5v987h158v-991zM344 1663v119h637v-119h-637z" />
<glyph unicode="&#x16b;" horiz-adv-x="1087" d="M940 1024v-1024h-154v72l-43 -23q-43 -25 -118.5 -47t-141.5 -22q-209 0 -277.5 108.5t-68.5 400.5v535h154v-532q0 -223 39 -299t183 -76t273 76v831h154zM258 1278v121h563v-121h-563z" />
<glyph unicode="&#x16c;" horiz-adv-x="1318" d="M322 426q0 -307 331 -307q172 0 259 72.5t87 234.5v991h156v-987q0 -238 -126 -344t-371.5 -106t-369.5 106.5t-124 343.5v987h158v-991zM537.5 1769q52.5 -43 127 -43t126 43t53.5 111h143q-6 -121 -94 -194.5t-229.5 -73.5t-228.5 73.5t-93 194.5h141q2 -68 54.5 -111z " />
<glyph unicode="&#x16d;" horiz-adv-x="1087" d="M940 1024v-1024h-154v72l-43 -23q-43 -25 -118.5 -47t-141.5 -22q-209 0 -277.5 108.5t-68.5 400.5v535h154v-532q0 -223 39 -299t183 -76t273 76v831h154zM403.5 1362q47.5 -47 128 -47t128 47t49.5 125h127q-6 -123 -88 -205t-216.5 -82t-216.5 82t-88 205h125 q4 -78 51.5 -125z" />
<glyph unicode="&#x16e;" horiz-adv-x="1318" d="M322 426q0 -307 331 -307q172 0 259 72.5t87 234.5v991h156v-987q0 -238 -126 -344t-371.5 -106t-369.5 106.5t-124 343.5v987h158v-991zM837.5 1890.5q67.5 -57.5 67.5 -159t-67.5 -158.5t-175 -57t-175 57t-67.5 158.5t68.5 159t175 57.5t174 -57.5zM537 1733 q0 -51 33.5 -81t93 -30t93.5 29.5t34 81t-34 80t-93 28.5q-127 1 -127 -108z" />
<glyph unicode="&#x16f;" horiz-adv-x="1087" d="M940 1024v-1024h-154v72l-43 -23q-43 -25 -118.5 -47t-141.5 -22q-209 0 -277.5 108.5t-68.5 400.5v535h154v-532q0 -223 39 -299t183 -76t273 76v831h154zM330 1321q0 90 61.5 151.5t150.5 61.5t150.5 -61.5t61.5 -151.5t-60.5 -151.5t-150.5 -61.5t-151.5 61.5 t-61.5 151.5zM463 1402q-33 -34 -33 -82t33 -82t80 -34t79.5 34t32.5 82t-32.5 82t-79.5 34t-80 -34z" />
<glyph unicode="&#x170;" horiz-adv-x="1318" d="M322 426q0 -307 331 -307q172 0 259 72.5t87 234.5v991h156v-987q0 -238 -126 -344t-371.5 -106t-369.5 106.5t-124 343.5v987h158v-991zM721 1608l291 268l112 -72l-299 -264zM317 1608l291 270l111 -72l-297 -264z" />
<glyph unicode="&#x171;" horiz-adv-x="1087" d="M940 1024v-1024h-154v72l-43 -23q-43 -25 -118.5 -47t-141.5 -22q-209 0 -277.5 108.5t-68.5 400.5v535h154v-532q0 -223 39 -299t183 -76t273 76v831h154zM616 1278l297 285l111 -88l-303 -283zM221 1278l297 283l111 -86l-301 -283z" />
<glyph unicode="&#x172;" horiz-adv-x="1320" d="M322 426q0 -307 331 -307q172 0 259 72.5t87 234.5v991h156v-987q0 -360 -309 -430l-19 -18q-123 -131 -122 -191q0 -39 23.5 -63.5t59.5 -24.5l103 12l14 -118q-92 -18 -167.5 -18.5t-129 47.5t-53.5 136t129 218h-31q-242 0 -365.5 106.5t-123.5 343.5v987h158v-991z " />
<glyph unicode="&#x173;" horiz-adv-x="1087" d="M786 1024h154v-1024q-51 -39 -104.5 -107.5t-53.5 -104.5t23.5 -60.5t60.5 -24.5l105 12l14 -118q-92 -18 -168 -18.5t-129 47.5t-53 121t52 140.5t108 112.5h-9v66q-160 -86 -303 -86q-209 0 -277.5 108.5t-68.5 400.5v535h154v-532q0 -223 39 -299t176 -76 q61 0 131 19.5t108 37.5l41 19v831z" />
<glyph unicode="&#x174;" horiz-adv-x="1814" d="M61 1417h164l242 -1278h59l289 1266h184l289 -1266h60l241 1278h162l-287 -1417h-288l-269 1210l-268 -1210h-289zM567 1614l275 276h133l274 -276h-172l-168 164l-170 -164h-172z" />
<glyph unicode="&#x175;" horiz-adv-x="1560" d="M63 1024h154l207 -891h33l243 871h160l244 -871h35l204 891h154l-244 -1024h-256l-217 801l-217 -801h-256zM477 1212l252 287h105l253 -287h-153l-150 179l-153 -179h-154z" />
<glyph unicode="&#x176;" horiz-adv-x="1101" d="M631 0h-158v596l-453 821h179l352 -663l352 663h178l-450 -821v-596zM213 1620l274 276h134l274 -276h-172l-168 164l-170 -164h-172z" />
<glyph unicode="&#x177;" horiz-adv-x="989" d="M51 1024h154l256 -891h67l258 891h154l-426 -1479h-154l134 455h-152zM195 1212l251 287h105l254 -287h-154l-149 179l-154 -179h-153z" />
<glyph unicode="&#x178;" horiz-adv-x="1101" d="M631 0h-158v596l-453 821h179l352 -663l352 663h178l-450 -821v-596zM266 1655v184h150v-184h-150zM684 1655v184h147v-184h-147z" />
<glyph unicode="&#x179;" horiz-adv-x="1097" d="M88 1278v139h922v-184l-742 -1053v-41h742v-141h-922v182l739 1053v45h-739zM313 1702l443 205l53 -135l-449 -179z" />
<glyph unicode="&#x17a;" horiz-adv-x="931" d="M86 1024h760v-137l-574 -750h574v-137h-760v137l573 750h-573v137zM231 1315l443 201l53 -132l-453 -174z" />
<glyph unicode="&#x17b;" horiz-adv-x="1097" d="M88 1278v139h922v-184l-742 -1053v-41h742v-141h-922v182l739 1053v45h-739zM471 1640v179h152v-179h-152z" />
<glyph unicode="&#x17c;" horiz-adv-x="931" d="M86 1024h760v-137l-574 -750h574v-137h-760v137l573 750h-573v137zM389 1247v178h152v-178h-152z" />
<glyph unicode="&#x17d;" horiz-adv-x="1097" d="M88 1278v139h922v-184l-742 -1053v-41h742v-141h-922v182l739 1053v45h-739zM498 1620l-275 276h172l170 -163l168 163h172l-274 -276h-133z" />
<glyph unicode="&#x17e;" horiz-adv-x="931" d="M86 887v137h760v-137l-574 -750h574v-137h-760v137l573 750h-573zM420 1212l-252 287h151l154 -178l152 178h153l-256 -287h-102z" />
<glyph unicode="&#x192;" d="M575 -113q0 -207 -68.5 -287.5t-225.5 -80.5q-78 0 -170 12l-31 4l2 131q123 -10 194.5 -10t108.5 52t37 181v861h-129v131h129v110q0 201 56.5 310.5t219.5 109.5q57 0 172 -14l33 -4l-2 -129q-92 8 -174 8q-152 0 -152 -236v-155h297v-131h-297v-863z" />
<glyph unicode="&#x1fa;" horiz-adv-x="1220" d="M784.5 1685.5q67.5 -57.5 67.5 -153.5t-59 -156l378 -1376h-155l-103 365h-606l-102 -365h-156l377 1374q-59 59 -59 156.5t68.5 155t175 57.5t174 -57.5zM557 1282l-215 -776h537l-215 776h-107zM348 1892l443 205l53 -135l-449 -178zM483 1528q0 -51 34 -81t93.5 -30 t93 30t33.5 81t-33.5 79.5t-93.5 28.5q-127 1 -127 -108z" />
<glyph unicode="&#x1fb;" horiz-adv-x="1026" d="M870 715v-525q6 -76 119 -90l-6 -120q-162 0 -244 81q-184 -82 -368 -81q-141 0 -215 79.5t-74 229t75.5 220.5t237.5 87l322 31v88q0 104 -45 149t-123 45q-164 0 -340 -20l-64 -6l-6 116q225 45 399.5 45t253 -79.5t78.5 -249.5zM240 297q0 -188 155 -188q139 0 275 47 l47 16v338l-303 -29q-92 -8 -133 -53t-41 -131zM291 1321q0 90 61.5 151.5t150.5 61.5t150.5 -61.5t61.5 -151.5t-60.5 -151.5t-150.5 -61.5t-151.5 61.5t-61.5 151.5zM424 1402q-33 -34 -33 -82t33 -82t80 -34t79.5 34t32.5 82t-32.5 82t-79.5 34t-80 -34zM270 1688 l443 200l53 -131l-453 -174z" />
<glyph unicode="&#x1fc;" horiz-adv-x="1794" d="M836 0v358h-514l-119 -358h-162l459 1425h1198v-149h-707v-471h584v-150h-584v-505h707v-150h-862zM614 1276l-249 -766h471l2 766h-224zM846 1702l442 205l53 -135l-448 -179z" />
<glyph unicode="&#x1fd;" horiz-adv-x="1646" d="M1454 133l59 4l5 -125q-231 -33 -415.5 -32.5t-283.5 110.5l-65 -29q-178 -82 -394 -81q-137 0 -207.5 80.5t-70.5 238.5t84 220.5t287 82.5l264 25v84q0 186 -178 186q-135 0 -326 -16l-63 -4l-7 137q244 31 404 30q209 0 276 -149q98 150 312.5 149.5t316.5 -116 t102 -363.5l-8 -119h-676q0 -168 61.5 -247.5t187.5 -79.5t335 14zM385 113q94 0 215 29.5t152 45.5q-39 104 -39 314l-299 -25q-90 -8 -132 -51t-42 -129q0 -184 145 -184zM870 571h531q0 182 -60.5 259t-196.5 77t-205 -80t-69 -256zM594 1315l442 201l54 -132l-453 -174z " />
<glyph unicode="&#x1fe;" horiz-adv-x="1355" d="M678 -20q-141 0 -246 34l-117 -252l-116 54l120 258q-109 82 -154.5 235.5t-45.5 392.5q0 373 123 554.5t436 181.5q154 0 258 -43l115 241l118 -49l-120 -260q190 -160 190 -625q0 -383 -121 -552.5t-440 -169.5zM363.5 1156q-82.5 -142 -82.5 -479t106 -456l487 1039 q-78 39 -196 38q-232 0 -314.5 -142zM678 119q236 0 316.5 133t80.5 462.5t-98 461.5l-481 -1029q69 -28 182 -28zM428 1702l442 205l54 -135l-449 -179z" />
<glyph unicode="&#x1ff;" horiz-adv-x="1081" d="M541 1044q80 0 151 -16l88 213l103 -39l-88 -213q184 -102 184 -465q0 -291 -94 -417.5t-344 -126.5q-84 0 -156 16l-88 -225l-102 36l90 224q-100 55 -141.5 174t-41.5 319q0 270 100.5 395t338.5 125zM541 911q-160 0 -220.5 -85t-60.5 -268t17.5 -267t68.5 -127 l297 735q-43 12 -102 12zM541 113q174 0 227 89t53 331.5t-86 320.5l-299 -731q37 -10 105 -10zM295 1315l442 201l54 -132l-453 -174z" />
<glyph unicode="&#x218;" horiz-adv-x="1110" d="M510 -160h152l-101 -424h-133zM565 1300q-307 0 -307 -231q0 -129 70.5 -177t286.5 -96t306.5 -125t90.5 -253q0 -436 -453 -436q-150 0 -375 34l-73 11l16 131q279 -37 424 -37q303 0 303 285q0 115 -66.5 165t-248.5 84q-240 51 -340.5 132t-100.5 272q0 381 457 381 q150 0 358 -31l70 -10l-14 -133q-285 34 -404 34z" />
<glyph unicode="&#x219;" horiz-adv-x="952" d="M309 -160h154l-103 -424h-133zM469 907q-223 0 -223 -155q0 -72 51 -101.5t233.5 -61.5t258 -89.5t75.5 -215t-101 -231t-296 -73.5q-127 0 -299 28l-62 10l9 134q233 -35 352 -35t181.5 38t62.5 127t-53.5 120.5t-233.5 60.5t-256 84t-76 204.5t105.5 221t263.5 71.5 q125 0 313 -28l57 -10l-4 -132q-227 33 -358 33z" />
<glyph unicode="&#x21a;" horiz-adv-x="1077" d="M504 -160h153l-102 -424h-133zM27 1276v141h1024v-141h-433v-1276h-155v1276h-436z" />
<glyph unicode="&#x21b;" horiz-adv-x="718" d="M289 -160h153l-102 -424h-133zM678 891h-326v-490q0 -176 25.5 -231t122.5 -55l182 12l10 -127q-137 -23 -209 -23q-160 0 -221 78t-61 297v539h-146v133h146v313h151v-313h326v-133z" />
<glyph unicode="&#x2c6;" horiz-adv-x="483" d="M-39 1212l252 287h104l254 -287h-153l-150 179l-153 -179h-154z" />
<glyph unicode="&#x2c7;" horiz-adv-x="483" d="M217 1212l-252 287h152l153 -178l152 178h153l-256 -287h-102z" />
<glyph unicode="&#x2d8;" horiz-adv-x="483" d="M141 1362q47 -47 128 -47t128 47t49 125h127q-6 -123 -88 -205t-216 -82t-216 82t-88 205h125q4 -78 51 -125z" />
<glyph unicode="&#x2d9;" horiz-adv-x="483" d="M166 1247v178h151v-178h-151z" />
<glyph unicode="&#x2da;" horiz-adv-x="483" d="M37 1321q0 90 61.5 151.5t150.5 61.5t150.5 -61.5t61.5 -151.5t-60.5 -151.5t-150.5 -61.5t-151.5 61.5t-61.5 151.5zM170 1402q-33 -34 -33 -82t33 -82t80 -34t79.5 34t32.5 82t-32.5 82t-79.5 34t-80 -34z" />
<glyph unicode="&#x2db;" horiz-adv-x="921" d="M535 -209q0 -39 23.5 -63.5t59.5 -24.5l103 12l14 -118q-92 -18 -167.5 -18.5t-129 47.5t-53.5 116t43 133.5t84 104.5l43 36l125 -14q-145 -143 -145 -211z" />
<glyph unicode="&#x2dc;" horiz-adv-x="483" d="M410 1253q-43 0 -148.5 48.5t-132.5 48.5q-47 0 -127 -62l-27 -20l-36 98q102 106 186 107q43 0 149.5 -47.5t131.5 -47.5q43 0 118 60l27 18l35 -98q-94 -105 -176 -105z" />
<glyph unicode="&#x2dd;" horiz-adv-x="483" d="M291 1278l297 285l110 -88l-303 -283zM-104 1278l297 283l110 -86l-301 -283z" />
<glyph unicode="&#x3c0;" d="M735 315v576h-319l-58 -891h-155l63 891q-111 0 -196 -21l-25 -6v129q121 31 291 31h481q133 0 236 20l32 9v-129q-57 -25 -196 -29v-580q0 -115 34.5 -152.5t143.5 -37.5v-133q-203 0 -267.5 63t-64.5 260z" />
<glyph unicode="&#x1e80;" horiz-adv-x="1814" d="M61 1417h164l242 -1278h59l289 1266h184l289 -1266h60l241 1278h162l-287 -1417h-288l-269 1210l-268 -1210h-289zM709 1907l442 -205l-47 -109l-449 179z" />
<glyph unicode="&#x1e81;" horiz-adv-x="1560" d="M63 1024h154l207 -891h33l243 871h160l244 -871h35l204 891h154l-244 -1024h-256l-217 801l-217 -801h-256zM543 1516l442 -201l-43 -105l-453 174z" />
<glyph unicode="&#x1e82;" horiz-adv-x="1814" d="M61 1417h164l242 -1278h59l289 1266h184l289 -1266h60l241 1278h162l-287 -1417h-288l-269 1210l-268 -1210h-289zM680 1702l442 205l54 -135l-449 -179z" />
<glyph unicode="&#x1e83;" horiz-adv-x="1560" d="M63 1024h154l207 -891h33l243 871h160l244 -871h35l204 891h154l-244 -1024h-256l-217 801l-217 -801h-256zM567 1315l443 201l53 -132l-453 -174z" />
<glyph unicode="&#x1e84;" horiz-adv-x="1814" d="M61 1417h164l242 -1278h59l289 1266h184l289 -1266h60l241 1278h162l-287 -1417h-288l-269 1210l-268 -1210h-289zM623 1655v184h149v-184h-149zM1040 1655v184h148v-184h-148z" />
<glyph unicode="&#x1e85;" horiz-adv-x="1560" d="M63 1024h154l207 -891h33l243 871h160l244 -871h35l204 891h154l-244 -1024h-256l-217 801l-217 -801h-256zM504 1272v184h147v-184h-147zM913 1272v184h150v-184h-150z" />
<glyph unicode="&#x1eab;" horiz-adv-x="1026" d="M870 715v-525q6 -76 119 -90l-6 -120q-162 0 -244 81q-184 -82 -368 -81q-141 0 -215 79.5t-74 229t75.5 220.5t237.5 87l322 31v88q0 104 -45 149t-123 45q-164 0 -340 -20l-64 -6l-6 116q225 45 399.5 45t253 -79.5t78.5 -249.5zM240 297q0 -188 155 -188q139 0 275 47 l47 16v338l-303 -29q-92 -8 -133 -53t-41 -131zM178 1151l252 287h105l253 -287h-153l-150 178l-153 -178h-154zM612 1507q-43 0 -148.5 48.5t-131.5 48.5q-47 0 -127 -62l-27 -20l-37 98q102 106 187 106q43 0 149.5 -47t128.5 -47q45 0 123 60l25 18l34 -98 q-94 -105 -176 -105z" />
<glyph unicode="&#x1eb0;" horiz-adv-x="1216" d="M49 0l389 1425h344l385 -1423h-157l-107 356h-594l-104 -358h-156zM557 1280l-211 -770h522l-209 770h-102zM480 1700q52 -43 127 -43t126 43t53 110h144q-6 -121 -94 -194.5t-229.5 -73.5t-228.5 74t-93 194h141q2 -67 54 -110zM299 2216l442 -201l-43 -104l-452 174z " />
<glyph unicode="&#x1ec5;" horiz-adv-x="1036" d="M526 119q104 0 318 14l59 4l4 -125q-233 -33 -399 -32q-221 0 -313.5 128t-92.5 398q0 539 428 538q207 0 309.5 -115.5t102.5 -363.5l-8 -119h-676q0 -168 61.5 -247.5t206.5 -79.5zM788 571q0 182 -60 259t-198 77q-272 0 -274 -336h532zM221 1151l252 287h105 l253 -287h-153l-150 178l-153 -178h-154zM662 1507q-43 0 -148.5 48.5t-132.5 48.5q-47 0 -127 -62l-27 -20l-37 98q102 106 187 106q43 0 149.5 -47t128.5 -47q45 0 123 60l25 18l35 -98q-94 -105 -176 -105z" />
<glyph unicode="&#x1ed7;" horiz-adv-x="1081" d="M879.5 919.5q99.5 -124.5 99.5 -405.5t-94 -407.5t-344 -126.5t-344.5 126.5t-94.5 407.5t100.5 405.5t339 124.5t338 -124.5zM768 202q53 89 53 314t-59.5 310t-220 85t-221 -85t-60.5 -309t54.5 -314t227.5 -90t226 89zM225 1151l252 287h105l254 -287h-154l-150 178 l-153 -178h-154zM651 1507q-43 0 -148.5 48.5t-131.5 48.5q-47 0 -127 -62l-27 -20l-37 98q102 106 187 106q43 0 149.5 -47t130.5 -47q43 0 119 60l27 18l34 -98q-94 -105 -176 -105z" />
<glyph unicode="&#x1ef2;" horiz-adv-x="1101" d="M631 0h-158v596l-453 821h179l352 -663l352 663h178l-450 -821v-596zM340 1907l442 -205l-47 -109l-448 179z" />
<glyph unicode="&#x1ef3;" horiz-adv-x="989" d="M51 1024h154l256 -891h67l258 891h154l-426 -1479h-154l134 455h-152zM266 1516l443 -201l-43 -105l-453 174z" />
<glyph unicode="&#x1ef8;" horiz-adv-x="1087" d="M625 0h-158v612l-451 813h177l352 -639l348 639h178l-446 -815v-610zM682 1655q-43 0 -148.5 48t-132.5 48q-47 0 -127 -61l-26 -21l-37 98q102 106 186 107q43 0 149.5 -47t129.5 -47q45 0 123 59l24 19l35 -99q-94 -104 -176 -104z" />
<glyph unicode="&#x1ef9;" horiz-adv-x="989" d="M51 1024h154l256 -877h67l258 877h154l-426 -1479h-154l132 455h-150zM631 1253q-43 0 -148.5 48.5t-132.5 48.5q-47 0 -127 -62l-26 -20l-37 98q102 106 186 107q43 0 149.5 -47.5t131.5 -47.5q43 0 118 60l27 18l35 -98q-94 -105 -176 -105z" />
<glyph unicode="&#x2000;" horiz-adv-x="1108" />
<glyph unicode="&#x2001;" horiz-adv-x="2216" />
<glyph unicode="&#x2002;" horiz-adv-x="1108" />
<glyph unicode="&#x2003;" horiz-adv-x="2216" />
<glyph unicode="&#x2004;" horiz-adv-x="738" />
<glyph unicode="&#x2005;" horiz-adv-x="554" />
<glyph unicode="&#x2006;" horiz-adv-x="369" />
<glyph unicode="&#x2007;" horiz-adv-x="369" />
<glyph unicode="&#x2008;" horiz-adv-x="277" />
<glyph unicode="&#x2009;" horiz-adv-x="443" />
<glyph unicode="&#x200a;" horiz-adv-x="123" />
<glyph unicode="&#x2010;" horiz-adv-x="897" d="M139 492v143h621v-143h-621z" />
<glyph unicode="&#x2011;" horiz-adv-x="897" d="M139 492v143h621v-143h-621z" />
<glyph unicode="&#x2012;" horiz-adv-x="897" d="M139 492v143h621v-143h-621z" />
<glyph unicode="&#x2013;" horiz-adv-x="1292" d="M135 616h1024v-135h-1024v135z" />
<glyph unicode="&#x2014;" horiz-adv-x="2316" d="M135 616h2048v-135h-2048v135z" />
<glyph unicode="&#x2018;" horiz-adv-x="448" d="M356 1450l-90 -449h-162l132 449h120z" />
<glyph unicode="&#x2019;" horiz-adv-x="442" d="M109 1001l90 449h161l-131 -449h-120z" />
<glyph unicode="&#x201a;" horiz-adv-x="446" d="M190 45l-18 -88h-33l27 88h24z" />
<glyph unicode="&#x201c;" horiz-adv-x="763" d="M670 1450l-90 -449h-162l131 449h121zM356 1450l-90 -449h-162l132 449h120z" />
<glyph unicode="&#x201d;" horiz-adv-x="772" d="M109 1004l90 448h161l-131 -448h-120zM436 1004l90 448h162l-131 -448h-121z" />
<glyph unicode="&#x201e;" horiz-adv-x="735" d="M297 229l-90 -448h-162l131 448h121zM608 229l-90 -448h-162l131 448h121z" />
<glyph unicode="&#x2020;" horiz-adv-x="978" d="M70 889v135h344v393h151v-393h344v-135h-344l-8 -1045h-135l-8 1045h-344z" />
<glyph unicode="&#x2021;" horiz-adv-x="1067" d="M457 -156v394h-344v133h344v518h-344v135h344v393h153v-393h342v-135h-342v-518h344v-133h-344v-394h-153z" />
<glyph unicode="&#x2022;" horiz-adv-x="968" d="M227 217v586h512v-586h-512z" />
<glyph unicode="&#x2026;" horiz-adv-x="1484" d="M137 0v233h168v-233h-168zM659 0v233h166v-233h-166zM1180 0v233h168v-233h-168z" />
<glyph unicode="&#x202f;" horiz-adv-x="443" />
<glyph unicode="&#x2030;" horiz-adv-x="1710" d="M303 1268q-55 0 -78.5 -43t-23.5 -135q0 -184 102 -185q55 0 77.5 45t22.5 139.5t-22.5 136.5t-77.5 42zM338 -8l420 1403l98 -33l-422 -1399zM303 1372q225 0 225 -282q0 -145 -59 -217t-166 -72q-225 0 -225 285.5t225 285.5zM659 270q0 281 225.5 281t225.5 -283 q0 -143 -59.5 -215.5t-166 -72.5t-166 72.5t-59.5 217.5zM782 270q0 -186 102.5 -186t102.5 184q0 92 -23.5 135t-79 43t-79 -42t-23.5 -134zM1188 270q0 281 224 281t224 -283q0 -143 -59 -215.5t-164.5 -72.5t-165 72.5t-59.5 217.5zM1311 270q0 -186 102 -186 q55 0 77.5 45t22.5 139t-22.5 136t-77.5 42t-78.5 -42t-23.5 -134z" />
<glyph unicode="&#x2039;" horiz-adv-x="616" d="M479 705l-254 -193l254 -215v-160l-387 309v123l387 293v-157z" />
<glyph unicode="&#x203a;" horiz-adv-x="616" d="M391 520l-254 193v157l387 -292v-123l-387 -310v160z" />
<glyph unicode="&#x2044;" horiz-adv-x="0" d="M-459 57l803 1295l82 -54l-805 -1292z" />
<glyph unicode="&#x205f;" horiz-adv-x="554" />
<glyph unicode="&#x2070;" horiz-adv-x="573" d="M104.5 1560.5q61.5 77.5 182.5 77.5t181 -77.5t60 -263t-60 -262.5t-181 -77t-182.5 78t-61.5 262.5t61.5 262zM369.5 1469.5q-25.5 50.5 -83 50.5t-84 -50.5t-26.5 -173t27.5 -171t83 -48.5t82 48.5t26.5 171t-25.5 173z" />
<glyph unicode="&#x2074;" horiz-adv-x="573" d="M338 979v98h-289v111l141 430h144l-150 -422h154l10 182h119v-182h55v-119h-55v-98h-129z" />
<glyph unicode="&#x2075;" horiz-adv-x="573" d="M299 1272q-53 0 -106 -31l-103 12l21 365h383v-115h-279l-10 -149q61 31 119 30q190 0 190 -200q0 -221 -217 -221q-94 0 -186 20l-33 6l10 107q113 -18 197 -19q96 0 96 97.5t-82 97.5z" />
<glyph unicode="&#x2076;" horiz-adv-x="573" d="M190 1370q86 29 123 29q209 0 209 -211q0 -106 -60.5 -168t-164.5 -62q-238 0 -238 330q0 182 60.5 266t191.5 84q66 0 156 -16l29 -4l-9 -111q-102 14 -172 15q-123 0 -125 -152zM190 1253q6 -178 103.5 -178t97.5 106.5t-82 106.5q-61 0 -90 -16.5t-29 -18.5z" />
<glyph unicode="&#x2077;" horiz-adv-x="573" d="M61 1491v127h422v-158l-215 -499l-141 26l209 461v43h-275z" />
<glyph unicode="&#x2078;" horiz-adv-x="573" d="M286.5 1638q231.5 0 231.5 -174q0 -123 -88 -149q98 -29 98 -154q0 -203 -241.5 -203t-241.5 195q0 121 98 164q-88 33 -88 147q0 174 231.5 174zM286.5 1069q108.5 0 108.5 92q0 76 -80 101h-57q-80 -25 -80 -105q0 -88 108.5 -88zM286.5 1528q-102.5 0 -102.5 -76 q0 -63 74 -90h57q74 25 74 88q0 78 -102.5 78z" />
<glyph unicode="&#x2079;" horiz-adv-x="573" d="M385 1225q-88 -25 -125 -25q-100 0 -153.5 55.5t-53.5 160t61.5 163.5t164.5 59q242 0 241 -342q0 -174 -60.5 -256t-193.5 -82q-74 0 -160 19l-28 6l8 109q92 -14 168 -15q127 1 131 148zM210 1337.5q26 -30.5 67.5 -30.5t111.5 28q-2 186 -106 187q-98 0 -99 -107 q0 -47 26 -77.5z" />
<glyph unicode="&#x2080;" horiz-adv-x="573" d="M104.5 377q61.5 78 182.5 78t181 -78t60 -263.5t-60 -262t-181 -76.5t-182.5 77.5t-61.5 262t61.5 262.5zM369.5 286q-25.5 50 -83 50t-84 -50t-26.5 -173t27.5 -171t83 -48t82 48t26.5 171t-25.5 173z" />
<glyph unicode="&#x2081;" horiz-adv-x="573" d="M424 434v-639h-131v496l-139 -96l-60 96l207 143h123z" />
<glyph unicode="&#x2082;" horiz-adv-x="573" d="M508 -205h-428v113l180 178q104 100 105 170q0 76 -101 76l-174 -19l-4 117q121 25 217 25q197 0 197 -187q0 -68 -29 -118t-96 -111l-129 -125h262v-119z" />
<glyph unicode="&#x2083;" horiz-adv-x="573" d="M279 455q215 0 215 -172q0 -104 -80 -150q49 -16 72.5 -50t23.5 -110q0 -199 -217 -198q-88 0 -195 16l-37 4l9 115q117 -16 212 -16t95 87t-96 87h-134v108h134q29 0 53 26.5t24 63.5q0 70 -92 70l-188 -14l-8 112q121 21 209 21z" />
<glyph unicode="&#x2084;" horiz-adv-x="573" d="M352 -205v99h-289v110l142 430h143l-149 -422h153l10 183h119v-183h56v-118h-56v-99h-129z" />
<glyph unicode="&#x2085;" horiz-adv-x="573" d="M283 88q-53 0 -107 -31l-102 13l20 364h383v-115h-278l-11 -149q61 31 119 31q190 0 191 -201q0 -221 -217 -221q-94 0 -187 20l-33 6l11 107q113 -18 196 -18q96 0 96.5 97t-81.5 97z" />
<glyph unicode="&#x2086;" horiz-adv-x="573" d="M184 186q86 29 123 29q209 0 209 -211q0 -106 -60.5 -167.5t-164.5 -61.5q-238 0 -238 329q0 182 60.5 266.5t191.5 84.5q66 0 154 -17l30 -4l-8 -110q-102 14 -172 14q-123 0 -125 -152zM184 70q6 -178 103.5 -178.5t97.5 106t-82 106.5q-61 0 -90 -16t-29 -18z" />
<glyph unicode="&#x2087;" horiz-adv-x="573" d="M78 307v127h422v-158l-215 -499l-142 26l209 461v43h-274z" />
<glyph unicode="&#x2088;" horiz-adv-x="573" d="M284.5 455q231.5 0 231.5 -174q0 -123 -88 -150q98 -29 98 -154q0 -203 -241.5 -202.5t-241.5 194.5q0 121 98 164q-88 33 -88 148q0 174 231.5 174zM284.5 -115q108.5 0 108.5 92q0 76 -80 101h-57q-80 -25 -80 -105q0 -88 108.5 -88zM284.5 344q-102.5 0 -102.5 -76 q0 -63 74 -90h57q74 25 74 88q0 78 -102.5 78z" />
<glyph unicode="&#x2089;" horiz-adv-x="573" d="M381 41q-88 -25 -125 -25q-100 0 -153.5 55.5t-53.5 160t61.5 164t163.5 59.5q242 0 242 -342q0 -174 -60.5 -256t-193.5 -82q-74 0 -160 18l-28 6l8 109q92 -14 168 -14q127 0 131 147zM205.5 153.5q25.5 -30.5 67.5 -30.5t112 29q-2 186 -106 186q-98 0 -99 -107 q0 -47 25.5 -77.5z" />
<glyph unicode="&#x20ac;" d="M61 774v125h132q25 244 134 358.5t351 114.5q172 0 373 -43l-7 -127q-186 35 -354 35t-244.5 -80t-95.5 -258h586v-125h-594q-2 -33 -2 -102v-92h596v-125h-588q18 -178 95 -259t247 -81t354 37l7 -129q-203 -43 -373 -43q-242 0 -351.5 116.5t-136.5 358.5h-129v125h123 q-2 29 -2 95t2 99h-123z" />
<glyph unicode="&#x2122;" horiz-adv-x="1386" d="M186 1188v102h410v-102h-135v-508h-113v508h-162zM659 678v612h148l135 -426l145 426h144v-612h-107v459l-135 -428h-88l-135 428v-459h-107z" />
<glyph unicode="&#x2126;" d="M344 117q-223 391 -223 653q0 315 98 459.5t354 144.5t354.5 -144.5t98.5 -459.5q0 -133 -56.5 -296t-113.5 -261l-55 -96h254v-135h-404v116q78 143 145.5 335t67.5 296q0 276 -56 390t-235.5 114t-234.5 -112.5t-55 -391.5q0 -104 53 -262t106 -262l54 -107v-116h-404 v135h252z" />
<glyph unicode="&#x2202;" d="M545 1491q248 0 363.5 -178t115.5 -569.5t-112.5 -576.5t-346 -185t-352.5 117.5t-119 331.5t115 332t315 118q147 0 289 -45l47 -17q-8 289 -84 413t-258 124q-66 0 -146.5 -22.5t-129.5 -47.5l-47 -22l-9 125q61 37 169 69.5t190 32.5zM862 684q-164 61 -311.5 61 t-221 -83.5t-73.5 -231t75 -230.5t228.5 -83t227 138t75.5 429z" />
<glyph unicode="&#x2206;" d="M1036 0h-927v117l325 1235h277l325 -1237v-115zM598 1219h-53l-279 -1084h611z" />
<glyph unicode="&#x220f;" d="M782 -334v1739h-422v-1739h-155v1739h-144v139h1024v-139h-145v-1739h-158z" />
<glyph unicode="&#x2211;" d="M90 1542h963v-139h-799v-45l526 -674v-113l-526 -712v-52h799v-141h-963v207l547 758l-547 708v203z" />
<glyph unicode="&#x2212;" d="M135 444v140h877v-140h-877z" />
<glyph unicode="&#x221a;" d="M8 774v139h250l262 -1058h21l465 1736h155l-508 -1870h-250l-274 1053h-121z" />
<glyph unicode="&#x221e;" d="M317 248q-256 0 -256 350q0 170 63.5 260t188.5 90q92 0 152.5 -53t107.5 -164q47 111 106.5 164t154.5 53q125 0 188 -90t63 -260q0 -350 -256 -350q-90 0 -149 52t-107 161q-47 -121 -102.5 -167t-153.5 -46zM332 811q-123 0 -123 -213t123 -213q70 0 101.5 41t55 98.5 t23.5 61.5l6 12q-51 125 -84 164q-35 37 -57 43t-45 6zM815 385q123 0 123 213t-123 213q-47 0 -69.5 -19.5t-33 -30.5t-24.5 -37t-20 -38q-18 -37 -39 -88q51 -125 84 -164q35 -37 57 -43t45 -6z" />
<glyph unicode="&#x222b;" d="M647 -12q0 -205 -68.5 -288t-209.5 -83l-181 16l7 131q80 -8 153.5 -8t108.5 51.5t35 182.5v1190q0 231 66.5 324t211.5 93q88 0 160 -12l28 -6l-6 -131q-78 10 -154.5 10t-113.5 -62.5t-37 -217.5v-1190z" />
<glyph unicode="&#x2248;" d="M776 553q-55 0 -210.5 63.5t-194.5 63.5q-74 0 -181 -74l-34 -22l-25 127q129 109 240 108q61 0 214.5 -62.5t192.5 -62.5q72 0 180 72l35 22l21 -124q-129 -111 -238 -111zM776 174q-55 0 -210.5 63.5t-194.5 63.5t-92.5 -23.5t-88.5 -48.5l-34 -24l-25 127 q129 109 240 108q61 0 214.5 -62.5t192.5 -62.5q72 0 180 70l35 25l21 -125q-129 -111 -238 -111z" />
<glyph unicode="&#x2260;" d="M131 633v141h492l139 318l123 -50l-119 -268h250v-141h-311l-103 -238h414v-141h-475l-135 -311l-125 49l114 262h-264v141h326l104 238h-430z" />
<glyph unicode="&#x2264;" d="M999 864l-686 -209l686 -225v-156l-866 308v139l866 297v-154zM133 45v139h866v-139h-866z" />
<glyph unicode="&#x2265;" d="M831 655l-686 209v154l867 -297v-139l-867 -308v156zM1012 184v-139h-867v139h867z" />
<glyph unicode="&#x25ca;" d="M877 674l-205 137h20l344 -137l-344 -133h-18zM111 674l344 137h18l-203 -137l201 -133h-16zM596 489h-47l-78 52h203zM473 811l76 51h47l76 -51h-199z" />
<glyph unicode="&#x25fc;" horiz-adv-x="1024" d="M0 1024h1024v-1024h-1024v1024z" />
<glyph unicode="&#xf6be;" horiz-adv-x="448" d="M150 27v997h151v-999q0 -188 -67.5 -282.5t-272.5 -199.5l-61 119q158 92 204 158t46 207z" />
<glyph unicode="&#xf6c3;" horiz-adv-x="348" d="M47 -584l84 424h152l-103 -424h-133z" />
<glyph horiz-adv-x="481" />
<glyph horiz-adv-x="0" />
<glyph horiz-adv-x="1089" d="M221.5 917.5q112.5 124.5 325.5 124.5t322.5 -120.5t109.5 -415.5t-111.5 -409.5t-320.5 -114.5t-323.5 115.5t-114.5 405.5t112.5 414.5zM545 909q-143 0 -217 -87t-74 -313t73.5 -310t219 -84t216.5 82t71 273.5t-36 283.5t-95.5 123.5t-157.5 31.5z" />
<glyph horiz-adv-x="724" d="M569 1024v-1024h-145v858l-311 -184l-60 117l387 233h129z" />
<glyph horiz-adv-x="968" d="M866 0h-760v129l353 289q127 100 178 167.5t51 155.5t-57.5 126t-192.5 38q-70 0 -195.5 -17.5t-125.5 -19.5l-11 131q219 43 371 43q365 0 365 -292q0 -119 -54.5 -197t-175.5 -172l-307 -248h561v-133z" />
<glyph horiz-adv-x="989" d="M117 1008q213 37 381 36.5t261 -59.5t93 -197q0 -106 -76 -182q-23 -23 -45 -34t-35.5 -18t-15.5 -7q90 -29 146.5 -86.5t56.5 -171.5q0 -154 -102.5 -230.5t-280.5 -76.5q-152 0 -336 30l-62 11l19 131q213 -31 379 -31q238 2 237 174q0 94 -63.5 130t-169.5 42h-258 v129h256q86 4 145.5 42t59.5 120t-54.5 114.5t-146.5 32.5q-178 0 -322 -22l-53 -8z" />
<glyph horiz-adv-x="968" d="M643 -41v231h-569v113l319 721h152l-312 -694h410v272h145v-272h109v-140h-109v-231h-145z" />
<glyph horiz-adv-x="1003" d="M866 1028v-147h-571l-29 -295q139 63 266 63q375 0 375 -313q0 -170 -101 -262t-284 -92q-145 0 -346 36l-65 13l18 131q244 -41 389 -41q231 0 232 207q0 186 -232 186q-53 0 -123.5 -17.5t-115.5 -35.5l-43 -19l-111 25l37 561h704z" />
<glyph horiz-adv-x="1009" d="M850 889q-180 25 -314.5 24.5t-209 -78t-74.5 -262.5q164 76 299 76q367 0 367 -327q0 -164 -109 -253t-303 -89q-397 0 -397 531t430 531q150 0 276 -22l45 -8zM295 467l-43 -16q6 -342 263 -342t257 213q0 102 -58.5 147t-177 45t-241.5 -47z" />
<glyph horiz-adv-x="841" d="M72 895v131h702v-174l-436 -870l-127 36l424 836v41h-563z" />
<glyph horiz-adv-x="1040" d="M129 774q0 268 392 268t392 -270q0 -168 -182 -235q98 -39 149.5 -94.5t51.5 -168.5q0 -295 -411.5 -294.5t-411.5 286.5q0 113 48 169.5t144 101.5q-172 69 -172 237zM322.5 144q68.5 -38 198.5 -38t197.5 39t67.5 133.5t-45 131t-143 61.5h-170q-88 -23 -131 -67 t-43 -133t68.5 -127zM518 915q-123 0 -183.5 -35.5t-60.5 -112.5t36 -115t118 -62h170q86 20 128 59t42 113q0 153 -250 153z" />
<glyph horiz-adv-x="995" d="M457 113q281 0 280 342q-141 -70 -299.5 -70t-251 82t-92.5 239.5t104.5 247.5t282.5 90q406 0 406 -531t-430 -531q-141 0 -277 26l-45 10l12 123q167 -28 310 -28zM469 514q111 0 227 51l39 17q-4 168 -66.5 250.5t-191.5 82.5q-238 0 -237 -210q0 -191 229 -191z" />
<glyph horiz-adv-x="897" d="M74 309q0 133 35.5 202t145.5 160t150.5 145t40.5 120v72h129q27 -55 27 -125t-47 -130.5t-151.5 -150.5t-139.5 -143t-35 -148.5t65.5 -142.5t207.5 -47q109 0 264 35l53 12l10 -125q-207 -61 -342 -61q-211 0 -312 76.5t-101 250.5zM598 1417v-229h-168v229h168z" />
<glyph horiz-adv-x="1296" d="M137 678h1024v-135h-1024v135z" />
<glyph horiz-adv-x="2320" d="M137 678h2048v-135h-2048v135z" />
<glyph horiz-adv-x="442" d="M137 569v234h168v-234h-168z" />
<glyph horiz-adv-x="505" d="M336 1417v-229h-168v229h168zM324 950l10 -950h-162l10 950h142z" />
<glyph horiz-adv-x="540" d="M317 -195q-213 479 -213 873q0 197 53.5 427t106.5 361l53 131h148q-72 -188 -133.5 -465.5t-61.5 -452.5t49.5 -393t98.5 -349l47 -132h-148z" />
<glyph horiz-adv-x="540" d="M223 1608q213 -479 213 -873q0 -197 -53 -427t-107 -361l-53 -131h-147q72 188 133 465.5t61 452.5t-48 393.5t-97 349.5l-49 131h147z" />
<glyph horiz-adv-x="673" d="M592 1595v-137h-275v-1511h275v-137h-430v1785h430z" />
<glyph horiz-adv-x="673" d="M82 1458v137h430v-1785h-430v137h274v1511h-274z" />
<glyph horiz-adv-x="720" d="M406 1239l14 -252q0 -131 -44 -190.5t-171 -96.5q125 -37 170 -99t45 -191l-14 -238q0 -115 50 -173t185 -67l-4 -133q-207 8 -294 91t-87 268l14 250q0 88 -51 142t-168 87v125q117 27 168 81t51 142l-14 262q0 188 87 270t296 91l2 -133q-135 -8 -185 -64.5t-50 -171.5 z" />
<glyph horiz-adv-x="720" d="M315 164l-14 252q0 131 44 190.5t171 95.5q-125 37 -170 99.5t-45 191.5l14 238q0 115 -50 173t-185 66l4 134q207 -8 294 -91t87 -268l-14 -250q0 -88 51 -142t168 -87v-125q-117 -27 -168 -81t-51 -142l14 -262q0 -188 -87 -270.5t-296 -90.5l-2 133q135 8 185 64.5 t50 171.5z" />
<glyph horiz-adv-x="483" d="M74 1907l442 -205l-47 -109l-449 179z" />
<glyph horiz-adv-x="483" d="M25 1702l442 205l53 -135l-448 -179z" />
<glyph horiz-adv-x="946" d="M111 1620l274 276h133l275 -276h-172l-168 164l-170 -164h-172z" />
<glyph horiz-adv-x="483" d="M203 1620l-275 276h172l170 -163l168 163h172l-274 -276h-133z" />
<glyph horiz-adv-x="483" d="M451 1645q-43 0 -170 55t-154 55q-45 0 -125 -74l-27 -24l-34 115q39 45 92 81.5t100 36.5t172 -55t146 -55q41 0 118 71l25 23l37 -115q-96 -114 -180 -114z" />
<glyph horiz-adv-x="483" d="M-45 1655v184h149v-184h-149zM373 1655v184h147v-184h-147z" />
<glyph horiz-adv-x="483" d="M-45 1663v119h637v-119h-637z" />
<glyph horiz-adv-x="483" d="M152.5 1769q52.5 -43 127 -43t126 43t53.5 111h143q-6 -121 -94 -194.5t-229.5 -73.5t-228.5 73.5t-93 194.5h141q2 -68 54.5 -111z" />
<glyph horiz-adv-x="483" d="M444.5 1759.5q67.5 -57.5 67.5 -159t-67.5 -159t-175 -57.5t-175 57.5t-67.5 159t68.5 159t175 57.5t174 -57.5zM143 1602q0 -51 34 -81t93.5 -30t93 29.5t33.5 81t-33.5 80t-93.5 28.5q-127 1 -127 -108z" />
<glyph horiz-adv-x="483" d="M322 1608l290 268l113 -72l-299 -264zM-82 1608l291 270l110 -72l-296 -264z" />
<glyph horiz-adv-x="483" d="M166 1640v179h151v-179h-151z" />
<glyph horiz-adv-x="573" d="M104.5 1356q61.5 78 182.5 78t181 -78t60 -263.5t-60 -262t-181 -76.5t-182.5 77.5t-61.5 262t61.5 262.5zM369.5 1264.5q-25.5 50.5 -83 50.5t-84 -50.5t-26.5 -173t27.5 -171t83 -48.5t82 48.5t26.5 171t-25.5 173z" />
<glyph horiz-adv-x="573" d="M414 1413v-639h-131v496l-140 -96l-59 96l207 143h123z" />
<glyph horiz-adv-x="573" d="M498 774h-428v113l180 178q104 100 104 170q0 76 -100 76l-174 -19l-4 117q121 25 219 25q195 0 194 -187q0 -68 -28.5 -118t-95.5 -111l-129 -125h262v-119z" />
<glyph horiz-adv-x="573" d="M285 1434q215 0 215 -172q0 -104 -80 -150q49 -16 72.5 -50t23.5 -110q0 -199 -217 -198q-88 0 -197 16l-34 4l8 115q117 -16 212 -16.5t95 87t-96 87.5h-133v108h133q29 0 53.5 26.5t24.5 63.5q0 70 -93 70l-188 -15l-8 113q121 21 209 21z" />
<glyph horiz-adv-x="573" d="M338 774v98h-289v111l141 430h144l-150 -422h154l10 183h119v-183h55v-119h-55v-98h-129z" />
<glyph horiz-adv-x="573" d="M297 1067q-53 0 -107 -31l-102 13l21 364h383v-115h-279l-10 -149q61 31 119 31q190 0 190 -201q0 -221 -217 -221q-94 0 -184 20l-35 6l10 107q113 -18 197 -19q96 0 96 97.5t-82 97.5z" />
<glyph horiz-adv-x="573" d="M188 1165q86 29 123 29q209 0 209 -211q0 -106 -60.5 -167.5t-164.5 -61.5q-238 0 -238 329q0 182 60.5 266.5t191.5 84.5q66 0 154 -17l31 -4l-9 -110q-102 14 -172 14q-123 0 -125 -152zM188 1049q6 -178 103.5 -178.5t97.5 106t-82 106.5q-61 0 -90 -16t-29 -18z" />
<glyph horiz-adv-x="573" d="M82 1286v127h422v-158l-215 -499l-142 26l209 461v43h-274z" />
<glyph horiz-adv-x="573" d="M286.5 1434q231.5 0 231.5 -174q0 -123 -88 -150q98 -29 98 -154q0 -203 -241.5 -202.5t-241.5 194.5q0 121 98 164q-88 33 -88 148q0 174 231.5 174zM286.5 864q108.5 0 108.5 92q0 76 -80 101h-57q-80 -25 -80 -105q0 -88 108.5 -88zM286.5 1323q-102.5 0 -102.5 -76 q0 -63 74 -90h57q74 25 74 88q0 78 -102.5 78z" />
<glyph horiz-adv-x="573" d="M389 1020q-88 -25 -125 -25q-100 0 -153.5 55.5t-53.5 160t61.5 164t164.5 59.5q242 0 241 -342q0 -174 -60.5 -256t-193.5 -82q-74 0 -159 18l-29 6l8 109q92 -14 168 -15q127 1 131 148zM214 1132.5q26 -30.5 68 -30.5t111 28q-2 186 -106 187q-98 0 -99 -107 q0 -47 26 -77.5z" />
<glyph d="M518 573v197h127v-197h-127zM571 1374q168 0 273 -63q221 -131 221 -656q0 -371 -123 -523t-368.5 -152t-369.5 150.5t-124 536.5t121.5 546.5t369.5 160.5zM573 1233q-117 0 -184 -49q-145 -100 -145 -531q0 -303 79.5 -418.5t249.5 -115.5t250 116.5t80 433t-77 440.5 t-253 124z" />
<glyph horiz-adv-x="1990" d="M1907 737v-26q0 -434 -138 -547q-49 -39 -99 -51.5t-114.5 -12.5t-110.5 12.5t-71 30.5q-49 37 -67 80q-201 -121 -357 -121q-76 0 -132 18.5t-113 67.5q-115 104 -115 401.5t92 427.5t324 130q88 0 198 -41l37 -12v32h154v-391q0 -358 22 -426q10 -27 29.5 -49t42 -26.5 t78 -4.5t93.5 27t64.5 135.5t26.5 319.5v28q0 379 -168 549t-558 170t-579.5 -193.5t-189.5 -628.5t180 -619.5t592 -184.5l293 21l6 -138q-193 -18 -299 -18q-238 0 -402.5 45t-285.5 152q-240 211 -240 753q0 494 235.5 720t692.5 226t668 -210t211 -646zM961 238 q88 0 299 94q-18 111 -19 354v285q-123 41 -211 41q-166 0 -225.5 -94.5t-59.5 -305.5q1 -374 216 -374z" />
<glyph horiz-adv-x="573" d="M104.5 581.5q61.5 77.5 182.5 77.5t181 -77.5t60 -263t-60 -262t-181 -76.5t-182.5 77.5t-61.5 262t61.5 262zM369.5 490.5q-25.5 50.5 -83 50.5t-84 -50.5t-26.5 -173t27.5 -171t83 -48.5t82 48.5t26.5 171t-25.5 173z" />
<glyph horiz-adv-x="573" d="M418 639v-639h-131v496l-140 -97l-59 97l207 143h123z" />
<glyph horiz-adv-x="573" d="M506 0h-428v113l180 178q104 100 104 170q0 76 -100 76l-174 -19l-4 117q121 25 219 24q195 0 195 -186q0 -68 -29 -118t-96 -111l-129 -125h262v-119z" />
<glyph horiz-adv-x="573" d="M285 659q215 0 215 -172q0 -104 -80 -149q49 -16 72.5 -50t23.5 -110q0 -199 -217 -198q-88 0 -197 16l-34 4l8 115q117 -16 212 -16.5t95 86.5t-96 87h-133v109h133q29 0 53.5 26.5t24.5 63.5q0 70 -93 70l-188 -15l-8 113q121 20 209 20z" />
<glyph horiz-adv-x="573" d="M340 0v98h-289v111l142 430h143l-150 -422h154l10 182h119v-182h55v-119h-55v-98h-129z" />
<glyph horiz-adv-x="573" d="M289 293q-53 0 -107 -31l-102 12l20 365h383v-115h-278l-10 -149q61 31 118 31q190 0 191 -201q0 -221 -217 -221q-94 0 -185 20l-34 6l10 107q113 -18 196 -19q96 0 96.5 97.5t-81.5 97.5z" />
<glyph horiz-adv-x="573" d="M180 391q86 29 123 29q209 0 209 -211q0 -106 -60.5 -167.5t-164.5 -61.5q-238 0 -238 329q0 182 60.5 266t191.5 84q66 0 154 -16l30 -4l-8 -111q-102 14 -172 15q-123 0 -125 -152zM180 274q6 -178 103.5 -178t97.5 106.5t-82 106.5q-61 0 -90 -16.5t-29 -18.5z" />
<glyph horiz-adv-x="573" d="M82 512v127h422v-158l-215 -499l-142 26l209 461v43h-274z" />
<glyph horiz-adv-x="573" d="M286.5 659q231.5 0 231.5 -174q0 -123 -88 -149q98 -29 98 -154q0 -203 -241.5 -202.5t-241.5 194.5q0 121 98 164q-88 33 -88 147q0 174 231.5 174zM286.5 90q108.5 0 108.5 92q0 76 -80 101h-57q-80 -25 -80 -105q0 -88 108.5 -88zM286.5 549q-102.5 0 -102.5 -76 q0 -63 74 -90h57q74 25 74 88q0 78 -102.5 78z" />
<glyph horiz-adv-x="573" d="M383 246q-88 -25 -125 -25q-100 0 -153.5 55.5t-53.5 160t61.5 163.5t163.5 59q242 0 242 -342q0 -174 -60.5 -255.5t-193.5 -81.5q-74 0 -160 18l-28 6l8 109q92 -14 168 -15q127 1 131 148zM207.5 358.5q25.5 -30.5 67.5 -30.5t112 28q-2 186 -106 187q-98 0 -99 -107 q0 -47 25.5 -77.5z" />
<glyph horiz-adv-x="897" d="M139 553v143h621v-143h-621z" />
</font>
</defs>
</svg>
